<svg version="1.1" viewBox="0 0 16 16" xmlns="http://www.w3.org/2000/svg" xmlns:osb="http://www.openswatchbook.org/uri/2009/osb">
 <path d="m16 3.2-1.1276-1.408c-0.46476-0.43378-1.1733-0.54044-1.76-0.26667l-0.54095 0.25245-1.9048-1.7778h-5.3333l-1.9048 1.7778-0.54095-0.25244c-0.58667-0.27378-1.2952-0.16711-1.76 0.26667l-1.1276 1.408 0.7619 1.0667-0.7619 1.4222 2.1981 6.2116c0.30095 0.81067 0.90667 1.4898 1.7029 1.9129l4.099 2.1867 4.099-2.1867c0.79619-0.42311 1.4019-1.1022 1.7029-1.9129l2.1981-6.2116-0.7619-1.4222zm-8 10.311-2.2857-2.1333s1.9048-1.0667 2.2857-1.0667c0.38095 0 2.2857 1.0667 2.2857 1.0667zm5.2114-7.552-1.7829 2.2187 0.21714 0.30222c0.15619 0.21689 0.23238 0.46933 0.23238 0.71822 0 0.27733-0.0914 0.55111-0.2781 0.77867-0.1981 0.24889-0.49143 0.448-0.77714 0.56533-0.19428 0.0818-0.38476 0.12444-0.53714 0.12444-0.34286 0-0.99695-0.57636-1.9048-1.1844v-0.39182l1.72-0.9632c0.14057-0.0786 0.21143-0.23253 0.176-0.38187l-0.55581-2.3346c0.0663-0.14435 0.16914-0.26453 0.3219-0.34276l2.1474-0.80142-1.1429-0.35556h-0.76191l-0.0053 0.00498c-0.0381 7.11e-4 -0.077 0.00142-0.11543 0.0135l-1.1429 0.35556c-0.18514 0.0576-0.29371 0.2368-0.25143 0.41458l0.70245 2.9497-1.4731 0.82489-1.4735-0.82524 0.70248-2.9497c0.0423-0.17778-0.0663-0.35662-0.25143-0.41458l-1.1429-0.35556c-0.0385-0.0121-0.077-0.0128-0.11543-0.0135l-0.00495-0.00462h-0.76191l-1.1429 0.35556 2.1478 0.80107c0.15276 0.0782 0.25562 0.1984 0.3219 0.34276l-0.55581 2.3346c-0.0354 0.14933 0.035 0.30329 0.17562 0.38187l1.72 0.9632v0.40036c-0.93218 0.62009-1.568 1.1762-1.9048 1.1762-0.15238 0-0.34286-0.0427-0.53714-0.12444-0.28572-0.11737-0.57905-0.31648-0.77715-0.56537-0.35429-0.43733-0.37333-1.0382-0.045714-1.4969l0.21714-0.30222-1.7829-2.2187c-0.30095-0.37333-0.30476-0.88178-0.015238-1.2622l1.4171-2.208 1.04 0.19556c0.14476 0.0284 0.29333 0.0391 0.44191 0.0391 0.41143 0 0.82286-0.10311 1.181-0.30222 0.35428-0.19911 0.75047-0.29866 1.1467-0.29866s0.79238 0.0996 1.1467 0.29867c0.48762 0.27022 1.0667 0.36622 1.6229 0.26311l1.04-0.19556 1.4171 2.208c0.28952 0.38044 0.28571 0.88889-0.0152 1.2622z" fill="#808080" stroke-width=".36804"/>
</svg>
