<?xml version="1.0" encoding="UTF-8" standalone="no"?>
<svg
   xmlns:dc="http://purl.org/dc/elements/1.1/"
   xmlns:cc="http://creativecommons.org/ns#"
   xmlns:rdf="http://www.w3.org/1999/02/22-rdf-syntax-ns#"
   xmlns:svg="http://www.w3.org/2000/svg"
   xmlns="http://www.w3.org/2000/svg"
   xmlns:sodipodi="http://sodipodi.sourceforge.net/DTD/sodipodi-0.dtd"
   xmlns:inkscape="http://www.inkscape.org/namespaces/inkscape"
   height="16"
   width="16"
   version="1.1"
   id="svg4"
   sodipodi:docname="filemanager-app-symbolic.svg"
   inkscape:version="1.0.1 (3bc2e813f5, 2020-09-07)">
  <metadata
     id="metadata10">
    <rdf:RDF>
      <cc:Work
         rdf:about="">
        <dc:format>image/svg+xml</dc:format>
        <dc:type
           rdf:resource="http://purl.org/dc/dcmitype/StillImage" />
      </cc:Work>
    </rdf:RDF>
  </metadata>
  <defs
     id="defs8" />
  <sodipodi:namedview
     pagecolor="#ffffff"
     bordercolor="#666666"
     borderopacity="1"
     objecttolerance="10"
     gridtolerance="10"
     guidetolerance="10"
     inkscape:pageopacity="0"
     inkscape:pageshadow="2"
     inkscape:window-width="1478"
     inkscape:window-height="800"
     id="namedview6"
     showgrid="false"
     inkscape:zoom="40.88"
     inkscape:cx="8"
     inkscape:cy="7.7183972"
     inkscape:window-x="58"
     inkscape:window-y="27"
     inkscape:window-maximized="1"
     inkscape:current-layer="svg4" />
  <path
     id="path2"
     style="line-height:normal;font-variant-ligatures:normal;font-variant-position:normal;font-variant-caps:normal;font-variant-numeric:normal;font-variant-alternates:normal;font-feature-settings:normal;text-indent:0;text-align:start;text-decoration:none;text-decoration-line:none;text-decoration-style:solid;text-decoration-color:#000000;text-transform:none;text-orientation:mixed;white-space:normal;shape-padding:0;isolation:auto;mix-blend-mode:normal;solid-color:#000000;solid-opacity:1;fill:#808080;fill-opacity:1;marker:none"
     d="M 5.9941406,0.5 C 4.7361406,0.515 3.8155,0.46976566 3.0625,0.8847656 2.6731474,1.1069147 2.3759864,1.4608757 2.2246094,1.8828125 2.0596094,2.3198125 2,2.843 2,3.5 v 9 c 0,0.658 0.059609,1.179187 0.2246094,1.617188 0.164,0.439 0.4618906,0.789093 0.8378906,0.996093 0.753,0.415 1.6736406,0.371719 2.9316406,0.386719 h 4.0117184 c 1.258,-0.015 2.178641,0.03023 2.931641,-0.384766 0.389353,-0.222149 0.686514,-0.576109 0.837891,-0.998046 C 13.940391,13.679187 14,13.157 14,12.5 v -9 C 14,2.842 13.940391,2.3208125 13.775391,1.8828125 13.624002,1.4613787 13.326783,1.1080417 12.9375,0.8867188 12.1855,0.47171865 11.263859,0.515 10.005859,0.5 H 5.9980469 Z M 6,1.5 h 4 c 1.259,0.015 2.090078,0.059719 2.455078,0.2617188 0.184,0.1 0.286766,0.2136562 0.384766,0.4726562 C 12.936844,2.494375 13,2.908 13,3.5 v 9 c 0,0.592 -0.06316,1.005625 -0.160156,1.265625 -0.098,0.26 -0.201766,0.371656 -0.384766,0.472656 C 12.089078,14.440281 11.258,14.485 10,14.5 H 6 C 4.741,14.485 3.9099219,14.44028 3.5449219,14.238281 c -0.184,-0.1 -0.2867657,-0.213656 -0.3847657,-0.472656 C 3.0621563,13.505625 3,13.092 3,12.5 v -9 C 3,2.908 3.062156,2.494375 3.1601562,2.234375 c 0.098,-0.26 0.2007657,-0.3716562 0.3847657,-0.4726562 C 3.9099219,1.5597188 4.74,1.515 6,1.5 Z m -2,1 v 5 h 8 v -5 z m 3,2 h 2 v 1 H 7 Z m -3,4 v 5 h 8 v -5 z m 3,2 h 2 v 1 H 7 Z"
     sodipodi:nodetypes="cccssccccccsscccccccccsscsccccssscccccccccccccccccccccc" />
</svg>
