<svg version="1.1" viewBox="0 0 16 16" xmlns="http://www.w3.org/2000/svg" xmlns:osb="http://www.openswatchbook.org/uri/2009/osb">
 <g transform="translate(-552 -300)" fill="#808080">
  <path d="m554 301c-0.554 0-1 0.446-1 1v4c0 0.554 0.446 1 1 1h12c0.554 0 1-0.446 1-1v-4c0-0.554-0.446-1-1-1zm7.5 1h4c0.277 0 0.5 0.223 0.5 0.5v3c0 0.277-0.223 0.5-0.5 0.5h-4c-0.277 0-0.5-0.223-0.5-0.5v-3c0-0.277 0.223-0.5 0.5-0.5z"/>
  <path d="m554 309c-0.554 0-1 0.446-1 1v4c0 0.554 0.446 1 1 1h12c0.554 0 1-0.446 1-1v-4c0-0.554-0.446-1-1-1zm0.5 1h4c0.277 0 0.5 0.223 0.5 0.5v3c0 0.277-0.223 0.5-0.5 0.5h-4c-0.277 0-0.5-0.223-0.5-0.5v-3c0-0.277 0.223-0.5 0.5-0.5z"/>
 </g>
</svg>
