<svg version="1.1" viewBox="0 0 16 16" xmlns="http://www.w3.org/2000/svg" xmlns:osb="http://www.openswatchbook.org/uri/2009/osb">
 <path d="m6.8001 0c0.23898 0.045 0.49981 0.26914 0.63017 0.44866l2.1075 3.7701-1.0862 0.67322h3.6065l1.8032-3.2312-1.1082 0.65045-1.1078-2.0196c-0.10859-0.20195-0.32593-0.29152-0.56493-0.29152zm-1.2435 0.22723c-0.55401 0.0197-1.0919 0.23263-1.32 0.64779l-1.6511 2.9848 3.1716 1.9072 2.0206-3.6353-0.80395-1.3911c-0.2933-0.35904-0.86322-0.53302-1.4172-0.51339zm8.5869 4.6201-3.1937 1.8848 2.0206 3.5679h1.7164c0.69524-0.13456 1.7382-1.3016 1.1298-2.5134zm-14.144 0.78525 1.1514 0.69555-0.73866 1.279c-0.65178 1.2567 0.43441 2.6427 1.0862 2.7156h1.6947l1.1514-2.0647 1.1514 0.65089-1.8464-3.2763zm10.363 3.8371-1.8469 3.2763 1.8469 3.254v-1.3688h2.2596c0.26073 0 0.43437-0.15696 0.52127-0.33661l2.0422-3.725c-0.10859 0.0674-0.17373 0.17922-0.58653 0.22409h-4.2366zm-9.3857 1.1446c0.0869 0.11216 0.0651 0.0899 1.977 3.5906 0.13028 0.20198 0.30432 0.4488 0.54331 0.42635h4.0629v-3.8375h-6.0399c-0.32588 0-0.4401-0.0898-0.54329-0.17945z" enable-background="new" fill="#808080"/>
</svg>
