<?xml version="1.0" encoding="UTF-8" standalone="no"?>
<svg
   xmlns:osb="http://www.openswatchbook.org/uri/2009/osb"
   xmlns:dc="http://purl.org/dc/elements/1.1/"
   xmlns:cc="http://creativecommons.org/ns#"
   xmlns:rdf="http://www.w3.org/1999/02/22-rdf-syntax-ns#"
   xmlns:svg="http://www.w3.org/2000/svg"
   xmlns="http://www.w3.org/2000/svg"
   xmlns:sodipodi="http://sodipodi.sourceforge.net/DTD/sodipodi-0.dtd"
   xmlns:inkscape="http://www.inkscape.org/namespaces/inkscape"
   height="16.000032"
   id="svg7384"
   version="1.1"
   width="16.000061"
   sodipodi:docname="brave-browser-symbolic.svg"
   inkscape:version="1.0.1 (3bc2e813f5, 2020-09-07)">
  <sodipodi:namedview
     pagecolor="#ffffff"
     bordercolor="#666666"
     borderopacity="1"
     objecttolerance="10"
     gridtolerance="10"
     guidetolerance="10"
     inkscape:pageopacity="0"
     inkscape:pageshadow="2"
     inkscape:window-width="1536"
     inkscape:window-height="800"
     id="namedview23"
     showgrid="false"
     inkscape:zoom="40.874917"
     inkscape:cx="7.1682246"
     inkscape:cy="7.8592255"
     inkscape:window-x="0"
     inkscape:window-y="27"
     inkscape:window-maximized="1"
     inkscape:current-layer="svg7384"
     inkscape:document-rotation="0" />
  <metadata
     id="metadata20854">
    <rdf:RDF>
      <cc:Work
         rdf:about="">
        <dc:title />
        <dc:format>image/svg+xml</dc:format>
        <dc:type
           rdf:resource="http://purl.org/dc/dcmitype/StillImage" />
      </cc:Work>
    </rdf:RDF>
  </metadata>
  <defs
     id="defs7386">
    <linearGradient
       id="linearGradient5606"
       osb:paint="solid">
      <stop
         id="stop5608"
         offset="0"
         style="stop-color:#000000;stop-opacity:1;" />
    </linearGradient>
    <linearGradient
       id="linearGradient4526"
       osb:paint="solid">
      <stop
         id="stop4528"
         offset="0"
         style="stop-color:#ffffff;stop-opacity:1;" />
    </linearGradient>
    <linearGradient
       id="linearGradient3600-4"
       osb:paint="gradient">
      <stop
         id="stop3602-7"
         offset="0"
         style="stop-color:#f4f4f4;stop-opacity:1" />
      <stop
         id="stop3604-6"
         offset="1"
         style="stop-color:#dbdbdb;stop-opacity:1" />
    </linearGradient>
  </defs>
  <g
     id="layer9"
     label="status"
     style="display:inline"
     transform="translate(-713.00024,127.00003)" />
  <g
     id="layer2"
     style="display:inline"
     transform="translate(-472.00004,-239.99997)" />
  <g
     id="layer4"
     style="display:inline"
     transform="translate(-472.00004,-239.99997)" />
  <g
     id="g1812"
     style="display:inline"
     transform="translate(-472.00004,-239.99997)" />
  <g
     id="g6217"
     style="display:inline"
     transform="translate(-472.00004,-239.99997)" />
  <g
     id="layer3"
     style="display:inline"
     transform="translate(-472.00004,-239.99997)" />
  <g
     id="layer1"
     style="display:inline"
     transform="translate(-472.00004,-239.99997)" />
  <path
     d="M 16,3.2 14.872381,1.792 c -0.46476,-0.43378 -1.173333,-0.54044 -1.76,-0.26667 L 12.571429,1.777778 10.666667,0 H 5.333333 L 3.428571,1.777778 2.887619,1.525333 C 2.300952,1.251556 1.592381,1.358222 1.127619,1.792 L 0,3.2 0.761905,4.266667 0,5.688889 2.198095,11.900444 c 0.30095,0.81067 0.90667,1.489778 1.702857,1.912889 L 8,16 12.099048,13.813333 c 0.79619,-0.423111 1.401904,-1.102222 1.702857,-1.912889 L 16,5.688889 15.238095,4.266667 Z M 8,13.511111 5.714286,11.377778 c 0,0 1.904762,-1.066667 2.285714,-1.066667 0.38095,0 2.285714,1.066667 2.285714,1.066667 z m 5.211429,-7.552 -1.782858,2.218667 0.21714,0.302222 c 0.15619,0.21689 0.23238,0.46933 0.23238,0.71822 0,0.27733 -0.0914,0.55111 -0.2781,0.77867 -0.1981,0.24889 -0.49143,0.448 -0.77714,0.56533 -0.19428,0.0818 -0.38476,0.12444 -0.53714,0.12444 -0.34286,0 -0.99695,-0.57636 -1.904762,-1.184356 v -0.39182 l 1.72,-0.9632 c 0.14057,-0.0786 0.21143,-0.23253 0.176,-0.38187 l -0.55581,-2.33457 c 0.0663,-0.14435 0.16914,-0.26453 0.3219,-0.34276 L 12.190476,4.266667 11.047619,3.911111 h -0.76191 l -0.0053,0.00498 c -0.0381,7.11e-4 -0.077,0.00142 -0.11543,0.0135 l -1.142857,0.35556 c -0.18514,0.0576 -0.29371,0.2368 -0.25143,0.41458 L 9.473143,7.649422 8,8.474311 6.526476,7.649067 7.228952,4.699378 C 7.271252,4.5216 7.162652,4.342756 6.977522,4.2848 L 5.834665,3.929244 c -0.0385,-0.0121 -0.077,-0.0128 -0.11543,-0.0135 l -0.00495,-0.00462 h -0.76191 l -1.142857,0.35556 2.147809,0.80107 c 0.15276,0.0782 0.25562,0.1984 0.3219,0.34276 L 5.723418,7.74509 c -0.0354,0.14933 0.035,0.30329 0.17562,0.38187 l 1.72,0.9632 v 0.40036 c -0.93218,0.62009 -1.56799,1.176178 -1.904752,1.176178 -0.15238,0 -0.34286,-0.0427 -0.53714,-0.12444 C 4.891429,10.424889 4.598095,10.225778 4.4,9.976889 4.045714,9.539556 4.026667,8.938667 4.354286,8.48 L 4.571429,8.177778 2.788571,5.959111 C 2.487619,5.585778 2.48381,5.077333 2.773333,4.696889 l 1.417143,-2.208 1.04,0.19556 c 0.14476,0.0284 0.29333,0.0391 0.44191,0.0391 0.41143,0 0.82286,-0.10311 1.180952,-0.30222 C 7.207619,2.222222 7.60381,2.122667 8,2.122667 c 0.39619,0 0.79238,0.0996 1.146667,0.29867 0.48762,0.27022 1.066666,0.36622 1.622857,0.26311 l 1.04,-0.19556 1.417143,2.208 c 0.28952,0.38044 0.28571,0.88889 -0.0152,1.262222 z"
     id="path2"
     style="stroke-width:0.368035;fill:#808080;fill-opacity:1" />
</svg>
