<svg version="1.1" viewBox="0 0 16 16" xmlns="http://www.w3.org/2000/svg" xmlns:osb="http://www.openswatchbook.org/uri/2009/osb">
 <path d="m5.9941 1c-1.2582 0.014534-2.1789-0.030561-2.9316 0.38477-0.37637 0.20766-0.67323 0.55938-0.83789 0.99805-0.16466 0.43867-0.22461 0.95958-0.22461 1.6172v9c0 0.65761 0.059927 1.1786 0.22461 1.6172 0.16468 0.43861 0.46153 0.78853 0.83789 0.99609 0.75272 0.41514 1.6735 0.37165 2.9316 0.38672h0.0019532 4.0059 0.003906c1.2582-0.01454 2.1789 0.03056 2.9316-0.38477 0.37637-0.20766 0.67322-0.55938 0.83789-0.99805 0.16467-0.43867 0.22461-0.95958 0.22461-1.6172v-9c0-0.65761-0.059926-1.1786-0.22461-1.6172-0.16468-0.43861-0.46153-0.78853-0.83789-0.99609-0.75272-0.41513-1.6735-0.37165-2.9316-0.38672h-0.001953-4.0059-0.0039063zm0.0058594 1h4c1.2586 0.015235 2.0891 0.059878 2.4551 0.26172 0.18342 0.10116 0.28722 0.21286 0.38477 0.47266s0.16016 0.67323 0.16016 1.2656v9c0 0.59239-0.06259 1.0057-0.16016 1.2656-0.09756 0.25991-0.20136 0.37146-0.38477 0.47266-0.36596 0.20192-1.1966 0.24701-2.4551 0.26172h-3.9941-0.0058594c-1.2586-0.015235-2.0891-0.059878-2.4551-0.26172-0.18342-0.10116-0.28722-0.21286-0.38477-0.47266-0.097546-0.2598-0.16016-0.67323-0.16016-1.2656v-9c0-0.59239 0.062593-1.0057 0.16016-1.2656 0.097564-0.25991 0.20136-0.37146 0.38477-0.47266 0.36595-0.20191 1.1965-0.24702 2.4551-0.26172zm-2 1v3h8v-3h-8zm3 1h2v1h-2v-1zm-3 3v3h8v-3h-8zm3 1h2v1h-2v-1zm-3 3v3h8v-3h-8zm3 1h2v1h-2v-1z" color="#000000" color-rendering="auto" dominant-baseline="auto" fill="#808080" image-rendering="auto" shape-rendering="auto" solid-color="#000000" style="font-feature-settings:normal;font-variant-alternates:normal;font-variant-caps:normal;font-variant-ligatures:normal;font-variant-numeric:normal;font-variant-position:normal;isolation:auto;mix-blend-mode:normal;shape-padding:0;text-decoration-color:#000000;text-decoration-line:none;text-decoration-style:solid;text-indent:0;text-orientation:mixed;text-transform:none;white-space:normal"/>
</svg>
