<?xml version="1.0" encoding="UTF-8" standalone="no"?>
<svg
   xmlns:osb="http://www.openswatchbook.org/uri/2009/osb"
   xmlns:dc="http://purl.org/dc/elements/1.1/"
   xmlns:cc="http://creativecommons.org/ns#"
   xmlns:rdf="http://www.w3.org/1999/02/22-rdf-syntax-ns#"
   xmlns:svg="http://www.w3.org/2000/svg"
   xmlns="http://www.w3.org/2000/svg"
   xmlns:sodipodi="http://sodipodi.sourceforge.net/DTD/sodipodi-0.dtd"
   xmlns:inkscape="http://www.inkscape.org/namespaces/inkscape"
   height="16"
   id="svg7384"
   style="enable-background:new"
   version="1.1"
   width="16"
   sodipodi:docname="address-book-new-symbolic.svg"
   inkscape:version="1.0.1 (3bc2e813f5, 2020-09-07)">
  <sodipodi:namedview
     pagecolor="#ffffff"
     bordercolor="#666666"
     borderopacity="1"
     objecttolerance="10"
     gridtolerance="10"
     guidetolerance="10"
     inkscape:pageopacity="0"
     inkscape:pageshadow="2"
     inkscape:window-width="1836"
     inkscape:window-height="1016"
     id="namedview22"
     showgrid="false"
     inkscape:zoom="53.875"
     inkscape:cx="8"
     inkscape:cy="8"
     inkscape:window-x="84"
     inkscape:window-y="27"
     inkscape:window-maximized="1"
     inkscape:current-layer="svg7384" />
  <metadata
     id="metadata90">
    <rdf:RDF>
      <cc:Work
         rdf:about="">
        <dc:format>image/svg+xml</dc:format>
        <dc:type
           rdf:resource="http://purl.org/dc/dcmitype/StillImage" />
        <dc:title>Pop Symbolic Icon Theme</dc:title>
        <cc:license
           rdf:resource="http://creativecommons.org/licenses/by-sa/4.0/" />
      </cc:Work>
      <cc:License
         rdf:about="http://creativecommons.org/licenses/by-sa/4.0/">
        <cc:permits
           rdf:resource="http://creativecommons.org/ns#Reproduction" />
        <cc:permits
           rdf:resource="http://creativecommons.org/ns#Distribution" />
        <cc:requires
           rdf:resource="http://creativecommons.org/ns#Notice" />
        <cc:requires
           rdf:resource="http://creativecommons.org/ns#Attribution" />
        <cc:permits
           rdf:resource="http://creativecommons.org/ns#DerivativeWorks" />
        <cc:requires
           rdf:resource="http://creativecommons.org/ns#ShareAlike" />
      </cc:License>
    </rdf:RDF>
  </metadata>
  <title
     id="title8473">Pop Symbolic Icon Theme</title>
  <defs
     id="defs7386">
    <linearGradient
       id="linearGradient6882"
       osb:paint="solid">
      <stop
         id="stop6884"
         offset="0"
         style="stop-color:#555555;stop-opacity:1;" />
    </linearGradient>
    <linearGradient
       id="linearGradient5606"
       osb:paint="solid">
      <stop
         id="stop5608"
         offset="0"
         style="stop-color:#000000;stop-opacity:1;" />
    </linearGradient>
    <filter
       id="filter7554"
       style="color-interpolation-filters:sRGB">
      <feBlend
         id="feBlend7556"
         in2="BackgroundImage"
         mode="darken" />
    </filter>
  </defs>
  <g
     id="layer9"
     style="display:inline"
     transform="translate(-445.00018,75.010071)" />
  <g
     id="layer10"
     style="display:inline;filter:url(#filter7554)"
     transform="translate(-445.00018,75.010071)" />
  <g
     id="layer1"
     style="display:inline"
     transform="translate(-203.99998,-541.98993)" />
  <g
     id="layer14"
     style="display:inline"
     transform="translate(-445.00018,75.010071)" />
  <g
     id="layer15"
     style="display:inline"
     transform="translate(-445.00018,75.010071)" />
  <g
     id="g71291"
     style="display:inline"
     transform="translate(-445.00018,75.010071)" />
  <g
     id="layer2"
     style="display:inline"
     transform="translate(-203.99998,-391.98993)" />
  <g
     id="layer3"
     transform="translate(-203.99998,-651.98993)" />
  <g
     transform="translate(-512,-220)"
     fill="#808080"
     id="g8">
    <path
       d="m 516.994,220 c -1.258,0.015 -2.179,-0.03 -2.932,0.385 a 1.88,1.88 0 0 0 -0.837,0.998 C 513.06,221.821 513,222.343 513,223 v 10 c 0,0.658 0.06,1.179 0.225,1.617 0.164,0.439 0.461,0.789 0.837,0.996 0.753,0.415 1.674,0.372 2.932,0.387 h 5.012 c 1.258,-0.015 2.179,0.03 2.932,-0.385 a 1.88,1.88 0 0 0 0.838,-0.998 C 525.94,234.179 526,233.657 526,233 v -10 c 0,-0.658 -0.06,-1.179 -0.225,-1.617 a 1.875,1.875 0 0 0 -0.837,-0.996 c -0.753,-0.415 -1.674,-0.372 -2.932,-0.387 h -5.008 z m 0.006,1 h 5 c 1.259,0.015 2.09,0.06 2.455,0.262 0.184,0.1 0.287,0.213 0.385,0.472 0.097,0.26 0.16,0.674 0.16,1.266 v 10 c 0,0.592 -0.063,1.006 -0.16,1.266 -0.098,0.26 -0.202,0.371 -0.385,0.472 -0.366,0.202 -1.196,0.247 -2.455,0.262 h -5 c -1.259,-0.015 -2.09,-0.06 -2.455,-0.262 -0.183,-0.1 -0.287,-0.213 -0.385,-0.472 C 514.063,234.006 514,233.592 514,233 v -10 c 0,-0.592 0.063,-1.006 0.16,-1.266 0.098,-0.26 0.203,-0.371 0.387,-0.472 0.366,-0.202 1.194,-0.247 2.453,-0.262 z"
       style="line-height:normal;font-variant-ligatures:normal;font-variant-position:normal;font-variant-caps:normal;font-variant-numeric:normal;font-variant-alternates:normal;font-feature-settings:normal;text-indent:0;text-align:start;text-decoration:none;text-decoration-line:none;text-decoration-style:solid;text-decoration-color:#000000;text-transform:none;text-orientation:mixed;white-space:normal;shape-padding:0;isolation:auto;mix-blend-mode:normal;solid-color:#000000;solid-opacity:1;marker:none"
       color="#000000"
       font-weight="400"
       font-family="sans-serif"
       overflow="visible"
       id="path2" />
    <path
       d="m 519,224 c -0.283,0 -0.551,0.055 -0.799,0.166 a 1.85,1.85 0 0 0 -0.646,0.461 v 0.002 l -0.002,0.002 a 2.157,2.157 0 0 0 -0.408,0.719 2.683,2.683 0 0 0 -0.145,0.9 c 0,0.327 0.047,0.632 0.145,0.908 0.096,0.271 0.231,0.51 0.408,0.711 l 0.002,0.002 c 0.18,0.2 0.398,0.358 0.642,0.469 l 0.002,0.002 h 0.002 c 0.247,0.106 0.517,0.158 0.8,0.158 0.281,0 0.549,-0.052 0.796,-0.158 v -0.002 c 0.245,-0.11 0.458,-0.268 0.635,-0.469 0.181,-0.201 0.321,-0.44 0.418,-0.713 a 2.7,2.7 0 0 0 0.144,-0.908 H 521 c 0,-0.322 -0.047,-0.623 -0.144,-0.898 a 2.102,2.102 0 0 0 -0.418,-0.723 1.779,1.779 0 0 0 -0.639,-0.463 A 1.95,1.95 0 0 0 519,224 Z m 0,1 c 0.552,0 1,0.56 1,1.25 0,0.69 -0.448,1.25 -1,1.25 -0.552,0 -1,-0.56 -1,-1.25 0,-0.69 0.448,-1.25 1,-1.25 z m 0,4 v 0.002 c -2.998,0.008 -3,1.998 -3,1.998 v 0.998 l 3,0.002 c 1.25,0 2.5,-0.003 3,-0.004 v -0.998 c 0,0 -0.002,-1.99 -3,-1.998 z m 0,1.002 c 1.997,0.004 1.893,0.99 1.893,0.99 0,0.002 0,0.006 0.002,0.008 h -3.789 c 0,-0.002 0,-0.004 0.002,-0.006 0,0 -0.105,-0.986 1.892,-0.99 z"
       style="line-height:125%;-inkscape-font-specification:'Ubuntu, Normal';font-variant-ligatures:normal;font-variant-position:normal;font-variant-caps:normal;font-variant-numeric:normal;font-variant-alternates:normal;font-feature-settings:normal;text-indent:0;text-align:start;text-decoration:none;text-decoration-line:none;text-decoration-style:solid;text-decoration-color:#000000;text-transform:none;text-orientation:mixed;white-space:normal;shape-padding:0;isolation:auto;mix-blend-mode:normal;solid-color:#000000;solid-opacity:1"
       color="#000000"
       font-weight="400"
       font-family="Ubuntu"
       letter-spacing="0"
       word-spacing="0"
       overflow="visible"
       id="path4" />
    <rect
       height="14"
       width="1"
       x="523"
       y="221"
       id="rect6" />
  </g>
</svg>
