<?xml version="1.0" encoding="UTF-8" standalone="no"?>
<svg
   xmlns:osb="http://www.openswatchbook.org/uri/2009/osb"
   xmlns:dc="http://purl.org/dc/elements/1.1/"
   xmlns:cc="http://creativecommons.org/ns#"
   xmlns:rdf="http://www.w3.org/1999/02/22-rdf-syntax-ns#"
   xmlns:svg="http://www.w3.org/2000/svg"
   xmlns="http://www.w3.org/2000/svg"
   xmlns:sodipodi="http://sodipodi.sourceforge.net/DTD/sodipodi-0.dtd"
   xmlns:inkscape="http://www.inkscape.org/namespaces/inkscape"
   height="16"
   id="svg7384"
   style="enable-background:new"
   version="1.1"
   width="16"
   sodipodi:docname="calendar-go-today-symbolic.svg"
   inkscape:version="1.0.1 (3bc2e813f5, 2020-09-07)">
  <sodipodi:namedview
     pagecolor="#ffffff"
     bordercolor="#666666"
     borderopacity="1"
     objecttolerance="10"
     gridtolerance="10"
     guidetolerance="10"
     inkscape:pageopacity="0"
     inkscape:pageshadow="2"
     inkscape:window-width="1836"
     inkscape:window-height="1016"
     id="namedview23"
     showgrid="false"
     inkscape:zoom="53.88"
     inkscape:cx="6.9888435"
     inkscape:cy="8.0665181"
     inkscape:window-x="84"
     inkscape:window-y="27"
     inkscape:window-maximized="1"
     inkscape:current-layer="svg7384"
     inkscape:document-rotation="0" />
  <metadata
     id="metadata90">
    <rdf:RDF>
      <cc:Work
         rdf:about="">
        <dc:format>image/svg+xml</dc:format>
        <dc:type
           rdf:resource="http://purl.org/dc/dcmitype/StillImage" />
        <dc:title>Pop Symbolic Icon Theme</dc:title>
        <cc:license
           rdf:resource="http://creativecommons.org/licenses/by-sa/4.0/" />
      </cc:Work>
      <cc:License
         rdf:about="http://creativecommons.org/licenses/by-sa/4.0/">
        <cc:permits
           rdf:resource="http://creativecommons.org/ns#Reproduction" />
        <cc:permits
           rdf:resource="http://creativecommons.org/ns#Distribution" />
        <cc:requires
           rdf:resource="http://creativecommons.org/ns#Notice" />
        <cc:requires
           rdf:resource="http://creativecommons.org/ns#Attribution" />
        <cc:permits
           rdf:resource="http://creativecommons.org/ns#DerivativeWorks" />
        <cc:requires
           rdf:resource="http://creativecommons.org/ns#ShareAlike" />
      </cc:License>
    </rdf:RDF>
  </metadata>
  <title
     id="title8473">Pop Symbolic Icon Theme</title>
  <defs
     id="defs7386">
    <linearGradient
       id="linearGradient6882"
       osb:paint="solid">
      <stop
         id="stop6884"
         offset="0"
         style="stop-color:#555555;stop-opacity:1;" />
    </linearGradient>
    <linearGradient
       id="linearGradient5606"
       osb:paint="solid">
      <stop
         id="stop5608"
         offset="0"
         style="stop-color:#000000;stop-opacity:1;" />
    </linearGradient>
    <filter
       id="filter7554"
       style="color-interpolation-filters:sRGB">
      <feBlend
         id="feBlend7556"
         in2="BackgroundImage"
         mode="darken" />
    </filter>
  </defs>
  <g
     id="layer9"
     style="display:inline"
     transform="translate(-505.00018,75)" />
  <g
     id="layer10"
     style="display:inline;filter:url(#filter7554)"
     transform="translate(-505.00018,75)" />
  <g
     id="layer1"
     style="display:inline"
     transform="translate(-263.99998,-542)" />
  <g
     id="layer14"
     style="display:inline"
     transform="translate(-505.00018,75)" />
  <g
     id="layer15"
     style="display:inline"
     transform="translate(-505.00018,75)" />
  <g
     id="g71291"
     style="display:inline"
     transform="translate(-505.00018,75)" />
  <g
     id="layer2"
     style="display:inline"
     transform="translate(-263.99998,-392)" />
  <g
     id="layer3"
     transform="translate(-263.99998,-652)" />
  <g
     id="g865">
    <path
       id="path2"
       style="line-height:normal;text-indent:0;text-align:start;text-decoration:none;text-decoration-line:none;text-decoration-style:solid;text-decoration-color:#000000;text-transform:none;white-space:normal;isolation:auto;mix-blend-mode:normal;solid-color:#000000;solid-opacity:1;fill:#808080;fill-opacity:1;marker:none"
       d="M 5,0 V 1 H 6 V 0 Z M 6,1 V 2 H 5 V 1 H 4.99414 C 3.7361424,1.015 2.8155,0.969766 2.0625,1.3847656 1.6865,1.5917656 1.3876564,1.9448125 1.2226562,2.3828125 1.0586563,2.8198125 1,3.343 1,4 v 3.4060002 c 0.04704,6.83e-4 0.093998,4.2e-4 0.140625,0 0.1890878,-0.0017 0.061618,8.5e-4 0.2675781,0 0.1289455,-4.11e-4 0.2577737,4.38e-4 0.3867188,0 0.014502,-2.04e-4 0.028465,-9e-6 0.042969,0 0.026031,-2e-6 0.052094,-4e-6 0.078125,0 0.038811,-0.001 0.058981,-0.01253 0.083984,0 V 7 C 2,6.408 2.0621559,5.994375 2.1601562,5.734375 2.2571562,5.474375 2.362875,5.3627187 2.546875,5.2617188 2.912875,5.0587187 3.7418594,5.015 5.0058594,5 H 11 c 1.26,0.015 2.087125,0.059719 2.453125,0.2617188 0.183,0.1 0.289719,0.2126562 0.386719,0.4726562 C 13.936844,5.994375 14,7 14,7 v 5 c 0,0.592 -0.06316,1.005625 -0.160156,1.265625 -0.098,0.26 -0.203719,0.371656 -0.386719,0.472656 C 13.087125,13.940281 12.259,13.985 11,14 H 5 C 3.74,13.985 2.912875,13.94028 2.546875,13.738281 c -0.184,-0.1 -0.2897188,-0.212656 -0.3867188,-0.472656 C 2.0621562,13.005625 2,12.592 2,12 V 10.346 H 1.99805 c -0.015857,1.06e-4 -0.031007,-2e-5 -0.046875,0 -0.00674,0.0029 -0.016643,-4.9e-4 -0.025391,0 -0.075161,0.0041 -0.1205717,3e-5 -0.1992187,0 -0.066953,-0.0019 -0.1342707,0.003 -0.2011747,0 -0.1175078,-0.0053 -0.2358574,0.0028 -0.3535156,0 C 1.114332,10.3435 1.057577,10.3444 1,10.346 V 12 c 0,0.658 0.057656,1.179187 0.2226562,1.617188 0.164,0.439 0.4628438,0.789093 0.8398438,0.996093 C 2.8145,15.029281 3.7361406,14.985 4.9941406,15 h 6.0117184 c 1.258,-0.014 2.178641,0.02928 2.931641,-0.386719 0.376,-0.207 0.673891,-0.557094 0.837891,-0.996093 C 14.940391,13.179187 15,12.627 15,12 V 4 C 15,3.342 14.94039,2.8208125 14.775391,2.3828125 14.624014,1.9608756 14.326853,1.6069146 13.9375,1.3847656 13.1855,0.9687657 12.263859,1.015 11.005859,1 h -0.0059 V 2 H 10 V 1 Z m 4,0 h 1 V 0 H 10 Z M 2,7.4060002 c -0.00446,0.0024 -0.015934,9.7e-4 -0.011719,0 0.00396,-9.14e-4 0.00779,0.0012 0.011719,0 z"
       sodipodi:nodetypes="ccccccccccccscccccccscccccscscsccccscccccsccsccccccssccccccccccccccccc" />
    <path
       id="path2-3"
       style="line-height:normal;font-variant-ligatures:normal;font-variant-position:normal;font-variant-caps:normal;font-variant-numeric:normal;font-variant-alternates:normal;font-feature-settings:normal;text-indent:0;text-align:start;text-decoration:none;text-decoration-line:none;text-decoration-style:solid;text-decoration-color:#000000;text-transform:none;text-orientation:mixed;white-space:normal;shape-padding:0;isolation:auto;mix-blend-mode:normal;solid-color:#000000;solid-opacity:1;fill:#808080;fill-opacity:1;enable-background:new"
       d="m 6.0312837,6.3028999 0.00195,1.4999997 H 2.0351898 l -0.00195,2 h 4 V 11.3029 c 0.76,-0.348 1.5342656,-0.736016 2.3222656,-1.166016 0.781,-0.4300004 1.4527344,-0.8759844 2.1777346,-1.3339844 -0.7250002,-0.45 -1.3967346,-0.890311 -2.1777346,-1.320313 A 43.07,43.07 0 0 0 6.0312837,6.3028999 Z" />
  </g>
</svg>
