<?xml version="1.0" encoding="UTF-8" standalone="no"?>
<svg
   xmlns:osb="http://www.openswatchbook.org/uri/2009/osb"
   xmlns:dc="http://purl.org/dc/elements/1.1/"
   xmlns:cc="http://creativecommons.org/ns#"
   xmlns:rdf="http://www.w3.org/1999/02/22-rdf-syntax-ns#"
   xmlns:svg="http://www.w3.org/2000/svg"
   xmlns="http://www.w3.org/2000/svg"
   xmlns:sodipodi="http://sodipodi.sourceforge.net/DTD/sodipodi-0.dtd"
   xmlns:inkscape="http://www.inkscape.org/namespaces/inkscape"
   height="16"
   id="svg7384"
   style="enable-background:new"
   version="1.1"
   width="16"
   sodipodi:docname="help-info-symbolic.svg"
   inkscape:version="1.0.1 (3bc2e813f5, 2020-09-07)">
  <sodipodi:namedview
     pagecolor="#ffffff"
     bordercolor="#666666"
     borderopacity="1"
     objecttolerance="10"
     gridtolerance="10"
     guidetolerance="10"
     inkscape:pageopacity="0"
     inkscape:pageshadow="2"
     inkscape:window-width="1836"
     inkscape:window-height="1016"
     id="namedview22"
     showgrid="false"
     inkscape:zoom="53.875"
     inkscape:cx="8"
     inkscape:cy="8"
     inkscape:window-x="84"
     inkscape:window-y="27"
     inkscape:window-maximized="1"
     inkscape:current-layer="svg7384" />
  <metadata
     id="metadata90">
    <rdf:RDF>
      <cc:Work
         rdf:about="">
        <dc:format>image/svg+xml</dc:format>
        <dc:type
           rdf:resource="http://purl.org/dc/dcmitype/StillImage" />
        <dc:title>Pop Symbolic Icon Theme</dc:title>
        <cc:license
           rdf:resource="http://creativecommons.org/licenses/by-sa/4.0/" />
      </cc:Work>
      <cc:License
         rdf:about="http://creativecommons.org/licenses/by-sa/4.0/">
        <cc:permits
           rdf:resource="http://creativecommons.org/ns#Reproduction" />
        <cc:permits
           rdf:resource="http://creativecommons.org/ns#Distribution" />
        <cc:requires
           rdf:resource="http://creativecommons.org/ns#Notice" />
        <cc:requires
           rdf:resource="http://creativecommons.org/ns#Attribution" />
        <cc:permits
           rdf:resource="http://creativecommons.org/ns#DerivativeWorks" />
        <cc:requires
           rdf:resource="http://creativecommons.org/ns#ShareAlike" />
      </cc:License>
    </rdf:RDF>
  </metadata>
  <title
     id="title8473">Pop Symbolic Icon Theme</title>
  <defs
     id="defs7386">
    <linearGradient
       id="linearGradient6882"
       osb:paint="solid">
      <stop
         id="stop6884"
         offset="0"
         style="stop-color:#555555;stop-opacity:1;" />
    </linearGradient>
    <linearGradient
       id="linearGradient5606"
       osb:paint="solid">
      <stop
         id="stop5608"
         offset="0"
         style="stop-color:#000000;stop-opacity:1;" />
    </linearGradient>
    <filter
       id="filter7554"
       style="color-interpolation-filters:sRGB">
      <feBlend
         id="feBlend7556"
         in2="BackgroundImage"
         mode="darken" />
    </filter>
  </defs>
  <g
     id="layer9"
     style="display:inline"
     transform="translate(-825.0006,-24.99328)" />
  <g
     id="layer10"
     style="display:inline;filter:url(#filter7554)"
     transform="translate(-825.0006,-24.99328)" />
  <g
     id="layer1"
     style="display:inline"
     transform="translate(-584.0004,-641.99328)" />
  <g
     id="layer14"
     style="display:inline"
     transform="translate(-825.0006,-24.99328)" />
  <g
     id="layer15"
     style="display:inline"
     transform="translate(-825.0006,-24.99328)" />
  <g
     id="g71291"
     style="display:inline"
     transform="translate(-825.0006,-24.99328)" />
  <g
     id="layer2"
     style="display:inline"
     transform="translate(-584.0004,-491.99328)" />
  <g
     id="layer3"
     transform="translate(-584.0004,-751.99328)" />
  <g
     transform="translate(-512,-180)"
     id="g6">
    <path
       d="m 520,196 a 8,8 0 0 1 -8,-8 8,8 0 0 1 8,-8 8,8 0 0 1 8,8 8,8 0 0 1 -8,8 z m 0,-1 a 7,7 0 0 0 7,-7 7,7 0 0 0 -7,-7 7,7 0 0 0 -7,7 7,7 0 0 0 7,7 z"
       fill="#808080"
       id="path2" />
    <path
       d="m 520,183.75 c -0.386,0 -0.69,0.124 -0.914,0.373 A 1.269,1.269 0 0 0 518.75,185 c 0,0.336 0.112,0.628 0.336,0.877 0.224,0.249 0.528,0.373 0.914,0.373 0.386,0 0.69,-0.124 0.914,-0.373 0.224,-0.249 0.336,-0.541 0.336,-0.877 0,-0.336 -0.112,-0.628 -0.336,-0.877 -0.224,-0.249 -0.528,-0.373 -0.914,-0.373 z m -1,3.25 v 5 h 2 v -5 z"
       fill="#808080"
       font-family="Ubuntu"
       font-weight="400"
       letter-spacing="0"
       style="line-height:1000%;-inkscape-font-specification:Ubuntu"
       word-spacing="0"
       id="path4" />
  </g>
</svg>
