<?xml version="1.0" encoding="UTF-8" standalone="no"?>
<svg
   xmlns:osb="http://www.openswatchbook.org/uri/2009/osb"
   xmlns:dc="http://purl.org/dc/elements/1.1/"
   xmlns:cc="http://creativecommons.org/ns#"
   xmlns:rdf="http://www.w3.org/1999/02/22-rdf-syntax-ns#"
   xmlns:svg="http://www.w3.org/2000/svg"
   xmlns="http://www.w3.org/2000/svg"
   xmlns:sodipodi="http://sodipodi.sourceforge.net/DTD/sodipodi-0.dtd"
   xmlns:inkscape="http://www.inkscape.org/namespaces/inkscape"
   height="16"
   id="svg7384"
   style="enable-background:new"
   version="1.1"
   width="16.000196"
   sodipodi:docname="image-red-eye-symbolic.svg"
   inkscape:version="1.0.1 (3bc2e813f5, 2020-09-07)">
  <sodipodi:namedview
     pagecolor="#ffffff"
     bordercolor="#666666"
     borderopacity="1"
     objecttolerance="10"
     gridtolerance="10"
     guidetolerance="10"
     inkscape:pageopacity="0"
     inkscape:pageshadow="2"
     inkscape:window-width="1836"
     inkscape:window-height="1016"
     id="namedview22"
     showgrid="false"
     inkscape:zoom="53.875"
     inkscape:cx="8.0000982"
     inkscape:cy="8"
     inkscape:window-x="84"
     inkscape:window-y="27"
     inkscape:window-maximized="1"
     inkscape:current-layer="svg7384" />
  <metadata
     id="metadata90">
    <rdf:RDF>
      <cc:Work
         rdf:about="">
        <dc:format>image/svg+xml</dc:format>
        <dc:type
           rdf:resource="http://purl.org/dc/dcmitype/StillImage" />
        <dc:title>Pop Symbolic Icon Theme</dc:title>
        <cc:license
           rdf:resource="http://creativecommons.org/licenses/by-sa/4.0/" />
      </cc:Work>
      <cc:License
         rdf:about="http://creativecommons.org/licenses/by-sa/4.0/">
        <cc:permits
           rdf:resource="http://creativecommons.org/ns#Reproduction" />
        <cc:permits
           rdf:resource="http://creativecommons.org/ns#Distribution" />
        <cc:requires
           rdf:resource="http://creativecommons.org/ns#Notice" />
        <cc:requires
           rdf:resource="http://creativecommons.org/ns#Attribution" />
        <cc:permits
           rdf:resource="http://creativecommons.org/ns#DerivativeWorks" />
        <cc:requires
           rdf:resource="http://creativecommons.org/ns#ShareAlike" />
      </cc:License>
    </rdf:RDF>
  </metadata>
  <title
     id="title8473">Pop Symbolic Icon Theme</title>
  <defs
     id="defs7386">
    <linearGradient
       id="linearGradient6882"
       osb:paint="solid">
      <stop
         id="stop6884"
         offset="0"
         style="stop-color:#555555;stop-opacity:1;" />
    </linearGradient>
    <linearGradient
       id="linearGradient5606"
       osb:paint="solid">
      <stop
         id="stop5608"
         offset="0"
         style="stop-color:#000000;stop-opacity:1;" />
    </linearGradient>
    <filter
       id="filter7554"
       style="color-interpolation-filters:sRGB">
      <feBlend
         id="feBlend7556"
         in2="BackgroundImage"
         mode="darken" />
    </filter>
  </defs>
  <g
     id="layer9"
     style="display:inline"
     transform="translate(-645.0002,75.003357)" />
  <g
     id="layer10"
     style="display:inline;filter:url(#filter7554)"
     transform="translate(-645.0002,75.003357)" />
  <g
     id="layer1"
     style="display:inline"
     transform="translate(-404,-541.99664)" />
  <g
     id="layer14"
     style="display:inline"
     transform="translate(-645.0002,75.003357)" />
  <g
     id="layer15"
     style="display:inline"
     transform="translate(-645.0002,75.003357)" />
  <g
     id="g71291"
     style="display:inline"
     transform="translate(-645.0002,75.003357)" />
  <g
     id="layer2"
     style="display:inline"
     transform="translate(-404,-391.99664)" />
  <g
     id="layer3"
     transform="translate(-404,-651.99664)" />
  <path
     style="opacity:1;vector-effect:none;fill:#808080;fill-opacity:1;stroke:none;stroke-width:1.5;stroke-linecap:butt;stroke-linejoin:round;stroke-miterlimit:4;stroke-dasharray:none;stroke-dashoffset:0;stroke-opacity:1;marker:none;marker-start:none;marker-mid:none;marker-end:none;paint-order:normal"
     d="M 8.0002809,2 C 4.3523412,2.005 1.1695302,4.4765057 0.262,8.0097656 0.8130217,10.13281 2.1881879,11.865184 3.9885625,12.912109 L 4.7424689,12.158203 C 3.1339623,11.30366 1.8731352,9.8054082 1.340125,8.0605469 1.4251712,7.5416349 1.6858286,7.0358306 1.9377812,6.5664062 3.1262341,4.4414828 5.4834899,3.0351849 7.9221559,3.0292969 9.5060839,3.0113229 11.111073,3.5540844 12.342078,4.5585938 L 13.0745,3.8261719 C 11.68019,2.6792457 9.9049849,2.0012289 8.0002809,2 Z m 0.195313,2.0039062 c -0.133413,-0.00603 -0.267044,-0.00538 -0.400391,0.00195 -2.204947,0.1135979 -3.9008708,1.9922262 -3.7890622,4.1972656 0.064313,1.2602939 0.7168952,2.3397472 1.6660152,3.0253902 l 0.707032,-0.707031 a 3,3 0 0 1 -1.375,-2.3691404 3,3 0 0 1 2.84375,-3.1484376 3,3 0 0 1 2.6718741,1.375 l 0.71875,-0.7167968 C 10.548172,4.7068565 9.4509059,4.0654769 8.1955939,4.0039062 Z m 5.8867181,0.8144532 -0.724609,0.7246094 c 0.59726,0.715214 1.039217,1.5585757 1.320312,2.4472656 -0.480375,1.617957 -1.566665,3.0463786 -3.005859,3.9296876 -1.169422,0.736352 -2.5633671,1.089252 -3.9199221,1.044922 -0.526509,-0.007 -1.06054,-0.09466 -1.576171,-0.238282 l -0.822266,0.820313 C 6.1870789,13.839826 7.0786949,13.999405 8.0002809,14 11.648221,13.995 14.831032,11.523494 15.738562,7.9902344 15.427009,6.7898428 14.848022,5.7171107 14.082312,4.8183594 Z M 7.9944219,6 a 2,2 0 0 0 -0.0957,0.00195 2,2 0 0 0 -1.896484,2.0996094 2,2 0 0 0 1.109375,1.6875 L 8.9065309,7.9941406 A 1,1 0 0 1 8.0022339,7.0507812 1,1 0 0 1 8.5842659,6.0898438 2,2 0 0 0 7.9944219,6 Z m 3.8828121,1.0234375 -0.880859,0.8808594 a 3,3 0 0 1 -2.8437501,3.0917961 3,3 0 0 1 -0.248047,0 l -0.867187,0.867187 c 0.37407,0.0934 0.760995,0.151386 1.166015,0.13086 C 10.40913,11.881581 12.106212,10.002638 11.994422,7.796875 V 7.794925 C 11.980873,7.5298397 11.939669,7.2723016 11.877234,7.0234375 Z"
     id="path2314" />
  <path
     style="color:#000000;font-style:normal;font-variant:normal;font-weight:normal;font-stretch:normal;font-size:medium;line-height:normal;font-family:sans-serif;font-variant-ligatures:normal;font-variant-position:normal;font-variant-caps:normal;font-variant-numeric:normal;font-variant-alternates:normal;font-feature-settings:normal;text-indent:0;text-align:start;text-decoration:none;text-decoration-line:none;text-decoration-style:solid;text-decoration-color:#000000;letter-spacing:normal;word-spacing:normal;text-transform:none;writing-mode:lr-tb;direction:ltr;text-orientation:mixed;dominant-baseline:auto;baseline-shift:baseline;text-anchor:start;white-space:normal;shape-padding:0;clip-rule:nonzero;display:inline;overflow:visible;visibility:visible;opacity:1;isolation:auto;mix-blend-mode:normal;color-interpolation:sRGB;color-interpolation-filters:linearRGB;solid-color:#000000;solid-opacity:1;vector-effect:none;fill:#808080;fill-opacity:1;fill-rule:nonzero;stroke:none;stroke-width:1.5;stroke-linecap:butt;stroke-linejoin:miter;stroke-miterlimit:4;stroke-dasharray:none;stroke-dashoffset:0;stroke-opacity:1;color-rendering:auto;image-rendering:auto;shape-rendering:auto;text-rendering:auto;enable-background:accumulate"
     d="M 13.000281,2 1.0002813,14 h 2 L 15.000281,2 Z"
     id="path1431-3"
     inkscape:connector-curvature="0"
     sodipodi:nodetypes="ccccc" />
</svg>
