<?xml version="1.0" encoding="UTF-8" standalone="no"?>
<svg
   xmlns:osb="http://www.openswatchbook.org/uri/2009/osb"
   xmlns:dc="http://purl.org/dc/elements/1.1/"
   xmlns:cc="http://creativecommons.org/ns#"
   xmlns:rdf="http://www.w3.org/1999/02/22-rdf-syntax-ns#"
   xmlns:svg="http://www.w3.org/2000/svg"
   xmlns="http://www.w3.org/2000/svg"
   xmlns:sodipodi="http://sodipodi.sourceforge.net/DTD/sodipodi-0.dtd"
   xmlns:inkscape="http://www.inkscape.org/namespaces/inkscape"
   height="16"
   id="svg7384"
   style="enable-background:new"
   version="1.1"
   width="16"
   sodipodi:docname="insert-emoticon-symbolic.svg"
   inkscape:version="1.0.1 (3bc2e813f5, 2020-09-07)">
  <sodipodi:namedview
     pagecolor="#ffffff"
     bordercolor="#666666"
     borderopacity="1"
     objecttolerance="10"
     gridtolerance="10"
     guidetolerance="10"
     inkscape:pageopacity="0"
     inkscape:pageshadow="2"
     inkscape:window-width="1836"
     inkscape:window-height="1016"
     id="namedview22"
     showgrid="false"
     inkscape:zoom="53.875"
     inkscape:cx="8"
     inkscape:cy="8"
     inkscape:window-x="84"
     inkscape:window-y="27"
     inkscape:window-maximized="1"
     inkscape:current-layer="svg7384" />
  <metadata
     id="metadata90">
    <rdf:RDF>
      <cc:Work
         rdf:about="">
        <dc:format>image/svg+xml</dc:format>
        <dc:type
           rdf:resource="http://purl.org/dc/dcmitype/StillImage" />
        <dc:title>Pop Symbolic Icon Theme</dc:title>
        <cc:license
           rdf:resource="http://creativecommons.org/licenses/by-sa/4.0/" />
      </cc:Work>
      <cc:License
         rdf:about="http://creativecommons.org/licenses/by-sa/4.0/">
        <cc:permits
           rdf:resource="http://creativecommons.org/ns#Reproduction" />
        <cc:permits
           rdf:resource="http://creativecommons.org/ns#Distribution" />
        <cc:requires
           rdf:resource="http://creativecommons.org/ns#Notice" />
        <cc:requires
           rdf:resource="http://creativecommons.org/ns#Attribution" />
        <cc:permits
           rdf:resource="http://creativecommons.org/ns#DerivativeWorks" />
        <cc:requires
           rdf:resource="http://creativecommons.org/ns#ShareAlike" />
      </cc:License>
    </rdf:RDF>
  </metadata>
  <title
     id="title8473">Pop Symbolic Icon Theme</title>
  <defs
     id="defs7386">
    <linearGradient
       id="linearGradient6882"
       osb:paint="solid">
      <stop
         id="stop6884"
         offset="0"
         style="stop-color:#555555;stop-opacity:1;" />
    </linearGradient>
    <linearGradient
       id="linearGradient5606"
       osb:paint="solid">
      <stop
         id="stop5608"
         offset="0"
         style="stop-color:#000000;stop-opacity:1;" />
    </linearGradient>
    <filter
       id="filter7554"
       style="color-interpolation-filters:sRGB">
      <feBlend
         id="feBlend7556"
         in2="BackgroundImage"
         mode="darken" />
    </filter>
  </defs>
  <g
     id="layer9"
     style="display:inline"
     transform="translate(-665.0002,-85)" />
  <g
     id="layer10"
     style="display:inline;filter:url(#filter7554)"
     transform="translate(-665.0002,-85)" />
  <g
     id="layer1"
     style="display:inline"
     transform="translate(-424,-702)" />
  <g
     id="layer14"
     style="display:inline"
     transform="translate(-665.0002,-85)" />
  <g
     id="layer15"
     style="display:inline"
     transform="translate(-665.0002,-85)" />
  <g
     id="g71291"
     style="display:inline"
     transform="translate(-665.0002,-85)" />
  <g
     id="layer2"
     style="display:inline"
     transform="translate(-424,-552)" />
  <g
     id="layer3"
     transform="translate(-424,-812)" />
  <path
     d="m 3.4999996,8.5000228 c 1.794,1.303 7.1660004,1.303 9.0000004,0 l -0.028,0.531 c -0.033,0.43 -0.897,3.3750002 -4.4860004,3.4060002 -3.589,0.033 -4.486,-2.7790002 -4.486,-3.3110002 z m 7.0000004,-4 c 0.558,0 1,0.473 1,1.031 v 0.969 c 0,0.558 -0.442,1 -1,1 -0.5580004,0 -1.0000004,-0.442 -1.0000004,-1 v -0.969 c 0,-0.558 0.442,-1.031 1.0000004,-1.031 z m -5.0310004,-0.016 c 0.558,0 1.031,0.473 1.031,1.032 v 0.968 c 0,0.559 -0.473,1 -1.031,1 -0.559,0 -1,-0.441 -1,-1 v -0.968 c 0,-0.559 0.441,-1.032 1,-1.032 z"
     fill="#808080"
     id="path2" />
  <path
     d="M 7.9629996,0.50002282 A 7.5,7.5 0 0 0 0.5,8.0000228 7.5,7.5 0 0 0 7.9999996,15.500023 7.5,7.5 0 0 0 15.5,8.0000228 7.5,7.5 0 0 0 7.9999996,0.50002282 a 7.5,7.5 0 0 0 -0.037,0 z m 0.037,0.99999998 a 6.5,6.5 0 0 1 6.5000004,6.5 6.5,6.5 0 0 1 -6.5000004,6.5000002 6.5,6.5 0 0 1 -6.5,-6.5000002 6.5,6.5 0 0 1 6.5,-6.5 z"
     fill="#808080"
     fill-rule="evenodd"
     id="path4" />
</svg>
