<?xml version="1.0" encoding="UTF-8" standalone="no"?>
<svg
   xmlns:osb="http://www.openswatchbook.org/uri/2009/osb"
   xmlns:dc="http://purl.org/dc/elements/1.1/"
   xmlns:cc="http://creativecommons.org/ns#"
   xmlns:rdf="http://www.w3.org/1999/02/22-rdf-syntax-ns#"
   xmlns:svg="http://www.w3.org/2000/svg"
   xmlns="http://www.w3.org/2000/svg"
   xmlns:sodipodi="http://sodipodi.sourceforge.net/DTD/sodipodi-0.dtd"
   xmlns:inkscape="http://www.inkscape.org/namespaces/inkscape"
   height="15.981811"
   id="svg7384"
   style="enable-background:new"
   version="1.1"
   width="16.000002"
   sodipodi:docname="link-symbolic.svg"
   inkscape:version="1.0.1 (3bc2e813f5, 2020-09-07)">
  <sodipodi:namedview
     pagecolor="#ffffff"
     bordercolor="#666666"
     borderopacity="1"
     objecttolerance="10"
     gridtolerance="10"
     guidetolerance="10"
     inkscape:pageopacity="0"
     inkscape:pageshadow="2"
     inkscape:window-width="1836"
     inkscape:window-height="1016"
     id="namedview22"
     showgrid="false"
     inkscape:zoom="53.936317"
     inkscape:cx="8.000001"
     inkscape:cy="8.5945932"
     inkscape:window-x="84"
     inkscape:window-y="27"
     inkscape:window-maximized="1"
     inkscape:current-layer="svg7384" />
  <metadata
     id="metadata90">
    <rdf:RDF>
      <cc:Work
         rdf:about="">
        <dc:format>image/svg+xml</dc:format>
        <dc:type
           rdf:resource="http://purl.org/dc/dcmitype/StillImage" />
        <dc:title>Pop Symbolic Icon Theme</dc:title>
        <cc:license
           rdf:resource="http://creativecommons.org/licenses/by-sa/4.0/" />
      </cc:Work>
      <cc:License
         rdf:about="http://creativecommons.org/licenses/by-sa/4.0/">
        <cc:permits
           rdf:resource="http://creativecommons.org/ns#Reproduction" />
        <cc:permits
           rdf:resource="http://creativecommons.org/ns#Distribution" />
        <cc:requires
           rdf:resource="http://creativecommons.org/ns#Notice" />
        <cc:requires
           rdf:resource="http://creativecommons.org/ns#Attribution" />
        <cc:permits
           rdf:resource="http://creativecommons.org/ns#DerivativeWorks" />
        <cc:requires
           rdf:resource="http://creativecommons.org/ns#ShareAlike" />
      </cc:License>
    </rdf:RDF>
  </metadata>
  <title
     id="title8473">Pop Symbolic Icon Theme</title>
  <defs
     id="defs7386">
    <linearGradient
       id="linearGradient6882"
       osb:paint="solid">
      <stop
         id="stop6884"
         offset="0"
         style="stop-color:#555555;stop-opacity:1;" />
    </linearGradient>
    <linearGradient
       id="linearGradient5606"
       osb:paint="solid">
      <stop
         id="stop5608"
         offset="0"
         style="stop-color:#000000;stop-opacity:1;" />
    </linearGradient>
    <filter
       id="filter7554"
       style="color-interpolation-filters:sRGB">
      <feBlend
         id="feBlend7556"
         in2="BackgroundImage"
         mode="darken" />
    </filter>
  </defs>
  <g
     id="layer9"
     style="display:inline"
     transform="translate(-765.0002,-65.002878)" />
  <g
     id="layer10"
     style="display:inline;filter:url(#filter7554)"
     transform="translate(-765.0002,-65.002878)" />
  <g
     id="layer1"
     style="display:inline"
     transform="translate(-524,-682.00288)" />
  <g
     id="layer14"
     style="display:inline"
     transform="translate(-765.0002,-65.002878)" />
  <g
     id="layer15"
     style="display:inline"
     transform="translate(-765.0002,-65.002878)" />
  <g
     id="g71291"
     style="display:inline"
     transform="translate(-765.0002,-65.002878)" />
  <g
     id="layer2"
     style="display:inline"
     transform="translate(-524,-532.00288)" />
  <g
     id="layer3"
     transform="translate(-524,-792.00288)" />
  <g
     color="#000000"
     fill="#808080"
     id="g6"
     transform="rotate(-45,9.7538604,7.2735273)">
    <path
       d="M 2.828,4 C 1.99,4.01 1.361,3.965 0.795,4.277 A 1.44,1.44 0 0 0 0.16,5.029 C 0.04,5.352 0,5.717 0,6.166 V 6.834 C 0,7.284 0.04,7.648 0.16,7.971 0.281,8.293 0.512,8.567 0.795,8.723 1.361,9.035 1.99,8.99 2.828,9 H 4.172 C 5.01,8.99 5.639,9.035 6.205,8.723 6.479,8.572 6.698,8.308 6.822,8 H 2.834 C 1.996,7.99 1.457,7.947 1.277,7.848 1.187,7.798 1.15,7.762 1.096,7.619 1.042,7.476 1,7.218 1,6.834 V 6.166 C 1,5.782 1.042,5.524 1.096,5.381 1.15,5.238 1.187,5.202 1.277,5.152 1.457,5.053 1.997,5.01 2.834,5 H 6.822 A 1.434,1.434 0 0 0 6.205,4.277 C 5.64,3.965 5.01,4.01 4.172,4 h -1.34 z m 9,0 C 10.99,4.01 10.361,3.965 9.795,4.277 A 1.434,1.434 0 0 0 9.178,5 h 3.988 c 0.838,0.01 1.377,0.053 1.557,0.152 0.09,0.05 0.127,0.086 0.181,0.229 C 14.958,5.524 15,5.782 15,6.166 V 6.834 C 15,7.218 14.958,7.476 14.904,7.619 14.85,7.762 14.813,7.798 14.723,7.848 14.543,7.947 14.004,7.99 13.166,8 H 9.178 C 9.302,8.308 9.521,8.572 9.795,8.723 10.361,9.035 10.99,8.99 11.828,9 h 1.344 C 14.01,8.99 14.639,9.035 15.205,8.723 A 1.44,1.44 0 0 0 15.84,7.971 C 15.96,7.648 16,7.283 16,6.834 V 6.166 C 16,5.716 15.961,5.352 15.84,5.029 A 1.44,1.44 0 0 0 15.205,4.277 C 14.64,3.965 14.01,4.01 13.172,4 h -1.34 z M 4,6 v 1 h 8 V 6 Z"
       style="line-height:normal;font-variant-ligatures:normal;font-variant-position:normal;font-variant-caps:normal;font-variant-numeric:normal;font-variant-alternates:normal;font-feature-settings:normal;text-indent:0;text-align:start;text-decoration:none;text-decoration-line:none;text-decoration-style:solid;text-decoration-color:#000000;text-transform:none;text-orientation:mixed;shape-padding:0;isolation:auto;mix-blend-mode:normal;marker:none"
       font-weight="400"
       font-family="sans-serif"
       overflow="visible"
       id="path4" />
  </g>
</svg>
