<?xml version="1.0" encoding="UTF-8" standalone="no"?>
<svg
   xmlns:osb="http://www.openswatchbook.org/uri/2009/osb"
   xmlns:dc="http://purl.org/dc/elements/1.1/"
   xmlns:cc="http://creativecommons.org/ns#"
   xmlns:rdf="http://www.w3.org/1999/02/22-rdf-syntax-ns#"
   xmlns:svg="http://www.w3.org/2000/svg"
   xmlns="http://www.w3.org/2000/svg"
   xmlns:sodipodi="http://sodipodi.sourceforge.net/DTD/sodipodi-0.dtd"
   xmlns:inkscape="http://www.inkscape.org/namespaces/inkscape"
   height="16"
   id="svg7384"
   style="enable-background:new"
   version="1.1"
   width="16"
   sodipodi:docname="view-compact-symbolic.svg"
   inkscape:version="1.0.1 (3bc2e813f5, 2020-09-07)">
  <sodipodi:namedview
     pagecolor="#ffffff"
     bordercolor="#666666"
     borderopacity="1"
     objecttolerance="10"
     gridtolerance="10"
     guidetolerance="10"
     inkscape:pageopacity="0"
     inkscape:pageshadow="2"
     inkscape:window-width="1836"
     inkscape:window-height="1016"
     id="namedview30"
     showgrid="false"
     inkscape:zoom="53.875"
     inkscape:cx="8"
     inkscape:cy="8"
     inkscape:window-x="84"
     inkscape:window-y="27"
     inkscape:window-maximized="1"
     inkscape:current-layer="svg7384" />
  <metadata
     id="metadata90">
    <rdf:RDF>
      <cc:Work
         rdf:about="">
        <dc:format>image/svg+xml</dc:format>
        <dc:type
           rdf:resource="http://purl.org/dc/dcmitype/StillImage" />
        <dc:title>Pop Symbolic Icon Theme</dc:title>
        <cc:license
           rdf:resource="http://creativecommons.org/licenses/by-sa/4.0/" />
      </cc:Work>
      <cc:License
         rdf:about="http://creativecommons.org/licenses/by-sa/4.0/">
        <cc:permits
           rdf:resource="http://creativecommons.org/ns#Reproduction" />
        <cc:permits
           rdf:resource="http://creativecommons.org/ns#Distribution" />
        <cc:requires
           rdf:resource="http://creativecommons.org/ns#Notice" />
        <cc:requires
           rdf:resource="http://creativecommons.org/ns#Attribution" />
        <cc:permits
           rdf:resource="http://creativecommons.org/ns#DerivativeWorks" />
        <cc:requires
           rdf:resource="http://creativecommons.org/ns#ShareAlike" />
      </cc:License>
    </rdf:RDF>
  </metadata>
  <title
     id="title8473">Pop Symbolic Icon Theme</title>
  <defs
     id="defs7386">
    <linearGradient
       id="linearGradient6882"
       osb:paint="solid">
      <stop
         id="stop6884"
         offset="0"
         style="stop-color:#555555;stop-opacity:1;" />
    </linearGradient>
    <linearGradient
       id="linearGradient5606"
       osb:paint="solid">
      <stop
         id="stop5608"
         offset="0"
         style="stop-color:#000000;stop-opacity:1;" />
    </linearGradient>
    <filter
       id="filter7554"
       style="color-interpolation-filters:sRGB">
      <feBlend
         id="feBlend7556"
         in2="BackgroundImage"
         mode="darken" />
    </filter>
  </defs>
  <path
     d="M 3.805,3 C 3.268,3 3,3 3,3.625 v 0.75 C 3,5 3.268,5 3.805,5 h 0.39 C 4.732,5 5,5 5,4.375 V 3.625 C 5,3.022 4.732,3 4.195,3 Z m 4,0 C 7.268,3 7,3 7,3.625 v 0.75 C 7,5 7.268,5 7.805,5 h 0.3899996 c 0.537,0 0.805,0 0.805,-0.625 v -0.75 c 0,-0.603 -0.268,-0.625 -0.805,-0.625 z m 4,0 C 11.268,3 11,3 11,3.625 v 0.75 C 11,5 11.268,5 11.805,5 h 0.39 C 12.732,5 13,5 13,4.375 V 3.625 C 13,3.022 12.732,3 12.195,3 Z m -8,4 C 3.268,7 3,7 3,7.625 v 0.75 C 3,9 3.268,9 3.805,9 h 0.39 C 4.732,9 5,9 5,8.375 V 7.625 C 5,7.022 4.732,7 4.195,7 Z m 4,0 C 7.268,7 7,7 7,7.625 v 0.75 C 7,9 7.268,9 7.805,9 h 0.3899996 c 0.537,0 0.805,0 0.805,-0.625 v -0.75 c 0,-0.603 -0.268,-0.625 -0.805,-0.625 z m 4,0 C 11.268,7 11,7 11,7.625 v 0.75 C 11,9 11.268,9 11.805,9 h 0.39 C 12.732,9 13,9 13,8.375 V 7.625 C 13,7.022 12.732,7 12.195,7 Z m -8,4 C 3.268,11 3,11 3,11.625 v 0.75 C 3,13 3.268,13 3.805,13 h 0.39 C 4.732,13 5,13 5,12.375 v -0.75 C 5,11.022 4.732,11 4.195,11 Z m 4,0 C 7.268,11 7,11 7,11.625 v 0.75 C 7,13 7.268,13 7.805,13 h 0.3899996 c 0.537,0 0.805,0 0.805,-0.625 v -0.75 c 0,-0.603 -0.268,-0.625 -0.805,-0.625 z m 4,0 C 11.268,11 11,11 11,11.625 v 0.75 C 11,13 11.268,13 11.805,13 h 0.39 C 12.732,13 13,13 13,12.375 v -0.75 C 13,11.022 12.732,11 12.195,11 Z"
     style="marker:none"
     color="#000000"
     overflow="visible"
     fill="#808080"
     id="path2" />
</svg>
