<?xml version="1.0" encoding="UTF-8" standalone="no"?>
<svg
   xmlns:osb="http://www.openswatchbook.org/uri/2009/osb"
   xmlns:dc="http://purl.org/dc/elements/1.1/"
   xmlns:cc="http://creativecommons.org/ns#"
   xmlns:rdf="http://www.w3.org/1999/02/22-rdf-syntax-ns#"
   xmlns:svg="http://www.w3.org/2000/svg"
   xmlns="http://www.w3.org/2000/svg"
   xmlns:sodipodi="http://sodipodi.sourceforge.net/DTD/sodipodi-0.dtd"
   xmlns:inkscape="http://www.inkscape.org/namespaces/inkscape"
   height="16"
   id="svg7384"
   style="enable-background:new"
   version="1.1"
   width="16"
   sodipodi:docname="view-list-images-symbolic.svg"
   inkscape:version="1.0.1 (3bc2e813f5, 2020-09-07)">
  <sodipodi:namedview
     pagecolor="#ffffff"
     bordercolor="#666666"
     borderopacity="1"
     objecttolerance="10"
     gridtolerance="10"
     guidetolerance="10"
     inkscape:pageopacity="0"
     inkscape:pageshadow="2"
     inkscape:window-width="1836"
     inkscape:window-height="1016"
     id="namedview22"
     showgrid="false"
     inkscape:zoom="53.875"
     inkscape:cx="11.573086"
     inkscape:cy="8"
     inkscape:window-x="84"
     inkscape:window-y="27"
     inkscape:window-maximized="1"
     inkscape:current-layer="svg7384" />
  <metadata
     id="metadata90">
    <rdf:RDF>
      <cc:Work
         rdf:about="">
        <dc:format>image/svg+xml</dc:format>
        <dc:type
           rdf:resource="http://purl.org/dc/dcmitype/StillImage" />
        <dc:title>Pop Symbolic Icon Theme</dc:title>
        <cc:license
           rdf:resource="http://creativecommons.org/licenses/by-sa/4.0/" />
      </cc:Work>
      <cc:License
         rdf:about="http://creativecommons.org/licenses/by-sa/4.0/">
        <cc:permits
           rdf:resource="http://creativecommons.org/ns#Reproduction" />
        <cc:permits
           rdf:resource="http://creativecommons.org/ns#Distribution" />
        <cc:requires
           rdf:resource="http://creativecommons.org/ns#Notice" />
        <cc:requires
           rdf:resource="http://creativecommons.org/ns#Attribution" />
        <cc:permits
           rdf:resource="http://creativecommons.org/ns#DerivativeWorks" />
        <cc:requires
           rdf:resource="http://creativecommons.org/ns#ShareAlike" />
      </cc:License>
    </rdf:RDF>
  </metadata>
  <title
     id="title8473">Pop Symbolic Icon Theme</title>
  <defs
     id="defs7386">
    <linearGradient
       id="linearGradient6882"
       osb:paint="solid">
      <stop
         id="stop6884"
         offset="0"
         style="stop-color:#555555;stop-opacity:1;" />
    </linearGradient>
    <linearGradient
       id="linearGradient5606"
       osb:paint="solid">
      <stop
         id="stop5608"
         offset="0"
         style="stop-color:#000000;stop-opacity:1;" />
    </linearGradient>
    <filter
       id="filter7554"
       style="color-interpolation-filters:sRGB">
      <feBlend
         id="feBlend7556"
         in2="BackgroundImage"
         mode="darken" />
    </filter>
  </defs>
  <path
     d="m 3.0000002,1 v 1 h 0.994 C 2.7360002,2.015 1.8150002,1.97 1.063,2.385 A 1.88,1.88 0 0 0 0.225,3.383 C 0.06,3.822 0,4.343 0,5 v 6 c 0,0.658 0.06,1.179 0.225,1.617 0.164,0.439 0.461,0.79 0.838,0.998 0.7520002,0.416 1.6730002,0.37 2.9310002,0.385 H 12.006 c 1.258,-0.014 2.179,0.03 2.932,-0.385 a 1.88,1.88 0 0 0 0.838,-0.998 C 15.94,12.179 16,11.657 16,11 V 5 C 16,4.342 15.94,3.822 15.775,3.383 A 1.88,1.88 0 0 0 14.938,2.385 C 14.185,1.969 13.264,2.015 12.006,2 H 5.0000002 V 1 Z m 1,2 H 12 c 1.259,0.015 2.087,0.06 2.453,0.262 0.184,0.101 0.29,0.213 0.387,0.472 C 14.937,3.994 15,4.408 15,5 v 6 c 0,0.592 -0.063,1.006 -0.16,1.266 -0.098,0.26 -0.203,0.371 -0.387,0.472 C 14.087,12.94 13.259,12.985 12,13 H 4.0000002 C 2.7410002,12.985 1.9100002,12.94 1.545,12.738 1.362,12.638 1.258,12.526 1.16,12.266 1.063,12.006 1,11.592 1,11 V 5 C 1,4.408 1.063,3.994 1.16,3.734 1.258,3.474 1.362,3.363 1.545,3.262 1.9100002,3.06 2.7400002,3.015 4.0000002,3 Z m 4,1 a 4,4 0 0 0 -4,4 4,4 0 0 0 4,4 A 4,4 0 0 0 12,8 4,4 0 0 0 8.0000002,4 Z M 13.5,4 A 0.5,0.5 0 0 0 13,4.5 0.5,0.5 0 0 0 13.5,5 0.5,0.5 0 0 0 14,4.5 0.5,0.5 0 0 0 13.5,4 Z M 8.0000002,5 A 3,3 0 0 1 11,8 a 3,3 0 0 1 -2.9999998,3 3,3 0 0 1 -3,-3 3,3 0 0 1 3,-3 z m -0.084,1.004 a 2,2 0 0 0 -1.916,1.996 2,2 0 0 0 2,2 A 2,2 0 0 0 10,8 2,2 0 0 0 8.1000002,6.006 a 1,1 0 0 1 0.9,0.994 1,1 0 0 1 -1,1 1,1 0 0 1 -1,-1 1,1 0 0 1 0.916,-0.996 z"
     style="line-height:normal;font-variant-ligatures:normal;font-variant-position:normal;font-variant-caps:normal;font-variant-numeric:normal;font-variant-alternates:normal;font-feature-settings:normal;text-indent:0;text-align:start;text-decoration:none;text-decoration-line:none;text-decoration-style:solid;text-decoration-color:#000000;text-transform:none;text-orientation:mixed;shape-padding:0;isolation:auto;mix-blend-mode:normal;marker:none"
     color="#000000"
     font-weight="400"
     font-family="sans-serif"
     white-space="normal"
     overflow="visible"
     fill="#808080"
     id="path2" />
</svg>
