<svg enable-background="new" version="1.1" viewBox="0 0 16 16" xmlns="http://www.w3.org/2000/svg" xmlns:osb="http://www.openswatchbook.org/uri/2009/osb">
 <title>Pop Symbolic Icon Theme</title>
 <defs>
  <filter color-interpolation-filters="sRGB">
   <feBlend in2="BackgroundImage" mode="darken"/>
  </filter>
 </defs>
 <g transform="translate(-512,-180)" fill="#808080">
  <path d="m520 196a8 8 0 0 1-8-8 8 8 0 0 1 8-8 8 8 0 0 1 8 8 8 8 0 0 1-8 8zm0-1a7 7 0 0 0 7-7 7 7 0 0 0-7-7 7 7 0 0 0-7 7 7 7 0 0 0 7 7z"/>
  <path d="m520 183.75c-0.386 0-0.69 0.124-0.914 0.373a1.269 1.269 0 0 0-0.336 0.877c0 0.336 0.112 0.628 0.336 0.877s0.528 0.373 0.914 0.373 0.69-0.124 0.914-0.373 0.336-0.541 0.336-0.877-0.112-0.628-0.336-0.877-0.528-0.373-0.914-0.373zm-1 3.25v5h2v-5z" font-family="Ubuntu" font-weight="400" letter-spacing="0" word-spacing="0"/>
 </g>
</svg>
