<svg enable-background="new" version="1.1" viewBox="0 0 16 16" xmlns="http://www.w3.org/2000/svg" xmlns:osb="http://www.openswatchbook.org/uri/2009/osb">
 <title>Pop Symbolic Icon Theme</title>
 <defs>
  <filter color-interpolation-filters="sRGB">
   <feBlend in2="BackgroundImage" mode="darken"/>
  </filter>
 </defs>
 <g transform="translate(-585 55)" fill="#808080">
  <rect x="586" y="-54" width="2" height="14" rx="0" ry="0" color="#000000" enable-background="new"/>
  <rect transform="rotate(90)" x="-42" y="-600" width="2" height="14" rx="0" ry="0" color="#000000" enable-background="new"/>
  <path d="m598.5-53.926a0.50005 0.50005 0 0 0-0.48633 0.51367c0.0174 1.1818-0.07 2.2841-0.71484 3.2109-0.64481 0.92683-1.8932 1.7616-4.4199 2.2695-2.7203 0.54688-4.3424 1.6884-5.3066 3.0625-0.96428 1.3741-1.2747 2.9288-1.5586 4.2793a0.50009 0.50009 0 1 0 0.97852 0.20703c0.28448-1.3532 0.58385-2.7485 1.4004-3.9121s2.1464-2.1462 4.6836-2.6562c2.6739-0.53756 4.213-1.4839 5.0449-2.6797 0.83193-1.1958 0.91082-2.5589 0.89258-3.7969a0.50005 0.50005 0 0 0-0.51367-0.49805z" color="#000000" color-rendering="auto" dominant-baseline="auto" enable-background="new" image-rendering="auto" shape-rendering="auto" solid-color="#000000" style="font-feature-settings:normal;font-variant-alternates:normal;font-variant-caps:normal;font-variant-ligatures:normal;font-variant-numeric:normal;font-variant-position:normal;isolation:auto;mix-blend-mode:normal;shape-padding:0;text-decoration-color:#000000;text-decoration-line:none;text-decoration-style:solid;text-indent:0;text-orientation:mixed;text-transform:none;white-space:normal"/>
  <path d="m586.5-40.486c0.5684-2.7037 1.2581-5.3669 6.4967-6.5138 5.218-0.9552 5.0855-3.6476 6-6v12.558z" color="#000000" enable-background="new" opacity=".33"/>
 </g>
</svg>
