<svg enable-background="new" version="1.1" viewBox="0 0 16 15.982" xmlns="http://www.w3.org/2000/svg" xmlns:osb="http://www.openswatchbook.org/uri/2009/osb">
 <title>Pop Symbolic Icon Theme</title>
 <defs>
  <filter color-interpolation-filters="sRGB">
   <feBlend in2="BackgroundImage" mode="darken"/>
  </filter>
 </defs>
 <g transform="rotate(-45 9.7539 7.2735)" color="#000000" fill="#808080">
  <path d="m2.828 4c-0.838 0.01-1.467-0.035-2.033 0.277a1.44 1.44 0 0 0-0.635 0.752c-0.12 0.323-0.16 0.688-0.16 1.137v0.668c0 0.45 0.04 0.814 0.16 1.137 0.121 0.322 0.352 0.596 0.635 0.752 0.566 0.312 1.195 0.267 2.033 0.277h1.344c0.838-0.01 1.467 0.035 2.033-0.277 0.274-0.151 0.493-0.415 0.617-0.723h-3.988c-0.838-0.01-1.377-0.053-1.557-0.152-0.09-0.05-0.127-0.086-0.181-0.229s-0.096-0.401-0.096-0.785v-0.668c0-0.384 0.042-0.642 0.096-0.785s0.091-0.179 0.181-0.229c0.18-0.099 0.72-0.142 1.557-0.152h3.988a1.434 1.434 0 0 0-0.617-0.723c-0.565-0.312-1.195-0.267-2.033-0.277h-1.34zm9 0c-0.838 0.01-1.467-0.035-2.033 0.277a1.434 1.434 0 0 0-0.617 0.723h3.988c0.838 0.01 1.377 0.053 1.557 0.152 0.09 0.05 0.127 0.086 0.181 0.229s0.096 0.401 0.096 0.785v0.668c0 0.384-0.042 0.642-0.096 0.785s-0.091 0.179-0.181 0.229c-0.18 0.099-0.719 0.142-1.557 0.152h-3.988c0.124 0.308 0.343 0.572 0.617 0.723 0.566 0.312 1.195 0.267 2.033 0.277h1.344c0.838-0.01 1.467 0.035 2.033-0.277a1.44 1.44 0 0 0 0.635-0.752c0.12-0.323 0.16-0.688 0.16-1.137v-0.668c0-0.45-0.039-0.814-0.16-1.137a1.44 1.44 0 0 0-0.635-0.752c-0.565-0.312-1.195-0.267-2.033-0.277h-1.34zm-7.828 2v1h8v-1z" font-family="sans-serif" font-weight="400" overflow="visible" style="font-feature-settings:normal;font-variant-alternates:normal;font-variant-caps:normal;font-variant-ligatures:normal;font-variant-numeric:normal;font-variant-position:normal;isolation:auto;mix-blend-mode:normal;shape-padding:0;text-decoration-color:#000000;text-decoration-line:none;text-decoration-style:solid;text-indent:0;text-orientation:mixed;text-transform:none"/>
 </g>
</svg>
