<?xml version="1.0" encoding="UTF-8" standalone="no"?>
<svg
   xmlns:osb="http://www.openswatchbook.org/uri/2009/osb"
   xmlns:dc="http://purl.org/dc/elements/1.1/"
   xmlns:cc="http://creativecommons.org/ns#"
   xmlns:rdf="http://www.w3.org/1999/02/22-rdf-syntax-ns#"
   xmlns:svg="http://www.w3.org/2000/svg"
   xmlns="http://www.w3.org/2000/svg"
   xmlns:sodipodi="http://sodipodi.sourceforge.net/DTD/sodipodi-0.dtd"
   xmlns:inkscape="http://www.inkscape.org/namespaces/inkscape"
   height="16.00012"
   id="svg7384"
   version="1.1"
   width="16.0002"
   sodipodi:docname="system-run-symbolic.svg"
   inkscape:version="1.0.1 (3bc2e813f5, 2020-09-07)">
  <sodipodi:namedview
     pagecolor="#ffffff"
     bordercolor="#666666"
     borderopacity="1"
     objecttolerance="10"
     gridtolerance="10"
     guidetolerance="10"
     inkscape:pageopacity="0"
     inkscape:pageshadow="2"
     inkscape:window-width="1536"
     inkscape:window-height="800"
     id="namedview1912"
     showgrid="false"
     inkscape:zoom="20.88"
     inkscape:cx="9.6160362"
     inkscape:cy="8.0000601"
     inkscape:window-x="0"
     inkscape:window-y="27"
     inkscape:window-maximized="1"
     inkscape:current-layer="svg7384"
     inkscape:snap-global="true"
     inkscape:document-rotation="0">
    <inkscape:grid
       type="xygrid"
       id="grid2461" />
  </sodipodi:namedview>
  <metadata
     id="metadata20854">
    <rdf:RDF>
      <cc:Work
         rdf:about="">
        <dc:title />
        <dc:format>image/svg+xml</dc:format>
        <dc:type
           rdf:resource="http://purl.org/dc/dcmitype/StillImage" />
      </cc:Work>
    </rdf:RDF>
  </metadata>
  <defs
     id="defs7386">
    <linearGradient
       id="linearGradient5606"
       osb:paint="solid">
      <stop
         id="stop5608"
         offset="0"
         style="stop-color:#000000;stop-opacity:1;" />
    </linearGradient>
    <linearGradient
       id="linearGradient4526"
       osb:paint="solid">
      <stop
         id="stop4528"
         offset="0"
         style="stop-color:#ffffff;stop-opacity:1;" />
    </linearGradient>
    <linearGradient
       id="linearGradient3600-4"
       osb:paint="gradient">
      <stop
         id="stop3602-7"
         offset="0"
         style="stop-color:#f4f4f4;stop-opacity:1" />
      <stop
         id="stop3604-6"
         offset="1"
         style="stop-color:#dbdbdb;stop-opacity:1" />
    </linearGradient>
  </defs>
  <g
     id="layer9"
     label="status"
     style="display:inline"
     transform="translate(-813.00006,167.00006)" />
  <g
     id="layer2"
     style="display:inline"
     transform="translate(-571.99986,-199.99994)" />
  <g
     id="layer4"
     style="display:inline"
     transform="translate(-571.99986,-199.99994)" />
  <g
     id="g1812"
     style="display:inline"
     transform="translate(-571.99986,-199.99994)" />
  <g
     id="g6217"
     style="display:inline"
     transform="translate(-571.99986,-199.99994)" />
  <g
     id="layer3"
     style="display:inline"
     transform="translate(-571.99986,-199.99994)" />
  <g
     id="layer1"
     style="display:inline"
     transform="translate(-571.99986,-199.99994)" />
  <path
     style="color:#000000;font-style:normal;font-variant:normal;font-weight:normal;font-stretch:normal;font-size:medium;line-height:normal;font-family:sans-serif;font-variant-ligatures:normal;font-variant-position:normal;font-variant-caps:normal;font-variant-numeric:normal;font-variant-alternates:normal;font-feature-settings:normal;text-indent:0;text-align:start;text-decoration:none;text-decoration-line:none;text-decoration-style:solid;text-decoration-color:#000000;letter-spacing:normal;word-spacing:normal;text-transform:none;writing-mode:lr-tb;direction:ltr;text-orientation:mixed;dominant-baseline:auto;baseline-shift:baseline;text-anchor:start;white-space:normal;shape-padding:0;clip-rule:nonzero;display:inline;overflow:visible;visibility:visible;opacity:1;isolation:auto;mix-blend-mode:normal;color-interpolation:sRGB;color-interpolation-filters:linearRGB;solid-color:#000000;solid-opacity:1;vector-effect:none;fill:#808080;fill-opacity:1;fill-rule:nonzero;stroke:none;stroke-width:1.68748;stroke-linecap:butt;stroke-linejoin:miter;stroke-miterlimit:4;stroke-dasharray:1.68748, 1.68748;stroke-dashoffset:0;stroke-opacity:1;color-rendering:auto;image-rendering:auto;shape-rendering:auto;text-rendering:auto;enable-background:accumulate"
     d="m 11.405467,6.2596348 c -0.318551,0.016503 -0.63691,0.054691 -0.950861,0.1137092 l 0.31146,1.6578364 c 0.047,-0.00887 0.0961,-0.00887 0.143371,-0.01648 -0.565842,0.089833 -1.1141153,0.2677686 -1.6248685,0.5273428 0.032873,-0.016769 0.064048,-0.038292 0.097222,-0.054386 L 8.645168,6.9699008 C 8.0716793,7.247871 7.5358303,7.6016601 7.0549058,8.0212917 l 1.1090633,1.2705689 c 0.00415,-0.00357 0.00906,-0.00627 0.01323,-0.0099 -0.3930956,0.3419251 -0.735462,0.7381184 -1.0167793,1.1766344 0.014782,-0.023 0.026069,-0.04811 0.041202,-0.07086 L 5.7958784,9.4533534 C 5.4424096,9.985048 5.1613165,10.56336 4.9620209,11.170515 l 1.6034458,0.527343 c 0.00945,-0.02888 0.024637,-0.05533 0.034614,-0.08405 -0.047155,0.128561 -0.089491,0.258838 -0.1268859,0.390564 -0.107136,0.410354 -0.166303,0.831748 -0.1763295,1.255738 0.00135,-0.04172 -0.00567,-0.08357 -0.00324,-0.12524 L 4.6094322,13.04095 c -0.03082,0.553046 0.015646,1.10591 0.1137101,1.649593 0.8607736,0 1.7215473,0 2.5823224,0 -0.1174091,-0.411648 -0.1773082,-0.83756 -0.1779778,-1.265625 0,-2.562944 2.0776678,-4.6406228 4.6405991,-4.6406228 1.077945,5.719e-4 2.122066,0.3763887 2.95311,1.0629274 V 6.9039829 C 14.554763,6.8288511 14.392139,6.7450883 14.22015,6.6831577 l -0.571836,1.5886226 c 0.01001,0.00357 0.01976,0.00791 0.02968,0.011533 -0.160072,-0.059757 -0.322847,-0.111997 -0.487793,-0.1565557 -0.349975,-0.092282 -0.708227,-0.1496889 -1.069513,-0.1713863 0.03334,0.00222 0.06725,-0.00116 0.100519,0.00164 L 12.361282,6.274463 C 12.043024,6.24768 11.724029,6.243129 11.405473,6.259632 Z"
     id="path2489"
     inkscape:connector-curvature="0"
     sodipodi:nodetypes="sccccccccccccccccccccccccccccccccs" />
  <path
     style="display:inline;opacity:1;fill:#808080;fill-opacity:1;stroke:none;stroke-width:0.843748;stroke-linejoin:bevel;stroke-miterlimit:4;stroke-dasharray:none;stroke-dashoffset:0;stroke-opacity:1"
     d="M 5.8559943,1.25 A 3.3749819,3.3749986 0 0 1 6.3124732,2.9374993 3.3749819,3.3749986 0 0 1 2.9374911,6.3124979 3.3749819,3.3749986 0 0 1 1.25,5.8560162 V 7.719846 L 2.009701,7.9901093 2.3310495,7.1084569 a 4.2187274,4.2187482 0 0 0 0.6064416,0.047791 4.2187274,4.2187482 0 0 0 0.5982026,-0.047791 L 3.8586892,7.9999972 5.4209371,7.4199193 5.1045337,6.5514505 A 4.2187274,4.2187482 0 0 0 6.0504501,5.7785626 L 6.8447582,6.2383403 7.6687283,4.7897935 6.907379,4.3514391 A 4.2187274,4.2187482 0 0 0 7.1496274,3.1187738 L 7.9999642,2.9704582 7.7000388,1.3307495 6.8892526,1.4741209 A 4.2187274,4.2187482 0 0 0 6.7936731,1.25 Z"
     id="path9873" />
  <g
     transform="matrix(1.3333333,0,0,1.3333333,-258.66666,-375.99999)"
     id="g6">
    <path
       color="#000000"
       d="m 197.994,282 c -1.258,0.015 -2.179,-0.03 -2.932,0.385 a 1.88,1.88 0 0 0 -0.837,0.998 C 194.06,283.821 194,284.343 194,285 v 6 c 0,0.658 0.06,1.179 0.225,1.617 0.164,0.439 0.461,0.79 0.838,0.998 0.752,0.416 1.673,0.37 2.931,0.385 h 4.012 c 1.258,-0.015 2.179,0.03 2.932,-0.385 a 1.88,1.88 0 0 0 0.838,-0.998 C 205.94,292.179 206,291.657 206,291 v -6 c 0,-0.658 -0.06,-1.179 -0.225,-1.617 a 1.88,1.88 0 0 0 -0.838,-0.998 c -0.752,-0.416 -1.673,-0.37 -2.931,-0.385 h -4.008 z m 0.006,1 h 4 c 1.259,0.015 2.087,0.06 2.453,0.262 0.184,0.1 0.29,0.212 0.387,0.472 0.097,0.26 0.16,0.674 0.16,1.266 v 6 c 0,0.592 -0.063,1.006 -0.16,1.266 -0.098,0.26 -0.202,0.371 -0.385,0.472 -0.366,0.202 -1.196,0.247 -2.455,0.262 h -4 c -1.259,-0.015 -2.09,-0.06 -2.455,-0.262 -0.183,-0.1 -0.287,-0.212 -0.385,-0.472 C 195.063,292.006 195,291.592 195,291 v -6 c 0,-0.592 0.063,-1.006 0.16,-1.266 0.098,-0.26 0.202,-0.371 0.385,-0.472 0.366,-0.202 1.196,-0.247 2.455,-0.262 z"
       fill="#808080"
       font-family="sans-serif"
       font-weight="400"
       overflow="visible"
       style="line-height:normal;font-variant-ligatures:normal;font-variant-position:normal;font-variant-caps:normal;font-variant-numeric:normal;font-variant-alternates:normal;font-feature-settings:normal;text-indent:0;text-align:start;text-decoration:none;text-decoration-line:none;text-decoration-style:solid;text-decoration-color:#000000;text-transform:none;text-orientation:mixed;white-space:normal;shape-padding:0;isolation:auto;mix-blend-mode:normal;solid-color:#000000;solid-opacity:1;marker:none"
       id="path2" />
  </g>
</svg>
