<svg enable-background="new" version="1.1" viewBox="0 0 16 16" xmlns="http://www.w3.org/2000/svg" xmlns:osb="http://www.openswatchbook.org/uri/2009/osb">
 <title>Pop Symbolic Icon Theme</title>
 <defs>
  <filter color-interpolation-filters="sRGB">
   <feBlend in2="BackgroundImage" mode="darken"/>
  </filter>
 </defs>
 <g transform="translate(-585 -4.9966)" fill="#808080">
  <rect x="594" y="8" width="2" height="2" ry="1"/>
  <rect x="598" y="8" width="2" height="2" ry="1" enable-background="new"/>
  <rect x="598" y="12" width="2" height="2" ry="1" enable-background="new"/>
  <rect x="598" y="16" width="2" height="2" ry="1" enable-background="new"/>
  <rect x="594" y="16" width="2" height="2" ry="1" enable-background="new"/>
  <rect x="594" y="12" width="2" height="2" ry="1" enable-background="new"/>
  <rect x="591" y="6.9962" width=".9998" height="12.004" ry=".025246"/>
  <rect x="587" y="8" width="2" height="1" rx="0" ry=".4999"/>
  <rect x="587" y="11" width="2" height="1" rx="0" ry=".4999"/>
  <rect x="587" y="14" width="2" height="1" rx="0" ry=".4999" enable-background="new"/>
  <rect x="587" y="17" width="2" height="1" rx="0" ry=".4999" enable-background="new"/>
 </g>
</svg>
