<svg enable-background="new" version="1.1" viewBox="0 0 16 16" xmlns="http://www.w3.org/2000/svg" xmlns:osb="http://www.openswatchbook.org/uri/2009/osb">
 <title>Pop Symbolic Icon Theme</title>
 <defs>
  <filter color-interpolation-filters="sRGB">
   <feBlend in2="BackgroundImage" mode="darken"/>
  </filter>
 </defs>
 <g transform="translate(-605 75)" fill="#808080">
  <path d="m618.03-73.969c-0.095 8.9e-4 -0.15625 0.0312-0.15625 0.0312l-11.812 2.0625c-0.9848 0.17365-0.8125 1.1562-0.8125 1.1562l0.46875 2.7188h3.0938l1.125-1.9375 2.4375 1.9375h2.3125l0.90625-1.2188 1.75 1.2188h2.5938l-0.90625-5.125c-0.13023-0.7386-0.71488-0.84642-1-0.84375zm-11.781 8.9688 0.71875 4.1562c0.17364 0.9848 1.1562 0.8125 1.1562 0.8125l11.812-2.0938s0.98614-0.17144 0.8125-1.1562l-0.3125-1.7188h-2l0.1875 1.0625-9.8438 1.75-0.5-2.8125z" color="#000000" enable-background="new" style="text-decoration-line:none;text-indent:0;text-transform:none"/>
  <path d="m606-67v1h1v-1zm2 0v1h1v-1zm2 0v1h1v-1zm2 0v1h1v-1zm2 0v1h1v-1zm2 0v1h1v-1zm2 0v1h1v-1zm2 0v1h1v-1z" color="#000000" enable-background="accumulate" style="text-decoration-line:none;text-indent:0;text-transform:none"/>
 </g>
</svg>
