<svg enable-background="new" version="1.1" viewBox="0 0 16 16.003" xmlns="http://www.w3.org/2000/svg" xmlns:osb="http://www.openswatchbook.org/uri/2009/osb">
 <title>Pop Symbolic Icon Theme</title>
 <defs>
  <filter color-interpolation-filters="sRGB">
   <feBlend in2="BackgroundImage" mode="darken"/>
  </filter>
 </defs>
 <g transform="matrix(.16667 0 0 .16667 11.31 -13.084)">
  <g transform="matrix(0 -1 -1 0 373.51 516.51)">
   <g transform="matrix(-.9996 0 0 1 575.94 -611)">
    <g transform="matrix(-1 0 0 1 576 611)">
     <rect transform="scale(-1,1)" x="-438" y="345.36" width="96.038" height="96" color="#000000" enable-background="accumulate" fill="none"/>
     <g transform="matrix(1.0788 0 0 1.1163 -31.273 -46.856)" fill="#808080">
      <path d="m434 419.36 0.986-4h-71.014v4z" color="#000000" enable-background="accumulate"/>
      <rect transform="scale(-1,1)" x="-367.97" y="351.36" width="4.0016" height="68" color="#000000" enable-background="accumulate"/>
      <rect transform="matrix(0,1,1,0,0,0)" x="367.36" y="374.98" width="4" height="41.016" color="#000000" enable-background="accumulate"/>
      <rect transform="scale(1,-1)" x="411.99" y="-437.36" width="4.0015" height="21" color="#000000" enable-background="accumulate"/>
      <rect transform="matrix(0,1,1,0,0,0)" x="367.36" y="345.97" width="4" height="21.008" color="#000000" enable-background="accumulate"/>
      <rect transform="scale(1,-1)" x="411.99" y="-408.36" width="4.0015" height="41" color="#000000" enable-background="accumulate"/>
     </g>
    </g>
   </g>
  </g>
 </g>
</svg>
