<svg enable-background="new" version="1.1" viewBox="0 0 16 16" xmlns="http://www.w3.org/2000/svg" xmlns:osb="http://www.openswatchbook.org/uri/2009/osb">
 <title>Pop Symbolic Icon Theme</title>
 <defs>
  <filter color-interpolation-filters="sRGB">
   <feBlend in2="BackgroundImage" mode="darken"/>
  </filter>
 </defs>
 <path d="m3.5 8.5c1.794 1.303 7.166 1.303 9 0l-0.028 0.531c-0.033 0.43-0.897 3.375-4.486 3.406-3.589 0.033-4.486-2.779-4.486-3.311zm7-4c0.558 0 1 0.473 1 1.031v0.969c0 0.558-0.442 1-1 1-0.558 0-1-0.442-1-1v-0.969c0-0.558 0.442-1.031 1-1.031zm-5.031-0.016c0.558 0 1.031 0.473 1.031 1.032v0.968c0 0.559-0.473 1-1.031 1-0.559 0-1-0.441-1-1v-0.968c0-0.559 0.441-1.032 1-1.032z" fill="#808080"/>
 <path d="m7.963 0.50002a7.5 7.5 0 0 0-7.463 7.5 7.5 7.5 0 0 0 7.5 7.5 7.5 7.5 0 0 0 7.5-7.5 7.5 7.5 0 0 0-7.5-7.5 7.5 7.5 0 0 0-0.037 0zm0.037 1a6.5 6.5 0 0 1 6.5 6.5 6.5 6.5 0 0 1-6.5 6.5 6.5 6.5 0 0 1-6.5-6.5 6.5 6.5 0 0 1 6.5-6.5z" fill="#808080" fill-rule="evenodd"/>
</svg>
