<svg enable-background="new" version="1.1" viewBox="0 0 16 16" xmlns="http://www.w3.org/2000/svg" xmlns:osb="http://www.openswatchbook.org/uri/2009/osb">
 <title>Pop Symbolic Icon Theme</title>
 <g transform="matrix(.16667 0 0 .16667 11.31 -13.084)">
  <g transform="matrix(0 -1 -1 0 373.51 516.51)">
   <g transform="matrix(-.9996 0 0 1 575.94 -611)">
    <g transform="matrix(-1 0 0 1 576 611)">
     <path d="m405.99 408.36v-30.002s16.631 7.0825 28.011 15c-11.38 7.9175-28.011 15.002-28.011 15.002z" color="#000000" enable-background="accumulate" fill="#808080"/>
     <rect transform="scale(-1,1)" x="-438" y="345.36" width="96.038" height="96" color="#000000" enable-background="accumulate" fill="none"/>
     <path d="m376.98 391.36c-8.5158 0-14.622 1.6711-18.902 4.541-4.2804 2.8699-6.5928 6.9388-7.5566 11.137-1.9277 8.3958 1.0381 17.413 2.5527 21.955l3.7949-1.2656c-1.4865-4.4578-4.0229-12.941-2.4492-19.795 0.78686-3.4271 2.4766-6.4207 5.8867-8.707 3.4101-2.2864 8.6831-3.8652 16.674-3.8652h33.014v-4z" color="#000000" color-rendering="auto" enable-background="accumulate" fill="#808080" image-rendering="auto" shape-rendering="auto" solid-color="#000000" style="isolation:auto;mix-blend-mode:normal;text-decoration-color:#000000;text-decoration-line:none;text-decoration-style:solid;text-indent:0;text-transform:none;white-space:normal"/>
     <path d="m353.07 357.68c-1.5147 4.5422-4.4804 13.559-2.5527 21.955 0.96383 4.1979 3.2762 8.2649 7.5566 11.135 4.2804 2.8699 10.387 4.543 18.902 4.543h33.014v-4h-33.014c-7.9907 0-13.264-1.5789-16.674-3.8652-3.4101-2.2864-5.0999-5.2799-5.8867-8.707-1.5737-6.8542 0.96269-15.337 2.4492-19.795z" color="#000000" color-rendering="auto" enable-background="accumulate" fill="#808080" image-rendering="auto" shape-rendering="auto" solid-color="#000000" style="isolation:auto;mix-blend-mode:normal;text-decoration-color:#000000;text-decoration-line:none;text-decoration-style:solid;text-indent:0;text-transform:none;white-space:normal"/>
    </g>
   </g>
  </g>
 </g>
</svg>
