<svg enable-background="new" version="1.1" viewBox="0 0 16 16" xmlns="http://www.w3.org/2000/svg" xmlns:osb="http://www.openswatchbook.org/uri/2009/osb">
 <title>Pop Symbolic Icon Theme</title>
 <path d="M 3.805,3 C 3.268,3 3,3 3,3.625 v 0.75 C 3,5 3.268,5 3.805,5 h 0.39 C 4.732,5 5,5 5,4.375 V 3.625 C 5,3.022 4.732,3 4.195,3 Z m 4,0 C 7.268,3 7,3 7,3.625 v 0.75 C 7,5 7.268,5 7.805,5 h 0.3899996 c 0.537,0 0.805,0 0.805,-0.625 v -0.75 c 0,-0.603 -0.268,-0.625 -0.805,-0.625 z m 4,0 C 11.268,3 11,3 11,3.625 v 0.75 C 11,5 11.268,5 11.805,5 h 0.39 C 12.732,5 13,5 13,4.375 V 3.625 C 13,3.022 12.732,3 12.195,3 Z m -8,4 C 3.268,7 3,7 3,7.625 v 0.75 C 3,9 3.268,9 3.805,9 h 0.39 C 4.732,9 5,9 5,8.375 V 7.625 C 5,7.022 4.732,7 4.195,7 Z m 4,0 C 7.268,7 7,7 7,7.625 v 0.75 C 7,9 7.268,9 7.805,9 h 0.3899996 c 0.537,0 0.805,0 0.805,-0.625 v -0.75 c 0,-0.603 -0.268,-0.625 -0.805,-0.625 z m 4,0 C 11.268,7 11,7 11,7.625 v 0.75 C 11,9 11.268,9 11.805,9 h 0.39 C 12.732,9 13,9 13,8.375 V 7.625 C 13,7.022 12.732,7 12.195,7 Z m -8,4 C 3.268,11 3,11 3,11.625 v 0.75 C 3,13 3.268,13 3.805,13 h 0.39 C 4.732,13 5,13 5,12.375 v -0.75 C 5,11.022 4.732,11 4.195,11 Z m 4,0 C 7.268,11 7,11 7,11.625 v 0.75 C 7,13 7.268,13 7.805,13 h 0.3899996 c 0.537,0 0.805,0 0.805,-0.625 v -0.75 c 0,-0.603 -0.268,-0.625 -0.805,-0.625 z m 4,0 C 11.268,11 11,11 11,11.625 v 0.75 C 11,13 11.268,13 11.805,13 h 0.39 C 12.732,13 13,13 13,12.375 v -0.75 C 13,11.022 12.732,11 12.195,11 Z" color="#000000" fill="#808080" overflow="visible"/>
</svg>
