<svg enable-background="new" version="1.1" viewBox="0 0 16 16" xmlns="http://www.w3.org/2000/svg" xmlns:osb="http://www.openswatchbook.org/uri/2009/osb">
 <title>Pop Symbolic Icon Theme</title>
 <defs>
  <filter color-interpolation-filters="sRGB">
   <feBlend in2="BackgroundImage" mode="darken"/>
  </filter>
 </defs>
 <path d="m11.302 4.0008a0.66666 0.66664 0 0 0-0.44 0.19466l-6.6666 6.6664a0.66666 0.66664 0 0 0 0 0.94396 0.66666 0.66664 0 0 0 0.94266 0l6.6666-6.6664a0.66666 0.66664 0 0 0 0-0.94397 0.66666 0.66664 0 0 0-0.50266-0.19466z" color="#000000" fill="#808080" font-family="sans-serif" font-weight="400" overflow="visible" solid-color="#000000" stroke-width="1.3333" style="font-feature-settings:normal;font-variant-alternates:normal;font-variant-caps:normal;font-variant-east-asian:normal;font-variant-ligatures:normal;font-variant-numeric:normal;font-variant-position:normal;font-variation-settings:normal;inline-size:0;isolation:auto;mix-blend-mode:normal;shape-margin:0;shape-padding:0;text-decoration-color:#000000;text-decoration-line:none;text-decoration-style:solid;text-indent:0;text-orientation:mixed;text-transform:none;white-space:normal"/>
 <path d="m6 4a0.66666 0.66664 0 0 0-0.66666 0.66664 0.66666 0.66664 0 0 0 0.66666 0.66664h4.6666v4.6665a0.66666 0.66664 0 0 0 0.66666 0.66664 0.66666 0.66664 0 0 0 0.66666-0.66664v-5.3331a0.66666 0.66664 0 0 0-0.66666-0.66664z" fill="#808080" solid-color="#000000" stroke-width="1.3333" style="font-feature-settings:normal;font-variant-alternates:normal;font-variant-caps:normal;font-variant-east-asian:normal;font-variant-ligatures:normal;font-variant-numeric:normal;font-variant-position:normal;font-variation-settings:normal;inline-size:0;isolation:auto;mix-blend-mode:normal;shape-margin:0;shape-padding:0;text-decoration-color:#000000;text-decoration-line:none;text-decoration-style:solid;text-indent:0;text-orientation:mixed;text-transform:none;white-space:normal"/>
</svg>
