<?xml version="1.0" encoding="UTF-8" standalone="no"?>
<svg
   xmlns:dc="http://purl.org/dc/elements/1.1/"
   xmlns:cc="http://creativecommons.org/ns#"
   xmlns:rdf="http://www.w3.org/1999/02/22-rdf-syntax-ns#"
   xmlns:svg="http://www.w3.org/2000/svg"
   xmlns="http://www.w3.org/2000/svg"
   xmlns:xlink="http://www.w3.org/1999/xlink"
   xmlns:sodipodi="http://sodipodi.sourceforge.net/DTD/sodipodi-0.dtd"
   xmlns:inkscape="http://www.inkscape.org/namespaces/inkscape"
   version="1.1"
   id="Layer_1"
   x="0px"
   y="0px"
   viewBox="0 0 4096 2304"
   xml:space="preserve"
   sodipodi:docname="bionic_beaver_18.04.svg"
   width="4096"
   height="2304"
   inkscape:version="1.0.1 (3bc2e813f5, 2020-09-07)"
   inkscape:export-filename="/home/muqtadir/yaru-remix/wallpapers/src/bionic_beaver_18.04.png"
   inkscape:export-xdpi="96"
   inkscape:export-ydpi="96"><metadata
   id="metadata49"><rdf:RDF><cc:Work
       rdf:about=""><dc:format>image/svg+xml</dc:format><dc:type
         rdf:resource="http://purl.org/dc/dcmitype/StillImage" /><dc:title>Ubuntu Bionic Beaver</dc:title></cc:Work></rdf:RDF></metadata><defs
   id="defs47"><clipPath
     id="_clipPath_iATqGFxonEViPBnL5ZywIMgvc1yaWggz"><rect
       width="4096"
       height="2304"
       id="rect2"
       x="0"
       y="0" /></clipPath><linearGradient
     id="_lgradient_3"
     x1="0.0019620061"
     y1="0.44004008"
     x2="0.99966186"
     y2="0.45417398"
     gradientTransform="scale(4096,2304)"
     gradientUnits="userSpaceOnUse"
     xlink:href="#linearGradient1204"><stop
       offset="0%"
       stop-opacity="1"
       style="stop-color:#0000d4;stop-opacity:1"
       id="stop7" /><stop
       offset="100%"
       stop-opacity="1"
       style="stop-color:#00ccff;stop-opacity:1"
       id="stop9" /></linearGradient><linearGradient
     id="linearGradient1204"
     x1="0.50574714"
     y1="0.0091954023"
     x2="0.50804597"
     y2="1.0022988"
     gradientTransform="scale(4096,2304)"
     gradientUnits="userSpaceOnUse"><stop
       offset="0%"
       stop-opacity="1"
       style="stop-color:#0000d4;stop-opacity:1"
       id="stop1200" /><stop
       offset="100%"
       stop-opacity="1"
       style="stop-color:#2ad4ff;stop-opacity:1"
       id="stop1202" /></linearGradient></defs><sodipodi:namedview
   pagecolor="#ffffff"
   bordercolor="#666666"
   borderopacity="1"
   objecttolerance="10"
   gridtolerance="10"
   guidetolerance="10"
   inkscape:pageopacity="0"
   inkscape:pageshadow="2"
   inkscape:window-width="1848"
   inkscape:window-height="1016"
   id="namedview45"
   showgrid="false"
   inkscape:zoom="0.25"
   inkscape:cx="1714.5907"
   inkscape:cy="924.7004"
   inkscape:window-x="72"
   inkscape:window-y="27"
   inkscape:window-maximized="1"
   inkscape:current-layer="Layer_1"
   inkscape:document-rotation="0" />
<style
   type="text/css"
   id="style2">
	.st0{fill:none;stroke:#B76B00;stroke-width:0.75;stroke-linecap:round;stroke-dasharray:1,2;}
	.st1{fill:none;stroke:#FF9500;stroke-width:3;stroke-linecap:round;}
	.st2{fill:none;stroke:#FF9500;stroke-width:4;stroke-linecap:round;stroke-linejoin:round;}
</style>
<title
   id="title4">Ubuntu Bionic Beaver</title>


<g
   clip-path="url(#_clipPath_iATqGFxonEViPBnL5ZywIMgvc1yaWggz)"
   id="g22"
   style="isolation:isolate"><linearGradient
     id="linearGradient1006"
     x1="0.50574714"
     y1="0.0091954023"
     x2="0.50804597"
     y2="1.0022988"
     gradientTransform="scale(4096,2304)"
     gradientUnits="userSpaceOnUse"><stop
       offset="0%"
       stop-opacity="1"
       style="stop-color:#0000d4;stop-opacity:1"
       id="stop1002" /><stop
       offset="100%"
       stop-opacity="1"
       style="stop-color:#2ad4ff;stop-opacity:1"
       id="stop1004" /></linearGradient><rect
     x="0"
     y="0"
     width="4096"
     height="2304"
     fill="url(#_lgradient_3)"
     id="rect12"
     style="fill:url(#_lgradient_3);fill-opacity:1" /><g
     opacity="0.04"
     id="g16" /></g><path
   d="m 4096,1944 -359,360 H 0 V 1300 L 1290,0 h 2806 z"
   fill="#848484"
   style="opacity:0.02;isolation:isolate;mix-blend-mode:normal;fill:#000000"
   id="path18-6"
   sodipodi:nodetypes="ccccccc" /><path
   d="M 670,0 2953,2304 H 2304 423 0 V 0 Z"
   fill="#848484"
   style="opacity:0.04;isolation:isolate;mix-blend-mode:normal;fill:#ffffff"
   id="path18-3"
   sodipodi:nodetypes="ccccccc" /><rect
   style="opacity:0.07;mix-blend-mode:darken;fill:#000000;fill-opacity:1;stroke:none;stroke-width:0.945417;stroke-opacity:1"
   id="rect1126"
   width="4094.9995"
   height="158"
   x="1.0005364"
   y="2146" /><g
   id="g36"
   transform="matrix(10.274628,0,0,10.254534,-1274.3493,-291.801)"><path
     class="st0"
     d="m 392,221.7 c -1.6,10.5 -0.7,37.3 1.5,43.1"
     id="path6"
     style="stroke:#d5e5ff;stroke-opacity:1;opacity:0.1" /><path
     class="st0"
     d="m 444.2,182.3 c 0,51.2 -41.3,92.7 -92.3,92.7 -51,0 -92.3,-41.5 -92.3,-92.7 0,-51.2 41.3,-92.7 92.3,-92.7 51,0 92.3,41.5 92.3,92.7 z"
     id="path10"
     style="stroke:#d5e5ff;stroke-opacity:1;opacity:0.15" /><path
     class="st0"
     d="m 475,88.9 c 0,30.3 -24.4,54.8 -54.6,54.8 -30.2,0 -54.6,-24.5 -54.6,-54.8 0,-30.3 24.4,-54.8 54.6,-54.8 30.2,0 54.6,24.5 54.6,54.8 z"
     id="path12"
     style="stroke:#d5e5ff;stroke-opacity:1;opacity:0.15" /><path
     class="st0"
     d="M 475,89.1"
     id="path14" /><path
     class="st0"
     d="M 459.1,69.6"
     id="path16" /><path
     class="st0"
     d="M 454.6,46.1"
     id="path18" /><path
     class="st0"
     d="m 454.6,46.1 c -2.4,17.4 10.4,36.3 20.3,43"
     id="path20"
     style="stroke:#d5e5ff;stroke-opacity:1;opacity:0.15" /><path
     class="st0"
     d="m 370,68.6 c 0,0 -37.6,37.3 -8.3,89.1 30.5,46.5 82.5,31.7 82.5,31.7"
     id="path22"
     style="stroke:#d5e5ff;stroke-opacity:1;opacity:0.15" /><path
     class="st0"
     d="m 315.7,96.6 c 0,0 -0.6,-43.2 41.2,-63.5 49.9,-24.2 81.8,13.5 81.8,13.5"
     id="path24"
     style="stroke:#d5e5ff;stroke-opacity:1;opacity:0.15" /><path
     class="st0"
     d="m 473.4,76.2 c -4.1,3.2 -8.3,6 -12.5,9.2"
     id="path26"
     style="stroke:#d5e5ff;stroke-opacity:1;opacity:0.15" /><path
     class="st0"
     d="m 475,93.3 c 0,0 -46,5.7 -81,50.6 -36.5,46.9 -31.7,92.2 -31.7,92.2"
     id="path28"
     style="stroke:#d5e5ff;stroke-opacity:1;opacity:0.15" /><path
     class="st0"
     d="m 462.3,96.4 c -2.4,57.3 -42.4,71.7 -60,73.8"
     id="path30"
     style="stroke:#d5e5ff;stroke-opacity:1;opacity:0.15" /><path
     class="st0"
     d="m 311.8,265.7 c 10.7,-16.1 50.1,-42.8 80,-43.6"
     id="path32"
     style="stroke:#d5e5ff;stroke-opacity:1;opacity:0.15" /><path
     class="st0"
     d="m 268.4,222.8 c 11.6,0.7 89.2,35.4 102.4,50.1"
     id="path34"
     style="stroke:#d5e5ff;stroke-opacity:1;opacity:0.15" /></g><g
   id="g42"
   transform="matrix(10.274628,0,0,10.254534,-1274.3493,-291.801)"
   style="stroke:#aaccff;stroke-opacity:1;opacity:0.41"><ellipse
     class="st1"
     cx="425.39999"
     cy="65.199997"
     rx="4.9000001"
     ry="5"
     id="ellipse38"
     style="stroke:#ffffff;stroke-opacity:1;opacity:0.35" /><path
     class="st2"
     d="m 28.9,236 c 0,0 2.9,-19.7 113.8,-30.1 60.2,-5.6 125.5,16.4 125.5,16.3 0,-0.1 -26,-54.7 13.8,-100.9 34.3,-39.8 83.6,-30.8 83.6,-30.8 0,0 0.5,-9 1.5,-13.4 0.7,-3.1 2.8,-8 3.1,-8.6 0.3,-0.6 26.1,-23.2 52.2,-23.2 27.8,0 44,13.9 44,13.8 l 0.1,35.4 -4.9,1.6 -0.7,-10.5 c 0,0.1 -27.4,24 -45.4,55.7 -24.8,43.8 -23.2,80.8 -23.3,80.9 0,0.1 25.7,-2.5 42,1.7 13.3,3.5 30.1,12 30.2,12.1 z"
     id="path40"
     style="stroke:#ffffff;stroke-opacity:1;opacity:0.35" /></g></svg>
