<?xml version="1.0" encoding="UTF-8" standalone="no"?>
<svg
   xmlns:dc="http://purl.org/dc/elements/1.1/"
   xmlns:cc="http://creativecommons.org/ns#"
   xmlns:rdf="http://www.w3.org/1999/02/22-rdf-syntax-ns#"
   xmlns:svg="http://www.w3.org/2000/svg"
   xmlns="http://www.w3.org/2000/svg"
   xmlns:sodipodi="http://sodipodi.sourceforge.net/DTD/sodipodi-0.dtd"
   xmlns:inkscape="http://www.inkscape.org/namespaces/inkscape"
   style="isolation:isolate"
   viewBox="0 0 4096 2304"
   width="4096pt"
   height="2304pt"
   version="1.1"
   id="svg24"
   sodipodi:docname="focal_fossa_20.04.svg"
   inkscape:version="1.0.1 (3bc2e813f5, 2020-09-07)"
   inkscape:export-filename="/home/muqtxdir/yaru-remix/wallpaper/focal_fossa_20.04.png"
   inkscape:export-xdpi="96"
   inkscape:export-ydpi="96">
  <metadata
     id="metadata28">
    <rdf:RDF>
      <cc:Work
         rdf:about="">
        <dc:format>image/svg+xml</dc:format>
        <dc:type
           rdf:resource="http://purl.org/dc/dcmitype/StillImage" />
        <dc:title />
      </cc:Work>
    </rdf:RDF>
  </metadata>
  <sodipodi:namedview
     pagecolor="#ffffff"
     bordercolor="#666666"
     borderopacity="1"
     objecttolerance="10"
     gridtolerance="10"
     guidetolerance="10"
     inkscape:pageopacity="0"
     inkscape:pageshadow="2"
     inkscape:window-width="1848"
     inkscape:window-height="1016"
     id="namedview26"
     showgrid="false"
     inkscape:zoom="0.21"
     inkscape:cx="3548.8208"
     inkscape:cy="1536"
     inkscape:window-x="72"
     inkscape:window-y="27"
     inkscape:window-maximized="1"
     inkscape:current-layer="svg24"
     inkscape:document-rotation="0" />
  <defs
     id="defs5">
    <clipPath
       id="_clipPath_iATqGFxonEViPBnL5ZywIMgvc1yaWggz">
      <rect
         width="4096"
         height="2304"
         id="rect2" />
    </clipPath>
  </defs>
  <g
     clip-path="url(#_clipPath_iATqGFxonEViPBnL5ZywIMgvc1yaWggz)"
     id="g22">
    <linearGradient
       id="_lgradient_3"
       x1="0.5057471264367815"
       y1="0.009195402298850582"
       x2="0.5080459770114943"
       y2="1.002298850574713"
       gradientTransform="matrix(4096,0,0,2304,0,0)"
       gradientUnits="userSpaceOnUse">
      <stop
         offset="0%"
         stop-opacity="1"
         style="stop-color:#0000d4;stop-opacity:1"
         id="stop7" />
      <stop
         offset="100%"
         stop-opacity="1"
         style="stop-color:#2ad4ff;stop-opacity:1"
         id="stop9" />
    </linearGradient>
    <rect
       x="0"
       y="0"
       width="4096"
       height="2304"
       transform="matrix(1,0,0,1,0,0)"
       fill="url(#_lgradient_3)"
       id="rect12" />
    <g
       opacity="0.04"
       id="g16">
      <path
         d=" M 0 0 L 4096 0 L 2904.178 2304 L 1206.044 2304 L 0 0 Z "
         fill="rgb(189,189,189)"
         style="mix-blend-mode:darken;"
         id="path14" />
    </g>
    <path
       d=" M 0 1413.032 L 1348.267 0 L 2776.178 0 L 4096 1413.032 L 4096 2304 L 0 2304 L 0 1413.032 Z "
       fill="rgb(132,132,132)"
       style="mix-blend-mode:overlay;"
       id="path18" />
    <path
       d=" M 0 801.28 L 0 0 L 4096 0 L 4096 801.28 L 2579.911 2304 L 1533.156 2304 L 0 801.28 Z "
       fill="rgb(134,134,134)"
       style="mix-blend-mode:overlay;"
       id="path20" />
  </g>
  <g
     id="Layer_7"
     data-name="Layer 7"
     transform="matrix(6.7848201,0,0,6.7848296,703.9369,205.92334)"
     style="fill:#ffffff;opacity:0.6">
    <path
       class="cls-1"
       d="m 98,110.71 a 0.63,0.63 0 0 1 0.51,-0.73 v 0 a 0.62,0.62 0 0 1 0.72,0.52 v 0 a 0.62,0.62 0 0 1 -0.51,0.72 H 98.61 A 0.63,0.63 0 0 1 98,110.71 Z m 5,-0.86 a 0.62,0.62 0 0 1 0.51,-0.72 v 0 a 0.62,0.62 0 0 1 0.72,0.51 v 0 a 0.62,0.62 0 0 1 -0.51,0.72 h -0.1 A 0.62,0.62 0 0 1 103,109.85 Z m 5,-0.85 a 0.62,0.62 0 0 1 0.51,-0.72 v 0 a 0.62,0.62 0 0 1 0.72,0.51 v 0 a 0.62,0.62 0 0 1 -0.51,0.72 h -0.1 A 0.63,0.63 0 0 1 108,109 Z m 5,-0.85 a 0.62,0.62 0 0 1 0.51,-0.72 v 0 a 0.63,0.63 0 0 1 0.73,0.51 v 0 a 0.63,0.63 0 0 1 -0.51,0.72 h -0.11 A 0.64,0.64 0 0 1 113,108.15 Z m 5,-0.86 a 0.64,0.64 0 0 1 0.52,-0.72 v 0 a 0.62,0.62 0 0 1 0.72,0.51 v 0 a 0.63,0.63 0 0 1 -0.51,0.73 h -0.11 A 0.63,0.63 0 0 1 118,107.29 Z m 5,-0.85 a 0.62,0.62 0 0 1 0.51,-0.72 v 0 a 0.62,0.62 0 0 1 0.72,0.51 v 0 a 0.63,0.63 0 0 1 -0.51,0.72 h -0.11 A 0.62,0.62 0 0 1 123,106.44 Z m 5,-0.85 a 0.62,0.62 0 0 1 0.51,-0.72 v 0 a 0.62,0.62 0 0 1 0.72,0.51 v 0 a 0.62,0.62 0 0 1 -0.51,0.72 h -0.11 A 0.62,0.62 0 0 1 128,105.59 Z m 5,-0.86 a 0.62,0.62 0 0 1 0.51,-0.72 v 0 a 0.63,0.63 0 0 1 0.72,0.51 v 0 a 0.63,0.63 0 0 1 -0.51,0.73 h -0.11 A 0.61,0.61 0 0 1 133,104.73 Z m 5,-0.85 a 0.62,0.62 0 0 1 0.51,-0.72 v 0 a 0.62,0.62 0 0 1 0.72,0.51 v 0 a 0.62,0.62 0 0 1 -0.51,0.72 h -0.11 A 0.61,0.61 0 0 1 138,103.88 Z m 5,-0.85 a 0.62,0.62 0 0 1 0.51,-0.72 v 0 a 0.62,0.62 0 0 1 0.72,0.51 v 0 a 0.62,0.62 0 0 1 -0.51,0.72 h -0.11 A 0.63,0.63 0 0 1 143,103 Z m 5,-0.86 a 0.61,0.61 0 0 1 0.51,-0.71 v 0 a 0.62,0.62 0 0 1 0.72,0.51 v 0 a 0.62,0.62 0 0 1 -0.51,0.72 h -0.1 A 0.63,0.63 0 0 1 148,102.17 Z m 5,-0.85 a 0.62,0.62 0 0 1 0.51,-0.72 v 0 a 0.62,0.62 0 0 1 0.72,0.51 v 0 a 0.62,0.62 0 0 1 -0.51,0.72 h -0.11 A 0.62,0.62 0 0 1 153,101.32 Z m 5,-0.85 a 0.62,0.62 0 0 1 0.51,-0.72 v 0 a 0.62,0.62 0 0 1 0.72,0.51 v 0 a 0.62,0.62 0 0 1 -0.51,0.72 h -0.1 A 0.63,0.63 0 0 1 158,100.47 Z m 5,-0.85 a 0.63,0.63 0 0 1 0.51,-0.73 v 0 a 0.64,0.64 0 0 1 0.73,0.52 v 0 a 0.64,0.64 0 0 1 -0.52,0.72 h -0.1 A 0.63,0.63 0 0 1 163,99.62 Z m 5,-0.86 a 0.63,0.63 0 0 1 0.51,-0.72 v 0 a 0.63,0.63 0 0 1 0.73,0.51 v 0 a 0.63,0.63 0 0 1 -0.52,0.72 h -0.1 A 0.62,0.62 0 0 1 168,98.76 Z m 5,-0.85 a 0.63,0.63 0 0 1 0.52,-0.72 v 0 a 0.62,0.62 0 0 1 0.72,0.51 v 0 a 0.64,0.64 0 0 1 -0.52,0.72 h -0.1 A 0.63,0.63 0 0 1 173,97.91 Z m 5,-0.85 a 0.63,0.63 0 0 1 0.51,-0.72 v 0 a 0.63,0.63 0 0 1 0.73,0.51 v 0 a 0.62,0.62 0 0 1 -0.51,0.72 h -0.11 A 0.64,0.64 0 0 1 178,97.06 Z m 5,-0.86 a 0.62,0.62 0 0 1 0.51,-0.72 v 0 a 0.62,0.62 0 0 1 0.72,0.51 v 0 a 0.62,0.62 0 0 1 -0.51,0.72 h -0.11 A 0.61,0.61 0 0 1 183,96.2 Z m 5,-0.85 a 0.62,0.62 0 0 1 0.51,-0.72 v 0 a 0.62,0.62 0 0 1 0.72,0.51 v 0 a 0.62,0.62 0 0 1 -0.51,0.72 h -0.11 A 0.62,0.62 0 0 1 188,95.35 Z m 5,-0.85 a 0.62,0.62 0 0 1 0.51,-0.72 v 0 a 0.62,0.62 0 0 1 0.72,0.51 v 0 a 0.62,0.62 0 0 1 -0.51,0.72 h -0.11 A 0.62,0.62 0 0 1 193,94.5 Z m 5,-0.86 a 0.62,0.62 0 0 1 0.51,-0.72 v 0 a 0.63,0.63 0 0 1 0.72,0.51 v 0 a 0.63,0.63 0 0 1 -0.51,0.73 h -0.11 A 0.61,0.61 0 0 1 198,93.64 Z"
       id="path8"
       style="fill:#ffffff" />
    <path
       class="cls-1"
       d="m 57.53,104.32 a 0.64,0.64 0 0 1 0.5,-0.74 v 0 a 0.63,0.63 0 0 1 0.73,0.5 v 0 a 0.62,0.62 0 0 1 -0.49,0.73 h -0.12 a 0.63,0.63 0 0 1 -0.62,-0.49 z m 5,-1 a 0.63,0.63 0 0 1 0.49,-0.74 v 0 a 0.63,0.63 0 0 1 0.74,0.49 v 0 a 0.63,0.63 0 0 1 -0.5,0.74 h -0.12 a 0.63,0.63 0 0 1 -0.63,-0.47 z m 5,-1 a 0.62,0.62 0 0 1 0.49,-0.73 v 0 a 0.63,0.63 0 0 1 0.74,0.49 v 0 a 0.64,0.64 0 0 1 -0.5,0.74 H 68.1 a 0.63,0.63 0 0 1 -0.61,-0.47 z m 5,-1 a 0.62,0.62 0 0 1 0.49,-0.73 v 0 a 0.61,0.61 0 0 1 0.73,0.49 v 0 a 0.61,0.61 0 0 1 -0.49,0.73 v 0 h -0.12 v 0 a 0.62,0.62 0 0 1 -0.67,-0.44 z m 5,-1 a 0.63,0.63 0 0 1 0.5,-0.73 v 0 a 0.62,0.62 0 0 1 0.73,0.49 v 0 a 0.61,0.61 0 0 1 -0.49,0.73 h -0.13 a 0.62,0.62 0 0 1 -0.7,-0.42 z m 5,-1 a 0.61,0.61 0 0 1 0.49,-0.73 v 0 a 0.63,0.63 0 0 1 0.74,0.49 v 0 a 0.63,0.63 0 0 1 -0.5,0.73 H 83 a 0.62,0.62 0 0 1 -0.58,-0.4 z m 5,-1 a 0.63,0.63 0 0 1 0.49,-0.74 v 0 a 0.63,0.63 0 0 1 0.73,0.5 v 0 a 0.62,0.62 0 0 1 -0.49,0.73 H 88 a 0.63,0.63 0 0 1 -0.6,-0.38 z m 5,-1 a 0.62,0.62 0 0 1 0.49,-0.73 v 0 a 0.62,0.62 0 0 1 0.73,0.49 v 0 a 0.63,0.63 0 0 1 -0.49,0.74 H 93 a 0.62,0.62 0 0 1 -0.62,-0.38 z m 5,-1 a 0.63,0.63 0 0 1 0.49,-0.73 v 0 a 0.63,0.63 0 0 1 0.74,0.49 v 0 a 0.63,0.63 0 0 1 -0.49,0.74 H 98 a 0.63,0.63 0 0 1 -0.65,-0.36 z m 5,-1 a 0.61,0.61 0 0 1 0.49,-0.73 v 0 a 0.63,0.63 0 0 1 0.74,0.49 v 0 a 0.63,0.63 0 0 1 -0.5,0.73 v 0 h -0.12 v 0 a 0.63,0.63 0 0 1 -0.81,-0.33 z m 5,-1 a 0.61,0.61 0 0 1 0.49,-0.73 v 0 a 0.61,0.61 0 0 1 0.73,0.49 v 0 A 0.61,0.61 0 0 1 108,95 h -0.12 a 0.62,0.62 0 0 1 -0.57,-0.5 z m 5,-1 a 0.64,0.64 0 0 1 0.5,-0.74 v 0 a 0.64,0.64 0 0 1 0.73,0.5 v 0 A 0.62,0.62 0 0 1 113,94 h -0.13 a 0.62,0.62 0 0 1 -0.59,-0.48 z m 5,-1 a 0.63,0.63 0 0 1 0.49,-0.74 v 0 a 0.64,0.64 0 0 1 0.74,0.49 v 0 A 0.64,0.64 0 0 1 118,93 h -0.13 a 0.63,0.63 0 0 1 -0.61,-0.46 z m 5,-1 a 0.63,0.63 0 0 1 0.49,-0.74 v 0 a 0.61,0.61 0 0 1 0.73,0.49 v 0 a 0.63,0.63 0 0 1 -0.49,0.74 h -0.12 a 0.63,0.63 0 0 1 -0.9,-0.25 z m 5,-1 a 0.62,0.62 0 0 1 0.49,-0.73 v 0 a 0.62,0.62 0 0 1 0.73,0.49 v 0 a 0.63,0.63 0 0 1 -0.49,0.74 h -0.12 a 0.62,0.62 0 0 1 -0.92,-0.25 z"
       id="path10"
       style="fill:#ffffff" />
    <path
       class="cls-1"
       d="m 229.26,82.57 v 0 L 214.88,81.88 203.8,91 l -0.65,4.88 -1.3,13 6.84,-6.19 h 14 l 12.38,-12.38 7,-7.2 z m -14.42,17.55 a 15,15 0 0 1 -2,-7.63 13.28,13.28 0 0 1 2.46,-7.67 15,15 0 0 1 2.3,7.8 11.79,11.79 0 0 1 -2.76,7.5 z"
       id="path12"
       style="fill:#ffffff;opacity:0.7" />
    <path
       class="cls-1"
       d="m 144.43,90.18 c 0,-3.33 0.85,-4.84 1.76,-6.05 1.69,2.52 1.68,7.3 1.68,7.3 l 3.48,-6.3 -7.73,-8.48 -4.54,13.59 3.15,11.94 3.44,-6.43 a 22,22 0 0 1 -1.24,-5.57 z"
       id="path14-3"
       style="fill:#ffffff;opacity:0.7" />
  </g>
  <g
     id="Whiskers"
     transform="matrix(6.7848201,0,0,6.7848296,703.9369,205.92334)"
     style="fill:#ffffff;opacity:0.5">
    <path
       class="cls-2"
       d="m 311.21,116.09 28.07,-4.63 0.38,-0.06 -0.3,-1.73 -29.92,4.94 -10.44,-8.75 17.1,-41.27 1,-17.48 10.69,-33.46 -24.21,-6.27 -20.67,10.42 -21.17,20.2 -12.38,-6 -36.18,-4.5 -31.25,8 -27.78,-31.72 -14,9.4 -0.73,30.14 4.44,10.37 -14.72,45.1 3.2,18 -7.79,8 0.06,8.17 1.63,2.57 -120.02,-44.89 -0.61,1.64 122.17,45.66 0.51,0.8 -1.71,3.44 -91.44,-10.35 h -0.37 l -0.2,1.74 91.18,10.32 -2.1,4.23 L 61,155 l 0.2,1.74 61.53,-6.74 -1.59,3.2 0.34,1 -34.18,14.05 0.67,1.62 34.03,-14.05 2,5.88 -27.27,19.59 1,1.42 26.82,-19.27 2.54,7.61 5.39,1.38 13,15.74 26.52,3.36 5.1,-2.95 0.14,13.25 h 1.75 l -0.15,-14.23 9.83,-5.68 v 0 l 1.16,10 1.85,-0.3 -1.11,-9.34 16.24,3.52 9,33.59 2.33,55.71 32.13,-6.49 60.73,-39.18 0.14,-0.09 34.59,-41.18 14.2,-33 -40.4,-32.16 z m -102.59,67.84 -18.35,-4 v -0.29 l 17.63,-5.64 13.24,13.54 1.25,-1.23 -12.62,-12.91 34.43,-11 17.37,6.42 -43.9,49.11 z m -62,2.12 -12.38,-15 5.79,1.1 h 0.06 l 1.65,-3.63 15.59,1.9 2.63,3 16.86,-1.86 0.18,14.44 -5.54,3.2 z m -17.82,-16.88 -5.28,-15.85 3.94,-7.94 5.72,9.43 0.13,-0.08 v 0 h 0.21 v 0 l 2.82,0.66 9.62,2.22 -2.13,4.7 -4.11,9 -7.62,-1.31 v 0 l -0.37,-0.07 z M 140,72.58 151,85.29 135.43,114 v 0 l -1.08,1.39 L 131.44,99 Z M 160.15,43 153.81,30.62 154.4,7.48 180.15,36.75 Z m -13.94,10.71 13.8,-10 20.61,-6.44 0.18,0.21 -24.75,20.44 -4.74,26.67 -11,-12.73 z m 116.61,113.7 -15.92,-5.88 10.76,-3.44 14.87,-11.56 -9.38,20.52 z m -102.09,-31.26 1.56,2.72 9.28,-4.3 4.76,-9.72 23.89,-4.09 -12.22,20.08 -10.24,-0.32 h -0.12 l -17.25,13.35 -7.5,-14.21 z M 204.26,91 215,82.2 l 26.94,1 h 0.14 l 15.75,-15.5 v 0 l 15.51,-29.12 2.48,14.36 2.08,11.77 1.95,12 v 0 l -3.7,43.33 -64.44,10.64 -10.5,-10.48 z m -7.13,52.11 -0.61,1.64 9,3.32 -3.42,8.73 -13.5,-15.7 12.36,-20.3 10,10 -12.67,2.2 0.29,1.73 13,-2.15 -2.71,6.91 -10.37,-0.86 h -0.36 l -0.22,1.73 10.28,0.86 -2.09,5.33 z m 74.22,1.49 -55.94,-12.73 74.85,-12.36 -16.74,25.27 z m -57.63,-12.45 53,12.07 -57.16,-4.76 2.78,-7.08 z m -66.59,25.54 10.44,-0.92 h 0.09 l 0.06,-0.05 3,-2.28 v 0 l 17.16,-13.28 10.16,0.32 13.68,15.9 -4,3.63 -6.07,-6.21 -1.3,1.2 6,6.15 -7.35,6.71 -1.12,-9.3 -1.69,0.3 1.13,9.91 -8.66,1 -0.11,-9.64 h -1.75 l 0.11,9.81 -16.58,1.84 z m 41.87,11.96 7.78,-7 10.58,10.83 -17.2,5.52 z m 9.08,-8.16 4.35,-3.91 v 0 l 3.63,-9.25 37.1,13.7 -34,10.86 z m 59.28,-4 -11.49,3.68 -39.13,-14.47 2.16,-5.49 62.71,5.21 z m 61.38,-7.15 h 0.35 l 0.22,-1.74 -45.09,-3.75 16.88,-25.47 17.14,-2.83 9.83,8.2 1.05,0.84 24.93,60.77 -0.19,0.45 -33.78,40.29 -35.65,-80.45 z m -26.59,-32.88 4.56,-10.52 9.76,8.16 z m -0.77,0.13 -14.53,2.41 3.67,-43 32.8,-11.65 -16.39,39.55 z m -10.53,-94.73 -7.6,14.47 v 0.08 0 l -15,28.24 4,-25.06 z m -32.14,11.24 12.89,6.28 -4.34,26.94 -15.45,15.2 -26.71,-1 -9,-22.89 L 248,34 Z m -43.17,25 9,22.63 -10.84,8.93 v 0 0.06 0 0 l -3.13,29.28 -24.15,4.13 -0.31,-6.43 7,-33.43 z m -30.07,58.73 0.31,6.62 -4.69,9.59 -8.53,3.96 -4.12,-7.16 -8.84,3.95 10.26,19.45 -2.44,1.9 -10.67,0.94 -3.52,-32.57 26.29,-11.4 z m -32.54,6.17 -8.19,-6.47 -0.22,-1.27 1.42,-1.85 10,-6.43 H 163 l 6,4.75 z m -8.62,-6 8.26,6.54 3.52,32.46 -9.23,-2.13 -2.69,-0.62 5.83,-19.54 -0.23,-0.12 v 0 l -7.82,-4.24 -0.35,-0.19 -0.11,0.39 v 0 l -1.81,6.08 -2.78,-4.38 v -6.6 z m -4.17,19.49 0.62,-2.18 6.84,5.12 -3.95,13.35 -5.79,-9.09 3,-6.06 z m 48.47,33.92 8.74,-1 1,9.12 h -0.14 l -9.45,5.47 z m 84.87,-3.72 0.18,-0.21 9.15,-20 -4.29,22.05 z m 81,17.89 -24.25,-59.1 37,29.4 z M 213.32,29.7 247,33.88 205.48,58.25 182.6,83.94 182.54,84 l -7,33.13 -12.39,-9.84 h -17.43 l -9.11,5.87 15.24,-28 4.8,-26.91 24.71,-20.45 z m 36,236.82 -29.12,5.88 -2.2,-53.2 -0.14,-0.52 44.36,-49.62 5.95,2.2 -18.53,95.07 z m 19.43,-95 4.89,1.81 0.6,-1.64 -5.15,-1.91 4.51,-23.14 36,81.05 -59.2,38.19 z"
       id="path17"
       style="fill:#ffffff;opacity:0.5" />
  </g>
</svg>
