<?xml version="1.0" encoding="UTF-8" standalone="no"?>
<svg
   xmlns:dc="http://purl.org/dc/elements/1.1/"
   xmlns:cc="http://creativecommons.org/ns#"
   xmlns:rdf="http://www.w3.org/1999/02/22-rdf-syntax-ns#"
   xmlns:svg="http://www.w3.org/2000/svg"
   xmlns="http://www.w3.org/2000/svg"
   xmlns:xlink="http://www.w3.org/1999/xlink"
   xmlns:sodipodi="http://sodipodi.sourceforge.net/DTD/sodipodi-0.dtd"
   xmlns:inkscape="http://www.inkscape.org/namespaces/inkscape"
   viewBox="0 0 4095.9999 2304"
   version="1.1"
   id="svg172"
   sodipodi:docname="groovy_gorilla_20.10.svg"
   width="4096"
   height="2304"
   inkscape:version="1.0.1 (3bc2e813f5, 2020-09-07)"
   inkscape:export-filename="/home/muqtadir/yaru-remix/wallpapers/groovy_gorilla_20.10.png"
   inkscape:export-xdpi="96"
   inkscape:export-ydpi="96">
  <metadata
     id="metadata176">
    <rdf:RDF>
      <cc:Work
         rdf:about="">
        <dc:format>image/svg+xml</dc:format>
        <dc:type
           rdf:resource="http://purl.org/dc/dcmitype/StillImage" />
        <dc:title>Artboard 1</dc:title>
      </cc:Work>
    </rdf:RDF>
  </metadata>
  <sodipodi:namedview
     pagecolor="#ffffff"
     bordercolor="#666666"
     borderopacity="1"
     objecttolerance="10"
     gridtolerance="10"
     guidetolerance="10"
     inkscape:pageopacity="0"
     inkscape:pageshadow="2"
     inkscape:window-width="1848"
     inkscape:window-height="1016"
     id="namedview174"
     showgrid="false"
     units="px"
     inkscape:zoom="0.25"
     inkscape:cx="2739.84"
     inkscape:cy="1268.1537"
     inkscape:window-x="72"
     inkscape:window-y="27"
     inkscape:window-maximized="1"
     inkscape:current-layer="svg172"
     inkscape:document-rotation="0" />
  <defs
     id="defs11">
    <style
       id="style2">.cls-1{isolation:isolate;}.cls-2{fill:#4a3043;}.cls-3{fill:#563d4e;}.cls-4{fill:#5f4758;}.cls-5{fill:#85737f;}.cls-6{fill:#a1939d;}.cls-7{fill:#bdb3ba;}.cls-8{fill:#7b6876;}.cls-30,.cls-9{fill:#43273b;}.cls-10{fill:#a36598;}.cls-11{fill:#b684ac;}.cls-12{fill:#4c3245;}.cls-13{fill:#d4b7cf;}.cls-14{fill:#c8a3c1;}.cls-15{fill:#9d5b91;}.cls-16{fill:#97518a;}.cls-17{fill:#ceadc8;}.cls-18{fill:#af7aa6;}.cls-19{fill:#aa9ea7;}.cls-20{fill:#695262;}.cls-21{fill:#914783;}.cls-22{fill:#bc8eb3;}.cls-23{fill:#8e7d89;}.cls-24{fill:#725d6c;}.cls-25{fill:#fff;}.cls-26{fill:url(#linear-gradient);}.cls-27,.cls-28,.cls-29{fill:#e95420;}.cls-27{opacity:0.8;}.cls-28{opacity:0.9;}.cls-30{opacity:0.25;mix-blend-mode:multiply;}</style>
    <linearGradient
       id="linear-gradient"
       x1="104.38"
       y1="370.12"
       x2="197.92"
       y2="532.13"
       gradientUnits="userSpaceOnUse">
      <stop
         offset="0"
         stop-color="#43174c"
         id="stop4" />
      <stop
         offset="0.48"
         stop-color="#622671"
         id="stop6" />
      <stop
         offset="1"
         stop-color="#ca4232"
         id="stop8" />
    </linearGradient>
    <clipPath
       id="_clipPath_iATqGFxonEViPBnL5ZywIMgvc1yaWggz">
      <rect
         width="4096"
         height="2304"
         id="rect2"
         x="0"
         y="0" />
    </clipPath>
    <linearGradient
       id="_lgradient_3"
       x1="0.49900275"
       y1="0.0021631187"
       x2="0.50312501"
       y2="1.0061398"
       gradientTransform="scale(4096,2304)"
       gradientUnits="userSpaceOnUse"
       xlink:href="#linearGradient1204">
      <stop
         offset="0%"
         stop-opacity="1"
         style="stop-color:#0000d4;stop-opacity:1"
         id="stop7" />
      <stop
         offset="100%"
         stop-opacity="1"
         style="stop-color:#00ccff;stop-opacity:1"
         id="stop9" />
    </linearGradient>
    <linearGradient
       inkscape:collect="always"
       xlink:href="#linearGradient4464-915-415-326-161-611"
       id="linearGradient4470-926-871-573-654-629"
       x1="256"
       y1="375"
       x2="256"
       y2="135.28078"
       gradientUnits="userSpaceOnUse"
       gradientTransform="matrix(3.8925649,2.3047258,-2.1228272,3.5853473,8.2951826,273.07998)" />
    <linearGradient
       inkscape:collect="always"
       id="linearGradient4464-915-415-326-161-611">
      <stop
         id="stop1381"
         offset="0"
         style="stop-color:#f5f5f5;stop-opacity:1;opacity:1" />
      <stop
         id="stop1383"
         offset="1"
         style="stop-color:#d5f6ff;stop-opacity:1;opacity:1" />
    </linearGradient>
  </defs>
  <title
     id="title13">Artboard 1</title>
  <g
     clip-path="url(#_clipPath_iATqGFxonEViPBnL5ZywIMgvc1yaWggz)"
     id="g22"
     style="isolation:isolate">
    <linearGradient
       id="linearGradient1204"
       x1="0.50574714"
       y1="0.0091954023"
       x2="0.50804597"
       y2="1.0022988"
       gradientTransform="scale(4096,2304)"
       gradientUnits="userSpaceOnUse">
      <stop
         offset="0%"
         stop-opacity="1"
         style="stop-color:#0000d4;stop-opacity:1"
         id="stop1200" />
      <stop
         offset="100%"
         stop-opacity="1"
         style="stop-color:#2ad4ff;stop-opacity:1"
         id="stop1202" />
    </linearGradient>
    <rect
       x="0"
       y="0"
       width="4096"
       height="2304"
       fill="url(#_lgradient_3)"
       id="rect12"
       style="fill:url(#_lgradient_3);fill-opacity:1.0" />
    <g
       opacity="0.04"
       id="g16">
      <path
         d="M 646,0 H 3445 L 2396,2304 h -688 z"
         fill="#bdbdbd"
         style="opacity:0.5;mix-blend-mode:darken;fill:#000000"
         id="path14"
         sodipodi:nodetypes="ccccc" />
    </g>
    <path
       d="M 0,1881 1850,0 h 420 l 1826,1881 v 423 H 0 Z"
       fill="#848484"
       style="opacity:0.07;mix-blend-mode:overlay;fill:#ffffff"
       id="path18"
       sodipodi:nodetypes="ccccccc" />
  </g>
  <g
     id="g1380"
     transform="matrix(0.59062497,0,0,0.59062497,450.55062,225.58901)">
    <g
       id="g1298"
       transform="matrix(3,0,0,3,1775.7535,142.47162)">
      <g
         class="cls-1"
         id="g170"
         transform="translate(5.5515136,18.089453)">
        <g
           id="Layer_1"
           data-name="Layer 1">
          <polygon
             class="cls-2"
             points="492.16,585.17 547.85,395.51 547.85,630.2 "
             id="polygon15"
             style="opacity:0.3;fill:#aaccff" />
          <polygon
             class="cls-3"
             points="463.55,745.48 429.59,645.09 492.16,585.17 547.85,630.2 490.52,769.34 439.15,798.68 390.26,852.44 415.83,794.13 "
             id="polygon17"
             style="opacity:0.25;fill:#aaccff" />
          <polygon
             class="cls-4"
             points="493.97,143.68 511.2,243.16 415.49,156.76 289.5,131.51 289.5,7.99 408.36,29.34 "
             id="polygon19"
             style="opacity:0.3;fill:#aaccff" />
          <polygon
             class="cls-5"
             points="289.5,7.99 173.89,30.49 163.68,159.69 289.5,131.51 "
             id="polygon21"
             style="opacity:0.39;fill:#aaccff" />
          <polygon
             class="cls-6"
             points="173.89,30.49 163.68,159.69 71.54,240.79 88.77,146.66 "
             id="polygon23"
             style="opacity:0.3;fill:#aaccff" />
          <polygon
             class="cls-5"
             points="493.97,143.68 511.2,243.16 547.85,364.77 547.85,323.44 "
             id="polygon25"
             style="opacity:0.4;fill:#aaccff" />
          <polygon
             class="cls-7"
             points="88.77,146.66 36.36,320 31.93,364.77 71.54,240.79 "
             id="polygon27"
             style="opacity:0.4;fill:#aaccff" />
          <polyline
             class="cls-7"
             points="31.93 364.77 31.93 364.77 6.1 355.12 14.22 331.25 36.36 320"
             id="polyline29"
             style="opacity:0.35;fill:#aaccff" />
          <polyline
             class="cls-8"
             points="31.93 364.77 6.1 355.12 11.27 417.11 31.93 454.04 31.93 364.77"
             id="polyline31"
             style="opacity:0.3;fill:#aaccff" />
          <polygon
             class="cls-9"
             points="575.9,353.06 571.47,414.36 547.85,454.04 547.85,364.77 "
             id="polygon33"
             style="opacity:0.3;fill:#aaccff" />
          <polygon
             class="cls-5"
             points="547.85,323.44 567.78,331.25 575.9,353.06 547.85,364.77 "
             id="polygon35"
             style="opacity:0.4;fill:#aaccff" />
          <polygon
             class="cls-10"
             points="289.5,666.9 289.5,745.48 414.69,771.5 463.55,745.48 365.13,654.63 "
             id="polygon37"
             style="opacity:0.45;fill:#aaccff" />
          <polyline
             class="cls-9"
             points="395.32 388.24 393.59 421.96 449.44 440.53 501.11 429.51 458.54 412.64 395.32 388.24"
             id="polyline39" />
          <polyline
             class="cls-10"
             points="289.5 416.19 289.5 460.73 332.25 442.37 289.5 416.19"
             id="polyline41"
             style="opacity:0.38;fill:#ffffff" />
          <polyline
             class="cls-11"
             points="289.5 416.19 250.65 442.6 289.5 460.73 289.5 416.19"
             id="polyline43"
             style="opacity:0.38;fill:#ffffff" />
          <polygon
             class="cls-11"
             points="131.57,439.61 78.43,429.05 124.19,509.18 148.94,470.84 "
             id="polygon45" />
          <polygon
             class="cls-12"
             points="234.17,474.62 250.65,442.6 187.67,422.19 131.57,439.61 148.94,470.84 "
             id="polygon47" />
          <polygon
             class="cls-12"
             points="430.5,471.7 449.44,440.53 393.59,421.96 332.25,442.37 341.56,476.86 "
             id="polygon49" />
          <polygon
             class="cls-13"
             points="501.48,429.51 449.51,440.37 430.5,471.7 453.25,511.24 "
             id="polygon51" />
          <polyline
             class="cls-9"
             points="249.01 603.16 218.38 613.84 268.78 663.2 273.37 616.21 249.01 603.16"
             id="polyline53"
             style="opacity:0.2;fill:#aaccff" />
          <polyline
             class="cls-14"
             points="151.18 646.47 114.77 745.99 212.14 653.25 151.18 646.47"
             id="polyline55"
             style="opacity:0.45;fill:#aaccff" />
          <polyline
             class="cls-15"
             points="429.59 645.09 365.13 654.63 463.54 745.48 429.59 645.09"
             id="polyline57"
             style="opacity:0.35;fill:#aaccff" />
          <polygon
             class="cls-11"
             points="114.77,745.99 163.18,794.13 188.75,852.44 289.5,896.01 289.5,766.14 163.85,782.78 "
             id="polygon59"
             style="opacity:0.35;fill:#aaccff" />
          <polygon
             class="cls-16"
             points="463.55,745.48 415.83,794.13 390.26,852.44 289.5,896.01 289.5,766.14 415.16,782.78 "
             id="polygon61"
             style="opacity:0.45;fill:#aaccff" />
          <polygon
             class="cls-14"
             points="230.96,568.68 289.5,549.21 289.5,593.43 "
             id="polygon63"
             style="opacity:0.5;fill:#aaccff" />
          <polygon
             class="cls-17"
             points="230.96,568.68 289.5,549.21 289.5,460.73 250.65,442.6 234.17,474.62 148.94,470.84 124.19,509.18 "
             id="polygon65"
             style="opacity:0.5;fill:#aaccff" />
          <polygon
             class="cls-18"
             points="289.5,549.21 347.99,568.1 453.25,511.24 430.5,471.7 341.56,476.86 332.25,442.37 289.5,460.73 "
             id="polygon67"
             style="opacity:0.5;fill:#aaccff" />
          <polygon
             class="cls-11"
             points="347.99,568.1 289.5,549.21 289.5,593.43 "
             id="polygon69"
             style="opacity:0.5;fill:#aaccff" />
          <polygon
             class="cls-14"
             points="230.96,568.68 196.26,608.21 212.14,653.25 268.78,663.2 218.38,613.84 249.01,603.16 273.37,616.25 289.5,593.43 "
             id="polygon71"
             style="opacity:0.5;fill:#aaccff" />
          <polygon
             class="cls-15"
             points="289.5,593.43 289.5,666.9 311.24,663.37 305.14,616.03 "
             id="polygon73"
             style="opacity:0.5;fill:#aaccff" />
          <polygon
             class="cls-11"
             points="289.5,593.43 305.14,616.03 326.92,603.43 360.38,614.91 311.24,663.37 365.13,654.63 382.52,609.97 347.99,568.1 "
             id="polygon75"
             style="opacity:0.5;fill:#aaccff" />
          <polygon
             class="cls-9"
             points="414.69,771.5 289.5,745.48 164.24,771.29 114.77,745.99 163.85,782.78 289.5,766.14 415.16,782.78 463.55,745.48 "
             id="polygon77"
             style="opacity:0.2;fill:#aaccff;fill-opacity:1" />
          <polygon
             class="cls-10"
             points="289.5,355.81 382.52,334.02 395.32,388.24 289.5,416.19 "
             id="polygon79"
             style="opacity:0.38;fill:#aaccff" />
          <polygon
             class="cls-11"
             points="289.5,355.81 191.36,337.46 181.76,387.78 289.5,416.19 "
             id="polygon81"
             style="opacity:0.4;fill:#aaccff" />
          <polygon
             class="cls-5"
             points="191.36,337.46 289.5,355.81 289.5,203.6 289.5,131.51 163.68,159.69 182.5,219.44 "
             id="polygon83"
             style="opacity:0.39;fill:#aaccff" />
          <polygon
             class="cls-6"
             points="182.5,219.44 107.22,300.02 102.79,343.42 191.36,337.46 "
             id="polygon85"
             style="opacity:0.3;fill:#ffffff" />
          <polygon
             class="cls-17"
             points="78.43,429.05 119.77,411.96 181.76,387.78 191.36,337.46 102.79,343.42 31.93,396.91 "
             id="polygon87"
             style="opacity:0.43;fill:#aaccff" />
          <polygon
             class="cls-19"
             points="102.79,343.42 107.22,300.02 182.5,219.44 163.68,159.69 71.54,240.79 31.93,364.77 31.93,396.91 "
             id="polygon89"
             style="opacity:0.35;fill:#aaccff" />
          <polygon
             class="cls-20"
             points="289.5,203.6 289.5,355.81 382.52,334.02 396.55,219.44 "
             id="polygon91"
             style="opacity:0.35;fill:#aaccff" />
          <polygon
             class="cls-21"
             points="395.32,388.24 458.55,412.64 501.48,429.51 547.85,395.51 478.47,339.97 382.52,334.02 "
             id="polygon93"
             style="opacity:0.43;fill:#aaccff" />
          <polygon
             class="cls-20"
             points="470.35,297.96 478.47,339.97 547.85,395.51 547.85,364.77 511.2,243.16 415.49,156.76 289.5,131.51 289.5,203.6 396.55,219.44 "
             id="polygon95"
             style="opacity:0.33;fill:#aaccff" />
          <polygon
             class="cls-4"
             points="470.35,297.96 396.55,219.44 382.52,334.02 478.47,339.97 "
             id="polygon97"
             style="opacity:0.31;fill:#aaccff" />
          <path
             class="cls-22"
             d="m 231,568.68 -106.77,-59.5 -45.79,-80.12 -46.51,-32.15 56.8,189.68 62.45,59.88 61,6.78 -15.88,-45 z m -128.17,-51 z"
             id="path99"
             style="opacity:0.4;fill:#aaccff;stroke:none;stroke-opacity:1" />
          <polygon
             class="cls-9"
             points="326.92,603.43 360.38,614.91 311.24,663.37 305.14,616.03 "
             id="polygon101"
             style="opacity:0.2;fill:#aaccff" />
          <polygon
             class="cls-22"
             points="268.78,663.2 212.14,653.25 114.77,745.99 164.24,771.29 289.5,745.48 289.5,666.9 "
             id="polygon103"
             style="opacity:0.34;fill:#aaccff" />
          <polygon
             class="cls-11"
             points="289.5,593.43 289.5,666.9 268.78,663.2 273.37,616.21 "
             id="polygon105"
             style="opacity:0.5;fill:#aaccff" />
          <polyline
             class="cls-9"
             points="289.5 416.19 395.32 388.24 393.59 421.96 332.25 442.37 289.5 416.19"
             id="polyline107"
             style="opacity:0.5;fill:#ffffff" />
          <polygon
             class="cls-9"
             points="289.5,416.19 181.76,387.78 187.67,422.19 250.65,442.6 "
             id="polygon109"
             style="opacity:0.5;fill:#ffffff" />
          <polygon
             class="cls-9"
             points="187.67,422.19 181.76,387.78 119.77,411.96 78.44,429.06 131.57,439.61 "
             id="polygon111" />
          <polygon
             class="cls-23"
             points="88.73,586.59 31.93,396.91 31.94,630.2 "
             id="polygon113"
             style="opacity:0.3;fill:#aaccff" />
          <polygon
             class="cls-8"
             points="163.18,794.13 114.77,745.99 151.18,646.47 88.73,586.59 31.94,630.2 89.27,769.34 138.89,797.58 188.75,852.44 "
             id="polygon115"
             style="opacity:0.25;fill:#aaccff" />
          <polygon
             class="cls-24"
             points="289.5,203.6 289.5,131.51 163.68,159.69 182.5,219.44 "
             id="polygon117"
             style="opacity:0.05;fill:#aaccff" />
          <polygon
             class="cls-10"
             points="501.48,429.51 453.25,511.24 347.99,568.1 382.52,609.97 365.13,654.63 429.59,645.09 492.16,585.17 547.85,395.51 "
             id="polygon119"
             style="opacity:0.4;fill:#aaccff" />
          <path
             class="cls-25"
             d="m 15.703529,408.32 -1,-31.89 c 0,0 -0.83,-5.15 9,-5.48 9.83,-0.33 92.360001,-10.13 149.540001,-1.64 57.18,8.49 87.44,20.69 117.18,22.36 v 41.61 c 0,0 -16.32,0 -22.73,20.75 -6.41,20.75 -21.17,67.97 -64.94,87.97 -43.77,20 -115.860001,1.85 -135.110001,-14.76 -19.25,-16.61 -29.43,-72.83 -32.45,-84.53 -3.02,-11.7 -7.84,-25.52 -14.72,-26.42 -5.78,-0.75 -4.77,-7.97 -4.77,-7.97 z"
             id="path121"
             style="opacity:1;fill:#80b3ff;fill-opacity:1" />
          <path
             class="cls-27"
             d="m 235.82,400.68 -134,134 v 0 z"
             id="path131" />
          <path
             class="cls-25"
             d="m 564.66,408.32 1,-31.89 c 0,0 0.83,-5.15 -9,-5.48 -9.83,-0.33 -92.37,-10.13 -149.54,-1.64 C 349.95,377.8 319.69,390 290,391.67 v 41.61 c 0,0 16.33,0 22.74,20.75 6.41,20.75 21.1,67.97 64.88,87.97 43.78,20 115.86,1.89 135.1,-14.72 19.24,-16.61 29.44,-72.83 32.46,-84.53 3.02,-11.7 7.84,-25.52 14.72,-26.42 5.78,-0.79 4.76,-8.01 4.76,-8.01 z"
             id="path145"
             style="opacity:1;fill:#80b3ff" />
          <polygon
             class="cls-27"
             points="391.04,535.59 523.83,402.8 391.03,535.59 "
             id="polygon153" />
        </g>
      </g>
    </g>
  </g>
  <path
     d="m 0,2304 v -604 l 604,604 v 0 z"
     fill="#bdbdbd"
     style="opacity:0.015;isolation:isolate;mix-blend-mode:normal;fill:#000000"
     id="path14-3"
     sodipodi:nodetypes="ccccc" />
  <path
     d="m 4096,2304 v -604 l -604,604 v 0 z"
     fill="#bdbdbd"
     style="opacity:0.015;isolation:isolate;mix-blend-mode:normal;fill:#000000"
     id="path14-3-6"
     sodipodi:nodetypes="ccccc" />
  <path
     class="cls-25"
     d="m 2450.4471,1098.1311 c 0,0 6.68,-71.5484 -97.6303,-84.2527 -110.8307,-13.5017 -243.4024,20.7309 -259.4556,64.8683 -16.0532,44.1374 19.402,135.7434 53.4929,175.8586 34.0909,40.1153 96.3014,51.4907 149.7943,45.4663 53.4929,-6.0243 118.8574,-16.8328 139.0745,-87.6015 18.7287,-65.5239 14.7242,-114.339 14.7242,-114.339 z"
     id="path147"
     style="fill:#315bef;stroke-width:1.77187;fill-opacity:1" />
  <path
     class="cls-27"
     d="m 2352.8169,1013.8784 -1.1518,-0.124 -219.8896,219.8897 a 181.38683,181.38683 0 0 0 15.0786,20.9613 c 14.3522,16.8682 33.6656,28.6335 55.1939,36.1817 l 235.305,-235.2873 c -12.598,-17.8782 -37.0676,-35.845 -84.5361,-41.6214 z"
     id="path149"
     style="opacity:0.8;fill:#5599ff;fill-opacity:1;stroke-width:1.77187" />
  <path
     class="cls-28"
     d="m 2450.0574,1088.3504 a 72.363371,72.363371 0 0 0 -12.7044,-32.8506 l -235.3581,235.2873 a 187.81874,187.81874 0 0 0 36.8372,8.7176 z"
     id="path151"
     style="opacity:0.85;fill:#5599ff;fill-opacity:1;stroke-width:1.77187" />
  <path
     class="cls-29"
     d="m 2450.4472,1098.1311 a 50.56931,50.56931 0 0 0 -0.3544,-9.5327 l -210.8531,210.8531 a 235.83655,235.83655 0 0 0 57.4973,0.5316 423.12373,423.12373 0 0 0 42.1529,-6.4319 c 41.6391,-8.9657 81.8429,-28.35 96.9216,-81.1696 2.0908,-7.2824 3.8804,-14.3522 5.4396,-21.2625 12.35,-54.4143 9.1961,-92.988 9.1961,-92.988 z"
     id="path161"
     style="opacity:1;fill:#5599ff;fill-opacity:1;stroke-width:1.77187" />
  <path
     class="cls-29"
     d="m 2311.1424,1010.9903 h -2.5338 q -3.1362,0 -6.2725,0 c -97.2227,-0.1063 -195.3137,30.2813 -208.9749,67.8451 -10.6312,29.0942 1.2403,78.8484 20.288,120.8596 0.6556,1.4529 1.3289,2.8881 2.0022,4.3056 l 0.8151,1.7719 a 283.49998,283.49998 0 0 0 15.309,27.9779 l 219.8896,-219.8897 c -13.2359,-1.6833 -26.8616,-2.5869 -40.5227,-2.8704 z"
     id="path163"
     style="opacity:1;fill:#5599ff;fill-opacity:1;stroke-width:1.77187" />
  <path
     class="cls-30"
     d="m 2450.6244,1121.2009 0.1594,-13.8383 c 0,-5.9535 -0.3366,-9.2315 -0.3366,-9.2315 0,0 6.6799,-71.5483 -97.6303,-84.2527 -110.8308,-13.5016 -243.4025,20.731 -259.4557,64.8684 -4.7663,13.1119 -4.9612,30.4408 -2.0199,49.3644 v 0 c 0,0 69.9004,-49.6125 198.2728,-62.7066 128.3723,-13.0942 161.0103,55.7963 161.0103,55.7963 z"
     id="path165"
     style="opacity:0.07;mix-blend-mode:multiply;fill:#43273b;stroke-width:1.77187" />
  <path
     class="cls-25"
     d="m 2372.3606,1074.636 a 5.2093122,5.2093122 0 1 1 -5.1916,-5.1916 5.1915935,5.1915935 0 0 1 5.1916,5.1916 z m 29.5726,25.267 a 5.2093122,5.2093122 0 1 0 1.9137,-7.0875 5.2093122,5.2093122 0 0 0 -1.9137,7.0875 z m 8.9834,-45.3246 a 5.1915935,5.1915935 0 1 0 -7.0875,1.8959 5.1915935,5.1915935 0 0 0 7.0875,-1.8959 z m -17.5592,5.3156 a 14.830593,14.830593 0 0 1 14.7597,13.5017 l 7.5304,-0.124 a 22.290186,22.290186 0 0 0 -6.5736,-14.4231 7.2824058,7.2824058 0 0 1 -9.8694,-5.67 22.307905,22.307905 0 0 0 -15.7519,1.5416 l 3.65,6.5736 a 14.706562,14.706562 0 0 1 6.2548,-1.4884 z m -14.8306,14.8306 a 14.777437,14.777437 0 0 1 6.2901,-12.1196 l -3.8627,-6.5382 a 22.37878,22.37878 0 0 0 -9.2137,12.8638 7.3355621,7.3355621 0 0 1 0,11.4109 22.325624,22.325624 0 0 0 9.2137,12.8992 l 3.8627,-6.4496 a 14.883749,14.883749 0 0 1 -6.2901,-12.1551 z m 14.8306,14.7952 a 15.362155,15.362155 0 0 1 -6.2548,-1.3644 l -3.65,6.556 a 22.148436,22.148436 0 0 0 9.9048,2.2503 22.80403,22.80403 0 0 0 5.8471,-0.7619 7.3001246,7.3001246 0 0 1 9.8694,-5.6878 22.219311,22.219311 0 0 0 6.5736,-14.423 l -7.5304,-0.1063 a 14.812874,14.812874 0 0 1 -14.7597,13.5371 z"
     id="path167"
     style="opacity:0.5;fill:#aaccff;stroke-width:1.77187" />
  <path
     class="cls-25"
     d="m 1595.5352,1098.1311 c 0,0 -6.68,-71.5483 97.6303,-84.2527 110.8308,-13.5017 243.4025,20.731 259.4379,64.8684 16.0355,44.1374 -19.3843,135.7433 -53.4929,175.8585 -34.1086,40.1153 -96.2837,51.4907 -149.7766,45.4664 -53.4929,-6.0244 -118.8573,-16.8329 -139.1453,-87.6015 -18.6578,-65.524 -14.6534,-114.3391 -14.6534,-114.3391 z"
     id="path125"
     style="fill:#315bef;stroke-width:1.77187;fill-opacity:1" />
  <path
     class="cls-27"
     d="m 1831.6728,1018.875 -213.7236,213.6704 c 15.5394,31.6457 42.3656,47.6635 71.7078,56.5937 l 237.4312,-237.4312 c -22.3433,-14.051 -56.4342,-25.6391 -95.4154,-32.8329 z"
     id="path127"
     style="opacity:0.8;fill:#5599ff;fill-opacity:1;stroke-width:1.77187" />
  <path
     class="cls-28"
     d="m 1950.477,1074.1221 c -4.3943,-7.9026 -12.4031,-15.4153 -23.3888,-22.3433 L 1689.657,1289.21 a 261.98942,261.98942 0 0 0 37.5992,8.0975 z"
     id="path129"
     style="opacity:0.85;fill:#5599ff;fill-opacity:1;stroke-width:1.77187" />
  <path
     class="cls-29"
     d="m 1952.603,1078.7469 a 31.450779,31.450779 0 0 0 -2.1085,-4.6069 L 1727.38,1297.2545 c 7.4419,1.1163 14.7952,2.0199 21.9536,2.8173 a 230.75127,230.75127 0 0 0 70.875,-2.7996 c 30.866,-6.2901 59.4286,-19.8095 78.8661,-42.6667 15.8406,-18.6224 31.8938,-48.3545 43.0743,-79.2737 12.8638,-35.6679 19.0654,-72.9481 10.454,-96.5849 z"
     id="path139"
     style="opacity:1;fill:#5599ff;fill-opacity:1;stroke-width:1.77187" />
  <path
     class="cls-29"
     d="m 1793.7547,1013.4708 -2.3389,-0.2303 -4.9258,-0.4607 a 453.59997,453.59997 0 0 0 -93.3247,1.0985 c -104.3103,12.7044 -97.6303,84.2527 -97.6303,84.2527 0,0 -3.2602,39.7786 9.8694,95.6812 0.3366,1.4353 0.691,2.8882 1.0631,4.3411 0.1595,0.6911 0.3189,1.3644 0.4961,2.0731 q 1.5061,6.0067 3.2957,12.2082 a 118.27265,118.27265 0 0 0 7.6899,20.0754 l 213.7236,-213.635 c -12.2614,-2.2502 -24.9657,-4.0753 -37.9181,-5.4042 z"
     id="path141"
     style="opacity:1;fill:#5599ff;fill-opacity:1;stroke-width:1.77187" />
  <path
     class="cls-30"
     d="m 1595.3401,1120.5275 -0.1417,-13.165 c 0,-5.9535 0.3366,-9.2315 0.3366,-9.2315 0,0 -6.68,-71.5483 97.6303,-84.2527 110.8308,-13.5016 243.4025,20.731 259.4379,64.8684 4.7841,13.1119 4.979,30.4408 2.02,49.3644 v 0 c 0,0 -69.7942,-49.577 -198.2551,-62.7066 -128.4609,-13.1296 -161.028,55.123 -161.028,55.123 z"
     id="path143"
     style="opacity:0.07;mix-blend-mode:multiply;fill:#43273b;stroke-width:1.77187" />
</svg>
