<?xml version="1.0" encoding="UTF-8" standalone="no"?>
<svg
   xmlns:dc="http://purl.org/dc/elements/1.1/"
   xmlns:cc="http://creativecommons.org/ns#"
   xmlns:rdf="http://www.w3.org/1999/02/22-rdf-syntax-ns#"
   xmlns:svg="http://www.w3.org/2000/svg"
   xmlns="http://www.w3.org/2000/svg"
   xmlns:sodipodi="http://sodipodi.sourceforge.net/DTD/sodipodi-0.dtd"
   xmlns:inkscape="http://www.inkscape.org/namespaces/inkscape"
   viewBox="0 0 5461.3333 3072"
   version="1.1"
   id="svg172"
   sodipodi:docname="groovy_gorilla_20.10.svg"
   width="4096pt"
   height="2304pt"
   inkscape:version="1.0.1 (3bc2e813f5, 2020-09-07)"
   inkscape:export-filename="/home/muqtxdir/yaru-remix/wallpaper/groovy_gorilla_20.10.png"
   inkscape:export-xdpi="96"
   inkscape:export-ydpi="96">
  <metadata
     id="metadata176">
    <rdf:RDF>
      <cc:Work
         rdf:about="">
        <dc:format>image/svg+xml</dc:format>
        <dc:type
           rdf:resource="http://purl.org/dc/dcmitype/StillImage" />
        <dc:title>Artboard 1</dc:title>
      </cc:Work>
    </rdf:RDF>
  </metadata>
  <sodipodi:namedview
     pagecolor="#aaccff"
     bordercolor="#666666"
     borderopacity="1"
     objecttolerance="10"
     gridtolerance="10"
     guidetolerance="10"
     inkscape:pageopacity="0"
     inkscape:pageshadow="2"
     inkscape:window-width="1848"
     inkscape:window-height="1016"
     id="namedview174"
     showgrid="false"
     units="pt"
     inkscape:zoom="0.15"
     inkscape:cx="2520.1969"
     inkscape:cy="1561.7447"
     inkscape:window-x="72"
     inkscape:window-y="27"
     inkscape:window-maximized="1"
     inkscape:current-layer="svg172"
     inkscape:document-rotation="0" />
  <defs
     id="defs11">
    <style
       id="style2">.cls-1{isolation:isolate;}.cls-2{fill:#4a3043;}.cls-3{fill:#563d4e;}.cls-4{fill:#5f4758;}.cls-5{fill:#85737f;}.cls-6{fill:#a1939d;}.cls-7{fill:#bdb3ba;}.cls-8{fill:#7b6876;}.cls-30,.cls-9{fill:#43273b;}.cls-10{fill:#a36598;}.cls-11{fill:#b684ac;}.cls-12{fill:#4c3245;}.cls-13{fill:#d4b7cf;}.cls-14{fill:#c8a3c1;}.cls-15{fill:#9d5b91;}.cls-16{fill:#97518a;}.cls-17{fill:#ceadc8;}.cls-18{fill:#af7aa6;}.cls-19{fill:#aa9ea7;}.cls-20{fill:#695262;}.cls-21{fill:#914783;}.cls-22{fill:#bc8eb3;}.cls-23{fill:#8e7d89;}.cls-24{fill:#725d6c;}.cls-25{fill:#fff;}.cls-26{fill:url(#linear-gradient);}.cls-27,.cls-28,.cls-29{fill:#e95420;}.cls-27{opacity:0.8;}.cls-28{opacity:0.9;}.cls-30{opacity:0.25;mix-blend-mode:multiply;}</style>
    <linearGradient
       id="linear-gradient"
       x1="104.38"
       y1="370.12"
       x2="197.92"
       y2="532.13"
       gradientUnits="userSpaceOnUse">
      <stop
         offset="0"
         stop-color="#43174c"
         id="stop4" />
      <stop
         offset="0.48"
         stop-color="#622671"
         id="stop6" />
      <stop
         offset="1"
         stop-color="#ca4232"
         id="stop8" />
    </linearGradient>
    <clipPath
       id="_clipPath_iATqGFxonEViPBnL5ZywIMgvc1yaWggz">
      <rect
         width="4096"
         height="2304"
         id="rect2"
         x="0"
         y="0" />
    </clipPath>
    <linearGradient
       id="_lgradient_3"
       x1="0.50574714"
       y1="0.0091954023"
       x2="0.50804597"
       y2="1.0022988"
       gradientTransform="scale(4096,2304)"
       gradientUnits="userSpaceOnUse">
      <stop
         offset="0%"
         stop-opacity="1"
         style="stop-color:#0000d4;stop-opacity:1"
         id="stop7" />
      <stop
         offset="100%"
         stop-opacity="1"
         style="stop-color:#2ad4ff;stop-opacity:1"
         id="stop9" />
    </linearGradient>
  </defs>
  <title
     id="title13">Artboard 1</title>
  <g
     clip-path="url(#_clipPath_iATqGFxonEViPBnL5ZywIMgvc1yaWggz)"
     id="g22"
     style="isolation:isolate"
     transform="scale(1.3333334)">
    <linearGradient
       id="linearGradient1204"
       x1="0.50574714"
       y1="0.0091954023"
       x2="0.50804597"
       y2="1.0022988"
       gradientTransform="scale(4096,2304)"
       gradientUnits="userSpaceOnUse">
      <stop
         offset="0%"
         stop-opacity="1"
         style="stop-color:#0000d4;stop-opacity:1"
         id="stop1200" />
      <stop
         offset="100%"
         stop-opacity="1"
         style="stop-color:#2ad4ff;stop-opacity:1"
         id="stop1202" />
    </linearGradient>
    <rect
       x="0"
       y="0"
       width="4096"
       height="2304"
       fill="url(#_lgradient_3)"
       id="rect12"
       style="fill:url(#_lgradient_3)" />
    <g
       opacity="0.04"
       id="g16">
      <path
         d="M 0,0 H 4096 L 2904.178,2304 H 1206.044 Z"
         fill="#bdbdbd"
         style="mix-blend-mode:darken"
         id="path14" />
    </g>
    <path
       d="M 0,1413.032 1348.267,0 H 2776.178 L 4096,1413.032 V 2304 H 0 Z"
       fill="#848484"
       style="mix-blend-mode:overlay"
       id="path18" />
    <path
       d="M 0,801.28 V 0 H 4096 V 801.28 L 2579.911,2304 H 1533.156 Z"
       fill="#868686"
       style="mix-blend-mode:overlay"
       id="path20" />
  </g>
  <g
     id="g1380"
     transform="matrix(0.7875,0,0,0.7875,652.03051,300.78536)">
    <g
       id="g1298"
       transform="matrix(3,0,0,3,1775.7535,142.47162)">
      <g
         class="cls-1"
         id="g170"
         transform="translate(5.5515136,18.089453)">
        <g
           id="Layer_1"
           data-name="Layer 1">
          <polygon
             class="cls-2"
             points="492.16,585.17 547.85,395.51 547.85,630.2 "
             id="polygon15"
             style="opacity:0.08;fill:#000000" />
          <polygon
             class="cls-3"
             points="492.16,585.17 547.85,630.2 490.52,769.34 439.15,798.68 390.26,852.44 415.83,794.13 463.55,745.48 429.59,645.09 "
             id="polygon17"
             style="opacity:0.05;fill:#000000" />
          <polygon
             class="cls-4"
             points="493.97,143.68 511.2,243.16 415.49,156.76 289.5,131.51 289.5,7.99 408.36,29.34 "
             id="polygon19"
             style="opacity:0.3;fill:#ffffff" />
          <polygon
             class="cls-5"
             points="163.68,159.69 289.5,131.51 289.5,7.99 173.89,30.49 "
             id="polygon21"
             style="opacity:0.39;fill:#ffffff" />
          <polygon
             class="cls-6"
             points="71.54,240.79 88.77,146.66 173.89,30.49 163.68,159.69 "
             id="polygon23"
             style="opacity:0.3;fill:#ffffff" />
          <polygon
             class="cls-5"
             points="547.85,364.77 547.85,323.44 493.97,143.68 511.2,243.16 "
             id="polygon25"
             style="opacity:0.4;fill:#ffffff" />
          <polygon
             class="cls-7"
             points="31.93,364.77 71.54,240.79 88.77,146.66 36.36,320 "
             id="polygon27"
             style="opacity:0.4;fill:#ffffff" />
          <polyline
             class="cls-7"
             points="31.93 364.77 31.93 364.77 6.1 355.12 14.22 331.25 36.36 320"
             id="polyline29"
             style="opacity:0.35;fill:#ffffff" />
          <polyline
             class="cls-8"
             points="31.93 364.77 6.1 355.12 11.27 417.11 31.93 454.04 31.93 364.77"
             id="polyline31"
             style="opacity:0.08;fill:#000000" />
          <polygon
             class="cls-9"
             points="547.85,454.04 547.85,364.77 575.9,353.06 571.47,414.36 "
             id="polygon33"
             style="opacity:0.08;fill:#000000" />
          <polygon
             class="cls-5"
             points="575.9,353.06 547.85,364.77 547.85,323.44 567.78,331.25 "
             id="polygon35"
             style="opacity:0.4;fill:#ffffff" />
          <polygon
             class="cls-10"
             points="365.13,654.63 289.5,666.9 289.5,745.48 414.69,771.5 463.55,745.48 "
             id="polygon37"
             style="opacity:0.45;fill:#ffffff" />
          <polyline
             class="cls-9"
             points="395.32 388.24 393.59 421.96 449.44 440.53 501.11 429.51 458.54 412.64 395.32 388.24"
             id="polyline39" />
          <polyline
             class="cls-10"
             points="289.5 416.19 289.5 460.73 332.25 442.37 289.5 416.19"
             id="polyline41"
             style="opacity:0.38;fill:#ffffff" />
          <polyline
             class="cls-11"
             points="289.5 416.19 250.65 442.6 289.5 460.73 289.5 416.19"
             id="polyline43"
             style="opacity:0.38;fill:#ffffff" />
          <polygon
             class="cls-11"
             points="124.19,509.18 148.94,470.84 131.57,439.61 78.43,429.05 "
             id="polygon45" />
          <polygon
             class="cls-12"
             points="148.94,470.84 234.17,474.62 250.65,442.6 187.67,422.19 131.57,439.61 "
             id="polygon47" />
          <polygon
             class="cls-12"
             points="341.56,476.86 430.5,471.7 449.44,440.53 393.59,421.96 332.25,442.37 "
             id="polygon49" />
          <polygon
             class="cls-13"
             points="430.5,471.7 453.25,511.24 501.48,429.51 449.51,440.37 "
             id="polygon51" />
          <polyline
             class="cls-9"
             points="249.01 603.16 218.38 613.84 268.78 663.2 273.37 616.21 249.01 603.16"
             id="polyline53"
             style="opacity:0.2;fill:#000000" />
          <polyline
             class="cls-14"
             points="151.18 646.47 114.77 745.99 212.14 653.25 151.18 646.47"
             id="polyline55"
             style="opacity:0.45;fill:#ffffff" />
          <polyline
             class="cls-15"
             points="429.59 645.09 365.13 654.63 463.54 745.48 429.59 645.09"
             id="polyline57"
             style="opacity:0.35;fill:#ffffff" />
          <polygon
             class="cls-11"
             points="114.77,745.99 163.18,794.13 188.75,852.44 289.5,896.01 289.5,766.14 163.85,782.78 "
             id="polygon59"
             style="opacity:0.35;fill:#ffffff" />
          <polygon
             class="cls-16"
             points="463.55,745.48 415.83,794.13 390.26,852.44 289.5,896.01 289.5,766.14 415.16,782.78 "
             id="polygon61"
             style="opacity:0.45;fill:#ffffff" />
          <polygon
             class="cls-14"
             points="230.96,568.68 289.5,549.21 289.5,593.43 "
             id="polygon63"
             style="opacity:0.5;fill:#ffffff" />
          <polygon
             class="cls-17"
             points="289.5,549.21 289.5,460.73 250.65,442.6 234.17,474.62 148.94,470.84 124.19,509.18 230.96,568.68 "
             id="polygon65"
             style="opacity:0.5;fill:#ffffff" />
          <polygon
             class="cls-18"
             points="347.99,568.1 453.25,511.24 430.5,471.7 341.56,476.86 332.25,442.37 289.5,460.73 289.5,549.21 "
             id="polygon67"
             style="opacity:0.5;fill:#ffffff" />
          <polygon
             class="cls-11"
             points="347.99,568.1 289.5,549.21 289.5,593.43 "
             id="polygon69"
             style="opacity:0.5;fill:#ffffff" />
          <polygon
             class="cls-14"
             points="212.14,653.25 268.78,663.2 218.38,613.84 249.01,603.16 273.37,616.25 289.5,593.43 230.96,568.68 196.26,608.21 "
             id="polygon71"
             style="opacity:0.5;fill:#ffffff" />
          <polygon
             class="cls-15"
             points="311.24,663.37 305.14,616.03 289.5,593.43 289.5,666.9 "
             id="polygon73"
             style="opacity:0.5;fill:#ffffff" />
          <polygon
             class="cls-11"
             points="326.92,603.43 360.38,614.91 311.24,663.37 365.13,654.63 382.52,609.97 347.99,568.1 289.5,593.43 305.14,616.03 "
             id="polygon75"
             style="opacity:0.5;fill:#ffffff" />
          <polygon
             class="cls-9"
             points="164.24,771.29 114.77,745.99 163.85,782.78 289.5,766.14 415.16,782.78 463.55,745.48 414.69,771.5 289.5,745.48 "
             id="polygon77"
             style="opacity:0.2;fill:#000000;fill-opacity:1" />
          <polygon
             class="cls-10"
             points="395.32,388.24 289.5,416.19 289.5,355.81 382.52,334.02 "
             id="polygon79"
             style="opacity:0.38;fill:#ffffff" />
          <polygon
             class="cls-11"
             points="181.76,387.78 289.5,416.19 289.5,355.81 191.36,337.46 "
             id="polygon81"
             style="opacity:0.4;fill:#ffffff" />
          <polygon
             class="cls-5"
             points="191.36,337.46 289.5,355.81 289.5,203.6 289.5,131.51 163.68,159.69 182.5,219.44 "
             id="polygon83"
             style="opacity:0.39;fill:#ffffff" />
          <polygon
             class="cls-6"
             points="102.79,343.42 191.36,337.46 182.5,219.44 107.22,300.02 "
             id="polygon85"
             style="opacity:0.3;fill:#ffffff" />
          <polygon
             class="cls-17"
             points="78.43,429.05 119.77,411.96 181.76,387.78 191.36,337.46 102.79,343.42 31.93,396.91 "
             id="polygon87"
             style="opacity:0.55;fill:#ffffff" />
          <polygon
             class="cls-19"
             points="107.22,300.02 182.5,219.44 163.68,159.69 71.54,240.79 31.93,364.77 31.93,396.91 102.79,343.42 "
             id="polygon89"
             style="opacity:0.35;fill:#ffffff" />
          <polygon
             class="cls-20"
             points="382.52,334.02 396.55,219.44 289.5,203.6 289.5,355.81 "
             id="polygon91"
             style="opacity:0.35;fill:#ffffff" />
          <polygon
             class="cls-21"
             points="395.32,388.24 458.55,412.64 501.48,429.51 547.85,395.51 478.47,339.97 382.52,334.02 "
             id="polygon93"
             style="opacity:0.5;fill:#ffffff" />
          <polygon
             class="cls-20"
             points="547.85,364.77 511.2,243.16 415.49,156.76 289.5,131.51 289.5,203.6 396.55,219.44 470.35,297.96 478.47,339.97 547.85,395.51 "
             id="polygon95"
             style="opacity:0.33;fill:#ffffff" />
          <polygon
             class="cls-4"
             points="382.52,334.02 478.47,339.97 470.35,297.96 396.55,219.44 "
             id="polygon97"
             style="opacity:0.31;fill:#ffffff" />
          <path
             class="cls-22"
             d="m 231,568.68 -106.77,-59.5 -45.79,-80.12 -46.51,-32.15 56.8,189.68 62.45,59.88 61,6.78 -15.88,-45 z m -128.17,-51 z"
             id="path99"
             style="opacity:0.4;fill:#ffffff;stroke:none;stroke-opacity:1" />
          <polygon
             class="cls-9"
             points="311.24,663.37 305.14,616.03 326.92,603.43 360.38,614.91 "
             id="polygon101"
             style="opacity:0.2;fill:#000000" />
          <polygon
             class="cls-22"
             points="268.78,663.2 212.14,653.25 114.77,745.99 164.24,771.29 289.5,745.48 289.5,666.9 "
             id="polygon103"
             style="opacity:0.34;fill:#ffffff" />
          <polygon
             class="cls-11"
             points="268.78,663.2 273.37,616.21 289.5,593.43 289.5,666.9 "
             id="polygon105"
             style="opacity:0.5;fill:#ffffff" />
          <polyline
             class="cls-9"
             points="289.5 416.19 395.32 388.24 393.59 421.96 332.25 442.37 289.5 416.19"
             id="polyline107"
             style="opacity:0.5;fill:#ffffff" />
          <polygon
             class="cls-9"
             points="187.67,422.19 250.65,442.6 289.5,416.19 181.76,387.78 "
             id="polygon109"
             style="opacity:0.5;fill:#ffffff" />
          <polygon
             class="cls-9"
             points="131.57,439.61 187.67,422.19 181.76,387.78 119.77,411.96 78.44,429.06 "
             id="polygon111" />
          <polygon
             class="cls-23"
             points="88.73,586.59 31.93,396.91 31.94,630.2 "
             id="polygon113"
             style="opacity:0.04;fill:#000000" />
          <polygon
             class="cls-8"
             points="151.18,646.47 88.73,586.59 31.94,630.2 89.27,769.34 138.89,797.58 188.75,852.44 163.18,794.13 114.77,745.99 "
             id="polygon115"
             style="opacity:0.07;fill:#000000" />
          <polygon
             class="cls-24"
             points="163.68,159.69 182.5,219.44 289.5,203.6 289.5,131.51 "
             id="polygon117"
             style="opacity:0.05;fill:#ffffff" />
          <polygon
             class="cls-10"
             points="347.99,568.1 382.52,609.97 365.13,654.63 429.59,645.09 492.16,585.17 547.85,395.51 501.48,429.51 453.25,511.24 "
             id="polygon119"
             style="opacity:0.4;fill:#ffffff" />
          <path
             class="cls-25"
             d="m 15.703529,408.32 -1,-31.89 c 0,0 -0.83,-5.15 9,-5.48 9.83,-0.33 92.360001,-10.13 149.540001,-1.64 57.18,8.49 87.44,20.69 117.18,22.36 v 41.61 c 0,0 -16.32,0 -22.73,20.75 -6.41,20.75 -21.17,67.97 -64.94,87.97 -43.77,20 -115.860001,1.85 -135.110001,-14.76 -19.25,-16.61 -29.43,-72.83 -32.45,-84.53 -3.02,-11.7 -7.84,-25.52 -14.72,-26.42 -5.78,-0.75 -4.77,-7.97 -4.77,-7.97 z"
             id="path121"
             style="opacity:1;fill:#aaccff;fill-opacity:1" />
          <path
             class="cls-26"
             d="m 48.73,426.86 c 0,0 -3.77,-40.38 55.1,-47.55 62.55,-7.62 137.37,11.7 146.42,36.61 9.05,24.91 -10.94,76.61 -30.19,99.25 -19.25,22.64 -54.34,29.06 -84.53,25.66 -30.19,-3.4 -67.08,-9.5 -78.53,-49.44 -10.53,-36.98 -8.27,-64.53 -8.27,-64.53 z"
             id="path123"
             style="fill:url(#linear-gradient)" />
          <path
             class="cls-25"
             d="m 48.73,426.86 c 0,0 -3.77,-40.38 55.1,-47.55 62.55,-7.62 137.37,11.7 146.42,36.61 9.05,24.91 -10.94,76.61 -30.19,99.25 -19.25,22.64 -54.34,29.06 -84.53,25.66 -30.19,-3.4 -67.08,-9.5 -78.53,-49.44 -10.53,-36.98 -8.27,-64.53 -8.27,-64.53 z"
             id="path125" />
          <path
             class="cls-27"
             d="M 182,382.13 61.38,502.72 c 8.77,17.86 23.91,26.9 40.47,31.94 l 134,-134 C 223.24,392.73 204,386.19 182,382.13 Z"
             id="path127"
             style="opacity:0.5;fill:#315bef;fill-opacity:1" />
          <path
             class="cls-28"
             d="m 249.05,413.31 c -2.48,-4.46 -7,-8.7 -13.2,-12.61 l -134,134 a 147.86,147.86 0 0 0 21.22,4.57 z"
             id="path129"
             style="opacity:0.55;fill:#315bef;fill-opacity:1" />
          <path
             class="cls-27"
             d="m 235.82,400.68 -134,134 v 0 z"
             id="path131" />
          <path
             class="cls-28"
             d="m 235.82,400.68 -134,134 v 0 z"
             id="path133"
             style="fill:#315bef;fill-opacity:1" />
          <path
             class="cls-29"
             d="M 123.14,539.24 249.06,413.32 v 0 L 123.11,539.24 Z"
             id="path135" />
          <path
             class="cls-28"
             d="M 123.14,539.24 249.06,413.32 v 0 L 123.11,539.24 Z"
             id="path137" />
          <path
             class="cls-29"
             d="m 250.25,415.92 a 17.75,17.75 0 0 0 -1.19,-2.6 L 123.14,539.24 c 4.2,0.63 8.35,1.14 12.39,1.59 a 130.23,130.23 0 0 0 40,-1.58 c 17.42,-3.55 33.54,-11.18 44.51,-24.08 8.94,-10.51 18,-27.29 24.31,-44.74 7.26,-20.13 10.76,-41.17 5.9,-54.51 z"
             id="path139"
             style="opacity:0.7;fill:#315bef;fill-opacity:1" />
          <path
             class="cls-29"
             d="m 160.6,379.08 -1.32,-0.13 -2.78,-0.26 a 256,256 0 0 0 -52.67,0.62 c -58.87,7.17 -55.1,47.55 -55.1,47.55 0,0 -1.84,22.45 5.57,54 0.19,0.81 0.39,1.63 0.6,2.45 0.09,0.39 0.18,0.77 0.28,1.17 q 0.85,3.39 1.86,6.89 a 66.75,66.75 0 0 0 4.34,11.33 L 182,382.13 c -6.92,-1.27 -14.09,-2.3 -21.4,-3.05 z"
             id="path141"
             style="opacity:0.7;fill:#315bef;fill-opacity:1" />
          <path
             class="cls-30"
             d="m 48.62,439.5 -0.08,-7.43 c 0,-3.36 0.19,-5.21 0.19,-5.21 0,0 -3.77,-40.38 55.1,-47.55 62.55,-7.62 137.37,11.7 146.42,36.61 2.7,7.4 2.81,17.18 1.14,27.86 v 0 c 0,0 -39.39,-27.98 -111.89,-35.39 C 67,400.98 48.62,439.5 48.62,439.5 Z"
             id="path143" />
          <path
             class="cls-25"
             d="m 564.66,408.32 1,-31.89 c 0,0 0.83,-5.15 -9,-5.48 -9.83,-0.33 -92.37,-10.13 -149.54,-1.64 C 349.95,377.8 319.69,390 290,391.67 v 41.61 c 0,0 16.33,0 22.74,20.75 6.41,20.75 21.1,67.97 64.88,87.97 43.78,20 115.86,1.89 135.1,-14.72 19.24,-16.61 29.44,-72.83 32.46,-84.53 3.02,-11.7 7.84,-25.52 14.72,-26.42 5.78,-0.79 4.76,-8.01 4.76,-8.01 z"
             id="path145"
             style="opacity:1;fill:#aaccff" />
          <path
             class="cls-25"
             d="m 531.22,426.86 c 0,0 3.77,-40.38 -55.1,-47.55 -62.55,-7.62 -137.37,11.7 -146.43,36.61 -9.06,24.91 10.95,76.61 30.19,99.25 19.24,22.64 54.35,29.06 84.54,25.66 30.19,-3.4 67.08,-9.5 78.49,-49.44 10.57,-36.98 8.31,-64.53 8.31,-64.53 z"
             id="path147" />
          <path
             class="cls-27"
             d="m 476.12,379.31 -0.65,-0.07 -124.1,124.1 a 102.37,102.37 0 0 0 8.51,11.83 c 8.1,9.52 19,16.16 31.15,20.42 L 523.83,402.8 c -7.11,-10.09 -20.92,-20.23 -47.71,-23.49 z"
             id="path149"
             style="opacity:0.5;fill:#315bef;fill-opacity:1" />
          <path
             class="cls-28"
             d="M 531,421.34 A 40.84,40.84 0 0 0 523.83,402.8 L 391,535.59 a 106,106 0 0 0 20.79,4.92 z"
             id="path151"
             style="opacity:0.55;fill:#315bef;fill-opacity:1" />
          <polygon
             class="cls-27"
             points="391.04,535.59 523.83,402.8 391.03,535.59 "
             id="polygon153" />
          <polygon
             class="cls-28"
             points="391.04,535.59 523.83,402.8 391.03,535.59 "
             id="polygon155" />
          <path
             class="cls-29"
             d="m 412,540.53 119,-119 c 0,-0.05 0,-0.09 0,-0.14 L 411.83,540.51 Z"
             id="path157" />
          <path
             class="cls-28"
             d="m 412,540.53 119,-119 c 0,-0.05 0,-0.09 0,-0.14 L 411.83,540.51 Z"
             id="path159" />
          <path
             class="cls-29"
             d="m 531.22,426.86 a 28.54,28.54 0 0 0 -0.2,-5.38 l -119,119 a 133.1,133.1 0 0 0 32.45,0.3 238.8,238.8 0 0 0 23.79,-3.63 c 23.5,-5.06 46.19,-16 54.7,-45.81 1.18,-4.11 2.19,-8.1 3.07,-12 6.97,-30.71 5.19,-52.48 5.19,-52.48 z"
             id="path161"
             style="opacity:0.7;fill:#315bef;fill-opacity:1" />
          <path
             class="cls-29"
             d="m 452.6,377.68 h -1.43 q -1.77,0 -3.54,0 c -54.87,-0.06 -110.23,17.09 -117.94,38.29 -6,16.42 0.7,44.5 11.45,68.21 0.37,0.82 0.75,1.63 1.13,2.43 l 0.46,1 a 160,160 0 0 0 8.64,15.79 l 124.1,-124.1 c -7.47,-0.95 -15.16,-1.46 -22.87,-1.62 z"
             id="path163"
             style="opacity:0.7;fill:#315bef;fill-opacity:1" />
          <path
             class="cls-30"
             d="m 531.32,439.88 0.09,-7.81 c 0,-3.36 -0.19,-5.21 -0.19,-5.21 0,0 3.77,-40.38 -55.1,-47.55 -62.55,-7.62 -137.37,11.7 -146.43,36.61 -2.69,7.4 -2.8,17.18 -1.14,27.86 v 0 c 0,0 39.45,-28 111.9,-35.39 72.45,-7.39 90.87,31.49 90.87,31.49 z"
             id="path165" />
          <path
             class="cls-25"
             d="m 487.15,413.6 a 2.94,2.94 0 1 1 -2.93,-2.93 2.93,2.93 0 0 1 2.93,2.93 z m 16.69,14.26 a 2.94,2.94 0 1 0 1.08,-4 2.94,2.94 0 0 0 -1.08,4 z m 5.07,-25.58 a 2.93,2.93 0 1 0 -4,1.07 2.93,2.93 0 0 0 4,-1.07 z m -9.91,3 a 8.37,8.37 0 0 1 8.33,7.62 l 4.25,-0.07 a 12.58,12.58 0 0 0 -3.71,-8.14 4.11,4.11 0 0 1 -5.57,-3.2 12.59,12.59 0 0 0 -8.89,0.87 l 2.06,3.71 a 8.3,8.3 0 0 1 3.53,-0.84 z m -8.37,8.37 a 8.34,8.34 0 0 1 3.55,-6.84 L 492,403.12 a 12.63,12.63 0 0 0 -5.2,7.26 4.14,4.14 0 0 1 0,6.44 12.6,12.6 0 0 0 5.2,7.28 l 2.18,-3.64 a 8.4,8.4 0 0 1 -3.55,-6.86 z M 499,422 a 8.67,8.67 0 0 1 -3.53,-0.77 l -2.06,3.7 a 12.5,12.5 0 0 0 5.59,1.27 12.87,12.87 0 0 0 3.3,-0.43 4.12,4.12 0 0 1 5.57,-3.21 12.54,12.54 0 0 0 3.71,-8.14 l -4.25,-0.06 A 8.36,8.36 0 0 1 499,422 Z"
             id="path167" />
        </g>
      </g>
    </g>
  </g>
</svg>
