<?xml version="1.0" encoding="UTF-8" standalone="no"?>
<svg
   xmlns:dc="http://purl.org/dc/elements/1.1/"
   xmlns:cc="http://creativecommons.org/ns#"
   xmlns:rdf="http://www.w3.org/1999/02/22-rdf-syntax-ns#"
   xmlns:svg="http://www.w3.org/2000/svg"
   xmlns="http://www.w3.org/2000/svg"
   xmlns:xlink="http://www.w3.org/1999/xlink"
   xmlns:sodipodi="http://sodipodi.sourceforge.net/DTD/sodipodi-0.dtd"
   xmlns:inkscape="http://www.inkscape.org/namespaces/inkscape"
   viewBox="0 0 4095.9999 2304"
   version="1.1"
   id="svg172"
   sodipodi:docname="groovy_gorilla_alt_20.10.svg"
   width="4096"
   height="2304"
   inkscape:version="1.0.1 (3bc2e813f5, 2020-09-07)"
   inkscape:export-filename="/home/muqtadir/yaru-remix/wallpapers/groovy_gorilla_alt_20.10.png"
   inkscape:export-xdpi="96"
   inkscape:export-ydpi="96">
  <metadata
     id="metadata176">
    <rdf:RDF>
      <cc:Work
         rdf:about="">
        <dc:format>image/svg+xml</dc:format>
        <dc:type
           rdf:resource="http://purl.org/dc/dcmitype/StillImage" />
        <dc:title>Artboard 1</dc:title>
      </cc:Work>
    </rdf:RDF>
  </metadata>
  <sodipodi:namedview
     pagecolor="#ffffff"
     bordercolor="#666666"
     borderopacity="1"
     objecttolerance="10"
     gridtolerance="10"
     guidetolerance="10"
     inkscape:pageopacity="0"
     inkscape:pageshadow="2"
     inkscape:window-width="1848"
     inkscape:window-height="1016"
     id="namedview174"
     showgrid="false"
     units="px"
     inkscape:zoom="0.25"
     inkscape:cx="2243.4468"
     inkscape:cy="1268.1537"
     inkscape:window-x="72"
     inkscape:window-y="27"
     inkscape:window-maximized="1"
     inkscape:current-layer="svg172"
     inkscape:document-rotation="0" />
  <defs
     id="defs11">
    <style
       id="style2">.cls-1{isolation:isolate;}.cls-2{fill:#4a3043;}.cls-3{fill:#563d4e;}.cls-4{fill:#5f4758;}.cls-5{fill:#85737f;}.cls-6{fill:#a1939d;}.cls-7{fill:#bdb3ba;}.cls-8{fill:#7b6876;}.cls-30,.cls-9{fill:#43273b;}.cls-10{fill:#a36598;}.cls-11{fill:#b684ac;}.cls-12{fill:#4c3245;}.cls-13{fill:#d4b7cf;}.cls-14{fill:#c8a3c1;}.cls-15{fill:#9d5b91;}.cls-16{fill:#97518a;}.cls-17{fill:#ceadc8;}.cls-18{fill:#af7aa6;}.cls-19{fill:#aa9ea7;}.cls-20{fill:#695262;}.cls-21{fill:#914783;}.cls-22{fill:#bc8eb3;}.cls-23{fill:#8e7d89;}.cls-24{fill:#725d6c;}.cls-25{fill:#fff;}.cls-26{fill:url(#linear-gradient);}.cls-27,.cls-28,.cls-29{fill:#e95420;}.cls-27{opacity:0.8;}.cls-28{opacity:0.9;}.cls-30{opacity:0.25;mix-blend-mode:multiply;}</style>
    <linearGradient
       id="linear-gradient"
       x1="104.38"
       y1="370.12"
       x2="197.92"
       y2="532.13"
       gradientUnits="userSpaceOnUse">
      <stop
         offset="0"
         stop-color="#43174c"
         id="stop4" />
      <stop
         offset="0.48"
         stop-color="#622671"
         id="stop6" />
      <stop
         offset="1"
         stop-color="#ca4232"
         id="stop8" />
    </linearGradient>
    <clipPath
       id="_clipPath_iATqGFxonEViPBnL5ZywIMgvc1yaWggz">
      <rect
         width="4096"
         height="2304"
         id="rect2"
         x="0"
         y="0" />
    </clipPath>
    <linearGradient
       id="_lgradient_3"
       x1="0.49900275"
       y1="0.0021631187"
       x2="0.50312501"
       y2="1.0061398"
       gradientTransform="scale(4096,2304)"
       gradientUnits="userSpaceOnUse"
       xlink:href="#linearGradient1204">
      <stop
         offset="0%"
         stop-opacity="1"
         style="stop-color:#0000d4;stop-opacity:1"
         id="stop7" />
      <stop
         offset="100%"
         stop-opacity="1"
         style="stop-color:#00ccff;stop-opacity:1"
         id="stop9" />
    </linearGradient>
    <linearGradient
       inkscape:collect="always"
       xlink:href="#linearGradient4464-915-415-326-161-611"
       id="linearGradient4470-926-871-573-654-629"
       x1="256"
       y1="375"
       x2="256"
       y2="135.28078"
       gradientUnits="userSpaceOnUse"
       gradientTransform="matrix(3.8925649,2.3047258,-2.1228272,3.5853473,8.2951826,273.07998)" />
    <linearGradient
       inkscape:collect="always"
       id="linearGradient4464-915-415-326-161-611">
      <stop
         id="stop1381"
         offset="0"
         style="stop-color:#f5f5f5;stop-opacity:1;opacity:1" />
      <stop
         id="stop1383"
         offset="1"
         style="stop-color:#d5f6ff;stop-opacity:1;opacity:1" />
    </linearGradient>
  </defs>
  <title
     id="title13">Artboard 1</title>
  <g
     clip-path="url(#_clipPath_iATqGFxonEViPBnL5ZywIMgvc1yaWggz)"
     id="g22"
     style="isolation:isolate">
    <linearGradient
       id="linearGradient1204"
       x1="0.50574714"
       y1="0.0091954023"
       x2="0.50804597"
       y2="1.0022988"
       gradientTransform="scale(4096,2304)"
       gradientUnits="userSpaceOnUse">
      <stop
         offset="0%"
         stop-opacity="1"
         style="stop-color:#0000d4;stop-opacity:1"
         id="stop1200" />
      <stop
         offset="100%"
         stop-opacity="1"
         style="stop-color:#2ad4ff;stop-opacity:1"
         id="stop1202" />
    </linearGradient>
    <rect
       x="0"
       y="0"
       width="4096"
       height="2304"
       fill="url(#_lgradient_3)"
       id="rect12"
       style="fill:url(#_lgradient_3);fill-opacity:1.0" />
    <g
       opacity="0.04"
       id="g16">
      <path
         d="M 646,0 H 3445 L 2396,2304 h -688 z"
         fill="#bdbdbd"
         style="opacity:0.5;mix-blend-mode:darken;fill:#000000"
         id="path14"
         sodipodi:nodetypes="ccccc" />
    </g>
    <path
       d="M 0,1881 1850,0 h 420 l 1826,1881 v 423 H 0 Z"
       fill="#848484"
       style="opacity:0.07;mix-blend-mode:overlay;fill:#ffffff"
       id="path18"
       sodipodi:nodetypes="ccccccc" />
  </g>
  <g
     id="g145"
     transform="matrix(1.0766488,0,0,1.0677104,-121.50618,-70.04707)">
    <g
       id="g1380"
       transform="matrix(0.59062497,0,0,0.59062497,450.55062,225.58901)">
      <g
         id="g1298"
         transform="matrix(3,0,0,3,1775.7535,142.47162)">
        <g
           class="cls-1"
           id="g170"
           transform="translate(5.5515136,18.089453)">
          <g
             id="Layer_1"
             data-name="Layer 1">
            <polygon
               class="cls-2"
               points="547.85,395.51 547.85,630.2 492.16,585.17 "
               id="polygon15"
               style="opacity:0.3;fill:#aaccff" />
            <polygon
               class="cls-3"
               points="490.52,769.34 439.15,798.68 390.26,852.44 415.83,794.13 463.55,745.48 429.59,645.09 492.16,585.17 547.85,630.2 "
               id="polygon17"
               style="opacity:0.25;fill:#aaccff" />
            <polygon
               class="cls-4"
               points="289.5,7.99 408.36,29.34 493.97,143.68 511.2,243.16 415.49,156.76 289.5,131.51 "
               id="polygon19"
               style="opacity:0.3;fill:#aaccff" />
            <polygon
               class="cls-5"
               points="289.5,7.99 173.89,30.49 163.68,159.69 289.5,131.51 "
               id="polygon21"
               style="opacity:0.39;fill:#aaccff" />
            <polygon
               class="cls-6"
               points="173.89,30.49 163.68,159.69 71.54,240.79 88.77,146.66 "
               id="polygon23"
               style="opacity:0.3;fill:#aaccff" />
            <polygon
               class="cls-5"
               points="493.97,143.68 511.2,243.16 547.85,364.77 547.85,323.44 "
               id="polygon25"
               style="opacity:0.4;fill:#aaccff" />
            <polygon
               class="cls-7"
               points="88.77,146.66 36.36,320 31.93,364.77 71.54,240.79 "
               id="polygon27"
               style="opacity:0.4;fill:#aaccff" />
            <polyline
               class="cls-7"
               points="31.93 364.77 31.93 364.77 6.1 355.12 14.22 331.25 36.36 320"
               id="polyline29"
               style="opacity:0.35;fill:#aaccff" />
            <polyline
               class="cls-8"
               points="31.93 364.77 6.1 355.12 11.27 417.11 31.93 454.04 31.93 364.77"
               id="polyline31"
               style="opacity:0.3;fill:#aaccff" />
            <polygon
               class="cls-9"
               points="575.9,353.06 571.47,414.36 547.85,454.04 547.85,364.77 "
               id="polygon33"
               style="opacity:0.3;fill:#aaccff" />
            <polygon
               class="cls-5"
               points="547.85,323.44 567.78,331.25 575.9,353.06 547.85,364.77 "
               id="polygon35"
               style="opacity:0.4;fill:#aaccff" />
            <polygon
               class="cls-10"
               points="365.13,654.63 289.5,666.9 289.5,745.48 414.69,771.5 463.55,745.48 "
               id="polygon37"
               style="opacity:0.45;fill:#aaccff" />
            <polyline
               class="cls-9"
               points="395.32 388.24 393.59 421.96 449.44 440.53 501.11 429.51 458.54 412.64 395.32 388.24"
               id="polyline39"
               style="opacity:0.48;fill:#aaccff" />
            <polyline
               class="cls-10"
               points="289.5 416.19 289.5 460.73 332.25 442.37 289.5 416.19"
               id="polyline41"
               style="opacity:0.38;fill:#ffffff" />
            <polyline
               class="cls-11"
               points="289.5 416.19 250.65 442.6 289.5 460.73 289.5 416.19"
               id="polyline43"
               style="opacity:0.38;fill:#ffffff" />
            <polygon
               class="cls-11"
               points="131.57,439.61 78.43,429.05 124.19,509.18 148.94,470.84 "
               id="polygon45"
               style="opacity:0.38;fill:#aaccff" />
            <polygon
               class="cls-12"
               points="148.94,470.84 234.17,474.62 250.65,442.6 187.67,422.19 131.57,439.61 "
               id="polygon47"
               style="opacity:0.2;fill:#aaccff" />
            <polygon
               class="cls-12"
               points="341.56,476.86 430.5,471.7 449.44,440.53 393.59,421.96 332.25,442.37 "
               id="polygon49"
               style="opacity:0.2;fill:#aaccff" />
            <polygon
               class="cls-13"
               points="501.48,429.51 449.51,440.37 430.5,471.7 453.25,511.24 "
               id="polygon51"
               style="opacity:0.38;fill:#aaccff" />
            <polyline
               class="cls-9"
               points="249.01 603.16 218.38 613.84 268.78 663.2 273.37 616.21 249.01 603.16"
               id="polyline53"
               style="opacity:0.2;fill:#aaccff" />
            <polyline
               class="cls-14"
               points="151.18 646.47 114.77 745.99 212.14 653.25 151.18 646.47"
               id="polyline55"
               style="opacity:0.45;fill:#aaccff" />
            <polyline
               class="cls-15"
               points="429.59 645.09 365.13 654.63 463.54 745.48 429.59 645.09"
               id="polyline57"
               style="opacity:0.35;fill:#aaccff" />
            <polygon
               class="cls-11"
               points="289.5,766.14 163.85,782.78 114.77,745.99 163.18,794.13 188.75,852.44 289.5,896.01 "
               id="polygon59"
               style="opacity:0.35;fill:#aaccff" />
            <polygon
               class="cls-16"
               points="289.5,766.14 415.16,782.78 463.55,745.48 415.83,794.13 390.26,852.44 289.5,896.01 "
               id="polygon61"
               style="opacity:0.45;fill:#aaccff" />
            <polygon
               class="cls-14"
               points="289.5,549.21 289.5,593.43 230.96,568.68 "
               id="polygon63"
               style="opacity:0.5;fill:#aaccff" />
            <polygon
               class="cls-17"
               points="234.17,474.62 148.94,470.84 124.19,509.18 230.96,568.68 289.5,549.21 289.5,460.73 250.65,442.6 "
               id="polygon65"
               style="opacity:0.5;fill:#aaccff" />
            <polygon
               class="cls-18"
               points="341.56,476.86 332.25,442.37 289.5,460.73 289.5,549.21 347.99,568.1 453.25,511.24 430.5,471.7 "
               id="polygon67"
               style="opacity:0.5;fill:#aaccff" />
            <polygon
               class="cls-11"
               points="289.5,549.21 289.5,593.43 347.99,568.1 "
               id="polygon69"
               style="opacity:0.5;fill:#aaccff" />
            <polygon
               class="cls-14"
               points="218.38,613.84 249.01,603.16 273.37,616.25 289.5,593.43 230.96,568.68 196.26,608.21 212.14,653.25 268.78,663.2 "
               id="polygon71"
               style="opacity:0.5;fill:#aaccff" />
            <polygon
               class="cls-15"
               points="289.5,593.43 289.5,666.9 311.24,663.37 305.14,616.03 "
               id="polygon73"
               style="opacity:0.5;fill:#aaccff" />
            <polygon
               class="cls-11"
               points="311.24,663.37 365.13,654.63 382.52,609.97 347.99,568.1 289.5,593.43 305.14,616.03 326.92,603.43 360.38,614.91 "
               id="polygon75"
               style="opacity:0.5;fill:#aaccff" />
            <polygon
               class="cls-9"
               points="163.85,782.78 289.5,766.14 415.16,782.78 463.55,745.48 414.69,771.5 289.5,745.48 164.24,771.29 114.77,745.99 "
               id="polygon77"
               style="opacity:0.2;fill:#aaccff;fill-opacity:1" />
            <polygon
               class="cls-10"
               points="289.5,355.81 382.52,334.02 395.32,388.24 289.5,416.19 "
               id="polygon79"
               style="opacity:0.38;fill:#aaccff" />
            <polygon
               class="cls-11"
               points="289.5,355.81 191.36,337.46 181.76,387.78 289.5,416.19 "
               id="polygon81"
               style="opacity:0.4;fill:#aaccff" />
            <polygon
               class="cls-5"
               points="163.68,159.69 182.5,219.44 191.36,337.46 289.5,355.81 289.5,203.6 289.5,131.51 "
               id="polygon83"
               style="opacity:0.39;fill:#aaccff" />
            <polygon
               class="cls-6"
               points="182.5,219.44 107.22,300.02 102.79,343.42 191.36,337.46 "
               id="polygon85"
               style="opacity:0.3;fill:#aaccff" />
            <polygon
               class="cls-17"
               points="102.79,343.42 31.93,396.91 78.43,429.05 119.77,411.96 181.76,387.78 191.36,337.46 "
               id="polygon87"
               style="opacity:0.43;fill:#aaccff" />
            <polygon
               class="cls-19"
               points="71.54,240.79 31.93,364.77 31.93,396.91 102.79,343.42 107.22,300.02 182.5,219.44 163.68,159.69 "
               id="polygon89"
               style="opacity:0.35;fill:#aaccff" />
            <polygon
               class="cls-20"
               points="289.5,203.6 289.5,355.81 382.52,334.02 396.55,219.44 "
               id="polygon91"
               style="opacity:0.35;fill:#aaccff" />
            <polygon
               class="cls-21"
               points="478.47,339.97 382.52,334.02 395.32,388.24 458.55,412.64 501.48,429.51 547.85,395.51 "
               id="polygon93"
               style="opacity:0.43;fill:#aaccff" />
            <polygon
               class="cls-20"
               points="511.2,243.16 415.49,156.76 289.5,131.51 289.5,203.6 396.55,219.44 470.35,297.96 478.47,339.97 547.85,395.51 547.85,364.77 "
               id="polygon95"
               style="opacity:0.33;fill:#aaccff" />
            <polygon
               class="cls-4"
               points="470.35,297.96 396.55,219.44 382.52,334.02 478.47,339.97 "
               id="polygon97"
               style="opacity:0.31;fill:#aaccff" />
            <path
               class="cls-22"
               d="m 231,568.68 -106.77,-59.5 -45.79,-80.12 -46.51,-32.15 56.8,189.68 62.45,59.88 61,6.78 -15.88,-45 z m -128.17,-51 z"
               id="path99"
               style="opacity:0.4;fill:#aaccff;stroke:none;stroke-opacity:1" />
            <polygon
               class="cls-9"
               points="326.92,603.43 360.38,614.91 311.24,663.37 305.14,616.03 "
               id="polygon101"
               style="opacity:0.2;fill:#aaccff" />
            <polygon
               class="cls-22"
               points="289.5,745.48 289.5,666.9 268.78,663.2 212.14,653.25 114.77,745.99 164.24,771.29 "
               id="polygon103"
               style="opacity:0.34;fill:#aaccff" />
            <polygon
               class="cls-11"
               points="289.5,593.43 289.5,666.9 268.78,663.2 273.37,616.21 "
               id="polygon105"
               style="opacity:0.5;fill:#aaccff" />
            <polyline
               class="cls-9"
               points="289.5 416.19 395.32 388.24 393.59 421.96 332.25 442.37 289.5 416.19"
               id="polyline107"
               style="opacity:0.5;fill:#aaccff" />
            <polygon
               class="cls-9"
               points="289.5,416.19 181.76,387.78 187.67,422.19 250.65,442.6 "
               id="polygon109"
               style="opacity:0.5;fill:#aaccff" />
            <polygon
               class="cls-9"
               points="131.57,439.61 187.67,422.19 181.76,387.78 119.77,411.96 78.44,429.06 "
               id="polygon111"
               style="opacity:0.48;fill:#aaccff" />
            <polygon
               class="cls-23"
               points="31.93,396.91 31.94,630.2 88.73,586.59 "
               id="polygon113"
               style="opacity:0.3;fill:#aaccff" />
            <polygon
               class="cls-8"
               points="31.94,630.2 89.27,769.34 138.89,797.58 188.75,852.44 163.18,794.13 114.77,745.99 151.18,646.47 88.73,586.59 "
               id="polygon115"
               style="opacity:0.25;fill:#aaccff" />
            <polygon
               class="cls-24"
               points="289.5,203.6 289.5,131.51 163.68,159.69 182.5,219.44 "
               id="polygon117"
               style="opacity:0.05;fill:#aaccff" />
            <polygon
               class="cls-10"
               points="365.13,654.63 429.59,645.09 492.16,585.17 547.85,395.51 501.48,429.51 453.25,511.24 347.99,568.1 382.52,609.97 "
               id="polygon119"
               style="opacity:0.4;fill:#aaccff" />
          </g>
        </g>
      </g>
    </g>
  </g>
  <path
     d="m 0,2304 v -604 l 604,604 v 0 z"
     fill="#bdbdbd"
     style="opacity:0.015;isolation:isolate;mix-blend-mode:normal;fill:#000000"
     id="path14-3"
     sodipodi:nodetypes="ccccc" />
  <path
     d="m 4096,2304 v -604 l -604,604 v 0 z"
     fill="#bdbdbd"
     style="opacity:0.015;isolation:isolate;mix-blend-mode:normal;fill:#000000"
     id="path14-3-6"
     sodipodi:nodetypes="ccccc" />
</svg>
