<?xml version="1.0" encoding="UTF-8" standalone="no"?>
<!-- Created with Inkscape (http://www.inkscape.org/) -->

<svg
   xmlns:dc="http://purl.org/dc/elements/1.1/"
   xmlns:cc="http://creativecommons.org/ns#"
   xmlns:rdf="http://www.w3.org/1999/02/22-rdf-syntax-ns#"
   xmlns:svg="http://www.w3.org/2000/svg"
   xmlns="http://www.w3.org/2000/svg"
   xmlns:xlink="http://www.w3.org/1999/xlink"
   xmlns:sodipodi="http://sodipodi.sourceforge.net/DTD/sodipodi-0.dtd"
   xmlns:inkscape="http://www.inkscape.org/namespaces/inkscape"
   inkscape:export-filename="/home/sam/suru-template.png"
   style="display:inline;enable-background:new;opacity:1"
   version="1.0"
   inkscape:output_extension="org.inkscape.output.svg.inkscape"
   sodipodi:docname="emblem-videos.svg"
   inkscape:version="0.92.5 (2060ec1f9f, 2020-04-08)"
   sodipodi:version="0.32"
   id="svg11300"
   height="300"
   width="400"
   inkscape:export-xdpi="90.000000"
   inkscape:export-ydpi="90.000000">
  <title
     id="title3004">Suru Icon Theme Template</title>
  <sodipodi:namedview
     stroke="#ef2929"
     fill="#f57900"
     id="base"
     pagecolor="#ffffff"
     bordercolor="#000000"
     borderopacity="0.25490196"
     inkscape:pageopacity="0"
     inkscape:pageshadow="2"
     inkscape:zoom="2"
     inkscape:cx="131.00989"
     inkscape:cy="188.05326"
     inkscape:current-layer="svg11300"
     showgrid="false"
     inkscape:grid-bbox="true"
     inkscape:document-units="px"
     inkscape:showpageshadow="false"
     inkscape:window-width="1528"
     inkscape:window-height="836"
     inkscape:window-x="72"
     inkscape:window-y="27"
     width="400px"
     height="300px"
     inkscape:snap-nodes="true"
     inkscape:snap-bbox="true"
     gridtolerance="10000"
     inkscape:object-nodes="true"
     inkscape:snap-grids="true"
     showguides="true"
     inkscape:guide-bbox="true"
     inkscape:window-maximized="1"
     inkscape:bbox-paths="true"
     inkscape:snap-bbox-midpoints="true"
     inkscape:snap-global="false"
     inkscape:object-paths="true"
     inkscape:snap-intersection-paths="true"
     inkscape:snap-smooth-nodes="true"
     inkscape:pagecheckerboard="false"
     showborder="false">
    <inkscape:grid
       originy="0"
       originx="0"
       snapvisiblegridlinesonly="true"
       empspacing="4"
       visible="true"
       enabled="true"
       type="xygrid"
       id="grid5883"
       spacingx="1"
       spacingy="1" />
    <inkscape:grid
       dotted="true"
       originy="0"
       originx="0"
       snapvisiblegridlinesonly="true"
       empopacity="0.25098039"
       empcolor="#000000"
       opacity="0.1254902"
       color="#000000"
       spacingy="0.5"
       spacingx="0.5"
       enabled="true"
       visible="true"
       empspacing="4"
       id="grid11592"
       type="xygrid" />
  </sodipodi:namedview>
  <defs
     id="defs3">
    <clipPath
       clipPathUnits="userSpaceOnUse"
       id="clipPath9430">
      <path
         style="color:#000000;display:inline;overflow:visible;visibility:visible;fill:#ffffff;fill-opacity:1;fill-rule:nonzero;stroke:none;stroke-width:1;marker:none;enable-background:new;opacity:1"
         d="m 166.0625,-196 h 179.875 C 491.2348,-196 512,-175.28677 512,-30.125 v 148.25 C 512,263.28618 491.2348,284 345.9375,284 H 166.0625 C 20.7652,284 0,263.28618 0,118.125 V -30.125 C 0,-175.28677 20.7652,-196 166.0625,-196 Z"
         id="path9432"
         inkscape:connector-curvature="0"
         sodipodi:nodetypes="sssssssss" />
    </clipPath>
    <clipPath
       clipPathUnits="userSpaceOnUse"
       id="clipPath1082">
      <path
         sodipodi:nodetypes="sssssssss"
         inkscape:connector-curvature="0"
         id="path1084"
         d="M 361.9375,-212 C 507.2348,-212 528,-191.28677 528,-46.125 V 70.125 C 528,215.28618 507.2348,236 361.9375,236 H 214.0625 C 68.7652,236 48,215.28618 48,70.125 V -46.125 C 48,-191.28677 68.7652,-212 214.0625,-212 Z"
         style="display:inline;opacity:1;fill:#8c59d9;fill-opacity:1;stroke:none;stroke-width:2;stroke-linecap:round;stroke-linejoin:round;stroke-miterlimit:4;stroke-dasharray:none;stroke-dashoffset:0;stroke-opacity:1;enable-background:new" />
    </clipPath>
    <clipPath
       clipPathUnits="userSpaceOnUse"
       id="clipPath994">
      <path
         sodipodi:nodetypes="scccssscsss"
         inkscape:connector-curvature="0"
         id="path996"
         d="m 335.73108,62 c -8.82418,0 -9.77365,0.90635 -9.7304,9.74838 V 84 96.25162 c -0.0433,8.84203 0.90622,9.74838 9.7304,9.74838 h 16.53919 c 8.82418,0 9.7304,-0.90625 9.7304,-9.74838 V 84 71.74838 C 362.00067,62.90625 361.09445,62 352.27027,62 Z"
         style="color:#000000;display:inline;overflow:visible;visibility:visible;fill:#cdcdcd;fill-opacity:1;fill-rule:nonzero;stroke:none;stroke-width:2;stroke-miterlimit:4;stroke-dasharray:none;stroke-opacity:1;marker:none;enable-background:accumulate;opacity:1" />
    </clipPath>
    <clipPath
       clipPathUnits="userSpaceOnUse"
       id="clipPath994-5">
      <path
         sodipodi:nodetypes="scccssscsss"
         inkscape:connector-curvature="0"
         id="path996-3"
         d="m 335.73108,62 c -8.82418,0 -9.77365,0.90635 -9.7304,9.74838 V 84 96.25162 c -0.0433,8.84203 0.90622,9.74838 9.7304,9.74838 h 16.53919 c 8.82418,0 9.7304,-0.90625 9.7304,-9.74838 V 84 71.74838 C 362.00067,62.90625 361.09445,62 352.27027,62 Z"
         style="color:#000000;display:inline;overflow:visible;visibility:visible;fill:#cdcdcd;fill-opacity:1;fill-rule:nonzero;stroke:none;stroke-width:2;stroke-miterlimit:4;stroke-dasharray:none;stroke-opacity:1;marker:none;enable-background:accumulate;opacity:1" />
    </clipPath>
    <clipPath
       clipPathUnits="userSpaceOnUse"
       id="clipPath971">
      <path
         style="color:#000000;display:inline;overflow:visible;visibility:visible;opacity:1;fill:#46a926;fill-opacity:1;fill-rule:nonzero;stroke:none;stroke-width:2;stroke-miterlimit:4;stroke-dasharray:none;stroke-opacity:1;marker:none;enable-background:accumulate"
         d="m 327.8652,189 c -4.41209,0 -4.88682,0.45318 -4.8652,4.87419 V 200 206.12581 C 322.9783,210.54682 323.45311,211 327.8652,211 h 8.2696 C 340.54689,211 341,210.54688 341,206.12581 V 200 193.87419 C 341,189.45313 340.54688,189 336.13479,189 Z"
         id="path973"
         inkscape:connector-curvature="0"
         sodipodi:nodetypes="scccssscsss" />
    </clipPath>
    <clipPath
       clipPathUnits="userSpaceOnUse"
       id="clipPath983">
      <path
         sodipodi:nodetypes="scccssscsss"
         inkscape:connector-curvature="0"
         id="path985"
         d="m 325.09646,237 c -2.80769,0 -3.10979,0.28839 -3.09603,3.10176 V 244 v 3.89824 c -0.0138,2.81337 0.28834,3.10176 3.09603,3.10176 h 5.8075 C 333.71166,251 334,250.71165 334,247.89824 V 244 240.10176 C 334,237.28836 333.71165,237 330.90396,237 Z"
         style="color:#000000;display:inline;overflow:visible;visibility:visible;opacity:1;fill:#46a926;fill-opacity:1;fill-rule:nonzero;stroke:none;stroke-width:2;stroke-miterlimit:4;stroke-dasharray:none;stroke-opacity:1;marker:none;enable-background:accumulate" />
    </clipPath>
    <clipPath
       clipPathUnits="userSpaceOnUse"
       id="clipPath959">
      <path
         style="color:#000000;display:inline;overflow:visible;visibility:visible;opacity:1;fill:#46a926;fill-opacity:1;fill-rule:nonzero;stroke:none;stroke-width:2;stroke-miterlimit:4;stroke-dasharray:none;stroke-opacity:1;marker:none;enable-background:accumulate"
         d="m 330.1929,133.99999 c -5.61538,0 -6.21958,0.57678 -6.19206,6.20352 v 7.79648 7.79648 c -0.0276,5.62673 0.57668,6.20351 6.19206,6.20351 h 11.615 c 5.6154,0 6.19208,-0.5767 6.19208,-6.20351 v -7.79648 -7.79648 c 0,-5.6268 -0.5767,-6.20352 -6.19208,-6.20352 z"
         id="path961"
         inkscape:connector-curvature="0"
         sodipodi:nodetypes="scccssscsss" />
    </clipPath>
    <filter
       height="1.048"
       y="-0.024"
       width="1.048"
       x="-0.024"
       id="filter945"
       style="color-interpolation-filters:sRGB;opacity:1"
       inkscape:collect="always">
      <feGaussianBlur
         id="feGaussianBlur947"
         stdDeviation="2.24"
         inkscape:collect="always" />
    </filter>
    <filter
       height="1.12"
       y="-0.06"
       width="1.12"
       x="-0.06"
       id="filter951"
       style="color-interpolation-filters:sRGB;opacity:1"
       inkscape:collect="always">
      <feGaussianBlur
         id="feGaussianBlur953"
         stdDeviation="5.6"
         inkscape:collect="always" />
    </filter>
    <linearGradient
       gradientTransform="matrix(0.5,0,0,0.5,26.29446,28)"
       gradientUnits="userSpaceOnUse"
       y2="135.28078"
       x2="256"
       y1="375"
       x1="256"
       id="linearGradient4470-107"
       xlink:href="#linearGradient4464-893"
       inkscape:collect="always" />
    <linearGradient
       id="linearGradient4464-893"
       inkscape:collect="always">
      <stop
         style="stop-color:#f5f5f5;stop-opacity:1;opacity:1"
         offset="0"
         id="stop1101" />
      <stop
         style="stop-color:#f1d7e9;stop-opacity:1;opacity:1"
         offset="1"
         id="stop1103" />
    </linearGradient>
    <linearGradient
       y2="135.28078"
       x2="256"
       y1="375"
       x1="256"
       gradientTransform="matrix(0.09166667,0,0,0.09166667,321.02175,60.53333)"
       gradientUnits="userSpaceOnUse"
       id="linearGradient977-920"
       xlink:href="#linearGradient4464-509"
       inkscape:collect="always" />
    <linearGradient
       id="linearGradient4464-509"
       inkscape:collect="always">
      <stop
         style="stop-color:#f5f5f5;stop-opacity:1;opacity:1"
         offset="0"
         id="stop1107" />
      <stop
         style="stop-color:#f1d7e9;stop-opacity:1;opacity:1"
         offset="1"
         id="stop1109" />
    </linearGradient>
    <linearGradient
       y2="135.28078"
       x2="256"
       y1="375"
       x1="256"
       gradientTransform="matrix(0.05833333,0,0,0.05833333,321.46839,133.06667)"
       gradientUnits="userSpaceOnUse"
       id="linearGradient923-696"
       xlink:href="#linearGradient4464-282"
       inkscape:collect="always" />
    <linearGradient
       id="linearGradient4464-282"
       inkscape:collect="always">
      <stop
         style="stop-color:#f5f5f5;stop-opacity:1;opacity:1"
         offset="0"
         id="stop1113" />
      <stop
         style="stop-color:#f1d7e9;stop-opacity:1;opacity:1"
         offset="1"
         id="stop1115" />
    </linearGradient>
    <linearGradient
       y2="135.28078"
       x2="256"
       y1="375"
       x1="256"
       gradientTransform="matrix(0.0416622,0,0,0.0416622,321.19245,189.33502)"
       gradientUnits="userSpaceOnUse"
       id="linearGradient928-826"
       xlink:href="#linearGradient4464-507"
       inkscape:collect="always" />
    <linearGradient
       id="linearGradient4464-507"
       inkscape:collect="always">
      <stop
         style="stop-color:#f5f5f5;stop-opacity:1;opacity:1"
         offset="0"
         id="stop1119" />
      <stop
         style="stop-color:#f1d7e9;stop-opacity:1;opacity:1"
         offset="1"
         id="stop1121" />
    </linearGradient>
    <linearGradient
       y2="135.28078"
       x2="256"
       y1="375"
       x1="256"
       gradientTransform="matrix(0.02915937,0,0,0.02915937,321.2354,236.53607)"
       gradientUnits="userSpaceOnUse"
       id="linearGradient932-634"
       xlink:href="#linearGradient4464-144"
       inkscape:collect="always" />
    <linearGradient
       id="linearGradient4464-144"
       inkscape:collect="always">
      <stop
         style="stop-color:#f5f5f5;stop-opacity:1;opacity:1"
         offset="0"
         id="stop1125" />
      <stop
         style="stop-color:#f1d7e9;stop-opacity:1;opacity:1"
         offset="1"
         id="stop1127" />
    </linearGradient>
    <linearGradient
       y2="135.28078"
       x2="256"
       y1="375"
       x1="256"
       gradientTransform="matrix(0.0217409,0,0,0.0217409,318.44137,266.44003)"
       gradientUnits="userSpaceOnUse"
       id="linearGradient932-3-861"
       xlink:href="#linearGradient4464-754"
       inkscape:collect="always" />
    <linearGradient
       id="linearGradient4464-754"
       inkscape:collect="always">
      <stop
         style="stop-color:#f5f5f5;stop-opacity:1;opacity:1"
         offset="0"
         id="stop1131" />
      <stop
         style="stop-color:#f1d7e9;stop-opacity:1;opacity:1"
         offset="1"
         id="stop1133" />
    </linearGradient>
  </defs>
  <metadata
     id="metadata4">
    <rdf:RDF>
      <cc:Work
         rdf:about="">
        <dc:format>image/svg+xml</dc:format>
        <dc:type
           rdf:resource="http://purl.org/dc/dcmitype/StillImage" />
        <dc:creator>
          <cc:Agent>
            <dc:title>Sam Hewitt</dc:title>
          </cc:Agent>
        </dc:creator>
        <dc:source />
        <cc:license
           rdf:resource="http://creativecommons.org/licenses/by-sa/4.0/" />
        <dc:title>Suru Icon Theme Template</dc:title>
        <dc:subject>
          <rdf:Bag />
        </dc:subject>
        <dc:date />
        <dc:rights>
          <cc:Agent>
            <dc:title />
          </cc:Agent>
        </dc:rights>
        <dc:publisher>
          <cc:Agent>
            <dc:title />
          </cc:Agent>
        </dc:publisher>
        <dc:identifier />
        <dc:relation />
        <dc:language />
        <dc:coverage />
        <dc:description />
        <dc:contributor>
          <cc:Agent>
            <dc:title />
          </cc:Agent>
        </dc:contributor>
      </cc:Work>
      <cc:Work
         rdf:about="">
        <dc:format>image/svg+xml</dc:format>
        <dc:type
           rdf:resource="http://purl.org/dc/dcmitype/StillImage" />
      </cc:Work>
      <cc:License
         rdf:about="http://creativecommons.org/licenses/by-sa/4.0/">
        <cc:permits
           rdf:resource="http://creativecommons.org/ns#Reproduction" />
        <cc:permits
           rdf:resource="http://creativecommons.org/ns#Distribution" />
        <cc:requires
           rdf:resource="http://creativecommons.org/ns#Notice" />
        <cc:requires
           rdf:resource="http://creativecommons.org/ns#Attribution" />
        <cc:permits
           rdf:resource="http://creativecommons.org/ns#DerivativeWorks" />
        <cc:requires
           rdf:resource="http://creativecommons.org/ns#ShareAlike" />
      </cc:License>
    </rdf:RDF>
  </metadata>
  <g
     id="layer1"
     inkscape:label="Icon"
     inkscape:groupmode="layer"
     style="display:inline;opacity:1">
    <g
       inkscape:groupmode="layer"
       id="layer7"
       inkscape:label="Baseplate"
       style="display:none;opacity:1">
      <text
         id="context"
         inkscape:label="context"
         style="font-style:normal;font-variant:normal;font-weight:normal;font-stretch:normal;line-height:0%;font-family:'DejaVu Sans';-inkscape-font-specification:'DejaVu Sans';display:inline;fill:#000000;fill-opacity:1;stroke:none;enable-background:new;opacity:1"
         x="19.006836"
         xml:space="preserve"
         y="-8.2548828"><tspan
           id="tspan3933"
           sodipodi:role="line"
           x="19.006836"
           y="-8.2548828"
           style="font-style:normal;font-variant:normal;font-weight:normal;font-stretch:normal;font-size:18px;line-height:1.25;font-family:'DejaVu Sans';-inkscape-font-specification:'DejaVu Sans';opacity:1">emblems</tspan></text>
      <text
         id="icon-name"
         inkscape:label="icon-name"
         style="font-style:normal;font-variant:normal;font-weight:bold;font-stretch:normal;line-height:0%;font-family:'DejaVu Sans';-inkscape-font-specification:'DejaVu Sans Bold';text-align:start;writing-mode:lr-tb;text-anchor:start;display:inline;fill:#000000;fill-opacity:1;stroke:none;enable-background:new;opacity:1"
         x="146.48828"
         xml:space="preserve"
         y="-8.2548828"><tspan
           id="tspan924"
           sodipodi:role="line"
           x="146.48828"
           y="-8.2548828"
           style="font-style:normal;font-variant:normal;font-weight:bold;font-stretch:normal;font-size:18px;line-height:1.25;font-family:'DejaVu Sans';-inkscape-font-specification:'DejaVu Sans Bold';opacity:1">emblem-videos</tspan></text>
      <rect
         inkscape:label="16x16"
         y="236"
         x="320"
         height="16"
         width="16"
         id="rect16x16"
         style="display:inline;overflow:visible;visibility:visible;fill:#cdcdcd;fill-opacity:1;fill-rule:nonzero;stroke:none;stroke-width:2;marker:none;enable-background:accumulate;opacity:1" />
      <rect
         inkscape:label="24x24"
         y="188"
         x="320"
         height="24"
         width="24"
         id="rect24x24"
         style="display:inline;overflow:visible;visibility:visible;fill:#cdcdcd;fill-opacity:1;fill-rule:nonzero;stroke:none;stroke-width:2;marker:none;enable-background:accumulate;opacity:1" />
      <rect
         inkscape:label="32x32"
         y="132"
         x="320"
         height="32"
         width="32"
         id="rect32x32"
         style="display:inline;overflow:visible;visibility:visible;fill:#cdcdcd;fill-opacity:1;fill-rule:nonzero;stroke:none;stroke-width:2;marker:none;enable-background:accumulate;opacity:1" />
      <rect
         style="display:inline;overflow:visible;visibility:visible;fill:#cdcdcd;fill-opacity:1;fill-rule:nonzero;stroke:none;stroke-width:2;marker:none;enable-background:accumulate;opacity:1"
         id="rect48x48"
         width="48"
         height="48"
         x="320"
         y="60"
         inkscape:label="48x48" />
      <rect
         inkscape:label="48x48"
         y="28"
         x="24"
         height="256"
         width="256"
         id="rect3951"
         style="display:inline;overflow:visible;visibility:visible;fill:#cdcdcd;fill-opacity:1;fill-rule:nonzero;stroke:none;stroke-width:2;marker:none;enable-background:accumulate;opacity:1" />
      <rect
         style="display:inline;overflow:visible;visibility:visible;fill:#cdcdcd;fill-opacity:1;fill-rule:nonzero;stroke:none;stroke-width:1;marker:none;enable-background:accumulate;opacity:1"
         id="rect841"
         width="8"
         height="8"
         x="320"
         y="268"
         inkscape:label="16x16" />
    </g>
    <g
       style="display:inline;opacity:1"
       inkscape:label="Background"
       id="layer2"
       inkscape:groupmode="layer">
      <rect
         ry="7.5"
         rx="7.5"
         y="-336"
         x="-252"
         height="15"
         width="15"
         id="rect892"
         style="display:inline;opacity:0.2;fill:#000000;fill-opacity:1;stroke:none;stroke-width:1;stroke-opacity:0.25098039;enable-background:new"
         transform="matrix(0,-1,-1,0,0,0)" />
      <rect
         ry="21"
         rx="21"
         y="-365"
         x="-106"
         height="42"
         width="42"
         id="rect894"
         style="display:inline;opacity:0.2;fill:#000000;fill-opacity:1;stroke:none;stroke-width:1.02439022;stroke-miterlimit:4;stroke-dasharray:none;stroke-opacity:0.25098039;enable-background:new"
         transform="matrix(0,-1,-1,0,0,0)" />
      <rect
         transform="matrix(0,-1,-1,0,0,0)"
         style="display:inline;opacity:0.2;fill:#000000;fill-opacity:1;stroke:none;stroke-width:1.0476191;stroke-opacity:0.25098039;enable-background:new"
         id="rect896"
         width="22"
         height="22"
         x="-212"
         y="-343"
         rx="11"
         ry="11" />
      <rect
         ry="15"
         rx="15"
         y="-351"
         x="-164"
         height="30"
         width="30"
         id="rect876"
         style="display:inline;opacity:0.2;fill:#000000;fill-opacity:1;stroke:none;stroke-width:1.03448272;stroke-opacity:0.25098039;enable-background:new"
         transform="matrix(0,-1,-1,0,0,0)" />
      <rect
         ry="112"
         rx="112"
         y="-264"
         x="-270"
         height="224"
         width="224"
         id="rect949"
         style="display:inline;opacity:0.1;fill:#000000;fill-opacity:1;stroke:none;stroke-width:0.5;filter:url(#filter951);enable-background:new"
         transform="matrix(0,-1,-1,0,0,0)" />
      <rect
         transform="matrix(0,-1,-1,0,0,0)"
         style="display:inline;opacity:0.5;fill:#000000;fill-opacity:1;stroke:none;stroke-width:0.5;filter:url(#filter945);enable-background:new"
         id="rect939"
         width="224"
         height="224"
         x="-270"
         y="-264"
         rx="112"
         ry="112" />
      <rect
         transform="matrix(0,-1,-1,0,0,0)"
         style="display:inline;fill:#315bef;fill-opacity:1;stroke:none;stroke-width:1;stroke-opacity:0.25098039;enable-background:new;opacity:1"
         id="rect4414"
         width="15"
         height="15"
         x="-251"
         y="-336"
         rx="7.5"
         ry="7.5" />
      <rect
         ry="21"
         rx="21"
         y="-365"
         x="-106"
         height="42"
         width="42"
         id="rect917"
         style="display:inline;opacity:0.1;fill:#000000;fill-opacity:1;stroke:none;stroke-width:1.04999995;stroke-opacity:0.25098039;enable-background:new"
         transform="matrix(0,-1,-1,0,0,0)" />
      <rect
         transform="matrix(0,-1,-1,0,0,0)"
         style="display:inline;fill:#315bef;fill-opacity:1;stroke:none;stroke-width:1.02439022;stroke-miterlimit:4;stroke-dasharray:none;stroke-opacity:0.25098039;enable-background:new;opacity:1"
         id="rect4408"
         width="42"
         height="42"
         x="-105"
         y="-365"
         rx="21"
         ry="21" />
      <rect
         ry="11"
         rx="11"
         y="-343"
         x="-211"
         height="22"
         width="22"
         id="rect4410"
         style="display:inline;fill:#315bef;fill-opacity:1;stroke:none;stroke-width:1.0476191;stroke-opacity:0.25098039;enable-background:new;opacity:1"
         transform="matrix(0,-1,-1,0,0,0)" />
      <rect
         transform="matrix(0,-1,-1,0,0,0)"
         style="display:inline;fill:#315bef;fill-opacity:1;stroke:none;stroke-width:1.03448272;stroke-opacity:0.25098039;enable-background:new;opacity:1"
         id="rect4412"
         width="30"
         height="30"
         x="-163"
         y="-351"
         rx="15"
         ry="15" />
      <rect
         ry="112"
         rx="112"
         y="-264"
         x="-268"
         height="224"
         width="224"
         id="rect4418"
         style="display:inline;fill:#315bef;fill-opacity:1;stroke:none;stroke-width:0.5;enable-background:new;opacity:1"
         transform="matrix(0,-1,-1,0,0,0)" />
      <rect
         ry="1"
         rx="1"
         y="-328"
         x="-276"
         height="8"
         width="8"
         id="rect4420"
         style="display:inline;fill:#315bef;fill-opacity:1;stroke:none;stroke-width:1.14285719;stroke-opacity:0.25098039;enable-background:new;opacity:1"
         transform="matrix(0,-1,-1,0,0,0)" />
    </g>
    <g
       inkscape:label="Pictogram1"
       id="layer3"
       inkscape:groupmode="layer">
      <path
         sodipodi:nodetypes="ccccccccc"
         inkscape:connector-curvature="0"
         id="path4360"
         d="M 104.00009,95.999995 V 215.99999 c 0,0 60.86248,-24.59881 110.59484,-60.0379 0,-0.0108 -0.006,-0.0199 -0.0127,-0.0322 -0.006,-0.0132 -0.0132,-0.0262 -0.0224,-0.0393 -0.01,-0.013 -0.0187,-0.0266 -0.0252,-0.0393 -0.007,-0.0131 -0.0127,-0.0263 -0.0127,-0.0379 C 162.06394,119.24411 104.00007,96.000095 104.00007,96.000095 Z"
         style="color:#000000;display:inline;overflow:visible;visibility:visible;fill:url(#linearGradient4470-107);fill-opacity:1;fill-rule:nonzero;stroke:none;stroke-width:3;marker:none;enable-background:accumulate;opacity:1" />
      <path
         sodipodi:nodetypes="ccccscccc"
         style="color:#000000;display:inline;overflow:visible;visibility:visible;fill:url(#linearGradient977-920);fill-opacity:1;fill-rule:nonzero;stroke:none;stroke-width:3;marker:none;enable-background:accumulate;opacity:1"
         d="m 336,73 v 22 c 0,0 10.42592,-4.509787 19.5435,-11.006952 0,-0.0015 -0.002,-0.0037 -0.002,-0.0059 -7.5e-4,-0.0029 -0.003,-0.0051 -0.005,-0.0073 -0.002,-0.0022 -0.003,-0.0051 -0.005,-0.0073 -0.002,-0.0029 -0.002,-0.0051 -0.002,-0.0066 C 345.91309,77.2614 336.00024,73 336.00024,73 Z"
         id="path975"
         inkscape:connector-curvature="0" />
      <path
         inkscape:connector-curvature="0"
         id="path919"
         d="m 331,141.00001 v 14 c 0,0 6.63468,-2.86986 12.43679,-7.00443 0,-9.5e-4 -10e-4,-0.002 -10e-4,-0.004 -4.7e-4,-0.002 -0.002,-0.003 -0.004,-0.005 -10e-4,-0.001 -0.002,-0.003 -0.003,-0.005 -10e-4,-0.002 -10e-4,-0.004 -10e-4,-0.005 -6.11912,-4.26627 -12.42729,-6.97807 -12.42729,-6.97807 z"
         style="color:#000000;display:inline;overflow:visible;visibility:visible;fill:url(#linearGradient923-696);fill-opacity:1;fill-rule:nonzero;stroke:none;stroke-width:3;marker:none;enable-background:accumulate;opacity:1"
         sodipodi:nodetypes="ccccscccc" />
      <path
         sodipodi:nodetypes="ccccscccc"
         style="color:#000000;display:inline;overflow:visible;visibility:visible;fill:url(#linearGradient928-826);fill-opacity:1;fill-rule:nonzero;stroke:none;stroke-width:3;marker:none;enable-background:accumulate;opacity:1"
         d="m 328,195.00108 v 9.99893 c 0,0 4.73854,-2.04968 8.88247,-5.00263 0,-6.8e-4 -7.2e-4,-0.001 -7.2e-4,-0.003 -3.3e-4,-0.001 -9.9e-4,-0.002 -0.003,-0.004 -7.2e-4,-7.1e-4 -9.9e-4,-0.002 -0.002,-0.004 -7.2e-4,-0.001 -7.2e-4,-0.003 -7.2e-4,-0.004 -4.37033,-3.04701 -8.87567,-4.9838 -8.87567,-4.9838 z"
         id="path925"
         inkscape:connector-curvature="0" />
      <path
         inkscape:connector-curvature="0"
         id="path930"
         d="M 326,240.50175 V 247.5 c 0,0 3.3165,-1.43457 6.21684,-3.50134 0,-4.8e-4 -5.1e-4,-7e-4 -5.1e-4,-0.002 -2.3e-4,-7e-4 -7e-4,-0.001 -0.002,-0.003 -5e-4,-5e-4 -7e-4,-0.001 -0.001,-0.003 -5.1e-4,-7e-4 -5.1e-4,-0.002 -5.1e-4,-0.003 -3.05879,-2.1326 -6.21209,-3.48816 -6.21209,-3.48816 z"
         style="color:#000000;display:inline;overflow:visible;visibility:visible;fill:url(#linearGradient932-634);fill-opacity:1;fill-rule:nonzero;stroke:none;stroke-width:3.00000024;marker:none;enable-background:accumulate;opacity:1"
         sodipodi:nodetypes="ccccscccc" />
      <path
         inkscape:connector-curvature="0"
         id="path930-5"
         d="m 321.99379,269.3968 v 5.21781 c 0,0 2.47275,-1.06958 4.6352,-2.61055 0,-3.6e-4 -3.8e-4,-5.2e-4 -3.8e-4,-0.002 -1.7e-4,-5.2e-4 -5.1e-4,-7.4e-4 -0.002,-0.003 -3.8e-4,-3.7e-4 -5.3e-4,-7.5e-4 -7.6e-4,-0.003 -3.8e-4,-5.2e-4 -3.8e-4,-0.002 -3.8e-4,-0.003 -2.2806,-1.59005 -4.63166,-2.60073 -4.63166,-2.60073 z"
         style="color:#000000;display:inline;overflow:visible;visibility:visible;fill:url(#linearGradient932-3-861);fill-opacity:1;fill-rule:nonzero;stroke:none;stroke-width:2.23676586;marker:none;enable-background:accumulate;opacity:1"
         sodipodi:nodetypes="ccccscccc" />
    </g>
    <g
       sodipodi:insensitive="true"
       style="display:none;opacity:1"
       inkscape:label="Pictogram"
       id="layer6"
       inkscape:groupmode="layer">
      <rect
         style="color:#000000;display:inline;overflow:visible;visibility:visible;fill:none;stroke:none;stroke-width:32;marker:none;enable-background:accumulate;opacity:1"
         id="rect875"
         width="160"
         height="160"
         x="76"
         y="-232.00044"
         transform="rotate(90)" />
      <path
         inkscape:transform-center-y="-7.9639626"
         inkscape:transform-center-x="0.20031264"
         d="m 202.9184,230.6686 -50.39398,-26.00737 -49.99337,26.76939 9.16189,-55.96425 -40.908003,-39.27432 56.056333,-8.58044 24.71084,-51.042248 25.48284,50.661248 56.18013,7.72847 -40.30707,39.89081 z"
         inkscape:randomized="0"
         inkscape:rounded="0"
         inkscape:flatsided="false"
         sodipodi:arg2="1.5632057"
         sodipodi:arg1="0.93488719"
         sodipodi:r2="42.698521"
         sodipodi:r1="85.397041"
         sodipodi:cy="161.96394"
         sodipodi:cx="152.20032"
         sodipodi:sides="5"
         id="path883"
         style="opacity:1;fill:#ffffff;fill-opacity:1;stroke:none;stroke-width:0.76338506;stroke-linecap:round;stroke-linejoin:round;stroke-opacity:1"
         sodipodi:type="star" />
      <path
         inkscape:transform-center-y="-0.30961302"
         inkscape:transform-center-x="0.0077576296"
         d="m 326.00214,274.9834 -1.95905,-1.01103 -1.94348,1.04065 0.35617,-2.17559 -1.59029,-1.52677 2.17917,-0.33356 0.96063,-1.98425 0.99063,1.96943 2.18399,0.30045 -1.56693,1.55074 z"
         inkscape:randomized="0"
         inkscape:rounded="0"
         inkscape:flatsided="false"
         sodipodi:arg2="1.5632057"
         sodipodi:arg1="0.93488719"
         sodipodi:r2="1.6598904"
         sodipodi:r1="3.3197808"
         sodipodi:cy="272.31253"
         sodipodi:cx="324.03049"
         sodipodi:sides="5"
         id="path883-3"
         style="display:inline;opacity:1;fill:#ffffff;fill-opacity:1;stroke:none;stroke-width:0.02967635;stroke-linecap:round;stroke-linejoin:round;stroke-opacity:1;enable-background:new"
         sodipodi:type="star" />
      <path
         inkscape:transform-center-y="-0.53625487"
         inkscape:transform-center-x="0.013420277"
         d="m 331.92848,248.66232 -3.39317,-1.75115 -3.36619,1.80245 0.61689,-3.76822 -2.75445,-2.64445 3.77443,-0.57775 1.66385,-3.43682 1.71583,3.41117 3.78277,0.52038 -2.71399,2.68596 z"
         inkscape:randomized="0"
         inkscape:rounded="0"
         inkscape:flatsided="false"
         sodipodi:arg2="1.5632057"
         sodipodi:arg1="0.93488719"
         sodipodi:r2="2.8750103"
         sodipodi:r1="5.7500205"
         sodipodi:cy="244.03624"
         sodipodi:cx="328.51349"
         sodipodi:sides="5"
         id="path883-3-6"
         style="display:inline;opacity:1;fill:#ffffff;fill-opacity:1;stroke:none;stroke-width:0.05140087;stroke-linecap:round;stroke-linejoin:round;stroke-opacity:1;enable-background:new"
         sodipodi:type="star" />
      <path
         inkscape:transform-center-y="-0.8187375"
         inkscape:transform-center-x="0.020470008"
         d="m 337.2344,207.88151 -5.18048,-2.67355 -5.1393,2.75188 0.94184,-5.7531 -4.20533,-4.03739 5.76257,-0.88206 2.54026,-5.24712 2.61963,5.20795 5.77529,0.79449 -4.14355,4.10075 z"
         inkscape:randomized="0"
         inkscape:rounded="0"
         inkscape:flatsided="false"
         sodipodi:arg2="1.5632057"
         sodipodi:arg1="0.93488719"
         sodipodi:r2="4.38939"
         sodipodi:r1="8.7787809"
         sodipodi:cy="200.8187"
         sodipodi:cx="332.0206"
         sodipodi:sides="5"
         id="path883-3-6-7"
         style="display:inline;opacity:1;fill:#ffffff;fill-opacity:1;stroke:none;stroke-width:0.07847571;stroke-linecap:round;stroke-linejoin:round;stroke-opacity:1;enable-background:new"
         sodipodi:type="star" />
      <path
         inkscape:transform-center-y="-1.122105"
         inkscape:transform-center-x="0.028050317"
         d="m 343.17395,158.80192 -7.10006,-3.6642 -7.04361,3.77156 1.29083,-7.88485 -5.76357,-5.5334 7.89783,-1.20891 3.48153,-7.19139 3.5903,7.13771 7.91528,1.08887 -5.67891,5.62026 z"
         inkscape:randomized="0"
         inkscape:rounded="0"
         inkscape:flatsided="false"
         sodipodi:arg2="1.5632057"
         sodipodi:arg1="0.93488719"
         sodipodi:r2="6.0158343"
         sodipodi:r1="12.03167"
         sodipodi:cy="149.12206"
         sodipodi:cx="336.02823"
         sodipodi:sides="5"
         id="path883-3-6-7-5"
         style="display:inline;opacity:1;fill:#ffffff;fill-opacity:1;stroke:none;stroke-width:0.10755409;stroke-linecap:round;stroke-linejoin:round;stroke-opacity:1;enable-background:new"
         sodipodi:type="star" />
      <path
         inkscape:transform-center-y="-1.5461164"
         inkscape:transform-center-x="0.038657461"
         d="m 353.30926,97.977976 -9.7829,-5.048771 -9.70513,5.196699 1.77858,-10.86425 -7.94141,-7.624261 10.88213,-1.665705 4.79707,-9.908752 4.94695,9.834788 10.90616,1.500315 -7.82475,7.743938 z"
         inkscape:randomized="0"
         inkscape:rounded="0"
         inkscape:flatsided="false"
         sodipodi:arg2="1.5632057"
         sodipodi:arg1="0.93488719"
         sodipodi:r2="8.2889938"
         sodipodi:r1="16.577991"
         sodipodi:cy="84.64045"
         sodipodi:cx="343.46344"
         sodipodi:sides="5"
         id="path883-3-6-7-3"
         style="display:inline;opacity:1;fill:#ffffff;fill-opacity:1;stroke:none;stroke-width:0.14819477;stroke-linecap:round;stroke-linejoin:round;stroke-opacity:1;enable-background:new"
         sodipodi:type="star" />
    </g>
  </g>
</svg>
