<?xml version="1.0" encoding="UTF-8" standalone="no"?>
<svg
   xmlns:dc="http://purl.org/dc/elements/1.1/"
   xmlns:cc="http://creativecommons.org/ns#"
   xmlns:rdf="http://www.w3.org/1999/02/22-rdf-syntax-ns#"
   xmlns:svg="http://www.w3.org/2000/svg"
   xmlns="http://www.w3.org/2000/svg"
   xmlns:sodipodi="http://sodipodi.sourceforge.net/DTD/sodipodi-0.dtd"
   xmlns:inkscape="http://www.inkscape.org/namespaces/inkscape"
   sodipodi:docname="close-window-hover.svg"
   viewBox="0 0 32 32"
   inkscape:version="1.0.1 (3bc2e813f5, 2020-09-07)"
   version="1.1"
   id="svg4486"
   height="32"
   width="32">
  <defs
     id="defs4488">
    <filter
       inkscape:collect="always"
       style="color-interpolation-filters:sRGB"
       id="filter4195"
       x="-0.12"
       width="1.24"
       y="-0.12"
       height="1.24">
      <feGaussianBlur
         inkscape:collect="always"
         stdDeviation="0.75"
         id="feGaussianBlur4197" />
    </filter>
  </defs>
  <sodipodi:namedview
     id="base"
     pagecolor="#ffffff"
     bordercolor="#666666"
     borderopacity="1.0"
     inkscape:pageopacity="0.0"
     inkscape:pageshadow="2"
     inkscape:zoom="27.96"
     inkscape:cx="15.558658"
     inkscape:cy="14.772499"
     inkscape:document-units="px"
     inkscape:current-layer="g4131"
     showgrid="false"
     fit-margin-top="0"
     fit-margin-left="0"
     fit-margin-right="0"
     fit-margin-bottom="0"
     inkscape:window-width="1848"
     inkscape:window-height="1016"
     inkscape:window-x="72"
     inkscape:window-y="27"
     inkscape:window-maximized="1"
     inkscape:pagecheckerboard="false"
     inkscape:document-rotation="0" />
  <metadata
     id="metadata4491">
    <rdf:RDF>
      <cc:Work
         rdf:about="">
        <dc:format>image/svg+xml</dc:format>
        <dc:type
           rdf:resource="http://purl.org/dc/dcmitype/StillImage" />
        <dc:title />
      </cc:Work>
    </rdf:RDF>
  </metadata>
  <g
     inkscape:label="Layer 1"
     inkscape:groupmode="layer"
     id="layer1"
     transform="translate(290.21429,-509.86219)">
    <g
       style="display:inline"
       id="g4131"
       transform="translate(-283.21429,-517.50011)">
      <path
         inkscape:connector-curvature="0"
         id="path4137"
         d="M 85.5,97.5 A 7.4999798,7.4999798 0 0 0 78,105 7.4999798,7.4999798 0 0 0 85.5,112.5 7.4999798,7.4999798 0 0 0 93,105 7.4999798,7.4999798 0 0 0 85.5,97.5 Z m -2.5,4.22266 0.388672,0.38867 L 85.5,104.22266 87.611328,102.11133 88,101.72266 88.777344,102.5 88.388672,102.89062 86.277344,105 88.388672,107.11133 88.777344,107.5 88,108.2793 87.611328,107.89062 85.5,105.7793 83.388672,107.89062 83,108.2793 82.222656,107.5 82.611328,107.11133 84.722656,105 82.611328,102.89062 82.222656,102.5 Z"
         style="color:#000000;display:inline;overflow:visible;visibility:visible;fill:#315bef;fill-opacity:1;fill-rule:nonzero;stroke:none;stroke-width:4.65001774;marker:none;filter:url(#filter4195);enable-background:accumulate"
         transform="matrix(1.7204232,0,0,1.7204232,-138.09618,862.71786)" />
      <g
         style="display:inline;stroke-width:2.07407"
         transform="matrix(1.8222718,0,0,1.8222718,-249.97953,1022.8617)"
         id="layer1-6"
         inkscape:label="Layer 1">
        <path
           id="path4141"
           d="M 142.11905,3.8416665 A 7.4083333,7.4083333 0 0 0 134.71071,11.25 7.4083333,7.4083333 0 0 0 142.11905,18.658334 7.4083333,7.4083333 0 0 0 149.52738,11.25 7.4083333,7.4083333 0 0 0 142.11905,3.8416665 Z"
           style="color:#000000;display:inline;overflow:visible;visibility:visible;opacity:1;fill:#315bef;fill-opacity:1;fill-rule:nonzero;stroke:none;stroke-width:35.121;stroke-linecap:butt;stroke-linejoin:miter;stroke-miterlimit:4;stroke-dasharray:none;stroke-dashoffset:0;stroke-opacity:1;marker:none;enable-background:accumulate"
           inkscape:connector-curvature="0" />
        <path
           id="path4170"
           d="m 139.31818,7.7008631 2.80087,2.8008629 2.80086,-2.8008629 0.74827,0.7482734 -2.80086,2.8008635 2.80086,2.800864 -0.74827,0.748273 -2.80086,-2.800864 -2.80087,2.800864 -0.74827,-0.748273 2.80086,-2.800864 -2.80086,-2.8008635 z"
           style="color:#000000;display:inline;overflow:visible;visibility:visible;opacity:1;fill:#ffffff;fill-opacity:1;fill-rule:nonzero;stroke:none;stroke-width:35.121;stroke-linecap:butt;stroke-linejoin:miter;stroke-miterlimit:4;stroke-dasharray:none;stroke-dashoffset:0;stroke-opacity:1;marker:none;enable-background:accumulate"
           inkscape:connector-curvature="0" />
      </g>
    </g>
  </g>
</svg>
