<?xml version="1.0" encoding="UTF-8" standalone="no"?>
<svg
   xmlns:osb="http://www.openswatchbook.org/uri/2009/osb"
   xmlns:dc="http://purl.org/dc/elements/1.1/"
   xmlns:cc="http://creativecommons.org/ns#"
   xmlns:rdf="http://www.w3.org/1999/02/22-rdf-syntax-ns#"
   xmlns:svg="http://www.w3.org/2000/svg"
   xmlns="http://www.w3.org/2000/svg"
   xmlns:sodipodi="http://sodipodi.sourceforge.net/DTD/sodipodi-0.dtd"
   xmlns:inkscape="http://www.inkscape.org/namespaces/inkscape"
   height="16.000032"
   id="svg7384"
   version="1.1"
   width="16.000046"
   sodipodi:docname="bleachbit-symbolic.svg"
   inkscape:version="1.0.1 (3bc2e813f5, 2020-09-07)">
  <sodipodi:namedview
     pagecolor="#ffffff"
     bordercolor="#666666"
     borderopacity="1"
     objecttolerance="10"
     gridtolerance="10"
     guidetolerance="10"
     inkscape:pageopacity="0"
     inkscape:pageshadow="2"
     inkscape:window-width="1478"
     inkscape:window-height="800"
     id="namedview22"
     showgrid="false"
     inkscape:zoom="30.88"
     inkscape:cx="8.8438816"
     inkscape:cy="8.0000162"
     inkscape:window-x="58"
     inkscape:window-y="27"
     inkscape:window-maximized="1"
     inkscape:current-layer="svg7384" />
  <metadata
     id="metadata20854">
    <rdf:RDF>
      <cc:Work
         rdf:about="">
        <dc:title></dc:title>
        <dc:format>image/svg+xml</dc:format>
        <dc:type
           rdf:resource="http://purl.org/dc/dcmitype/StillImage" />
      </cc:Work>
    </rdf:RDF>
  </metadata>
  <defs
     id="defs7386">
    <linearGradient
       id="linearGradient5606"
       osb:paint="solid">
      <stop
         id="stop5608"
         offset="0"
         style="stop-color:#000000;stop-opacity:1;" />
    </linearGradient>
    <linearGradient
       id="linearGradient4526"
       osb:paint="solid">
      <stop
         id="stop4528"
         offset="0"
         style="stop-color:#ffffff;stop-opacity:1;" />
    </linearGradient>
    <linearGradient
       id="linearGradient3600-4"
       osb:paint="gradient">
      <stop
         id="stop3602-7"
         offset="0"
         style="stop-color:#f4f4f4;stop-opacity:1" />
      <stop
         id="stop3604-6"
         offset="1"
         style="stop-color:#dbdbdb;stop-opacity:1" />
    </linearGradient>
  </defs>
  <g
     id="layer9"
     label="status"
     style="display:inline"
     transform="translate(-813.00024,127)" />
  <g
     id="layer2"
     style="display:inline"
     transform="translate(-572.00004,-240)" />
  <g
     id="layer4"
     style="display:inline"
     transform="translate(-572.00004,-240)" />
  <g
     id="g1812"
     style="display:inline"
     transform="translate(-572.00004,-240)" />
  <g
     id="g6217"
     style="display:inline"
     transform="translate(-572.00004,-240)" />
  <g
     id="layer3"
     style="display:inline"
     transform="translate(-572.00004,-240)" />
  <g
     id="layer1"
     style="display:inline"
     transform="translate(-572.00004,-240)" />
  <path
     inkscape:connector-curvature="0"
     id="g7032"
     d="M 6.80013,0 C 7.03911,0.045 7.29994,0.26914 7.4303,0.44866 L 9.53782,4.21875 8.45163,4.89197 h 3.60646 L 13.86131,1.66072 12.7531,2.31117 11.64534,0.29152 C 11.53675,0.08957 11.31941,0 11.08041,0 Z M 5.55662,0.22723 C 5.00261,0.24693 4.46475,0.45986 4.23664,0.87502 L 2.58555,3.85982 5.75717,5.76698 7.77782,2.1317 6.97387,0.74062 C 6.68057,0.38158 6.11065,0.2076 5.55662,0.22723 Z m 8.58693,4.6201 -3.19367,1.88481 2.02063,3.56786 h 1.71635 C 15.3821,10.16544 16.42502,8.99838 15.8167,7.78661 Z M 0,5.63258 1.15143,6.32813 0.41277,7.60714 c -0.65178,1.25667 0.43441,2.6427 1.08618,2.71563 H 3.19367 L 4.3451,8.25805 5.49655,8.90894 3.65011,5.63261 Z M 10.36335,9.46965 8.51646,12.74599 10.36335,16 v -1.36875 h 2.25964 c 0.26073,0 0.43437,-0.15696 0.52127,-0.33661 l 2.04224,-3.72499 c -0.10859,0.0674 -0.17373,0.17922 -0.58653,0.22409 h -4.23662 z m -9.38566,1.14464 c 0.0869,0.11216 0.0651,0.0899 1.97696,3.59061 0.13028,0.20198 0.30432,0.4488 0.54331,0.42635 H 7.56084 V 10.79374 H 1.52098 c -0.32588,0 -0.4401,-0.0898 -0.54329,-0.17945 z"
     style="display:inline;fill:#808080;fill-opacity:1;stroke:none;stroke-width:1.57433;enable-background:new"
     inkscape:label="bleachbit" />
</svg>
