<?xml version="1.0" encoding="UTF-8" standalone="no"?>
<svg
   xmlns:osb="http://www.openswatchbook.org/uri/2009/osb"
   xmlns:dc="http://purl.org/dc/elements/1.1/"
   xmlns:cc="http://creativecommons.org/ns#"
   xmlns:rdf="http://www.w3.org/1999/02/22-rdf-syntax-ns#"
   xmlns:svg="http://www.w3.org/2000/svg"
   xmlns="http://www.w3.org/2000/svg"
   xmlns:sodipodi="http://sodipodi.sourceforge.net/DTD/sodipodi-0.dtd"
   xmlns:inkscape="http://www.inkscape.org/namespaces/inkscape"
   height="16.000032"
   id="svg7384"
   version="1.1"
   width="16.000046"
   sodipodi:docname="nvidia-settings-symbolic.svg"
   inkscape:version="1.0.1 (3bc2e813f5, 2020-09-07)">
  <sodipodi:namedview
     pagecolor="#ffffff"
     bordercolor="#666666"
     borderopacity="1"
     objecttolerance="10"
     gridtolerance="10"
     guidetolerance="10"
     inkscape:pageopacity="0"
     inkscape:pageshadow="2"
     inkscape:window-width="1478"
     inkscape:window-height="800"
     id="namedview22"
     showgrid="false"
     inkscape:zoom="20"
     inkscape:cx="0.78610923"
     inkscape:cy="8.0000162"
     inkscape:window-x="58"
     inkscape:window-y="27"
     inkscape:window-maximized="1"
     inkscape:current-layer="svg7384"
     inkscape:document-rotation="0" />
  <metadata
     id="metadata20854">
    <rdf:RDF>
      <cc:Work
         rdf:about="">
        <dc:title></dc:title>
        <dc:format>image/svg+xml</dc:format>
        <dc:type
           rdf:resource="http://purl.org/dc/dcmitype/StillImage" />
      </cc:Work>
    </rdf:RDF>
  </metadata>
  <defs
     id="defs7386">
    <linearGradient
       id="linearGradient5606"
       osb:paint="solid">
      <stop
         id="stop5608"
         offset="0"
         style="stop-color:#000000;stop-opacity:1;" />
    </linearGradient>
    <linearGradient
       id="linearGradient4526"
       osb:paint="solid">
      <stop
         id="stop4528"
         offset="0"
         style="stop-color:#ffffff;stop-opacity:1;" />
    </linearGradient>
    <linearGradient
       id="linearGradient3600-4"
       osb:paint="gradient">
      <stop
         id="stop3602-7"
         offset="0"
         style="stop-color:#f4f4f4;stop-opacity:1" />
      <stop
         id="stop3604-6"
         offset="1"
         style="stop-color:#dbdbdb;stop-opacity:1" />
    </linearGradient>
  </defs>
  <g
     id="layer9"
     label="status"
     style="display:inline"
     transform="translate(-813.00024,127)" />
  <g
     id="layer2"
     style="display:inline"
     transform="translate(-572.00004,-240)" />
  <g
     id="layer4"
     style="display:inline"
     transform="translate(-572.00004,-240)" />
  <g
     id="g1812"
     style="display:inline"
     transform="translate(-572.00004,-240)" />
  <g
     id="g6217"
     style="display:inline"
     transform="translate(-572.00004,-240)" />
  <g
     id="layer3"
     style="display:inline"
     transform="translate(-572.00004,-240)" />
  <g
     id="layer1"
     style="display:inline"
     transform="translate(-572.00004,-240)" />
  <path
     d="m 15.943692,5.2730633 a 6.8459477,6.7352438 0 0 0 -0.199814,0.064994 c -0.260822,0.093118 -0.52858,0.167029 -0.791775,0.2533558 -0.457519,0.2032814 -0.912467,0.4104385 -1.366792,0.6204078 -0.225976,0.1421633 -0.459298,0.2712591 -0.69948,0.3887795 -0.55208,0.366143 -1.094714,0.7446333 -1.614442,1.1542486 0.255194,1.1683103 0.786056,2.26873 1.452622,3.263803 0.303775,0.419408 0.613148,0.844285 1.00648,1.188358 -0.01871,-0.322105 -0.08852,-0.639872 -0.09035,-0.963178 -0.05612,-0.885372 -0.07681,-1.7750846 -0.02266,-2.6605265 0.0061,-0.096719 0.113163,-0.1402767 0.176681,-0.1996289 0.670292,-0.4751918 1.384039,-0.9024704 2.15017,-1.209879 l 0.05567,-0.039271 V 5.2804029 Z M 3.7376148,9.0616013 c -0.098409,0.012 -0.1961795,0.023662 -0.2932349,0.039615 -0.4039793,0.090546 -0.8053273,0.1995603 -1.2192084,0.2388139 -0.02175,9.771e-4 -0.066164,0.00518 -0.087914,0.00682 C 1.752595,9.3854382 1.3792639,9.4919284 0.9983887,9.5526007 0.9199047,9.5663187 0.8414969,9.5776357 0.7630129,9.5889527 0.4929126,9.6237677 0.2470723,9.7438056 0,9.8479157 1.3468056,11.297295 2.7560486,12.70941 4.3910242,13.847093 c 1.2678197,-0.0017 2.5361567,0.012 3.8045544,-0.0086 C 8.1631816,13.809203 8.0997556,13.751413 8.0681183,13.7226 7.9910033,13.653525 7.9119565,13.587331 7.8322558,13.523006 7.7215265,13.433661 7.6105843,13.344847 7.5010262,13.254782 7.4150892,13.184301 7.3311602,13.112105 7.2483566,13.038707 A 56.153191,55.245156 0 0 1 6.9596544,12.772936 C 6.8863414,12.706228 6.8134856,12.639005 6.7412378,12.572244 6.6417638,12.481013 6.5406627,12.390982 6.441706,12.299133 6.3557691,12.218877 6.2731176,12.13622 6.1903292,12.05346 A 18.390201,18.092817 0 0 1 5.9048363,11.759016 C 5.8382162,11.689907 5.7722045,11.62114 5.7068165,11.552013 5.6071905,11.44672 5.5102264,11.340123 5.4130949,11.233577 5.342216,11.155722 5.2705766,11.079239 5.2014925,11.000182 5.1181413,10.903464 5.0365089,10.805407 4.9549525,10.707471 4.8852904,10.623613 4.8150199,10.540442 4.7459358,10.456567 4.6644098,10.356761 4.5853023,10.256321 4.50621,10.155281 4.42225,10.0457 4.3369828,9.9367712 4.2554873,9.8252871 4.1844563,9.726682 4.116011,9.6268762 4.0456644,9.5276704 3.9883224,9.4468996 3.9291553,9.3671578 3.8762395,9.2839525 3.8307615,9.2086685 3.7869565,9.1335572 3.7376758,9.061224 Z"
     style="display:inline;fill:#808080;fill-opacity:1;stroke-width:0.0177163;enable-background:new"
     id="path40-3-5-2-1" />
  <path
     d="m 14.974538,1.8513546 c -0.144952,-3.601e-4 -0.289265,0 -0.43367,0.00514 -0.193578,0.00857 -0.387096,0.022637 -0.580051,0.028124 -0.135065,0.00514 -0.269005,0.00857 -0.402823,0.01835 -0.250175,0.034812 -0.500305,0.070481 -0.752335,0.091231 -0.142519,0.013719 -0.285782,0.022122 -0.427692,0.031897 -0.265127,0.088831 -0.545859,0.1082087 -0.817815,0.1682293 -0.09582,0.017149 -0.192423,0.02881 -0.288276,0.040986 -0.417608,0.10221 -0.834501,0.2063887 -1.25398,0.300038 C 9.9076234,2.570162 9.7956621,2.5996578 9.6855412,2.6320689 9.412916,2.7270731 9.1384656,2.8168468 8.864,2.9056431 8.6181292,2.9773248 8.3761979,3.0587815 8.1415371,3.161108 7.7812106,3.3159613 7.4188308,3.4658758 7.0640712,3.6330933 6.7098745,3.7984073 6.3695949,3.9907821 6.0242047,4.1738794 5.6009542,4.4408513 5.1684712,4.701701 4.7931172,5.0335638 c -0.09704,0.054533 -0.040763,0.1610268 -0.026922,0.2449357 0.6920884,2.2508602 1.9295945,4.3185034 3.489843,6.0918395 0.7786641,0.892696 1.6417136,1.710914 2.5497708,2.475715 0.765492,-9.43e-4 1.531745,0.0086 2.297343,-0.0069 l -0.02814,-0.02041 c -0.07346,-0.05885 -0.144191,-0.120076 -0.217078,-0.178827 -0.107687,-0.08934 -0.214812,-0.177575 -0.320643,-0.268206 -0.0829,-0.0722 -0.164938,-0.144393 -0.245232,-0.218459 -0.10206,-0.09672 -0.200241,-0.196679 -0.300475,-0.294667 -0.08776,-0.08557 -0.176756,-0.170802 -0.261415,-0.258877 -0.07788,-0.08214 -0.15134,-0.167201 -0.226052,-0.251075 -0.07027,-0.07837 -0.140541,-0.15674 -0.209108,-0.236327 A 13.815386,13.591981 0 0 1 11.05177,11.815247 c -0.08898,-0.110266 -0.176771,-0.221545 -0.263879,-0.33236 -0.05658,-0.07168 -0.110881,-0.145936 -0.16255,-0.21995 C 10.553091,11.16073 10.47902,11.060256 10.409982,10.95678 10.332862,10.841026 10.259554,10.72342 10.184173,10.606534 10.129413,10.520824 10.07466,10.4346 10.021121,10.347673 9.9484165,10.228832 9.8784501,10.108225 9.8087575,9.9876341 9.7447235,9.8766817 9.6799283,9.7665866 9.6183123,9.654537 9.5586893,9.5435846 9.5019553,9.4316543 9.4452826,9.3202046 9.3949376,9.2221138 9.3450483,9.124897 9.2971366,9.0263091 9.2324936,8.8915195 9.1715014,8.7550498 9.1116955,8.6184946 A 124.59813,122.5833 0 0 1 8.977999,8.3196771 C 8.926893,8.203237 8.875179,8.0876204 8.829853,7.9694312 8.778747,7.8372141 8.7276413,7.7054086 8.6785128,7.5731404 8.6257338,7.4311487 8.5788868,7.2872706 8.5353861,7.1428094 8.5098331,7.0625533 8.4844321,6.9822971 8.4588791,6.9027783 8.4083811,6.7589002 8.3679231,6.6119354 8.34237,6.4619181 9.6879588,5.5514048 11.152415,4.8097382 12.695309,4.2813163 13.75653,3.9268001 14.854332,3.6530717 15.97402,3.5661445 l 0.02555,-0.010289 V 1.869035 C 15.861919,1.860465 15.72442,1.853601 15.587545,1.85 c -0.204758,0 -0.408968,0.00172 -0.613178,0 z"
     style="display:inline;fill:#808080;fill-opacity:1;stroke-width:0.0177163;enable-background:new"
     id="path38-6-6-9-2" />
</svg>
