<svg enable-background="new" version="1.1" viewBox="0 0 16 16" xmlns="http://www.w3.org/2000/svg" xmlns:osb="http://www.openswatchbook.org/uri/2009/osb">
 <title>Pop Symbolic Icon Theme</title>
 <defs>
  <filter color-interpolation-filters="sRGB">
   <feBlend in2="BackgroundImage" mode="darken"/>
  </filter>
 </defs>
 <g fill="#808080">
  <path d="m5 0v1h1v-1zm1 1v1h-1v-1h-0.00586c-1.258 0.015-2.1786-0.030234-2.9316 0.38477-0.376 0.207-0.67484 0.56005-0.83984 0.99805-0.164 0.437-0.22266 0.96019-0.22266 1.6172v3.406c0.04704 6.83e-4 0.093998 4.2e-4 0.14062 0 0.18909-0.0017 0.061618 8.5e-4 0.26758 0 0.12895-4.11e-4 0.25777 4.38e-4 0.38672 0 0.014502-2.04e-4 0.028465-9e-6 0.042969 0 0.026031-2e-6 0.052094-4e-6 0.078125 0 0.038811-1e-3 0.058981-0.01253 0.083984 0v-0.406c1e-7 -0.592 0.062156-1.0056 0.16016-1.2656 0.097-0.26 0.20272-0.37166 0.38672-0.47266 0.366-0.203 1.195-0.24672 2.459-0.26172h5.9941c1.26 0.015 2.0871 0.059719 2.4531 0.26172 0.183 0.1 0.28972 0.21266 0.38672 0.47266s0.16016 1.2656 0.16016 1.2656v5c0 0.592-0.06316 1.0056-0.16016 1.2656-0.098 0.26-0.20372 0.37166-0.38672 0.47266-0.366 0.202-1.1941 0.24672-2.4531 0.26172h-6c-1.26-0.015-2.0871-0.05972-2.4531-0.26172-0.184-0.1-0.28972-0.21266-0.38672-0.47266-0.098-0.26-0.16016-0.67362-0.16016-1.2656v-1.654h-0.00195c-0.015857 1.06e-4 -0.031007-2e-5 -0.046875 0-0.00674 0.0029-0.016643-4.9e-4 -0.025391 0-0.075161 0.0041-0.12057 3e-5 -0.19922 0-0.066953-0.0019-0.13427 3e-3 -0.20117 0-0.11751-0.0053-0.23586 0.0028-0.35352 0-0.057543-0.0025-0.1143-0.0016-0.17188 0v1.654c0 0.658 0.057656 1.1792 0.22266 1.6172 0.164 0.439 0.46284 0.78909 0.83984 0.99609 0.752 0.416 1.6736 0.37172 2.9316 0.38672h6.0117c1.258-0.014 2.1786 0.02928 2.9316-0.38672 0.376-0.207 0.67389-0.55709 0.83789-0.99609 0.165-0.438 0.22461-0.99019 0.22461-1.6172v-8c0-0.658-0.05961-1.1792-0.22461-1.6172-0.15138-0.42194-0.44854-0.7759-0.83789-0.99805-0.752-0.416-1.6736-0.36977-2.9316-0.38477h-0.0059v1h-0.99996v-1zm4 0h1v-1h-1zm-8 6.406c-0.00446 0.0024-0.015934 9.7e-4 -0.011719 0 0.00396-9.14e-4 0.00779 0.0012 0.011719 0z" solid-color="#000000" style="isolation:auto;mix-blend-mode:normal;text-decoration-color:#000000;text-decoration-line:none;text-decoration-style:solid;text-indent:0;text-transform:none;white-space:normal"/>
  <path d="m6.0313 6.3029 0.00195 1.5h-3.998l-0.00195 2h4v1.5c0.76-0.348 1.5343-0.73602 2.3223-1.166 0.781-0.43 1.4527-0.87598 2.1777-1.334-0.725-0.45-1.3967-0.89031-2.1777-1.3203a43.07 43.07 0 0 0-2.3242-1.1797z" enable-background="new" solid-color="#000000" style="font-feature-settings:normal;font-variant-alternates:normal;font-variant-caps:normal;font-variant-ligatures:normal;font-variant-numeric:normal;font-variant-position:normal;isolation:auto;mix-blend-mode:normal;shape-padding:0;text-decoration-color:#000000;text-decoration-line:none;text-decoration-style:solid;text-indent:0;text-orientation:mixed;text-transform:none;white-space:normal"/>
 </g>
</svg>
