<?xml version="1.0" encoding="UTF-8" standalone="no"?>
<svg
   xmlns:dc="http://purl.org/dc/elements/1.1/"
   xmlns:cc="http://creativecommons.org/ns#"
   xmlns:rdf="http://www.w3.org/1999/02/22-rdf-syntax-ns#"
   xmlns:svg="http://www.w3.org/2000/svg"
   xmlns="http://www.w3.org/2000/svg"
   xmlns:sodipodi="http://sodipodi.sourceforge.net/DTD/sodipodi-0.dtd"
   xmlns:inkscape="http://www.inkscape.org/namespaces/inkscape"
   height="16"
   width="16"
   version="1.1"
   id="svg6"
   sodipodi:docname="find-location-symbolic.svg"
   inkscape:version="1.0.1 (3bc2e813f5, 2020-09-07)">
  <metadata
     id="metadata12">
    <rdf:RDF>
      <cc:Work
         rdf:about="">
        <dc:format>image/svg+xml</dc:format>
        <dc:type
           rdf:resource="http://purl.org/dc/dcmitype/StillImage" />
      </cc:Work>
    </rdf:RDF>
  </metadata>
  <defs
     id="defs10" />
  <sodipodi:namedview
     pagecolor="#ffffff"
     bordercolor="#666666"
     borderopacity="1"
     objecttolerance="10"
     gridtolerance="10"
     guidetolerance="10"
     inkscape:pageopacity="0"
     inkscape:pageshadow="2"
     inkscape:window-width="1478"
     inkscape:window-height="800"
     id="namedview8"
     showgrid="false"
     inkscape:zoom="40.875"
     inkscape:cx="8"
     inkscape:cy="7.0144672"
     inkscape:window-x="58"
     inkscape:window-y="27"
     inkscape:window-maximized="1"
     inkscape:current-layer="svg6" />
  <g
     transform="translate(-72 -360)"
     id="g4">
    <path
       d="m 80,360.75 h -1 v 1.275 c -3.192713,0.24697 -5.729894,2.78245 -5.979,5.975 H 72 v 1 h 1.025 c 0.246969,3.19271 2.782453,5.72989 5.975,5.979 V 376 h 1 v -1.025 c 3.192713,-0.24697 5.729894,-2.78245 5.979,-5.975 H 87 v -1 H 85.975 C 85.728031,364.80729 83.192547,362.27011 80,362.021 Z M 79.5,363 c 3.037566,0 5.5,2.46243 5.5,5.5 0,3.03757 -2.462434,5.5 -5.5,5.5 -3.037566,0 -5.5,-2.46243 -5.5,-5.5 0,-3.03757 2.462434,-5.5 5.5,-5.5 z m 0,3 c -1.380712,0 -2.5,1.11929 -2.5,2.5 0,1.38071 1.119288,2.5 2.5,2.5 1.380712,0 2.5,-1.11929 2.5,-2.5 0,-1.38071 -1.119288,-2.5 -2.5,-2.5 z"
       fill="#808080"
       id="path2"
       sodipodi:nodetypes="cccccccccccccccccssssssssss" />
  </g>
</svg>
