<?xml version="1.0" encoding="UTF-8" standalone="no"?>
<svg
   xmlns:dc="http://purl.org/dc/elements/1.1/"
   xmlns:cc="http://creativecommons.org/ns#"
   xmlns:rdf="http://www.w3.org/1999/02/22-rdf-syntax-ns#"
   xmlns:svg="http://www.w3.org/2000/svg"
   xmlns="http://www.w3.org/2000/svg"
   xmlns:sodipodi="http://sodipodi.sourceforge.net/DTD/sodipodi-0.dtd"
   xmlns:inkscape="http://www.inkscape.org/namespaces/inkscape"
   height="16"
   width="16"
   version="1.1"
   id="svg6"
   sodipodi:docname="go-next-symbolic.svg"
   inkscape:version="1.0.1 (3bc2e813f5, 2020-09-07)">
  <metadata
     id="metadata12">
    <rdf:RDF>
      <cc:Work
         rdf:about="">
        <dc:format>image/svg+xml</dc:format>
        <dc:type
           rdf:resource="http://purl.org/dc/dcmitype/StillImage" />
      </cc:Work>
    </rdf:RDF>
  </metadata>
  <defs
     id="defs10" />
  <sodipodi:namedview
     pagecolor="#ffffff"
     bordercolor="#666666"
     borderopacity="1"
     objecttolerance="10"
     gridtolerance="10"
     guidetolerance="10"
     inkscape:pageopacity="0"
     inkscape:pageshadow="2"
     inkscape:window-width="1536"
     inkscape:window-height="800"
     id="namedview8"
     showgrid="false"
     inkscape:zoom="40.875"
     inkscape:cx="8"
     inkscape:cy="8"
     inkscape:window-x="0"
     inkscape:window-y="27"
     inkscape:window-maximized="1"
     inkscape:current-layer="svg6" />
  <g
     transform="translate(-72,-40)"
     id="g4">
    <path
       d="m 78,40 c 0.69,0.874 1.397,1.757 2.008,2.656 0.679,1 1.287,1.972 1.825,2.912 0.497,0.868 0.87,1.774 1.167,2.432 -0.297,0.658 -0.67,1.564 -1.167,2.432 a 44.818,44.818 0 0 1 -1.825,2.912 C 79.398,54.244 78.691,55.126 78,56 v -1.49 c 0.4,-0.524 0.837,-1.062 1.222,-1.625 0.486,-0.71 0.942,-1.437 1.37,-2.18 0.433,-0.755 0.95,-1.792 1.285,-2.5 V 48.204 L 81.973,48 81.877,47.797 a 39.11,39.11 0 0 0 -1.285,-2.501 32.877,32.877 0 0 0 -1.37,-2.181 C 78.837,42.553 78.4,42.015 78,41.49 Z"
       fill="#808080"
       id="path2" />
  </g>
</svg>
