<?xml version="1.0" encoding="UTF-8" standalone="no"?>
<svg
   xmlns:dc="http://purl.org/dc/elements/1.1/"
   xmlns:cc="http://creativecommons.org/ns#"
   xmlns:rdf="http://www.w3.org/1999/02/22-rdf-syntax-ns#"
   xmlns:svg="http://www.w3.org/2000/svg"
   xmlns="http://www.w3.org/2000/svg"
   xmlns:sodipodi="http://sodipodi.sourceforge.net/DTD/sodipodi-0.dtd"
   xmlns:inkscape="http://www.inkscape.org/namespaces/inkscape"
   height="16"
   width="16"
   version="1.1"
   id="svg6"
   sodipodi:docname="go-previous-symbolic.svg"
   inkscape:version="1.0.1 (3bc2e813f5, 2020-09-07)">
  <metadata
     id="metadata12">
    <rdf:RDF>
      <cc:Work
         rdf:about="">
        <dc:format>image/svg+xml</dc:format>
        <dc:type
           rdf:resource="http://purl.org/dc/dcmitype/StillImage" />
      </cc:Work>
    </rdf:RDF>
  </metadata>
  <defs
     id="defs10" />
  <sodipodi:namedview
     pagecolor="#ffffff"
     bordercolor="#666666"
     borderopacity="1"
     objecttolerance="10"
     gridtolerance="10"
     guidetolerance="10"
     inkscape:pageopacity="0"
     inkscape:pageshadow="2"
     inkscape:window-width="1536"
     inkscape:window-height="800"
     id="namedview8"
     showgrid="false"
     inkscape:zoom="40.875"
     inkscape:cx="8"
     inkscape:cy="8"
     inkscape:window-x="0"
     inkscape:window-y="27"
     inkscape:window-maximized="1"
     inkscape:current-layer="svg6" />
  <g
     transform="translate(-52,-40)"
     id="g4">
    <path
       d="m 62,40 c -0.69,0.874 -1.397,1.757 -2.008,2.656 -0.679,1 -1.287,1.972 -1.825,2.912 C 57.67,46.436 57.297,47.342 57,48 c 0.297,0.658 0.67,1.564 1.167,2.432 0.538,0.94 1.146,1.911 1.825,2.912 0.61,0.9 1.317,1.782 2.008,2.656 v -1.49 c -0.4,-0.524 -0.837,-1.062 -1.222,-1.625 a 32.846,32.846 0 0 1 -1.37,-2.18 39.199,39.199 0 0 1 -1.285,-2.5 V 48.204 L 58.027,48 58.123,47.797 a 39.11,39.11 0 0 1 1.285,-2.501 c 0.428,-0.744 0.884,-1.47 1.37,-2.181 0.385,-0.562 0.822,-1.1 1.222,-1.625 z"
       fill="#808080"
       id="path2" />
  </g>
</svg>
