<svg enable-background="new" version="1.1" viewBox="0 0 16 16" xmlns="http://www.w3.org/2000/svg" xmlns:osb="http://www.openswatchbook.org/uri/2009/osb">
 <title>Pop Symbolic Icon Theme</title>
 <defs>
  <filter color-interpolation-filters="sRGB">
   <feBlend in2="BackgroundImage" mode="darken"/>
  </filter>
 </defs>
 <g transform="matrix(.16667 0 0 .16667 11.31 -13.084)">
  <g transform="matrix(0 -1 -1 0 373.51 516.51)">
   <g transform="matrix(-.9996 0 0 1 575.94 -611)">
    <g transform="matrix(-1 0 0 1 576 611)">
     <rect transform="scale(-1,1)" x="-438" y="345.36" width="96.038" height="96" color="#000000" enable-background="accumulate" fill="none"/>
     <path transform="matrix(0 -1 -1.0004 0 438 441.36)" d="m17.977 16c-5.0328 0.058177-8.7153-0.11846-11.727 1.543-1.5056 0.83071-2.6969 2.2357-3.3555 3.9902-0.6586 1.7545-0.89648 3.8364-0.89648 6.4668v40c0 2.6304 0.23788 4.7123 0.89648 6.4668 0.65861 1.7545 1.8498 3.1595 3.3555 3.9902 3.0112 1.6614 6.6938 1.4848 11.727 1.543h0.01172 60.021 0.01172c5.0328-0.05819 8.7153 0.11845 11.727-1.543 1.5056-0.83071 2.6969-2.2357 3.3555-3.9902 0.6586-1.7545 0.89648-3.8364 0.89648-6.4668v-34.42l-4.002 2.7734v31.646c0 2.3696-0.2503 4.0227-0.64062 5.0625-0.39031 1.0398-0.80945 1.4879-1.543 1.8926-1.4643 0.80791-4.7781 0.9881-9.8164 1.0469h-0.02344-59.953-0.02148c-5.0396-0.058737-8.3519-0.23884-9.8164-1.0469-0.73352-0.40471-1.1527-0.85279-1.543-1.8926-0.39032-1.0398-0.64062-2.6929-0.64062-5.0625v-40c0-2.3696 0.2503-4.0227 0.64062-5.0625 0.39031-1.0398 0.80945-1.4879 1.543-1.8926 1.467-0.80942 4.7837-0.98654 9.8379-1.0449h59.977c5.0383 0.05877 8.3521 0.23701 9.8164 1.0449 0.73352 0.40471 1.1527 0.85279 1.543 1.8926 0.39032 1.0398 0.64062 2.6929 0.64062 5.0625v1.7148l3.9746-2.8164c-0.06298-2.1105-0.30727-3.8684-0.86914-5.3652-0.6586-1.7545-1.8498-3.1595-3.3555-3.9902-3.0112-1.6614-6.6938-1.4848-11.727-1.543h-0.01172-60.021-0.01172z" color="#000000" color-rendering="auto" enable-background="accumulate" fill="#808080" image-rendering="auto" shape-rendering="auto" solid-color="#000000" style="isolation:auto;mix-blend-mode:normal;text-decoration-color:#000000;text-decoration-line:none;text-decoration-style:solid;text-indent:0;text-transform:none;white-space:normal"/>
     <path d="m414.24 436.35-25.924-42.932 25.924-42.932-3.123-3.1226-32.662 46.055 32.662 46.055z" fill="#808080"/>
    </g>
   </g>
  </g>
 </g>
</svg>
