<svg enable-background="new" version="1.1" viewBox="0 0 16 16" xmlns="http://www.w3.org/2000/svg" xmlns:osb="http://www.openswatchbook.org/uri/2009/osb">
 <title>Pop Symbolic Icon Theme</title>
 <defs>
  <filter color-interpolation-filters="sRGB">
   <feBlend in2="BackgroundImage" mode="darken"/>
  </filter>
 </defs>
 <g transform="matrix(.16667 0 0 .16667 28.053 -12.404)">
  <g transform="matrix(0 -1 -1 0 373.51 516.51)">
   <g transform="matrix(-.9996 0 0 1 575.94 -611)">
    <g transform="matrix(-1 0 0 1 576 611)">
     <rect transform="scale(-1,1)" x="-438" y="345.36" width="96.038" height="96" color="#000000" enable-background="accumulate" fill="none"/>
     <path d="m354.05 506.32 10.103-13 2.2088 2.0588v21.882l-2.2088 2.0588z" fill="#808080"/>
     <path d="m376.06 449.32c-2.6314 0-4.7136 0.23788-6.4688 0.89648s-3.1611 1.8498-3.9922 3.3555c-1.6621 3.0112-1.4848 6.6938-1.543 11.727v0.0117 56.021 0.0117c0.0582 5.0328-0.11912 8.7153 1.543 11.727 0.83105 1.5056 2.237 2.6969 3.9922 3.3555 1.7552 0.6586 3.8374 0.89648 6.4688 0.89648h36.016c2.6314 0 4.7155-0.23788 6.4707-0.89648 1.7552-0.65861 3.1592-1.8498 3.9902-3.3555 1.6621-3.0112 1.4848-6.6938 1.543-11.727v-0.0117-56.021-0.0117c-0.0582-5.0328 0.11912-8.7153-1.543-11.727-0.83104-1.5056-2.235-2.6969-3.9902-3.3555s-3.8393-0.89648-6.4707-0.89648zm0 4.002h36.016c2.3706 0 4.0243 0.25031 5.0644 0.64063 1.0402 0.39031 1.4897 0.80945 1.8945 1.543 0.80823 1.4643 0.98613 4.7781 1.0449 9.8164v55.977c-0.0584 5.0542-0.23518 8.3709-1.0449 9.8379-0.40487 0.73352-0.85433 1.1527-1.8945 1.543-1.0402 0.39032-2.6939 0.64063-5.0644 0.64063h-36.016c-2.3706 0-4.0223-0.25031-5.0625-0.64063-1.0402-0.39031-1.4897-0.80945-1.8945-1.543-0.80835-1.4645-0.98616-4.7768-1.0449-9.8164v-0.0215-55.953-0.0234c0.0588-5.0383 0.23669-8.3521 1.0449-9.8164 0.40487-0.73352 0.85434-1.1527 1.8945-1.543 1.0402-0.39032 2.6919-0.64063 5.0625-0.64063z" color="#000000" color-rendering="auto" enable-background="accumulate" fill="#808080" image-rendering="auto" shape-rendering="auto" solid-color="#000000" style="isolation:auto;mix-blend-mode:normal;text-decoration-color:#000000;text-decoration-line:none;text-decoration-style:solid;text-indent:0;text-transform:none;white-space:normal"/>
    </g>
   </g>
  </g>
 </g>
</svg>
