<svg enable-background="new" version="1.1" viewBox="0 0 16.003 16" xmlns="http://www.w3.org/2000/svg" xmlns:osb="http://www.openswatchbook.org/uri/2009/osb">
 <title>Pop Symbolic Icon Theme</title>
 <defs>
  <filter color-interpolation-filters="sRGB">
   <feBlend in2="BackgroundImage" mode="darken"/>
  </filter>
 </defs>
 <g color="#000000" fill="#808080">
  <path d="m3 3c-0.658 0-1.178 0.06-1.617 0.225a1.88 1.88 0 0 0-0.998 0.838c-0.415 0.752-0.37 1.673-0.385 2.931v2.012c0.015 1.258-0.03 2.179 0.385 2.932 0.208 0.376 0.56 0.673 0.998 0.838 0.439 0.164 0.96 0.224 1.617 0.224h6c0.658 0 1.179-0.06 1.617-0.225a1.88 1.88 0 0 0 0.998-0.837c0.416-0.753 0.37-1.674 0.385-2.932v-2.012c-0.014-1.258 0.03-2.179-0.385-2.932a1.88 1.88 0 0 0-0.998-0.838c-0.437-0.164-0.96-0.224-1.617-0.224zm0 1h6c0.592 0 1.006 0.063 1.266 0.16 0.26 0.098 0.371 0.202 0.472 0.385 0.202 0.366 0.247 1.197 0.262 2.455v1.994c-0.015 1.264-0.06 2.092-0.262 2.46-0.1 0.183-0.212 0.288-0.472 0.386-0.26 0.097-0.674 0.16-1.266 0.16h-6c-0.592 0-1.006-0.063-1.266-0.16-0.26-0.098-0.371-0.203-0.472-0.387-0.202-0.366-0.247-1.193-0.262-2.453v-2c0.015-1.258 0.06-2.09 0.262-2.455 0.101-0.183 0.213-0.287 0.472-0.385 0.26-0.097 0.674-0.16 1.266-0.16z" font-family="sans-serif" font-weight="400" overflow="visible" style="font-feature-settings:normal;font-variant-alternates:normal;font-variant-caps:normal;font-variant-ligatures:normal;font-variant-numeric:normal;font-variant-position:normal;isolation:auto;mix-blend-mode:normal;shape-padding:0;text-decoration-color:#000000;text-decoration-line:none;text-decoration-style:solid;text-indent:0;text-orientation:mixed;text-transform:none" white-space="normal"/>
  <path d="m16 4.719c-1.24 0.587-2.981 1.541-5 2.71v1.143c1.993 1.158 3.733 2.11 5 2.71z" overflow="visible"/>
 </g>
</svg>
