<svg enable-background="new" version="1.1" viewBox="0 0 16 16" xmlns="http://www.w3.org/2000/svg" xmlns:osb="http://www.openswatchbook.org/uri/2009/osb">
 <title>Pop Symbolic Icon Theme</title>
 <defs>
  <filter color-interpolation-filters="sRGB">
   <feBlend in2="BackgroundImage" mode="darken"/>
  </filter>
 </defs>
 <g transform="translate(-605 -4.9966)" fill="#808080">
  <rect transform="scale(-1,1)" x="-613" y="8.0019" width="2" height="2" ry="1" enable-background="new"/>
  <rect transform="scale(-1,1)" x="-609" y="8.0019" width="2" height="2" ry="1" enable-background="new"/>
  <rect transform="scale(-1,1)" x="-609" y="12.002" width="2" height="2" ry="1" enable-background="new"/>
  <rect transform="scale(-1,1)" x="-609" y="16.002" width="2" height="2" ry="1" enable-background="new"/>
  <rect transform="scale(-1,1)" x="-613" y="16.002" width="2" height="2" ry="1" enable-background="new"/>
  <rect transform="scale(-1,1)" x="-613" y="12.002" width="2" height="2" ry="1" enable-background="new"/>
  <rect transform="scale(-1,1)" x="-616" y="6.9981" width=".9998" height="12.004" ry=".057043" enable-background="new"/>
  <rect transform="scale(-1,1)" x="-620" y="8.0019" width="2" height="1" rx="0" ry=".5" enable-background="new"/>
  <rect transform="scale(-1,1)" x="-620" y="11.002" width="2" height="1" rx="0" ry=".4999" enable-background="new"/>
  <rect transform="scale(-1,1)" x="-620" y="14.002" width="2" height="1" rx="0" ry=".4999" enable-background="new"/>
  <rect transform="scale(-1,1)" x="-620" y="17.002" width="2" height="1" rx="0" ry=".4999" enable-background="new"/>
 </g>
</svg>
