<svg width="4.2333mm" height="4.2333mm" version="1.1" viewBox="0 0 4.2333 4.2333" xmlns="http://www.w3.org/2000/svg">
 <g transform="translate(45.206 -342.51)">
  <g fill="#808080">
   <rect x="-44.941" y="343.57" width="1.0583" height="2.9104" fill-rule="evenodd" opacity=".5"/>
   <g transform="matrix(.26458 0 0 .26458 -45.206 342.51)" color="#000000">
    <path d="m3.9492 1c-1.2442 0.01457-2.1541-0.030554-2.8984 0.38477-0.37217 0.20765-0.66529 0.55939-0.82812 0.99805-0.16288 0.43866-0.22266 0.95958-0.22266 1.6172v4 5c0 0.65761 0.059821 1.1785 0.22266 1.6172 0.16282 0.43865 0.45595 0.79039 0.82812 0.99805 0.74436 0.41537 1.6543 0.37027 2.8984 0.38477h0.0039062 1.9805 1.0664 2 1.0664 1.9805 0.003906c1.2442-0.0145 2.1541 0.0306 2.8984-0.38477 0.37218-0.20766 0.6653-0.55939 0.82812-0.99805 0.16284-0.43868 0.22266-0.95958 0.22266-1.6172v-5-4c0-0.65761-0.059779-1.1785-0.22266-1.6172-0.16283-0.43866-0.45595-0.7904-0.82812-0.99805-0.74436-0.41532-1.6543-0.3702-2.8984-0.38477h-0.003906-1.9805-1.0664-2-1.0664-1.9805-0.0039062zm-2.8359 3h3.8867v10.992c-1.4584-0.002735-2.6462-0.020427-3.2461-0.2168-0.97252-0.44721-0.76562-1.7754-0.76562-2.7754 8.41e-4 -2.1232 0.03719-5.677 0.125-8zm4.8867 0h1 2 1.0664 4.8203c0.08781 2.323 0.12416 5.8768 0.125 8 0 1 0.20689 2.3282-0.76562 2.7754-0.73392 0.24023-2.202 0.22461-4.1797 0.22461h-1.0664-2-1v-11z" color="#000000" color-rendering="auto" fill="#808080" image-rendering="auto" shape-rendering="auto" solid-color="#000000" style="isolation:auto;mix-blend-mode:normal;text-decoration-color:#000000;text-decoration-line:none;text-decoration-style:solid;text-indent:0;text-transform:none;white-space:normal"/>
   </g>
  </g>
 </g>
</svg>
