<svg version="1.1" viewBox="0 0 16 16" xmlns="http://www.w3.org/2000/svg">
 <g transform="translate(.5)" fill="#808080">
  <g font-family="sans-serif" font-weight="400">
   <g color="#000000" white-space="normal">
    <path d="m3.994 3c-1.258 0.015-2.179-0.03-2.932 0.385a1.88 1.88 0 0 0-0.837 0.998c-0.165 0.438-0.225 0.96-0.225 1.617v5c0 0.658 0.06 1.179 0.225 1.617 0.164 0.439 0.461 0.79 0.837 0.998 0.753 0.416 1.674 0.37 2.932 0.385h7.012c1.258-0.015 2.179 0.03 2.932-0.385a1.88 1.88 0 0 0 0.838-0.998c0.164-0.438 0.224-0.96 0.224-1.617v-5c0-0.658-0.06-1.179-0.225-1.617a1.88 1.88 0 0 0-0.837-0.998c-0.753-0.416-1.674-0.37-2.932-0.385h-7.008zm6e-3 1h7c1.259 0.015 2.087 0.06 2.453 0.262 0.184 0.1 0.29 0.212 0.387 0.472s0.16 0.674 0.16 1.266v5c0 0.592-0.063 1.006-0.16 1.266-0.098 0.26-0.203 0.371-0.387 0.472-0.366 0.202-1.194 0.247-2.453 0.262h-7c-1.259-0.015-2.087-0.06-2.453-0.262-0.184-0.1-0.29-0.212-0.387-0.472s-0.16-0.674-0.16-1.266v-5c0-0.592 0.063-1.006 0.16-1.266 0.098-0.26 0.203-0.371 0.387-0.472 0.366-0.202 1.194-0.247 2.453-0.262z" overflow="visible" style="font-feature-settings:normal;font-variant-alternates:normal;font-variant-caps:normal;font-variant-ligatures:normal;font-variant-numeric:normal;font-variant-position:normal;isolation:auto;mix-blend-mode:normal;shape-padding:0;text-decoration-color:#000000;text-decoration-line:none;text-decoration-style:solid;text-indent:0;text-orientation:mixed;text-transform:none"/>
   </g>
   <path d="m0.081105 5.2005v2h14.574v-2z" color="#000000" overflow="visible" stroke-width="1.4974" style="font-feature-settings:normal;font-variant-alternates:normal;font-variant-caps:normal;font-variant-ligatures:normal;font-variant-numeric:normal;font-variant-position:normal;isolation:auto;mix-blend-mode:normal;shape-padding:0;text-decoration-color:#000000;text-decoration-line:none;text-decoration-style:solid;text-indent:0;text-orientation:mixed;text-transform:none"/>
   <path d="m0.028761 8.1659v2h10v-2z" color="#000000" overflow="visible" stroke-width="1.4142" style="font-feature-settings:normal;font-variant-alternates:normal;font-variant-caps:normal;font-variant-ligatures:normal;font-variant-numeric:normal;font-variant-position:normal;isolation:auto;mix-blend-mode:normal;shape-padding:0;text-decoration-color:#000000;text-decoration-line:none;text-decoration-style:solid;text-indent:0;text-orientation:mixed;text-transform:none"/>
  </g>
  <path d="m12.467 8.166a1 1 0 0 0 0 2 1 1 0 0 0 0-2z"/>
 </g>
</svg>
