<?xml version="1.0" encoding="UTF-8" standalone="no"?>
<svg
   xmlns:dc="http://purl.org/dc/elements/1.1/"
   xmlns:cc="http://creativecommons.org/ns#"
   xmlns:rdf="http://www.w3.org/1999/02/22-rdf-syntax-ns#"
   xmlns:svg="http://www.w3.org/2000/svg"
   xmlns="http://www.w3.org/2000/svg"
   xmlns:xlink="http://www.w3.org/1999/xlink"
   xmlns:sodipodi="http://sodipodi.sourceforge.net/DTD/sodipodi-0.dtd"
   xmlns:inkscape="http://www.inkscape.org/namespaces/inkscape"
   inkscape:export-filename="C:\Users\sblav\Pictures\preferences-system-network.png"
   style="display:inline;enable-background:new"
   version="1.0"
   inkscape:output_extension="org.inkscape.output.svg.inkscape"
   sodipodi:docname="brave-browser.svg"
   inkscape:version="1.0.1 (3bc2e813f5, 2020-09-07)"
   sodipodi:version="0.32"
   id="svg11300"
   height="300"
   width="400"
   inkscape:export-xdpi="96"
   inkscape:export-ydpi="96">
  <title
     id="title3004">Yaru Icon Theme Template</title>
  <sodipodi:namedview
     inkscape:document-rotation="0"
     showborder="false"
     inkscape:pagecheckerboard="false"
     inkscape:snap-smooth-nodes="true"
     inkscape:snap-intersection-paths="true"
     inkscape:object-paths="true"
     inkscape:snap-global="true"
     inkscape:snap-bbox-midpoints="true"
     inkscape:bbox-paths="true"
     inkscape:window-maximized="1"
     inkscape:guide-bbox="true"
     showguides="true"
     inkscape:snap-grids="true"
     inkscape:object-nodes="true"
     gridtolerance="10000"
     inkscape:snap-bbox="true"
     inkscape:snap-nodes="true"
     height="300px"
     width="400px"
     inkscape:window-y="27"
     inkscape:window-x="0"
     inkscape:window-height="800"
     inkscape:window-width="1536"
     inkscape:showpageshadow="false"
     inkscape:document-units="px"
     inkscape:grid-bbox="true"
     showgrid="false"
     inkscape:current-layer="layer8"
     inkscape:cy="151.91803"
     inkscape:cx="283.05947"
     inkscape:zoom="1.5"
     inkscape:pageshadow="2"
     inkscape:pageopacity="0"
     borderopacity="0.25490196"
     bordercolor="#000000"
     pagecolor="#ffffff"
     id="base"
     fill="#f57900"
     stroke="#ef2929">
    <inkscape:grid
       originy="0"
       originx="0"
       snapvisiblegridlinesonly="true"
       empspacing="4"
       visible="true"
       enabled="true"
       type="xygrid"
       id="grid5883"
       spacingx="1"
       spacingy="1" />
    <inkscape:grid
       originy="0"
       originx="0"
       snapvisiblegridlinesonly="true"
       empopacity="0.25098039"
       empcolor="#ff0000"
       opacity="0.1254902"
       color="#ff0000"
       spacingy="0.5"
       spacingx="0.5"
       enabled="false"
       visible="true"
       empspacing="2"
       id="grid11592"
       type="xygrid" />
  </sodipodi:namedview>
  <defs
     id="defs3">
    <linearGradient
       inkscape:collect="always"
       id="linearGradient1133">
      <stop
         style="stop-color:#f2f2f2;stop-opacity:1"
         offset="0"
         id="stop1129" />
      <stop
         style="stop-color:#f9f9f9;stop-opacity:1"
         offset="1"
         id="stop1131" />
    </linearGradient>
    <clipPath
       id="clipPath9430"
       clipPathUnits="userSpaceOnUse">
      <path
         style="color:#000000;display:inline;overflow:visible;visibility:visible;fill:#ffffff;fill-opacity:1;fill-rule:nonzero;stroke:none;stroke-width:1;marker:none;enable-background:new"
         d="m 166.0625,-196 h 179.875 C 491.2348,-196 512,-175.28677 512,-30.125 v 148.25 C 512,263.28618 491.2348,284 345.9375,284 H 166.0625 C 20.7652,284 0,263.28618 0,118.125 V -30.125 C 0,-175.28677 20.7652,-196 166.0625,-196 Z"
         id="path9432"
         inkscape:connector-curvature="0"
         sodipodi:nodetypes="sssssssss" />
    </clipPath>
    <clipPath
       id="clipPath1082"
       clipPathUnits="userSpaceOnUse">
      <path
         style="display:inline;opacity:1;fill:#8c59d9;fill-opacity:1;stroke:none;stroke-width:2;stroke-linecap:round;stroke-linejoin:round;stroke-miterlimit:4;stroke-dasharray:none;stroke-dashoffset:0;stroke-opacity:1;enable-background:new"
         d="M 361.9375,-212 C 507.2348,-212 528,-191.28677 528,-46.125 V 70.125 C 528,215.28618 507.2348,236 361.9375,236 H 214.0625 C 68.7652,236 48,215.28618 48,70.125 V -46.125 C 48,-191.28677 68.7652,-212 214.0625,-212 Z"
         id="path1084"
         inkscape:connector-curvature="0"
         sodipodi:nodetypes="sssssssss" />
    </clipPath>
    <clipPath
       id="clipPath994"
       clipPathUnits="userSpaceOnUse">
      <path
         sodipodi:nodetypes="scccssscsss"
         inkscape:connector-curvature="0"
         id="path996"
         d="m 335.73108,62 c -8.82418,0 -9.77365,0.90635 -9.7304,9.74838 V 84 96.25162 c -0.0433,8.84203 0.90622,9.74838 9.7304,9.74838 h 16.53919 c 8.82418,0 9.7304,-0.90625 9.7304,-9.74838 V 84 71.74838 C 362.00067,62.90625 361.09445,62 352.27027,62 Z"
         style="color:#000000;display:inline;overflow:visible;visibility:visible;fill:#cdcdcd;fill-opacity:1;fill-rule:nonzero;stroke:none;stroke-width:2;stroke-miterlimit:4;stroke-dasharray:none;stroke-opacity:1;marker:none;enable-background:accumulate" />
    </clipPath>
    <clipPath
       id="clipPath959"
       clipPathUnits="userSpaceOnUse">
      <path
         sodipodi:nodetypes="scccssscsss"
         inkscape:connector-curvature="0"
         id="path961"
         d="m 330.1929,133.99999 c -5.61538,0 -6.21958,0.57678 -6.19206,6.20352 v 7.79648 7.79648 c -0.0276,5.62673 0.57668,6.20351 6.19206,6.20351 h 11.615 c 5.6154,0 6.19208,-0.5767 6.19208,-6.20351 v -7.79648 -7.79648 c 0,-5.6268 -0.5767,-6.20352 -6.19208,-6.20352 z"
         style="color:#000000;display:inline;overflow:visible;visibility:visible;opacity:1;fill:#46a926;fill-opacity:1;fill-rule:nonzero;stroke:none;stroke-width:2;stroke-miterlimit:4;stroke-dasharray:none;stroke-opacity:1;marker:none;enable-background:accumulate" />
    </clipPath>
    <clipPath
       id="clipPath971"
       clipPathUnits="userSpaceOnUse">
      <path
         sodipodi:nodetypes="scccssscsss"
         inkscape:connector-curvature="0"
         id="path973"
         d="m 327.8652,189 c -4.41209,0 -4.88682,0.45318 -4.8652,4.87419 V 200 206.12581 C 322.9783,210.54682 323.45311,211 327.8652,211 h 8.2696 C 340.54689,211 341,210.54688 341,206.12581 V 200 193.87419 C 341,189.45313 340.54688,189 336.13479,189 Z"
         style="color:#000000;display:inline;overflow:visible;visibility:visible;opacity:1;fill:#46a926;fill-opacity:1;fill-rule:nonzero;stroke:none;stroke-width:2;stroke-miterlimit:4;stroke-dasharray:none;stroke-opacity:1;marker:none;enable-background:accumulate" />
    </clipPath>
    <clipPath
       id="clipPath983"
       clipPathUnits="userSpaceOnUse">
      <path
         style="color:#000000;display:inline;overflow:visible;visibility:visible;opacity:1;fill:#46a926;fill-opacity:1;fill-rule:nonzero;stroke:none;stroke-width:2;stroke-miterlimit:4;stroke-dasharray:none;stroke-opacity:1;marker:none;enable-background:accumulate"
         d="m 325.09646,237 c -2.80769,0 -3.10979,0.28839 -3.09603,3.10176 V 244 v 3.89824 c -0.0138,2.81337 0.28834,3.10176 3.09603,3.10176 h 5.8075 C 333.71166,251 334,250.71165 334,247.89824 V 244 240.10176 C 334,237.28836 333.71165,237 330.90396,237 Z"
         id="path985"
         inkscape:connector-curvature="0"
         sodipodi:nodetypes="scccssscsss" />
    </clipPath>
    <linearGradient
       id="linearGradient4336-3">
      <stop
         id="stop4338-8"
         offset="0"
         style="stop-color:#5884f4;stop-opacity:1" />
      <stop
         style="stop-color:#5884f4;stop-opacity:1"
         offset="0.27800092"
         id="stop4344-3" />
      <stop
         id="stop4346-3"
         offset="0.27800092"
         style="stop-color:#2f5fdd;stop-opacity:1" />
      <stop
         style="stop-color:#2f5fdd;stop-opacity:1"
         offset="0.70735365"
         id="stop4350-1" />
      <stop
         style="stop-color:#234db8;stop-opacity:1"
         offset="0.70936078"
         id="stop4348-6" />
      <stop
         id="stop4340-0"
         offset="1"
         style="stop-color:#234db8;stop-opacity:1" />
    </linearGradient>
    <clipPath
       id="clipPath994-1"
       clipPathUnits="userSpaceOnUse">
      <path
         sodipodi:nodetypes="scccssscsss"
         inkscape:connector-curvature="0"
         id="path996-8"
         d="m 335.73108,62 c -8.82418,0 -9.77365,0.90635 -9.7304,9.74838 V 84 96.25162 c -0.0433,8.84203 0.90622,9.74838 9.7304,9.74838 h 16.53919 c 8.82418,0 9.7304,-0.90625 9.7304,-9.74838 V 84 71.74838 C 362.00067,62.90625 361.09445,62 352.27027,62 Z"
         style="color:#000000;display:inline;overflow:visible;visibility:visible;fill:#cdcdcd;fill-opacity:1;fill-rule:nonzero;stroke:none;stroke-width:2;stroke-miterlimit:4;stroke-dasharray:none;stroke-opacity:1;marker:none;enable-background:accumulate" />
    </clipPath>
    <clipPath
       id="clipPath1348"
       clipPathUnits="userSpaceOnUse">
      <path
         style="display:inline;opacity:0.1;fill:#da1636;fill-opacity:1;stroke:none;stroke-width:2;stroke-linecap:round;stroke-linejoin:round;stroke-miterlimit:4;stroke-dasharray:none;stroke-dashoffset:0;stroke-opacity:1;enable-background:new"
         d="m 339.76513,135.56122 c 8.62214,1e-5 9.85437,1.23067 9.85437,9.85549 v 6.90662 c 0,8.62479 -1.23223,9.85549 -9.85437,9.85549 h -9.40807 c -8.62214,0 -9.85437,-1.2307 -9.85437,-9.85549 v -6.90663 c 0,-8.62482 1.23223,-9.85551 9.85437,-9.8555 z"
         id="path1350"
         inkscape:connector-curvature="0"
         sodipodi:nodetypes="sssssssss" />
    </clipPath>
    <clipPath
       id="clipPath1278"
       clipPathUnits="userSpaceOnUse">
      <path
         sodipodi:nodetypes="sssssssss"
         inkscape:connector-curvature="0"
         id="path1280"
         d="m 339.98751,134.06477 c 8.56743,0 9.79185,1.21924 9.79185,9.76386 v 7.47067 c 0,8.54459 -1.22442,9.76386 -9.79185,9.76386 h -9.97735 c -8.56744,0 -9.79186,-1.21927 -9.79186,-9.76386 v -7.47067 c 0,-8.54462 1.22442,-9.76386 9.79186,-9.76386 z"
         style="display:inline;opacity:0.1;fill:#da1636;fill-opacity:1;stroke:none;stroke-width:2;stroke-linecap:round;stroke-linejoin:round;stroke-miterlimit:4;stroke-dasharray:none;stroke-dashoffset:0;stroke-opacity:1;enable-background:new" />
    </clipPath>
    <clipPath
       id="clipPath1361"
       clipPathUnits="userSpaceOnUse">
      <path
         sodipodi:nodetypes="sssssssss"
         inkscape:connector-curvature="0"
         id="path1363"
         d="m 341.12109,133.5 c 9.08109,0 10.37891,1.29458 10.37891,10.36719 v 8.26562 c 0,9.07258 -1.29782,10.36719 -10.37891,10.36719 H 330.87891 C 321.79783,162.5 320.5,161.20539 320.5,152.13281 v -8.26562 c 0,-9.07261 1.29783,-10.36719 10.37891,-10.36719 z"
         style="display:inline;opacity:0.1;fill:#da1636;fill-opacity:1;stroke:none;stroke-width:2;stroke-linecap:round;stroke-linejoin:round;stroke-miterlimit:4;stroke-dasharray:none;stroke-dashoffset:0;stroke-opacity:1;enable-background:new" />
    </clipPath>
    <clipPath
       id="clipPath1221"
       clipPathUnits="userSpaceOnUse">
      <path
         style="display:inline;opacity:0.1;fill:#da1636;fill-opacity:1;stroke:none;stroke-width:2;stroke-linecap:round;stroke-linejoin:round;stroke-miterlimit:4;stroke-dasharray:none;stroke-dashoffset:0;stroke-opacity:1;enable-background:new"
         d="M 188.96875,44 C 261.6174,44 272,54.356615 272,126.9375 v 58.125 C 272,257.64309 261.6174,268 188.96875,268 h -73.9375 C 42.3826,268 32,257.64309 32,185.0625 v -58.125 C 32,54.356615 42.3826,44 115.03125,44 Z"
         id="path1223"
         inkscape:connector-curvature="0"
         sodipodi:nodetypes="sssssssss" />
    </clipPath>
    <clipPath
       id="clipPath1322"
       clipPathUnits="userSpaceOnUse">
      <path
         style="display:inline;opacity:0.1;fill:#da1636;fill-opacity:1;stroke:none;stroke-width:2;stroke-linecap:round;stroke-linejoin:round;stroke-miterlimit:4;stroke-dasharray:none;stroke-dashoffset:0;stroke-opacity:1;enable-background:new"
         d="m 339.2585,134.52626 c 8.67761,0 9.91777,1.24234 9.91777,9.94882 v 6.97244 c 0,8.70646 -1.24016,9.94882 -9.91777,9.94882 h -8.83154 c -8.67758,0 -9.91775,-1.24236 -9.91775,-9.94882 v -6.97244 c 0,-8.70648 1.24017,-9.94882 9.91777,-9.94882 z"
         id="path1324"
         inkscape:connector-curvature="0"
         sodipodi:nodetypes="sssssssss" />
    </clipPath>
    <clipPath
       id="clipPath1237"
       clipPathUnits="userSpaceOnUse">
      <path
         sodipodi:nodetypes="sssssssss"
         inkscape:connector-curvature="0"
         id="path1239"
         d="M 351.93164,62.5 C 365.55326,62.5 367.5,64.44187 367.5,78.05078 V 89.94922 C 367.5,103.55808 365.55326,105.5 351.93164,105.5 H 336.06836 C 322.44674,105.5 320.5,103.55808 320.5,89.94922 V 78.05078 C 320.5,64.44187 322.44674,62.5 336.06836,62.5 Z"
         style="opacity:1;fill:url(#linearGradient1241);fill-opacity:1;stroke:none;stroke-width:2;stroke-linecap:round;stroke-linejoin:round;stroke-miterlimit:4;stroke-dasharray:none;stroke-dashoffset:0;stroke-opacity:1" />
    </clipPath>
    <clipPath
       id="clipPath1205"
       clipPathUnits="userSpaceOnUse">
      <path
         sodipodi:nodetypes="sssssssss"
         inkscape:connector-curvature="0"
         id="path1207"
         d="m 341.12109,133.5 c 9.08109,0 10.37891,1.29458 10.37891,10.36719 v 8.26562 c 0,9.07258 -1.29782,10.36719 -10.37891,10.36719 H 330.87891 C 321.79783,162.5 320.5,161.20539 320.5,152.13281 v -8.26562 c 0,-9.07261 1.29783,-10.36719 10.37891,-10.36719 z"
         style="opacity:1;fill:#325fd1;fill-opacity:1;stroke:none;stroke-width:2;stroke-linecap:round;stroke-linejoin:round;stroke-miterlimit:4;stroke-dasharray:none;stroke-dashoffset:0;stroke-opacity:1" />
    </clipPath>
    <clipPath
       id="clipPath1231"
       clipPathUnits="userSpaceOnUse">
      <path
         style="opacity:1;fill:#325fd1;fill-opacity:1;stroke:none;stroke-width:2;stroke-linecap:round;stroke-linejoin:round;stroke-miterlimit:4;stroke-dasharray:none;stroke-dashoffset:0;stroke-opacity:1"
         d="m 335.71582,189.50031 c 6.81081,10e-6 7.78418,0.97093 7.78418,7.77539 v 5.44891 c 0,6.80444 -0.97337,7.77539 -7.78418,7.77539 h -7.43164 c -6.81081,0 -7.78418,-0.97095 -7.78418,-7.77539 v -5.44892 c 0,-6.80446 0.97337,-7.7754 7.78418,-7.77539 z"
         id="path1233"
         inkscape:connector-curvature="0"
         sodipodi:nodetypes="sssssssss" />
    </clipPath>
    <clipPath
       id="clipPath1225"
       clipPathUnits="userSpaceOnUse">
      <path
         style="opacity:1;fill:#325fd1;fill-opacity:1;stroke:none;stroke-width:2;stroke-linecap:round;stroke-linejoin:round;stroke-miterlimit:4;stroke-dasharray:none;stroke-dashoffset:0;stroke-opacity:1"
         d="m 330.31054,236.5 c 4.54055,0 5.18946,0.64729 5.18946,5.18359 v 3.63282 c 0,4.53629 -0.64891,5.18359 -5.18946,5.18359 h -4.62109 c -4.54053,0 -5.18945,-0.6473 -5.18945,-5.18359 v -3.63282 c 0,-4.5363 0.64892,-5.18359 5.18946,-5.18359 z"
         id="path1227"
         inkscape:connector-curvature="0"
         sodipodi:nodetypes="sssssssss" />
    </clipPath>
    <filter
       height="1.096"
       y="-0.048"
       width="1.096"
       x="-0.048"
       id="filter48952"
       style="color-interpolation-filters:sRGB"
       inkscape:collect="always">
      <feGaussianBlur
         id="feGaussianBlur48954"
         stdDeviation="4.48"
         inkscape:collect="always" />
    </filter>
    <filter
       height="1.024"
       y="-0.012"
       width="1.024"
       x="-0.012"
       id="filter48967"
       style="color-interpolation-filters:sRGB"
       inkscape:collect="always">
      <feGaussianBlur
         id="feGaussianBlur48969"
         stdDeviation="1.12"
         inkscape:collect="always" />
    </filter>
    <linearGradient
       gradientUnits="userSpaceOnUse"
       y2="500"
       x2="458.88"
       y1="348"
       x1="458.88"
       id="linearGradient982"
       xlink:href="#linearGradient980"
       inkscape:collect="always"
       gradientTransform="translate(-306.88,-264.00001)" />
    <linearGradient
       id="linearGradient980"
       inkscape:collect="always">
      <stop
         id="stop976"
         offset="0"
         style="stop-color:#000000;stop-opacity:1;" />
      <stop
         id="stop978"
         offset="1"
         style="stop-color:#000000;stop-opacity:0;" />
    </linearGradient>
    <filter
       height="1.12"
       y="-0.059999999"
       width="1.12"
       x="-0.059999999"
       id="filter1003"
       style="color-interpolation-filters:sRGB"
       inkscape:collect="always">
      <feGaussianBlur
         id="feGaussianBlur1005"
         stdDeviation="4.4"
         inkscape:collect="always" />
    </filter>
    <linearGradient
       y2="188"
       x2="96"
       y1="4.0000062"
       x1="96"
       gradientTransform="matrix(0.0760869,0,0,0.07608688,320.69566,236.69567)"
       gradientUnits="userSpaceOnUse"
       id="linearGradient8590-3-3-4"
       xlink:href="#linearGradient927"
       inkscape:collect="always" />
    <linearGradient
       id="linearGradient927"
       inkscape:collect="always">
      <stop
         id="stop923"
         offset="0"
         style="stop-color:#ffffff;stop-opacity:1;" />
      <stop
         style="stop-color:#ffffff;stop-opacity:0.09803922"
         offset="0.125"
         id="stop933" />
      <stop
         style="stop-color:#ffffff;stop-opacity:0.09803922"
         offset="0.92500001"
         id="stop931" />
      <stop
         id="stop925"
         offset="1"
         style="stop-color:#ffffff;stop-opacity:0.49803922" />
    </linearGradient>
    <linearGradient
       y2="188.00014"
       x2="95.999878"
       y1="3.9999957"
       x1="95.999878"
       gradientTransform="matrix(0.11956515,0,0,0.11956513,320.52176,188.52174)"
       gradientUnits="userSpaceOnUse"
       id="linearGradient8590-3-3"
       xlink:href="#linearGradient927"
       inkscape:collect="always" />
    <linearGradient
       y2="188"
       x2="96"
       y1="4.0000062"
       x1="96"
       gradientTransform="matrix(0.15217394,0,0,0.15217387,321.3913,133.39129)"
       gradientUnits="userSpaceOnUse"
       id="linearGradient8590-3"
       xlink:href="#linearGradient927"
       inkscape:collect="always" />
    <linearGradient
       y2="188"
       x2="96"
       y1="4.0000062"
       x1="96"
       gradientTransform="matrix(0.23913043,0,0,0.23913032,321.04348,61.043498)"
       gradientUnits="userSpaceOnUse"
       id="linearGradient8590"
       xlink:href="#linearGradient927"
       inkscape:collect="always" />
    <linearGradient
       gradientUnits="userSpaceOnUse"
       y2="244"
       x2="176"
       y1="68"
       x1="128"
       id="linearGradient2936"
       xlink:href="#linearGradient1133"
       inkscape:collect="always"
       gradientTransform="translate(-2.0874024e-6)" />
    <linearGradient
       gradientUnits="userSpaceOnUse"
       y2="244"
       x2="176"
       y1="68"
       x1="128"
       id="linearGradient2936-3"
       xlink:href="#linearGradient1133"
       inkscape:collect="always"
       gradientTransform="matrix(0.20454545,0,0,0.20454545,312.9091,52.090898)" />
    <linearGradient
       gradientTransform="matrix(0.125,0,0,0.125,316.99999,128.49999)"
       inkscape:collect="always"
       xlink:href="#linearGradient1133"
       id="linearGradient2936-3-3"
       x1="128"
       y1="68"
       x2="176"
       y2="244"
       gradientUnits="userSpaceOnUse" />
    <linearGradient
       gradientTransform="matrix(0.10227273,0,0,0.10227273,316.45456,184.04545)"
       inkscape:collect="always"
       xlink:href="#linearGradient1133"
       id="linearGradient2936-3-3-9"
       x1="128"
       y1="68"
       x2="176"
       y2="244"
       gradientUnits="userSpaceOnUse" />
    <linearGradient
       gradientTransform="matrix(0.0625,0,0,0.0625,318.5,234.24998)"
       inkscape:collect="always"
       xlink:href="#linearGradient1133"
       id="linearGradient2936-3-3-0"
       x1="128"
       y1="68"
       x2="176"
       y2="244"
       gradientUnits="userSpaceOnUse" />
  </defs>
  <metadata
     id="metadata4">
    <rdf:RDF>
      <cc:Work
         rdf:about="">
        <dc:format>image/svg+xml</dc:format>
        <dc:type
           rdf:resource="http://purl.org/dc/dcmitype/StillImage" />
        <dc:creator>
          <cc:Agent>
            <dc:title>Yaru Team, based on the Suru template by Sam Hewitt and original Suru designs by Matthieu James</dc:title>
          </cc:Agent>
        </dc:creator>
        <dc:source />
        <cc:license
           rdf:resource="http://creativecommons.org/licenses/by-sa/4.0/" />
        <dc:title>Yaru Icon Theme Template</dc:title>
        <dc:subject>
          <rdf:Bag />
        </dc:subject>
        <dc:date />
        <dc:rights>
          <cc:Agent>
            <dc:title />
          </cc:Agent>
        </dc:rights>
        <dc:publisher>
          <cc:Agent>
            <dc:title />
          </cc:Agent>
        </dc:publisher>
        <dc:identifier />
        <dc:relation />
        <dc:language />
        <dc:coverage />
        <dc:description />
        <dc:contributor>
          <cc:Agent>
            <dc:title />
          </cc:Agent>
        </dc:contributor>
      </cc:Work>
      <cc:Work
         rdf:about="">
        <dc:format>image/svg+xml</dc:format>
        <dc:type
           rdf:resource="http://purl.org/dc/dcmitype/StillImage" />
      </cc:Work>
      <cc:License
         rdf:about="http://creativecommons.org/licenses/by-sa/4.0/">
        <cc:permits
           rdf:resource="http://creativecommons.org/ns#Reproduction" />
        <cc:permits
           rdf:resource="http://creativecommons.org/ns#Distribution" />
        <cc:requires
           rdf:resource="http://creativecommons.org/ns#Notice" />
        <cc:requires
           rdf:resource="http://creativecommons.org/ns#Attribution" />
        <cc:permits
           rdf:resource="http://creativecommons.org/ns#DerivativeWorks" />
        <cc:requires
           rdf:resource="http://creativecommons.org/ns#ShareAlike" />
      </cc:License>
    </rdf:RDF>
  </metadata>
  <g
     id="layer1"
     inkscape:label="Icon"
     inkscape:groupmode="layer"
     style="display:inline">
    <g
       inkscape:groupmode="layer"
       id="layer7"
       inkscape:label="Baseplate"
       style="display:none">
      <text
         id="context"
         inkscape:label="context"
         style="font-style:normal;font-variant:normal;font-weight:normal;font-stretch:normal;line-height:0%;font-family:'DejaVu Sans';-inkscape-font-specification:'DejaVu Sans';display:inline;fill:#000000;fill-opacity:1;stroke:none;enable-background:new"
         x="19.006836"
         xml:space="preserve"
         y="-8.2548828"><tspan
           id="tspan3933"
           sodipodi:role="line"
           x="19.006836"
           y="-8.2548828"
           style="font-style:normal;font-variant:normal;font-weight:normal;font-stretch:normal;font-size:18px;line-height:1.25;font-family:'DejaVu Sans';-inkscape-font-specification:'DejaVu Sans'">apps</tspan></text>
      <text
         id="icon-name"
         inkscape:label="icon-name"
         style="font-style:normal;font-variant:normal;font-weight:bold;font-stretch:normal;line-height:0%;font-family:'DejaVu Sans';-inkscape-font-specification:'DejaVu Sans Bold';text-align:start;writing-mode:lr-tb;text-anchor:start;display:inline;fill:#000000;fill-opacity:1;stroke:none;enable-background:new"
         x="146.48828"
         xml:space="preserve"
         y="-8.2548828"><tspan
           id="tspan3937"
           sodipodi:role="line"
           x="146.48828"
           y="-8.2548828"
           style="font-style:normal;font-variant:normal;font-weight:bold;font-stretch:normal;font-size:18px;line-height:1.25;font-family:'DejaVu Sans';-inkscape-font-specification:'DejaVu Sans Bold'">brave-browser</tspan></text>
      <rect
         inkscape:label="16x16"
         y="236"
         x="320"
         height="16"
         width="16"
         id="rect16x16"
         style="display:inline;overflow:visible;visibility:visible;fill:#cdcdcd;fill-opacity:1;fill-rule:nonzero;stroke:none;stroke-width:2;marker:none;enable-background:accumulate" />
      <rect
         inkscape:label="24x24"
         y="188"
         x="320"
         height="24"
         width="24"
         id="rect24x24"
         style="display:inline;overflow:visible;visibility:visible;fill:#cdcdcd;fill-opacity:1;fill-rule:nonzero;stroke:none;stroke-width:2;marker:none;enable-background:accumulate" />
      <rect
         inkscape:label="32x32"
         y="132"
         x="320"
         height="32"
         width="32"
         id="rect32x32"
         style="display:inline;overflow:visible;visibility:visible;fill:#cdcdcd;fill-opacity:1;fill-rule:nonzero;stroke:none;stroke-width:2;marker:none;enable-background:accumulate" />
      <rect
         style="display:inline;overflow:visible;visibility:visible;fill:#cdcdcd;fill-opacity:1;fill-rule:nonzero;stroke:none;stroke-width:2;marker:none;enable-background:accumulate"
         id="rect48x48"
         width="48"
         height="48"
         x="320"
         y="60"
         inkscape:label="48x48" />
      <rect
         inkscape:label="48x48"
         y="28"
         x="24"
         height="256"
         width="256"
         id="rect3951"
         style="display:inline;overflow:visible;visibility:visible;fill:#cdcdcd;fill-opacity:1;fill-rule:nonzero;stroke:none;stroke-width:2;marker:none;enable-background:accumulate" />
    </g>
    <g
       style="display:inline"
       inkscape:label="Backgrounds"
       id="layer8"
       inkscape:groupmode="layer">
      <circle
         cx="152"
         cy="157"
         r="112"
         id="path11042-4"
         style="display:inline;opacity:0.1;fill:#000000;fill-opacity:1;stroke:none;stroke-width:1;stroke-linecap:round;stroke-linejoin:round;stroke-miterlimit:4;stroke-dasharray:none;stroke-opacity:1;filter:url(#filter48967);enable-background:new" />
      <circle
         cx="152"
         cy="157"
         r="112"
         id="path11042-9"
         style="display:inline;opacity:0.2;fill:#000000;fill-opacity:1;stroke:none;stroke-width:1;stroke-linecap:round;stroke-linejoin:round;stroke-miterlimit:4;stroke-dasharray:none;stroke-opacity:1;filter:url(#filter48952);enable-background:new" />
      <path
         inkscape:connector-curvature="0"
         d=""
         cx="152"
         cy="156"
         r="112"
         id="path11042-5"
         style="display:inline;opacity:1;fill:#ffffff;fill-opacity:1;stroke:none;stroke-width:1;stroke-linecap:round;stroke-linejoin:round;stroke-miterlimit:4;stroke-dasharray:none;stroke-opacity:1;enable-background:new" />
      <circle
         r="23"
         transform="scale(-1)"
         cy="-85.000015"
         cx="-344"
         id="path9498-0-0"
         style="display:inline;opacity:0.1;fill:#000000;fill-opacity:1;stroke:none;stroke-width:1.95437694;stroke-linecap:round;stroke-linejoin:round;stroke-miterlimit:4;stroke-dasharray:none;stroke-opacity:1;enable-background:new" />
      <circle
         r="14.999996"
         transform="scale(-1)"
         cy="-149"
         cx="-336"
         id="path9498-0-0-2"
         style="display:inline;opacity:0.1;fill:#000000;fill-opacity:1;stroke:none;stroke-width:1.95437694;stroke-linecap:round;stroke-linejoin:round;stroke-miterlimit:4;stroke-dasharray:none;stroke-opacity:1;enable-background:new" />
      <ellipse
         ry="11.476745"
         rx="11.999997"
         transform="scale(-1)"
         cy="-200.52327"
         cx="-332"
         id="path9498-0-0-2-3"
         style="display:inline;opacity:0.1;fill:#000000;fill-opacity:1;stroke:none;stroke-width:1.95437694;stroke-linecap:round;stroke-linejoin:round;stroke-miterlimit:4;stroke-dasharray:none;stroke-opacity:1;enable-background:new" />
      <ellipse
         ry="6.5"
         rx="6.9999981"
         transform="scale(-1)"
         cy="-244.5"
         cx="-328"
         id="path9498-0-0-2-3-3"
         style="display:inline;opacity:0.1;fill:#000000;fill-opacity:1;stroke:none;stroke-width:1.95437706;stroke-linecap:round;stroke-linejoin:round;stroke-miterlimit:4;stroke-dasharray:none;stroke-opacity:1;enable-background:new" />
      <path
         id="path9498-6-5-2"
         d="M 336 133.5 A 14.5 14.5 0 0 0 334.75195 133.56445 A 14.5 14.5 0 0 0 334.11719 133.64062 A 14.5 14.5 0 0 0 333.2793 133.76758 A 14.5 14.5 0 0 0 332.76172 133.88477 A 14.5 14.5 0 0 0 331.8418 134.12109 A 14.5 14.5 0 0 0 331.44727 134.25391 A 14.5 14.5 0 0 0 330.44141 134.62305 A 14.5 14.5 0 0 0 330.17188 134.74219 A 14.5 14.5 0 0 0 329.10547 135.26172 A 14.5 14.5 0 0 0 328.93945 135.35547 A 14.5 14.5 0 0 0 327.83594 136.03516 A 14.5 14.5 0 0 0 327.73242 136.10938 A 14.5 14.5 0 0 0 321.83203 144.94727 A 14.5 14.5 0 0 0 321.81445 145.01562 A 14.5 14.5 0 0 0 321.61133 146.29688 A 14.5 14.5 0 0 0 321.58789 146.45508 A 14.5 14.5 0 0 0 321.53125 147.37305 A 14.5 14.5 0 0 0 321.5 148 A 14.5 14.5 0 0 0 321.53125 148.62695 A 14.5 14.5 0 0 0 321.58789 149.54492 A 14.5 14.5 0 0 0 321.61133 149.70312 A 14.5 14.5 0 0 0 321.81445 150.98438 A 14.5 14.5 0 0 0 321.83203 151.05273 A 14.5 14.5 0 0 0 327.73242 159.89062 A 14.5 14.5 0 0 0 327.83594 159.96484 A 14.5 14.5 0 0 0 328.93945 160.64453 A 14.5 14.5 0 0 0 329.10547 160.73828 A 14.5 14.5 0 0 0 330.17188 161.25781 A 14.5 14.5 0 0 0 330.44141 161.37695 A 14.5 14.5 0 0 0 331.44727 161.74609 A 14.5 14.5 0 0 0 331.8418 161.87891 A 14.5 14.5 0 0 0 332.76172 162.11523 A 14.5 14.5 0 0 0 333.2793 162.23242 A 14.5 14.5 0 0 0 334.11719 162.35938 A 14.5 14.5 0 0 0 334.75195 162.43555 A 14.5 14.5 0 0 0 336 162.5 A 14.5 14.5 0 0 0 337.24805 162.43555 A 14.5 14.5 0 0 0 337.88281 162.35938 A 14.5 14.5 0 0 0 338.7207 162.23242 A 14.5 14.5 0 0 0 339.23828 162.11523 A 14.5 14.5 0 0 0 340.1582 161.87891 A 14.5 14.5 0 0 0 340.55273 161.74609 A 14.5 14.5 0 0 0 341.55859 161.37695 A 14.5 14.5 0 0 0 341.82812 161.25781 A 14.5 14.5 0 0 0 342.89453 160.73828 A 14.5 14.5 0 0 0 343.06055 160.64453 A 14.5 14.5 0 0 0 344.16406 159.96484 A 14.5 14.5 0 0 0 344.26758 159.89062 A 14.5 14.5 0 0 0 350.16797 151.05273 A 14.5 14.5 0 0 0 350.18359 150.99023 A 14.5 14.5 0 0 0 350.18555 150.98438 A 14.5 14.5 0 0 0 350.38867 149.70312 A 14.5 14.5 0 0 0 350.41211 149.54492 A 14.5 14.5 0 0 0 350.46875 148.62695 A 14.5 14.5 0 0 0 350.5 148 A 14.5 14.5 0 0 0 350.46875 147.37305 A 14.5 14.5 0 0 0 350.41211 146.45508 A 14.5 14.5 0 0 0 350.38867 146.29688 A 14.5 14.5 0 0 0 350.18555 145.01562 A 14.5 14.5 0 0 0 350.18359 145.00977 A 14.5 14.5 0 0 0 350.16797 144.94727 A 14.5 14.5 0 0 0 344.26758 136.10938 A 14.5 14.5 0 0 0 344.16406 136.03516 A 14.5 14.5 0 0 0 343.06055 135.35547 A 14.5 14.5 0 0 0 342.89453 135.26172 A 14.5 14.5 0 0 0 341.82812 134.74219 A 14.5 14.5 0 0 0 341.55859 134.62305 A 14.5 14.5 0 0 0 340.55273 134.25391 A 14.5 14.5 0 0 0 340.1582 134.12109 A 14.5 14.5 0 0 0 339.23828 133.88477 A 14.5 14.5 0 0 0 338.7207 133.76758 A 14.5 14.5 0 0 0 337.88281 133.64062 A 14.5 14.5 0 0 0 337.24805 133.56445 A 14.5 14.5 0 0 0 336 133.5 z M 336 137 A 11 11 0 0 1 336.51562 137.02539 A 11 11 0 0 1 337.19336 137.06836 A 11 11 0 0 1 337.32422 137.08984 A 11 11 0 0 1 338.29688 137.24805 A 11 11 0 0 1 339.35938 137.5332 A 11 11 0 0 1 342.30078 139 L 342.31445 139 A 11 11 0 0 1 344.50195 141.03125 A 11 11 0 0 1 344.91992 141.58594 A 11 11 0 0 1 345.125 141.87305 A 11 11 0 0 1 345.50195 142.48633 A 11 11 0 0 1 345.70508 142.83789 A 11 11 0 0 1 345.99609 143.44336 A 11 11 0 0 1 346.17188 143.83594 A 11 11 0 0 1 346.4082 144.48047 A 11 11 0 0 1 346.53516 144.86133 A 11 11 0 0 1 346.70117 145.50781 A 11 11 0 0 1 346.80078 145.95508 A 11 11 0 0 1 346.89258 146.57031 A 11 11 0 0 1 346.95117 147.04102 A 11 11 0 0 1 347 148 A 11 11 0 0 1 346.95117 148.95898 A 11 11 0 0 1 346.89258 149.42969 A 11 11 0 0 1 346.80078 150.04492 A 11 11 0 0 1 346.70117 150.49219 A 11 11 0 0 1 346.53516 151.13867 A 11 11 0 0 1 346.4082 151.51953 A 11 11 0 0 1 346.17188 152.16406 A 11 11 0 0 1 345.99609 152.55664 A 11 11 0 0 1 345.70508 153.16211 A 11 11 0 0 1 345.50195 153.51367 A 11 11 0 0 1 345.125 154.12695 A 11 11 0 0 1 344.91992 154.41406 A 11 11 0 0 1 344.50195 154.96875 A 11 11 0 0 1 342.31445 157 L 342.30078 157 A 11 11 0 0 1 339.35938 158.4668 A 11 11 0 0 1 338.29688 158.75195 A 11 11 0 0 1 337.32422 158.91016 A 11 11 0 0 1 337.19336 158.93164 A 11 11 0 0 1 336.51562 158.97461 A 11 11 0 0 1 336 159 A 11 11 0 0 1 335.48438 158.97461 A 11 11 0 0 1 334.80664 158.93164 A 11 11 0 0 1 334.67578 158.91016 A 11 11 0 0 1 333.70312 158.75195 A 11 11 0 0 1 332.64062 158.4668 A 11 11 0 0 1 329.69922 157 L 329.68555 157 A 11 11 0 0 1 327.49805 154.96875 A 11 11 0 0 1 327.08008 154.41406 A 11 11 0 0 1 326.875 154.12695 A 11 11 0 0 1 326.49805 153.51367 A 11 11 0 0 1 326.29492 153.16211 A 11 11 0 0 1 326.00391 152.55664 A 11 11 0 0 1 325.82812 152.16406 A 11 11 0 0 1 325.5918 151.51953 A 11 11 0 0 1 325.46484 151.13867 A 11 11 0 0 1 325.29883 150.49219 A 11 11 0 0 1 325.19922 150.04492 A 11 11 0 0 1 325.10742 149.42969 A 11 11 0 0 1 325.04883 148.95898 A 11 11 0 0 1 325 148 A 11 11 0 0 1 325.04883 147.04102 A 11 11 0 0 1 325.10742 146.57031 A 11 11 0 0 1 325.19922 145.95508 A 11 11 0 0 1 325.29883 145.50781 A 11 11 0 0 1 325.46484 144.86133 A 11 11 0 0 1 325.5918 144.48047 A 11 11 0 0 1 325.82812 143.83594 A 11 11 0 0 1 326.00391 143.44336 A 11 11 0 0 1 326.29492 142.83789 A 11 11 0 0 1 326.49805 142.48633 A 11 11 0 0 1 326.875 141.87305 A 11 11 0 0 1 327.08008 141.58594 A 11 11 0 0 1 327.49805 141.03125 A 11 11 0 0 1 329.68555 139 L 329.69922 139 A 11 11 0 0 1 332.64062 137.5332 A 11 11 0 0 1 333.70312 137.24805 A 11 11 0 0 1 334.67578 137.08984 A 11 11 0 0 1 334.80664 137.06836 A 11 11 0 0 1 335.48438 137.02539 A 11 11 0 0 1 336 137 z "
         clip-path="none"
         style="display:inline;opacity:1;fill:#e95420;fill-opacity:1;stroke:none;stroke-width:1.86940372;stroke-linecap:round;stroke-linejoin:round;stroke-miterlimit:4;stroke-dasharray:none;stroke-opacity:1;enable-background:new" />
      <path
         id="path1020-9"
         d="M 332 188.5 A 11.5 11.5 0 0 0 330.98828 188.55273 A 11.5 11.5 0 0 0 330.55469 188.60547 A 11.5 11.5 0 0 0 329.81836 188.71875 A 11.5 11.5 0 0 0 329.49609 188.79102 A 11.5 11.5 0 0 0 328.66406 189.00586 A 11.5 11.5 0 0 0 328.48047 189.06641 A 11.5 11.5 0 0 0 327.54492 189.41016 A 11.5 11.5 0 0 0 327.47461 189.44141 A 11.5 11.5 0 0 0 326.49023 189.91992 A 11.5 11.5 0 0 0 320.5 200 A 11.5 11.5 0 0 0 326.49023 210.08008 A 11.5 11.5 0 0 0 327.47461 210.55859 A 11.5 11.5 0 0 0 327.54492 210.58984 A 11.5 11.5 0 0 0 328.48047 210.93359 A 11.5 11.5 0 0 0 328.66406 210.99414 A 11.5 11.5 0 0 0 329.49609 211.20898 A 11.5 11.5 0 0 0 329.81836 211.28125 A 11.5 11.5 0 0 0 330.55469 211.39453 A 11.5 11.5 0 0 0 330.98828 211.44727 A 11.5 11.5 0 0 0 332 211.5 A 11.5 11.5 0 0 0 333.01172 211.44727 A 11.5 11.5 0 0 0 333.44531 211.39453 A 11.5 11.5 0 0 0 334.18164 211.28125 A 11.5 11.5 0 0 0 334.50391 211.20898 A 11.5 11.5 0 0 0 335.33594 210.99414 A 11.5 11.5 0 0 0 335.51953 210.93359 A 11.5 11.5 0 0 0 336.45508 210.58984 A 11.5 11.5 0 0 0 336.52539 210.55859 A 11.5 11.5 0 0 0 337.50977 210.08008 A 11.5 11.5 0 0 0 343.5 200 A 11.5 11.5 0 0 0 337.50977 189.91992 A 11.5 11.5 0 0 0 336.52539 189.44141 A 11.5 11.5 0 0 0 336.45508 189.41016 A 11.5 11.5 0 0 0 335.51953 189.06641 A 11.5 11.5 0 0 0 335.33594 189.00586 A 11.5 11.5 0 0 0 334.50391 188.79102 A 11.5 11.5 0 0 0 334.18164 188.71875 A 11.5 11.5 0 0 0 333.44531 188.60547 A 11.5 11.5 0 0 0 333.01172 188.55273 A 11.5 11.5 0 0 0 332 188.5 z M 332 191 A 9 9 0 0 1 332.78906 191.03906 A 9 9 0 0 1 333.24219 191.09766 A 9 9 0 0 1 333.67578 191.16211 A 9 9 0 0 1 334.12695 191.26562 A 9 9 0 0 1 334.54492 191.37305 A 9 9 0 0 1 335.01562 191.53125 A 9 9 0 0 1 335.38867 191.66797 A 9 9 0 0 1 335.85742 191.88086 A 9 9 0 0 1 338.69531 194 A 9 9 0 0 1 338.88086 194.21289 A 9 9 0 0 1 339.38086 194.86914 A 9 9 0 0 1 339.43555 194.94336 A 9 9 0 0 1 339.86328 195.64453 A 9 9 0 0 1 339.90039 195.70508 A 9 9 0 0 1 340.24609 196.41797 A 9 9 0 0 1 340.29688 196.5332 A 9 9 0 0 1 340.54297 197.20508 A 9 9 0 0 1 340.61133 197.40625 A 9 9 0 0 1 340.76367 198 A 9 9 0 0 1 340.83398 198.31055 A 9 9 0 0 1 340.91406 198.84375 A 9 9 0 0 1 340.95898 199.2207 A 9 9 0 0 1 341 200 A 9 9 0 0 1 340.95898 200.7793 A 9 9 0 0 1 340.91406 201.15625 A 9 9 0 0 1 340.83398 201.68945 A 9 9 0 0 1 340.76367 202 A 9 9 0 0 1 340.61133 202.59375 A 9 9 0 0 1 340.54297 202.79492 A 9 9 0 0 1 340.29688 203.4668 A 9 9 0 0 1 340.24609 203.58203 A 9 9 0 0 1 339.90039 204.29492 A 9 9 0 0 1 339.86328 204.35547 A 9 9 0 0 1 339.43555 205.05664 A 9 9 0 0 1 339.38086 205.13086 A 9 9 0 0 1 338.88086 205.78711 A 9 9 0 0 1 338.69531 206 A 9 9 0 0 1 335.85742 208.11914 A 9 9 0 0 1 335.38867 208.33203 A 9 9 0 0 1 335.01562 208.46875 A 9 9 0 0 1 334.54492 208.62695 A 9 9 0 0 1 334.12695 208.73438 A 9 9 0 0 1 333.67578 208.83789 A 9 9 0 0 1 333.24219 208.90234 A 9 9 0 0 1 332.78906 208.96094 A 9 9 0 0 1 332 209 A 9 9 0 0 1 331.21094 208.96094 A 9 9 0 0 1 330.75781 208.90234 A 9 9 0 0 1 330.32422 208.83789 A 9 9 0 0 1 329.87305 208.73438 A 9 9 0 0 1 329.45508 208.62695 A 9 9 0 0 1 328.98438 208.46875 A 9 9 0 0 1 328.61133 208.33203 A 9 9 0 0 1 328.14258 208.11914 A 9 9 0 0 1 325.30469 206 A 9 9 0 0 1 325.11914 205.78711 A 9 9 0 0 1 324.61914 205.13086 A 9 9 0 0 1 324.56445 205.05664 A 9 9 0 0 1 324.13672 204.35547 A 9 9 0 0 1 324.09961 204.29492 A 9 9 0 0 1 323.75391 203.58203 A 9 9 0 0 1 323.70312 203.4668 A 9 9 0 0 1 323.45703 202.79492 A 9 9 0 0 1 323.38867 202.59375 A 9 9 0 0 1 323.23633 202 A 9 9 0 0 1 323.16602 201.68945 A 9 9 0 0 1 323.08594 201.15625 A 9 9 0 0 1 323.04102 200.7793 A 9 9 0 0 1 323 200 A 9 9 0 0 1 323.04102 199.2207 A 9 9 0 0 1 323.08594 198.84375 A 9 9 0 0 1 323.16602 198.31055 A 9 9 0 0 1 323.23633 198 A 9 9 0 0 1 323.38867 197.40625 A 9 9 0 0 1 323.45703 197.20508 A 9 9 0 0 1 323.70312 196.5332 A 9 9 0 0 1 323.75391 196.41797 A 9 9 0 0 1 324.09961 195.70508 A 9 9 0 0 1 324.13672 195.64453 A 9 9 0 0 1 324.56445 194.94336 A 9 9 0 0 1 324.61914 194.86914 A 9 9 0 0 1 325.11914 194.21289 A 9 9 0 0 1 325.30469 194 A 9 9 0 0 1 328.14258 191.88086 A 9 9 0 0 1 328.61133 191.66797 A 9 9 0 0 1 328.98438 191.53125 A 9 9 0 0 1 329.45508 191.37305 A 9 9 0 0 1 329.87305 191.26562 A 9 9 0 0 1 330.32422 191.16211 A 9 9 0 0 1 330.75781 191.09766 A 9 9 0 0 1 331.21094 191.03906 A 9 9 0 0 1 332 191 z "
         clip-path="none"
         style="display:inline;opacity:1;vector-effect:none;fill:#e95420;fill-opacity:1;stroke:none;stroke-width:1;stroke-linecap:butt;stroke-linejoin:round;stroke-miterlimit:4;stroke-dasharray:none;stroke-dashoffset:6.5999999;stroke-opacity:1;enable-background:new" />
      <path
         id="path9498-6-5-6-8-1"
         d="M 328 236.5 C 327.67043 236.5 327.34764 236.52909 327.0293 236.57031 C 326.94653 236.58118 326.86508 236.59385 326.7832 236.60742 C 326.49549 236.65446 326.21322 236.71613 325.9375 236.79492 C 325.91374 236.80179 325.8889 236.8054 325.86523 236.8125 C 325.53478 236.9105 325.21594 237.03323 324.90625 237.17383 C 324.59151 237.31672 324.2897 237.48076 324 237.66406 C 323.64502 237.88867 323.31135 238.14263 323 238.42188 C 322.80896 238.59321 322.62766 238.773 322.45508 238.96289 C 322.45384 238.96425 322.45241 238.96544 322.45117 238.9668 C 322.2869 239.14781 322.13249 239.33673 321.98633 239.5332 C 321.97352 239.55035 321.95993 239.56673 321.94727 239.58398 C 321.80807 239.77446 321.67772 239.97228 321.55664 240.17578 C 321.54718 240.19162 321.53669 240.20675 321.52734 240.22266 C 321.41389 240.41658 321.31088 240.61579 321.21484 240.82031 C 321.19693 240.85824 321.17745 240.89532 321.16016 240.93359 C 321.0811 241.10964 321.01087 241.28972 320.94531 241.47266 C 320.92082 241.54054 320.89366 241.607 320.87109 241.67578 C 320.81428 241.85016 320.76873 242.02925 320.72461 242.20898 C 320.70712 242.27979 320.68538 242.34833 320.66992 242.41992 C 320.62879 242.61162 320.60039 242.80708 320.57422 243.00391 C 320.56536 243.07006 320.55008 243.13448 320.54297 243.20117 C 320.51521 243.46352 320.5 243.73029 320.5 244 C 320.5 244.26971 320.51521 244.53648 320.54297 244.79883 C 320.55008 244.86552 320.56536 244.92994 320.57422 244.99609 C 320.60039 245.19292 320.62879 245.38838 320.66992 245.58008 C 320.68538 245.65167 320.70712 245.72021 320.72461 245.79102 C 320.76873 245.97075 320.81428 246.14984 320.87109 246.32422 C 320.89366 246.393 320.92082 246.45946 320.94531 246.52734 C 321.01087 246.71028 321.0811 246.89036 321.16016 247.06641 C 321.17745 247.10468 321.19693 247.14176 321.21484 247.17969 C 321.31088 247.38421 321.41389 247.58342 321.52734 247.77734 C 321.53669 247.79325 321.54718 247.80838 321.55664 247.82422 C 321.67772 248.02772 321.80807 248.22554 321.94727 248.41602 C 321.95993 248.43327 321.97352 248.44965 321.98633 248.4668 C 322.13249 248.66327 322.2869 248.85219 322.45117 249.0332 C 322.45241 249.03456 322.45384 249.03575 322.45508 249.03711 C 322.62766 249.227 322.80896 249.40679 323 249.57812 C 323.31135 249.85737 323.64502 250.11133 324 250.33594 C 324.2897 250.51924 324.59151 250.68328 324.90625 250.82617 C 325.21594 250.96677 325.53478 251.0895 325.86523 251.1875 C 325.8889 251.1946 325.91374 251.19821 325.9375 251.20508 C 326.21322 251.28387 326.49549 251.34554 326.7832 251.39258 C 326.86508 251.40615 326.94653 251.41882 327.0293 251.42969 C 327.34764 251.47091 327.67043 251.5 328 251.5 C 328.32957 251.5 328.65236 251.47091 328.9707 251.42969 C 329.05347 251.41882 329.13492 251.40615 329.2168 251.39258 C 329.50451 251.34554 329.78678 251.28387 330.0625 251.20508 C 330.08626 251.19821 330.1111 251.1946 330.13477 251.1875 C 330.46522 251.0895 330.78406 250.96677 331.09375 250.82617 C 331.40849 250.68328 331.7103 250.51924 332 250.33594 C 332.35498 250.11133 332.68865 249.85737 333 249.57812 C 333.19104 249.40679 333.37234 249.227 333.54492 249.03711 C 333.54554 249.03643 333.54626 249.03584 333.54688 249.03516 C 333.54749 249.03448 333.54821 249.03388 333.54883 249.0332 C 333.7131 248.85219 333.86751 248.66327 334.01367 248.4668 C 334.02648 248.44965 334.04007 248.43327 334.05273 248.41602 C 334.19193 248.22554 334.32228 248.02772 334.44336 247.82422 C 334.44935 247.81415 334.45695 247.80502 334.46289 247.79492 C 334.46629 247.78918 334.46927 247.7831 334.47266 247.77734 C 334.58611 247.58342 334.68912 247.38421 334.78516 247.17969 C 334.80307 247.14176 334.82255 247.10468 334.83984 247.06641 C 334.9189 246.89036 334.98913 246.71028 335.05469 246.52734 C 335.07918 246.45946 335.10634 246.393 335.12891 246.32422 C 335.18572 246.14984 335.23127 245.97075 335.27539 245.79102 C 335.29288 245.72021 335.31462 245.65167 335.33008 245.58008 C 335.37121 245.38838 335.39961 245.19292 335.42578 244.99609 C 335.43464 244.92994 335.44992 244.86552 335.45703 244.79883 C 335.48479 244.53648 335.5 244.26971 335.5 244 C 335.5 243.73029 335.48479 243.46352 335.45703 243.20117 C 335.44992 243.13448 335.43464 243.07006 335.42578 243.00391 C 335.39961 242.80708 335.37121 242.61162 335.33008 242.41992 C 335.31462 242.34833 335.29288 242.27979 335.27539 242.20898 C 335.23127 242.02925 335.18572 241.85016 335.12891 241.67578 C 335.10634 241.607 335.07918 241.54054 335.05469 241.47266 C 334.98913 241.28972 334.9189 241.10964 334.83984 240.93359 C 334.82255 240.89532 334.80307 240.85824 334.78516 240.82031 C 334.68912 240.61579 334.58611 240.41658 334.47266 240.22266 C 334.46928 240.21688 334.46629 240.21085 334.46289 240.20508 C 334.4569 240.19494 334.4494 240.18589 334.44336 240.17578 C 334.32228 239.97228 334.19193 239.77446 334.05273 239.58398 C 334.04007 239.56673 334.02648 239.55035 334.01367 239.5332 C 333.86751 239.33673 333.7131 239.14781 333.54883 238.9668 C 333.54821 238.96611 333.54749 238.96553 333.54688 238.96484 C 333.54625 238.96416 333.54554 238.96357 333.54492 238.96289 C 333.37234 238.773 333.19104 238.59321 333 238.42188 C 332.68865 238.14263 332.35498 237.88867 332 237.66406 C 331.7103 237.48076 331.40849 237.31672 331.09375 237.17383 C 330.78406 237.03323 330.46522 236.9105 330.13477 236.8125 C 330.1111 236.8054 330.08626 236.80179 330.0625 236.79492 C 329.78678 236.71613 329.50451 236.65446 329.2168 236.60742 C 329.13492 236.59385 329.05347 236.58118 328.9707 236.57031 C 328.65236 236.52909 328.32957 236.5 328 236.5 z M 328 238.5 A 5.5 5.5 0 0 1 328.3125 238.51562 A 5.5 5.5 0 0 1 328.6582 238.54297 A 5.5 5.5 0 0 1 328.7832 238.5625 A 5.5 5.5 0 0 1 329.21094 238.64062 A 5.5 5.5 0 0 1 329.29688 238.66211 A 5.5 5.5 0 0 1 329.76367 238.79688 A 5.5 5.5 0 0 1 329.76562 238.79688 A 5.5 5.5 0 0 1 329.76953 238.79883 A 5.5 5.5 0 0 1 330.27539 239 L 330.2793 239 A 5.5 5.5 0 0 1 331.84375 240.07227 A 5.5 5.5 0 0 1 332.13672 240.38672 A 5.5 5.5 0 0 1 332.23047 240.49414 A 5.5 5.5 0 0 1 332.46094 240.79492 A 5.5 5.5 0 0 1 332.56445 240.93945 A 5.5 5.5 0 0 1 332.76562 241.26758 A 5.5 5.5 0 0 1 332.84375 241.4043 A 5.5 5.5 0 0 1 333.01367 241.75195 A 5.5 5.5 0 0 1 333.08203 241.90625 A 5.5 5.5 0 0 1 333.20898 242.25781 A 5.5 5.5 0 0 1 333.26562 242.42969 A 5.5 5.5 0 0 1 333.35352 242.77148 A 5.5 5.5 0 0 1 333.39844 242.96484 A 5.5 5.5 0 0 1 333.44531 243.27734 A 5.5 5.5 0 0 1 333.47656 243.53125 A 5.5 5.5 0 0 1 333.5 244 A 5.5 5.5 0 0 1 333.47656 244.46875 A 5.5 5.5 0 0 1 333.44531 244.72266 A 5.5 5.5 0 0 1 333.39844 245.03516 A 5.5 5.5 0 0 1 333.35352 245.22852 A 5.5 5.5 0 0 1 333.26562 245.57031 A 5.5 5.5 0 0 1 333.20898 245.74219 A 5.5 5.5 0 0 1 333.08203 246.09375 A 5.5 5.5 0 0 1 333.01367 246.24805 A 5.5 5.5 0 0 1 332.84375 246.5957 A 5.5 5.5 0 0 1 332.76562 246.73242 A 5.5 5.5 0 0 1 332.56445 247.06055 A 5.5 5.5 0 0 1 332.46094 247.20508 A 5.5 5.5 0 0 1 332.23047 247.50586 A 5.5 5.5 0 0 1 332.13672 247.61328 A 5.5 5.5 0 0 1 331.84375 247.92773 A 5.5 5.5 0 0 1 330.2793 249 L 330.27539 249 A 5.5 5.5 0 0 1 329.76953 249.20117 A 5.5 5.5 0 0 1 329.76562 249.20312 A 5.5 5.5 0 0 1 329.76367 249.20312 A 5.5 5.5 0 0 1 329.29688 249.33789 A 5.5 5.5 0 0 1 329.21094 249.35938 A 5.5 5.5 0 0 1 328.7832 249.4375 A 5.5 5.5 0 0 1 328.6582 249.45703 A 5.5 5.5 0 0 1 328.3125 249.48438 A 5.5 5.5 0 0 1 328 249.5 A 5.5 5.5 0 0 1 327.6875 249.48438 A 5.5 5.5 0 0 1 327.3418 249.45703 A 5.5 5.5 0 0 1 327.2168 249.4375 A 5.5 5.5 0 0 1 326.78906 249.35938 A 5.5 5.5 0 0 1 326.70312 249.33789 A 5.5 5.5 0 0 1 326.23633 249.20312 A 5.5 5.5 0 0 1 326.23438 249.20312 A 5.5 5.5 0 0 1 326.23047 249.20117 A 5.5 5.5 0 0 1 325.72461 249 L 325.7207 249 A 5.5 5.5 0 0 1 324.15625 247.92773 A 5.5 5.5 0 0 1 323.86328 247.61328 A 5.5 5.5 0 0 1 323.76953 247.50586 A 5.5 5.5 0 0 1 323.53906 247.20508 A 5.5 5.5 0 0 1 323.43555 247.06055 A 5.5 5.5 0 0 1 323.23438 246.73242 A 5.5 5.5 0 0 1 323.15625 246.5957 A 5.5 5.5 0 0 1 322.98633 246.24805 A 5.5 5.5 0 0 1 322.91797 246.09375 A 5.5 5.5 0 0 1 322.79102 245.74219 A 5.5 5.5 0 0 1 322.73438 245.57031 A 5.5 5.5 0 0 1 322.64648 245.22852 A 5.5 5.5 0 0 1 322.60156 245.03516 A 5.5 5.5 0 0 1 322.55469 244.72266 A 5.5 5.5 0 0 1 322.52344 244.46875 A 5.5 5.5 0 0 1 322.5 244 A 5.5 5.5 0 0 1 322.52344 243.53125 A 5.5 5.5 0 0 1 322.55469 243.27734 A 5.5 5.5 0 0 1 322.60156 242.96484 A 5.5 5.5 0 0 1 322.64648 242.77148 A 5.5 5.5 0 0 1 322.73438 242.42969 A 5.5 5.5 0 0 1 322.79102 242.25781 A 5.5 5.5 0 0 1 322.91797 241.90625 A 5.5 5.5 0 0 1 322.98633 241.75195 A 5.5 5.5 0 0 1 323.15625 241.4043 A 5.5 5.5 0 0 1 323.23438 241.26758 A 5.5 5.5 0 0 1 323.43555 240.93945 A 5.5 5.5 0 0 1 323.53906 240.79492 A 5.5 5.5 0 0 1 323.76953 240.49414 A 5.5 5.5 0 0 1 323.86328 240.38672 A 5.5 5.5 0 0 1 324.15625 240.07227 A 5.5 5.5 0 0 1 325.7207 239 L 325.72461 239 A 5.5 5.5 0 0 1 326.23047 238.79883 A 5.5 5.5 0 0 1 326.23438 238.79688 A 5.5 5.5 0 0 1 326.23633 238.79688 A 5.5 5.5 0 0 1 326.70312 238.66211 A 5.5 5.5 0 0 1 326.78906 238.64062 A 5.5 5.5 0 0 1 327.2168 238.5625 A 5.5 5.5 0 0 1 327.3418 238.54297 A 5.5 5.5 0 0 1 327.6875 238.51562 A 5.5 5.5 0 0 1 328 238.5 z "
         clip-path="none"
         style="display:inline;opacity:1;fill:#e95420;fill-opacity:1;stroke:none;stroke-width:1.86940384;stroke-linecap:round;stroke-linejoin:round;stroke-miterlimit:4;stroke-dasharray:none;stroke-opacity:1;enable-background:new" />
      <path
         sodipodi:nodetypes="sssss"
         inkscape:connector-curvature="0"
         clip-path="none"
         id="path962"
         d="m 152,69.99999 c -48.60106,0 -88,39.39894 -88,88 0,48.60106 39.39894,88 88,88 48.60106,0 88,-39.39894 88,-88 0,-48.60106 -39.39894,-88 -88,-88 z"
         style="color:#000000;display:inline;overflow:visible;visibility:visible;opacity:0.05;fill:none;fill-opacity:1;fill-rule:nonzero;stroke:url(#linearGradient982);stroke-width:10;stroke-linecap:butt;stroke-linejoin:round;stroke-miterlimit:4;stroke-dasharray:none;stroke-dashoffset:0;stroke-opacity:1;marker:none;filter:url(#filter1003);enable-background:accumulate" />
      <path
         id="path11042-9-8"
         d="M 152 44 C 90.995676 44 41.387673 92.774015 40.033203 153.45312 C 40.014296 154.30015 40 155.14843 40 156 C 40.00161 156.85021 40.012311 157.69867 40.033203 158.54688 C 41.387673 219.22598 90.995676 268 152 268 C 213.00432 268 262.61233 219.22598 263.9668 158.54688 C 263.98769 157.69867 263.99839 156.85021 264 156 C 263.99839 155.14979 263.98769 154.30133 263.9668 153.45312 C 262.61233 92.774015 213.00432 44 152 44 z M 152 68 C 153.12795 68.002366 154.25504 68.026742 155.37891 68.072266 C 172.23686 68.755122 188.56913 74.272069 202.41211 84 L 202.60156 84 C 209.05374 88.542961 214.86973 93.927451 219.88477 100 L 219.83203 100 C 232.02192 114.74941 239.04736 133.04119 239.9082 152.08594 C 239.91182 152.16848 239.91458 152.25138 239.91797 152.33398 C 239.96964 153.55344 239.99916 154.7752 240 156 C 239.99916 157.2248 239.96964 158.44656 239.91797 159.66602 C 239.91458 159.74862 239.91182 159.83152 239.9082 159.91406 C 239.04736 178.95881 232.02192 197.25059 219.83203 212 L 219.88477 212 C 214.86973 218.07255 209.05374 223.45704 202.60156 228 L 202.41211 228 C 188.56913 237.72793 172.23686 243.24488 155.37891 243.92773 C 154.25504 243.97326 153.12795 243.99763 152 244 C 150.87205 243.99763 149.74496 243.97326 148.62109 243.92773 C 131.76314 243.24488 115.43087 237.72793 101.58789 228 L 101.39844 228 C 94.946262 223.45704 89.130271 218.07255 84.115234 212 L 84.167969 212 C 71.978079 197.25059 64.952644 178.95881 64.091797 159.91406 C 64.088183 159.83152 64.085417 159.74862 64.082031 159.66602 C 64.030356 158.44656 64.000845 157.2248 64 156 C 64.000845 154.7752 64.030356 153.55344 64.082031 152.33398 C 64.085417 152.25138 64.088183 152.16848 64.091797 152.08594 C 64.952644 133.04119 71.978079 114.74941 84.167969 100 L 84.115234 100 C 89.130271 93.927451 94.946262 88.542961 101.39844 84 L 101.58789 84 C 115.43087 74.272069 131.76314 68.755122 148.62109 68.072266 C 149.74496 68.026742 150.87205 68.002366 152 68 z "
         clip-path="none"
         style="display:inline;opacity:1;fill:#e95420;fill-opacity:1;stroke:none;stroke-width:1;stroke-linecap:round;stroke-linejoin:round;stroke-miterlimit:4;stroke-dasharray:none;stroke-opacity:1;enable-background:new" />
      <path
         clip-path="none"
         inkscape:connector-curvature="0"
         id="path11042-1-6"
         d="M 152,44 A 112,112 0 0 0 40,156 112,112 0 0 0 40.04102,157.16992 112,112 0 0 1 152,46 112,112 0 0 1 263.95898,156.83008 112,112 0 0 0 263.99998,156 a 112,112 0 0 0 -112,-112 z"
         style="display:inline;opacity:0.3;fill:#ffffff;fill-opacity:1;stroke:none;stroke-width:1;stroke-linecap:round;stroke-linejoin:round;stroke-miterlimit:4;stroke-dasharray:none;stroke-opacity:1;enable-background:new" />
      <path
         clip-path="none"
         id="path11042-1-7-2"
         d="M 152,268 A 112,112 0 0 1 40,156 112,112 0 0 1 40.04102,154.83008 112,112 0 0 0 152,266 112,112 0 0 0 263.95898,155.16992 a 112,112 0 0 1 0.041,0.83008 112,112 0 0 1 -112,112 z"
         style="display:inline;opacity:0.2;fill:#000000;fill-opacity:1;stroke:none;stroke-width:1;stroke-linecap:round;stroke-linejoin:round;stroke-miterlimit:4;stroke-dasharray:none;stroke-opacity:1;enable-background:new"
         inkscape:connector-curvature="0" />
      <path
         inkscape:connector-curvature="0"
         id="path2118"
         d="m 344,61.5 a 22.5,22.5 0 0 0 -2.73047,0.195312 22.5,22.5 0 0 0 -0.18555,0.02148 22.5,22.5 0 0 0 -0.0273,0.0039 22.5,22.5 0 0 0 -0.18164,0.02734 22.5,22.5 0 0 0 -1.71875,0.308594 22.5,22.5 0 0 0 -0.1582,0.03516 22.5,22.5 0 0 0 -0.0117,0.002 22.5,22.5 0 0 0 -0.21875,0.05664 22.5,22.5 0 0 0 -1.65235,0.457031 22.5,22.5 0 0 0 -0.16992,0.05664 22.5,22.5 0 0 0 -0.01,0.0039 22.5,22.5 0 0 0 -0.15625,0.05664 22.5,22.5 0 0 0 -1.66211,0.63086 22.5,22.5 0 0 0 -0.1875,0.08398 22.5,22.5 0 0 0 -0.01,0.0039 22.5,22.5 0 0 0 -0.21875,0.105469 22.5,22.5 0 0 0 -1.39844,0.679688 22.5,22.5 0 0 0 -0.0742,0.04297 22.5,22.5 0 0 0 -0.19141,0.109375 22.5,22.5 0 0 0 -0.0254,0.01563 22.5,22.5 0 0 0 -0.20313,0.125 22.5,22.5 0 0 0 -1.45117,0.892578 22.5,22.5 0 0 0 -0.002,0.002 22.5,22.5 0 0 0 -0.25781,0.183593 22.5,22.5 0 0 0 -0.004,0.0039 22.5,22.5 0 0 0 -0.008,0.0039 A 22.5,22.5 0 0 0 330,66.414062 v 0.0059 a 22.5,22.5 0 0 0 -0.24414,0.179687 22.5,22.5 0 0 0 -0.46094,0.40625 22.5,22.5 0 0 0 -0.33594,0.292969 22.5,22.5 0 0 0 -0.0273,0.02539 22.5,22.5 0 0 0 -0.83789,0.78125 22.5,22.5 0 0 0 -0.74414,0.798828 22.5,22.5 0 0 0 -0.0254,0.02734 22.5,22.5 0 0 0 -0.32422,0.371093 22.5,22.5 0 0 0 -0.4082,0.464844 22.5,22.5 0 0 0 -0.67774,0.892578 22.5,22.5 0 0 0 -0.66601,0.929688 22.5,22.5 0 0 0 -0.56055,0.914062 22.5,22.5 0 0 0 -0.0117,0.01953 22.5,22.5 0 0 0 -0.5664,0.990234 22.5,22.5 0 0 0 -0.47852,0.990234 22.5,22.5 0 0 0 -0.4707,1.052735 22.5,22.5 0 0 0 -0.38477,1.052734 22.5,22.5 0 0 1 0,0.002 22.5,22.5 0 0 0 -0.0566,0.171875 22.5,22.5 0 0 0 -0.0918,0.238281 22.5,22.5 0 0 0 -0.004,0.0078 22.5,22.5 0 0 0 -0.0254,0.06836 22.5,22.5 0 0 0 -0.002,0.0078 22.5,22.5 0 0 0 -0.0703,0.255859 22.5,22.5 0 0 0 -0.0977,0.296875 22.5,22.5 0 0 0 -0.27929,1.085938 22.5,22.5 0 0 0 -0.006,0.02539 22.5,22.5 0 0 0 -0.008,0.0332 22.5,22.5 0 0 0 -0.0176,0.06641 22.5,22.5 0 0 0 -0.0156,0.06055 22.5,22.5 0 0 0 -0.0976,0.382812 22.5,22.5 0 0 0 -0.002,0.0078 22.5,22.5 0 0 0 -0.0508,0.302735 22.5,22.5 0 0 0 -0.0508,0.232422 22.5,22.5 0 0 0 -0.16797,1.101562 22.5,22.5 0 0 0 -0.002,0.01758 22.5,22.5 0 0 0 -0.004,0.0293 22.5,22.5 0 0 0 -0.0859,0.572266 22.5,22.5 0 0 0 -0.0195,0.308594 22.5,22.5 0 0 0 -0.0234,0.191406 22.5,22.5 0 0 0 -0.0391,0.77539 A 22.5,22.5 0 0 0 321.5,84 a 22.5,22.5 0 0 0 0.0586,1.148438 22.5,22.5 0 0 0 0.0391,0.77539 22.5,22.5 0 0 0 0.0234,0.191406 22.5,22.5 0 0 0 0.0195,0.308594 22.5,22.5 0 0 0 0.0859,0.572266 22.5,22.5 0 0 0 0.004,0.0293 22.5,22.5 0 0 0 0.002,0.01758 22.5,22.5 0 0 0 0.16797,1.101562 22.5,22.5 0 0 0 0.0508,0.232422 22.5,22.5 0 0 0 0.0508,0.302735 22.5,22.5 0 0 0 0.002,0.0078 22.5,22.5 0 0 0 0.11328,0.443359 22.5,22.5 0 0 0 0.0176,0.06641 22.5,22.5 0 0 0 0.008,0.0332 22.5,22.5 0 0 0 0.006,0.02539 22.5,22.5 0 0 0 0.27929,1.085938 22.5,22.5 0 0 0 0.0977,0.296875 22.5,22.5 0 0 0 0.0703,0.255859 22.5,22.5 0 0 0 0.002,0.0078 22.5,22.5 0 0 0 0.0293,0.07617 22.5,22.5 0 0 0 0.0918,0.238281 22.5,22.5 0 0 0 0.0566,0.171875 22.5,22.5 0 0 0 0,0.002 22.5,22.5 0 0 0 0.38477,1.052734 22.5,22.5 0 0 0 0.4707,1.052735 22.5,22.5 0 0 0 0.47852,0.990234 22.5,22.5 0 0 0 0.5664,0.990234 22.5,22.5 0 0 0 0.0117,0.01953 22.5,22.5 0 0 0 0.56055,0.914062 22.5,22.5 0 0 0 0.006,0.0098 22.5,22.5 0 0 0 0.66015,0.919922 22.5,22.5 0 0 0 0.67774,0.892578 22.5,22.5 0 0 0 0.004,0.0059 22.5,22.5 0 0 0 0.4043,0.458985 22.5,22.5 0 0 0 0.32422,0.371093 22.5,22.5 0 0 0 0.0254,0.02734 22.5,22.5 0 0 0 0.74414,0.798828 22.5,22.5 0 0 0 0.006,0.0059 22.5,22.5 0 0 0 0.83203,0.775385 22.5,22.5 0 0 0 0.0273,0.0254 22.5,22.5 0 0 0 0.33594,0.29297 22.5,22.5 0 0 0 0.46094,0.40625 22.5,22.5 0 0 0 0.006,0.004 22.5,22.5 0 0 0 0.23828,0.18164 22.5,22.5 0 0 0 0.0566,0.041 22.5,22.5 0 0 0 0.60352,0.45899 22.5,22.5 0 0 0 0.375,0.26953 22.5,22.5 0 0 0 0.004,0.004 22.5,22.5 0 0 0 0.004,0.002 22.5,22.5 0 0 0 0.008,0.006 22.5,22.5 0 0 0 0.0332,0.0254 22.5,22.5 0 0 0 0.002,0 22.5,22.5 0 0 0 0.01,0.008 22.5,22.5 0 0 0 0.0645,0.0449 22.5,22.5 0 0 0 0.41015,0.29492 22.5,22.5 0 0 0 0.01,0.006 22.5,22.5 0 0 0 0.94336,0.57813 22.5,22.5 0 0 0 0.0195,0.0117 22.5,22.5 0 0 0 0.63476,0.36328 22.5,22.5 0 0 0 0.0586,0.0332 22.5,22.5 0 0 0 0.27734,0.1582 22.5,22.5 0 0 0 0.99024,0.47852 22.5,22.5 0 0 0 0.5625,0.25195 22.5,22.5 0 0 0 0.25781,0.11524 22.5,22.5 0 0 0 0.23242,0.10351 22.5,22.5 0 0 0 1.05469,0.38477 22.5,22.5 0 0 0 0.4082,0.13477 22.5,22.5 0 0 0 0.49219,0.16406 22.5,22.5 0 0 0 0.14648,0.0488 22.5,22.5 0 0 0 1.11133,0.28515 22.5,22.5 0 0 0 0.0254,0.006 22.5,22.5 0 0 0 0.26953,0.0605 22.5,22.5 0 0 0 0.69336,0.15429 22.5,22.5 0 0 0 0.0977,0.0215 22.5,22.5 0 0 0 1.11914,0.16992 22.5,22.5 0 0 0 0.0156,0.002 22.5,22.5 0 0 0 0.15821,0.0195 22.5,22.5 0 0 0 0.88867,0.10742 22.5,22.5 0 0 0 0.0391,0.004 22.5,22.5 0 0 0 1.85156,0.0937 22.5,22.5 0 0 0 0.0723,0.004 22.5,22.5 0 0 0 0.0703,-0.004 22.5,22.5 0 0 0 1.85157,-0.0937 22.5,22.5 0 0 0 0.0391,-0.004 22.5,22.5 0 0 0 0.89062,-0.10742 22.5,22.5 0 0 0 0.15625,-0.0195 22.5,22.5 0 0 0 0.0156,-0.002 22.5,22.5 0 0 0 1.11914,-0.16992 22.5,22.5 0 0 0 0.0937,-0.0215 22.5,22.5 0 0 0 0.71094,-0.1582 22.5,22.5 0 0 0 0.25585,-0.0566 22.5,22.5 0 0 0 0.0254,-0.006 22.5,22.5 0 0 0 1.11132,-0.28515 22.5,22.5 0 0 0 0.13868,-0.0469 22.5,22.5 0 0 0 0.51953,-0.17187 22.5,22.5 0 0 0 0.38867,-0.12891 22.5,22.5 0 0 0 1.05469,-0.38477 22.5,22.5 0 0 0 0.22265,-0.0996 22.5,22.5 0 0 0 0.29102,-0.13085 22.5,22.5 0 0 0 0.53906,-0.24024 22.5,22.5 0 0 0 0.99024,-0.47852 22.5,22.5 0 0 0 0.27734,-0.1582 22.5,22.5 0 0 0 0.0586,-0.0332 22.5,22.5 0 0 0 0.63477,-0.36328 22.5,22.5 0 0 0 0.0195,-0.0117 22.5,22.5 0 0 0 0.94336,-0.57813 22.5,22.5 0 0 0 0.01,-0.006 22.5,22.5 0 0 0 0.26954,-0.19531 22.5,22.5 0 0 0 0.10937,-0.0781 22.5,22.5 0 0 0 0.0957,-0.0664 22.5,22.5 0 0 0 0.0117,-0.008 22.5,22.5 0 0 0 0.082,-0.0605 22.5,22.5 0 0 0 0.3418,-0.24609 22.5,22.5 0 0 0 0.51563,-0.39063 A 22.5,22.5 0 0 0 358,101.58594 v -0.002 a 22.5,22.5 0 0 0 0.23633,-0.17968 22.5,22.5 0 0 0 0.006,-0.004 22.5,22.5 0 0 0 0.46289,-0.40625 22.5,22.5 0 0 0 0.33398,-0.29297 22.5,22.5 0 0 0 0.0274,-0.0254 22.5,22.5 0 0 0 0.83203,-0.775389 22.5,22.5 0 0 0 0.006,-0.0059 22.5,22.5 0 0 0 0.35547,-0.382812 22.5,22.5 0 0 0 0.38867,-0.416016 22.5,22.5 0 0 0 0.0273,-0.02734 22.5,22.5 0 0 0 0.32422,-0.371093 22.5,22.5 0 0 0 0.4043,-0.458985 22.5,22.5 0 0 0 0.004,-0.0059 22.5,22.5 0 0 0 0.67774,-0.892578 22.5,22.5 0 0 0 0.66015,-0.919922 22.5,22.5 0 0 0 0.006,-0.0098 22.5,22.5 0 0 0 0.56055,-0.914062 22.5,22.5 0 0 0 0.0117,-0.01953 22.5,22.5 0 0 0 0.5664,-0.990234 22.5,22.5 0 0 0 0.47852,-0.990234 22.5,22.5 0 0 0 0.4707,-1.052735 22.5,22.5 0 0 0 0.38477,-1.052734 22.5,22.5 0 0 1 0,-0.002 22.5,22.5 0 0 0 0.0566,-0.171875 22.5,22.5 0 0 0 0.0918,-0.238281 22.5,22.5 0 0 0 0.0293,-0.07617 22.5,22.5 0 0 0 0.002,-0.0078 22.5,22.5 0 0 0 0.0703,-0.255859 22.5,22.5 0 0 0 0.0977,-0.296875 22.5,22.5 0 0 0 0.27929,-1.085938 22.5,22.5 0 0 0 0.006,-0.02539 22.5,22.5 0 0 0 0.008,-0.0332 22.5,22.5 0 0 0 0.0176,-0.06641 22.5,22.5 0 0 0 0.11328,-0.443359 22.5,22.5 0 0 0 0.002,-0.0078 22.5,22.5 0 0 0 0.0508,-0.302735 22.5,22.5 0 0 0 0.0508,-0.232422 22.5,22.5 0 0 0 0.16797,-1.101562 22.5,22.5 0 0 0 0.002,-0.01758 22.5,22.5 0 0 0 0.004,-0.0293 22.5,22.5 0 0 0 0.0859,-0.572266 22.5,22.5 0 0 0 0.0195,-0.308594 22.5,22.5 0 0 0 0.0234,-0.191406 22.5,22.5 0 0 0 0.0391,-0.77539 A 22.5,22.5 0 0 0 366.5,84 a 22.5,22.5 0 0 0 -0.0586,-1.148438 22.5,22.5 0 0 0 -0.0391,-0.77539 22.5,22.5 0 0 0 -0.0234,-0.191406 22.5,22.5 0 0 0 -0.0195,-0.308594 22.5,22.5 0 0 0 -0.0859,-0.572266 22.5,22.5 0 0 0 -0.004,-0.0293 22.5,22.5 0 0 0 -0.002,-0.01758 22.5,22.5 0 0 0 -0.16797,-1.101562 22.5,22.5 0 0 0 -0.0508,-0.232422 22.5,22.5 0 0 0 -0.0508,-0.302735 22.5,22.5 0 0 0 -0.002,-0.0078 22.5,22.5 0 0 0 -0.0976,-0.382812 22.5,22.5 0 0 0 -0.0156,-0.06055 22.5,22.5 0 0 0 -0.0176,-0.06641 22.5,22.5 0 0 0 -0.008,-0.0332 22.5,22.5 0 0 0 -0.006,-0.02539 22.5,22.5 0 0 0 -0.27929,-1.085938 22.5,22.5 0 0 0 -0.0977,-0.296875 22.5,22.5 0 0 0 -0.0703,-0.255859 22.5,22.5 0 0 0 -0.002,-0.0078 22.5,22.5 0 0 0 -0.0254,-0.06836 22.5,22.5 0 0 0 -0.004,-0.0078 22.5,22.5 0 0 0 -0.0918,-0.238281 22.5,22.5 0 0 0 -0.0566,-0.171875 22.5,22.5 0 0 0 0,-0.002 22.5,22.5 0 0 0 -0.38477,-1.052734 22.5,22.5 0 0 0 -0.4707,-1.052735 22.5,22.5 0 0 0 -0.47852,-0.990234 22.5,22.5 0 0 0 -0.5664,-0.990234 22.5,22.5 0 0 0 -0.0117,-0.01953 22.5,22.5 0 0 0 -0.56055,-0.914062 22.5,22.5 0 0 0 -0.66601,-0.929688 22.5,22.5 0 0 0 -0.67774,-0.892578 22.5,22.5 0 0 0 -0.4082,-0.464844 22.5,22.5 0 0 0 -0.32422,-0.371093 22.5,22.5 0 0 0 -0.0254,-0.02734 22.5,22.5 0 0 0 -0.74414,-0.798828 22.5,22.5 0 0 0 -0.83789,-0.78125 22.5,22.5 0 0 0 -0.0273,-0.02539 22.5,22.5 0 0 0 -0.33594,-0.292969 22.5,22.5 0 0 0 -0.46094,-0.40625 A 22.5,22.5 0 0 0 358,66.419922 v -0.0059 a 22.5,22.5 0 0 0 -1.08594,-0.80664 22.5,22.5 0 0 0 -0.008,-0.0039 22.5,22.5 0 0 0 -0.004,-0.0039 22.5,22.5 0 0 0 -0.25781,-0.183593 22.5,22.5 0 0 0 -0.002,-0.002 22.5,22.5 0 0 0 -1.45117,-0.892578 22.5,22.5 0 0 0 -0.20313,-0.125 22.5,22.5 0 0 0 -0.0254,-0.01563 22.5,22.5 0 0 0 -0.19141,-0.109375 22.5,22.5 0 0 0 -0.0742,-0.04297 22.5,22.5 0 0 0 -1.39844,-0.679688 22.5,22.5 0 0 0 -0.21875,-0.105469 22.5,22.5 0 0 0 -0.01,-0.0039 22.5,22.5 0 0 0 -0.1875,-0.08398 22.5,22.5 0 0 0 -1.66211,-0.63086 22.5,22.5 0 0 0 -0.15625,-0.05664 22.5,22.5 0 0 0 -0.01,-0.0039 22.5,22.5 0 0 0 -0.16992,-0.05664 22.5,22.5 0 0 0 -1.63868,-0.453125 22.5,22.5 0 0 0 -0.23242,-0.06055 22.5,22.5 0 0 0 -0.0117,-0.002 22.5,22.5 0 0 0 -0.17578,-0.03906 22.5,22.5 0 0 0 -1.6914,-0.302734 22.5,22.5 0 0 0 -0.19141,-0.0293 22.5,22.5 0 0 0 -0.0273,-0.0039 22.5,22.5 0 0 0 -0.19141,-0.02344 A 22.5,22.5 0 0 0 344,61.5 Z m 0,4.5 a 18,18 0 0 1 1.60156,0.08008 18,18 0 0 1 0.97656,0.126953 18,18 0 0 1 0.77735,0.117188 18,18 0 0 1 1.08203,0.253906 18,18 0 0 1 0.64844,0.166016 18,18 0 0 1 1.0957,0.373047 18,18 0 0 1 0.59766,0.21875 18,18 0 0 1 1.07617,0.492187 18,18 0 0 1 0.55273,0.267578 18,18 0 0 1 1.05469,0.617188 18,18 0 0 1 0.47461,0.292968 18,18 0 0 1 1.05664,0.769532 A 18,18 0 0 1 358.23438,73 h -0.0156 a 18,18 0 0 1 1.55859,2.375 18,18 0 0 1 0.72852,1.498047 18,18 0 0 1 0.0801,0.179687 18,18 0 0 1 0.52148,1.423828 18,18 0 0 1 0.0996,0.298829 18,18 0 0 1 0.3457,1.335937 18,18 0 0 1 0.10157,0.457031 18,18 0 0 1 0.1875,1.228516 18,18 0 0 1 0.0723,0.589844 18,18 0 0 1 0.084,1.613281 18,18 0 0 1 -0.004,0.115234 18,18 0 0 1 -0.0762,1.441407 18,18 0 0 1 -0.0918,0.755859 18,18 0 0 1 -0.16601,1.087891 18,18 0 0 1 -0.12696,0.558593 18,18 0 0 1 -0.3125,1.222657 18,18 0 0 1 -0.13867,0.414062 18,18 0 0 1 -0.49414,1.347656 18,18 0 0 1 -0.0879,0.197266 18,18 0 0 1 -0.70312,1.449219 18,18 0 0 1 -0.0625,0.109375 A 18,18 0 0 1 358.8359,94.15625 18,18 0 0 1 358.2207,95 h 0.0117 a 18,18 0 0 1 -3.30469,3.273438 18,18 0 0 1 -0.96484,0.703124 18,18 0 0 1 -0.56641,0.34961 18,18 0 0 1 -0.98632,0.576172 18,18 0 0 1 -0.57422,0.277346 18,18 0 0 1 -1.04688,0.48047 18,18 0 0 1 -0.67773,0.24609 18,18 0 0 1 -0.99414,0.33984 18,18 0 0 1 -0.80469,0.20703 18,18 0 0 1 -0.92773,0.2168 18,18 0 0 1 -0.86719,0.13086 18,18 0 0 1 -0.91406,0.11914 A 18,18 0 0 1 344,102 a 18,18 0 0 1 -0.002,0 18,18 0 0 1 -1.60352,-0.0801 18,18 0 0 1 -0.91406,-0.11914 18,18 0 0 1 -0.86524,-0.13086 18,18 0 0 1 -0.92773,-0.2168 18,18 0 0 1 -0.80469,-0.20703 18,18 0 0 1 -0.97461,-0.33203 18,18 0 0 1 -0.70508,-0.25781 18,18 0 0 1 -1.02929,-0.4707 18,18 0 0 1 -0.58399,-0.283206 18,18 0 0 1 -0.98632,-0.576172 18,18 0 0 1 -0.56836,-0.34961 A 18,18 0 0 1 333.08203,98.28125 18,18 0 0 1 329.76562,95 h 0.0137 a 18,18 0 0 1 -1.52344,-2.316406 18,18 0 0 1 -0.0488,-0.08594 18,18 0 0 1 -0.70703,-1.457031 18,18 0 0 1 -0.0879,-0.197266 18,18 0 0 1 -0.50586,-1.376953 18,18 0 0 1 -0.12109,-0.367187 18,18 0 0 1 -0.31641,-1.22461 18,18 0 0 1 -0.13281,-0.59375 18,18 0 0 1 -0.16016,-1.050781 18,18 0 0 1 -0.0937,-0.773437 A 18,18 0 0 1 326,84 a 18,18 0 0 1 0.082,-1.583984 18,18 0 0 1 0.082,-0.666016 18,18 0 0 1 0.17969,-1.179688 18,18 0 0 1 0.10742,-0.470703 18,18 0 0 1 0.33399,-1.30664 18,18 0 0 1 0.11328,-0.341797 18,18 0 0 1 0.52148,-1.416016 18,18 0 0 1 0.0606,-0.132812 18,18 0 0 1 0.73242,-1.511719 18,18 0 0 1 0.0273,-0.04883 18,18 0 0 1 0.92383,-1.5 A 18,18 0 0 1 329.7793,73 h -0.0137 a 18,18 0 0 1 3.23047,-3.21875 18,18 0 0 1 1.06446,-0.775391 18,18 0 0 1 0.48437,-0.296875 18,18 0 0 1 1.04688,-0.613281 18,18 0 0 1 0.55273,-0.267578 18,18 0 0 1 1.07617,-0.492187 18,18 0 0 1 0.60742,-0.220704 18,18 0 0 1 1.07813,-0.36914 18,18 0 0 1 0.67773,-0.173828 18,18 0 0 1 1.05469,-0.248047 18,18 0 0 1 0.79102,-0.117188 18,18 0 0 1 0.96875,-0.126953 A 18,18 0 0 1 344,66 Z"
         clip-path="none"
         style="display:inline;opacity:1;vector-effect:none;fill:#e95420;fill-opacity:1;stroke:none;stroke-width:1;stroke-linecap:butt;stroke-linejoin:round;stroke-miterlimit:4;stroke-dasharray:none;stroke-dashoffset:6.5999999;stroke-opacity:1;enable-background:new" />
      <circle
         r="88"
         cy="156"
         cx="152"
         id="path2888"
         style="display:inline;opacity:1;vector-effect:none;fill:url(#linearGradient2936);fill-opacity:1;stroke:none;stroke-width:4;stroke-linecap:butt;stroke-linejoin:round;stroke-miterlimit:4;stroke-dasharray:none;stroke-dashoffset:6.6;stroke-opacity:1;enable-background:new" />
      <circle
         r="18"
         cy="84"
         cx="344"
         id="path2888-5"
         style="display:inline;opacity:1;vector-effect:none;fill:url(#linearGradient2936-3);fill-opacity:1.0;stroke:none;stroke-width:0.818182;stroke-linecap:butt;stroke-linejoin:round;stroke-miterlimit:4;stroke-dasharray:none;stroke-dashoffset:6.6;stroke-opacity:1;enable-background:new" />
    </g>
    <g
       style="display:inline"
       inkscape:label="Pictograms and folds"
       id="layer6"
       inkscape:groupmode="layer">
      <path
         clip-path="none"
         sodipodi:nodetypes="cccc"
         inkscape:connector-curvature="0"
         id="rect12119-7"
         d="m 321.5,84 c 1.03349,11.32142 10.52263,19.99082 21.89112,20.00001 11.37187,-0.005 20.86611,-8.67524 21.8999,-20.00001 z"
         style="display:inline;opacity:0.1;fill:#ffffff;fill-opacity:1;stroke:none;stroke-width:2;stroke-linecap:round;stroke-linejoin:round;stroke-miterlimit:4;stroke-dasharray:none;stroke-opacity:1;enable-background:new" />
      <circle
         clip-path="none"
         r="11"
         cy="148"
         cx="335.99997"
         id="circle1535-9"
         style="color:#000000;display:inline;overflow:visible;visibility:visible;opacity:1;fill:#000000;fill-opacity:0;fill-rule:nonzero;stroke:none;stroke-width:0.47826084;stroke-linecap:butt;stroke-linejoin:miter;stroke-miterlimit:4;stroke-dasharray:1.43478257, 1.43478257;stroke-dashoffset:0;stroke-opacity:1;marker:none;enable-background:accumulate" />
      <path
         clip-path="none"
         inkscape:connector-curvature="0"
         id="path19624"
         d="M 239.98436,156.72852 C 239.80315,176.9121 232.70001,196.4301 219.83201,212 h 1.58008 c 12.0087,-15.41844 18.57438,-34.40846 18.58789,-54 0,-0.42507 -0.01,-0.84784 -0.0156,-1.27148 z"
         style="display:inline;opacity:0.3;fill:#ffffff;fill-opacity:1;stroke:none;stroke-width:1;stroke-linecap:round;stroke-linejoin:round;stroke-miterlimit:4;stroke-dasharray:none;stroke-opacity:1;enable-background:new" />
      <path
         clip-path="none"
         sodipodi:nodetypes="cccc"
         inkscape:connector-curvature="0"
         id="rect12119"
         d="M 40,165.96 C 45.28651,223.87136 93.82538,268.21708 151.97754,268.2641 210.14691,268.2403 258.7119,223.88851 264,165.96 Z"
         style="display:inline;opacity:0.1;fill:#ffffff;fill-opacity:1;stroke:none;stroke-width:10.6667;stroke-linecap:round;stroke-linejoin:round;stroke-miterlimit:4;stroke-dasharray:none;stroke-opacity:1;enable-background:new" />
      <ellipse
         r="48"
         cy="244"
         cx="150"
         id="path1464"
         style="opacity:0.50800003;vector-effect:none;fill:#000000;fill-opacity:0.99502486;stroke:none;stroke-width:32;stroke-linecap:butt;stroke-linejoin:round;stroke-miterlimit:4;stroke-dasharray:none;stroke-dashoffset:6.5999999;stroke-opacity:1" />
      <path
         inkscape:connector-curvature="0"
         id="path1017"
         d=""
         style="fill:#000000" />
      <path
         inkscape:connector-curvature="0"
         id="path1015"
         d=""
         style="fill:#000000" />
      <circle
         style="display:inline;opacity:1;vector-effect:none;fill:url(#linearGradient2936-3-3);fill-opacity:1.0;stroke:none;stroke-width:0.5;stroke-linecap:butt;stroke-linejoin:round;stroke-miterlimit:4;stroke-dasharray:none;stroke-dashoffset:6.6;stroke-opacity:1;enable-background:new"
         id="path2888-5-2"
         cx="336"
         cy="148"
         r="11" />
      <path
         clip-path="none"
         sodipodi:nodetypes="cccc"
         inkscape:connector-curvature="0"
         id="rect12119-0"
         d="m 321.406,149.33 c 0.68899,7.54762 7.01509,13.32722 14.59409,13.33334 7.58124,-0.003 13.91074,-5.78349 14.59994,-13.33334 z"
         style="display:inline;opacity:0.1;fill:#ffffff;fill-opacity:1;stroke:none;stroke-width:1.33333;stroke-linecap:round;stroke-linejoin:round;stroke-miterlimit:4;stroke-dasharray:none;stroke-opacity:1;enable-background:new" />
      <circle
         style="display:inline;opacity:1;vector-effect:none;fill:url(#linearGradient2936-3-3-9);fill-opacity:1.0;stroke:none;stroke-width:0.409091;stroke-linecap:butt;stroke-linejoin:round;stroke-miterlimit:4;stroke-dasharray:none;stroke-dashoffset:6.6;stroke-opacity:1;enable-background:new"
         id="path2888-5-2-7"
         cx="332"
         cy="200"
         r="9" />
      <path
         clip-path="none"
         sodipodi:nodetypes="cccc"
         inkscape:connector-curvature="0"
         id="rect12119-01"
         d="m 321.054,201 c 0.51675,5.66071 5.26131,9.99541 10.94556,10 5.68593,-0.002 10.43305,-4.33762 10.94995,-10 z"
         style="display:inline;opacity:0.1;fill:#ffffff;fill-opacity:1;stroke:none;stroke-width:1;stroke-linecap:round;stroke-linejoin:round;stroke-miterlimit:4;stroke-dasharray:none;stroke-opacity:1;enable-background:new" />
      <circle
         style="display:inline;opacity:1;vector-effect:none;fill:url(#linearGradient2936-3-3-0);fill-opacity:1.0;stroke:none;stroke-width:0.25;stroke-linecap:butt;stroke-linejoin:round;stroke-miterlimit:4;stroke-dasharray:none;stroke-dashoffset:6.6;stroke-opacity:1;enable-background:new"
         id="path2888-5-2-6"
         cx="328"
         cy="244"
         r="5.5" />
      <path
         clip-path="none"
         inkscape:connector-curvature="0"
         id="rect12119-6"
         d="m 320.727,245 c 0.42175,3.69105 3.54051,6.49699 7.27344,6.5 3.73419,-0.002 6.85565,-2.80766 7.27734,-6.5 z"
         style="display:inline;opacity:0.1;fill:#ffffff;fill-opacity:1;stroke:none;stroke-width:0.666667;stroke-linecap:round;stroke-linejoin:round;stroke-miterlimit:4;stroke-dasharray:none;stroke-opacity:1;enable-background:new" />
      <path
         d="m 224,119.59999 -10.14857,-11.264 c -4.18286,-3.47022 -10.56,-4.32355 -15.84,-2.13333 l -4.86857,2.01955 L 176,93.999991 h -48 l -17.14286,14.222219 -4.86857,-2.01955 c -5.28,-2.19022 -11.65714,-1.33689 -15.839997,2.13333 l -10.148572,11.264 6.857143,8.53333 -6.857143,11.37778 19.782859,49.69244 c 2.70857,6.48534 8.16,11.91823 15.32571,15.30311 L 152,221.99999 188.89143,204.50665 c 7.16571,-3.38488 12.61714,-8.81777 15.32571,-15.30311 L 224,139.5111 217.14286,128.13332 Z m -72,82.48889 -20.57143,-17.06667 c 0,0 17.14286,-8.53333 20.57143,-8.53333 3.42857,0 20.57143,8.53333 20.57143,8.53333 z m 46.90286,-60.416 -16.04572,17.74933 1.95428,2.41778 c 1.40572,1.73511 2.09144,3.75466 2.09144,5.74577 0,2.21867 -0.82286,4.4089 -2.50286,6.22934 -1.78286,1.99111 -4.42286,3.584 -6.99429,4.52266 -1.74857,0.65423 -3.46285,0.99556 -4.83428,0.99556 -3.08572,0 -8.97257,-4.61084 -17.14286,-9.47484 v -3.13458 l 15.48,-7.70559 c 1.26514,-0.62863 1.90285,-1.86028 1.584,-3.05494 l -5.00229,-18.67663 c 0.59658,-1.15484 1.52229,-2.11626 2.89715,-2.74204 l 19.32686,-6.41138 -10.28572,-2.84444 h -6.85714 l -0.048,0.0398 c -0.34286,0.005 -0.69257,0.0114 -1.03886,0.10809 l -10.28571,2.84445 c -1.66628,0.46079 -2.64343,1.89439 -2.26286,3.31661 l 6.32229,23.59752 L 152,161.79446 138.73829,155.19251 145.06057,131.595 c 0.38057,-1.42223 -0.59657,-2.85299 -2.26285,-3.31663 L 132.512,125.43393 c -0.34629,-0.0967 -0.69256,-0.1024 -1.03885,-0.10809 l -0.0446,-0.0369 h -6.85714 l -10.28572,2.84444 19.33028,6.40854 c 1.37486,0.62577 2.30058,1.5872 2.89715,2.74204 l -5.00228,18.67662 c -0.31886,1.19467 0.31542,2.42631 1.58056,3.05494 l 15.48004,7.70557 v 3.20285 c -8.38971,4.96071 -14.112,9.40942 -17.14286,9.40942 -1.37143,0 -3.08571,-0.34133 -4.83429,-0.99556 -2.57142,-0.93866 -5.21143,-2.53155 -6.99429,-4.52266 -3.18856,-3.49867 -3.36,-8.30578 -0.41142,-11.97511 l 1.95429,-2.41778 -16.04572,-17.74933 c -2.70856,-2.98666 -2.74285,-7.05422 -0.13714,-10.09777 l 12.75429,-17.66401 9.35999,1.56445 c 1.30286,0.22756 2.64001,0.31288 3.97714,0.31288 3.70286,0 7.40572,-0.82488 10.62858,-2.41777 3.18857,-1.59289 6.75429,-2.38933 10.32,-2.38933 3.56571,0 7.13143,0.79644 10.32,2.38933 4.38857,2.16178 9.6,2.92977 14.60571,2.10489 l 9.36001,-1.56445 12.75428,17.66401 c 2.60572,3.04355 2.57142,7.11111 -0.13714,10.09777 z"
         id="path2"
         style="fill:#e95420;fill-opacity:1;stroke-width:3.12288" />
      <path
         d="m 359,76.6 -2.11428,-2.464 c -0.87144,-0.759111 -2.20001,-0.945778 -3.3,-0.466667 L 352.57143,74.111111 349,71 h -10 l -3.57143,3.111111 -1.01429,-0.441778 c -1.09999,-0.479111 -2.42856,-0.292444 -3.3,0.466667 L 329,76.6 330.42857,78.466667 329,80.955556 l 4.12143,10.870221 c 0.56428,1.418666 1.7,2.607112 3.19286,3.347555 L 344,99 l 7.68571,-3.826668 c 1.49286,-0.740443 2.62858,-1.928889 3.19286,-3.347555 L 359,80.955556 357.57143,78.466667 Z m -15,18.044444 -4.28571,-3.733333 c 0,0 3.57142,-1.866667 4.28571,-1.866667 0.71429,0 4.28571,1.866667 4.28571,1.866667 z m 9.77143,-13.216 -3.34286,3.882667 0.40714,0.528888 c 0.29286,0.379557 0.43572,0.821333 0.43572,1.256889 0,0.485333 -0.17143,0.964445 -0.52143,1.362668 -0.37143,0.435555 -0.92143,0.784 -1.45714,0.989332 -0.36429,0.143112 -0.72143,0.217779 -1.00715,0.217779 -0.64285,0 -1.86928,-1.008623 -3.57142,-2.072622 v -0.68569 l 3.225,-1.685598 c 0.26356,-0.137512 0.39643,-0.406935 0.33,-0.668268 l -1.04215,-4.085512 c 0.12429,-0.252621 0.31715,-0.462932 0.60357,-0.599822 l 4.02644,-1.402488 -2.14287,-0.622223 h -1.42857 l -0.01,0.0087 c -0.0714,0.0012 -0.14428,0.0025 -0.21643,0.02365 l -2.14285,0.622222 c -0.34715,0.100799 -0.55072,0.414399 -0.47144,0.72551 l 1.31716,5.161956 -2.76214,1.443556 -2.76287,-1.444177 1.31714,-5.161955 c 0.0793,-0.311111 -0.12429,-0.624091 -0.47143,-0.725512 l -2.14286,-0.622223 c -0.0721,-0.02115 -0.14427,-0.0224 -0.21643,-0.02364 l -0.01,-0.0081 h -1.42859 l -2.14285,0.622223 4.02715,1.401867 c 0.28643,0.136889 0.47928,0.347201 0.60357,0.599822 l -1.04215,4.08551 c -0.0664,0.261333 0.0657,0.530756 0.3293,0.668268 l 3.225,1.685594 v 0.700624 c -1.74786,1.085155 -2.94,2.058311 -3.57143,2.058311 -0.28571,0 -0.64286,-0.07467 -1.00714,-0.217779 -0.53572,-0.205332 -1.0857,-0.553777 -1.45714,-0.989332 -0.66429,-0.765335 -0.7,-1.816889 -0.0857,-2.619557 l 0.40714,-0.528888 -3.34286,-3.882667 c -0.56428,-0.653332 -0.57141,-1.543111 -0.0285,-2.208887 l 2.65714,-3.864002 1.95,0.342224 c 0.27145,0.04978 0.55002,0.06844 0.82858,0.06844 0.77144,0 1.54287,-0.180443 2.21428,-0.528888 0.66429,-0.348444 1.40716,-0.522667 2.15001,-0.522667 0.74285,0 1.48571,0.174223 2.15,0.522667 0.91428,0.472889 1.99999,0.640888 3.04286,0.460445 l 1.95,-0.342224 2.65714,3.864002 c 0.54285,0.665776 0.53571,1.555555 -0.0286,2.208887 z"
         id="path2-6"
         style="display:inline;fill:#e95420;fill-opacity:1;stroke-width:0.666667;enable-background:new" />
      <path
         d="m 345.15,144.2 -1.26857,-1.408 c -0.52286,-0.43378 -1.32,-0.54045 -1.98,-0.26667 l -0.60857,0.25245 L 339.15,141 h -6 l -2.14286,1.77778 -0.60857,-0.25245 c -0.66,-0.27378 -1.45714,-0.16711 -1.98,0.26667 l -1.26857,1.408 0.85714,1.06667 -0.85714,1.42222 2.47286,6.21156 c 0.33857,0.81066 1.02,1.48977 1.91571,1.91288 L 336.15,157 l 4.61143,-2.18667 c 0.89571,-0.42311 1.57714,-1.10222 1.91571,-1.91288 l 2.47286,-6.21156 -0.85714,-1.42222 z m -9,10.31111 -2.57143,-2.13333 c 0,0 2.14286,-1.06667 2.57143,-1.06667 0.42857,0 2.57143,1.06667 2.57143,1.06667 z m 5.86286,-7.552 -2.00572,2.21867 0.24429,0.30222 c 0.17571,0.21689 0.26143,0.46933 0.26143,0.71822 0,0.27733 -0.10286,0.55111 -0.31286,0.77867 -0.22286,0.24889 -0.55286,0.448 -0.87428,0.56533 -0.21858,0.0818 -0.43286,0.12445 -0.60429,0.12445 -0.38571,0 -1.12157,-0.57636 -2.14286,-1.18436 v -0.39182 l 1.935,-0.9632 c 0.15814,-0.0786 0.23786,-0.23254 0.198,-0.38187 l -0.62529,-2.33457 c 0.0746,-0.14436 0.19029,-0.26454 0.36215,-0.34276 l 2.41586,-0.80142 -1.28572,-0.35556 h -0.85714 l -0.006,0.005 c -0.0428,5.7e-4 -0.0866,0.001 -0.12986,0.0135 l -1.28571,0.35556 c -0.20829,0.0576 -0.33043,0.2368 -0.28287,0.41458 l 0.7903,2.94969 -1.65728,0.82489 -1.65773,-0.82525 0.79029,-2.94968 c 0.0476,-0.17779 -0.0746,-0.35663 -0.28286,-0.41459 l -1.28572,-0.35555 c -0.0433,-0.0121 -0.0866,-0.0128 -0.12985,-0.0135 l -0.006,-0.005 h -0.85716 l -1.28571,0.35556 2.41629,0.80107 c 0.17186,0.0782 0.28757,0.1984 0.36214,0.34275 l -0.62529,2.33458 c -0.0398,0.14933 0.0394,0.30329 0.19758,0.38187 l 1.935,0.9632 v 0.40035 c -1.04871,0.62009 -1.764,1.17618 -2.14285,1.17618 -0.17143,0 -0.38572,-0.0427 -0.60429,-0.12445 -0.32143,-0.11733 -0.65142,-0.31644 -0.87428,-0.56533 -0.39858,-0.43734 -0.42,-1.03822 -0.0514,-1.49689 l 0.24428,-0.30222 -2.00571,-2.21867 c -0.33857,-0.37333 -0.34285,-0.88177 -0.0171,-1.26222 l 1.59428,-2.208 1.17,0.19555 c 0.16287,0.0285 0.33001,0.0391 0.49715,0.0391 0.46286,0 0.92572,-0.10311 1.32857,-0.30222 0.39857,-0.19911 0.84429,-0.29867 1.29,-0.29867 0.44571,0 0.89143,0.0996 1.29,0.29867 0.54857,0.27022 1.2,0.36622 1.82572,0.26311 l 1.17,-0.19555 1.59428,2.208 c 0.32571,0.38044 0.32143,0.88888 -0.0172,1.26221 z"
         id="path2-6-7"
         style="display:inline;fill:#e95420;fill-opacity:1;stroke-width:0.39036;enable-background:new" />
      <path
         d="m 339,196.4 -0.95143,-1.056 c -0.39214,-0.32534 -0.99,-0.40534 -1.485,-0.2 l -0.45643,0.18933 L 334.5,194 H 330 l -1.60715,1.33333 -0.45642,-0.18933 c -0.495,-0.20534 -1.09286,-0.12534 -1.485,0.2 L 325.5,196.4 l 0.64285,0.8 -0.64285,1.06667 1.85465,4.65867 c 0.25392,0.60799 0.76499,1.11732 1.43678,1.43466 l 3.45857,1.64 3.45857,-1.64 c 0.67179,-0.31734 1.18286,-0.82667 1.43678,-1.43466 L 339,198.26667 338.35714,197.2 Z m -6.75,7.73333 -1.92857,-1.6 c 0,0 1.60714,-0.8 1.92857,-0.8 0.32143,0 1.92857,0.8 1.92857,0.8 z m 4.39715,-5.664 -1.5043,1.664 0.18322,0.22667 c 0.13178,0.16267 0.19608,0.352 0.19608,0.53866 0,0.208 -0.0772,0.41334 -0.23465,0.58401 -0.16715,0.18666 -0.41465,0.336 -0.65571,0.42399 -0.16394,0.0614 -0.32465,0.0933 -0.45322,0.0933 -0.28928,0 -0.84117,-0.43227 -1.60714,-0.88827 v -0.29386 l 1.45125,-0.7224 c 0.1186,-0.059 0.17839,-0.17441 0.1485,-0.28641 l -0.46897,-1.75092 c 0.0559,-0.10827 0.14272,-0.19841 0.27161,-0.25707 l 1.8119,-0.60107 -0.96429,-0.26667 h -0.64286 l -0.005,0.004 c -0.0321,4.3e-4 -0.065,7.5e-4 -0.0974,0.0101 l -0.96429,0.26667 c -0.15621,0.0432 -0.24782,0.1776 -0.21215,0.31093 l 0.59273,2.21227 -1.24296,0.61867 -1.2433,-0.61894 0.59272,-2.21226 c 0.0357,-0.13334 -0.0559,-0.26747 -0.21215,-0.31094 l -0.96429,-0.26667 c -0.0325,-0.009 -0.0649,-0.01 -0.0974,-0.0101 l -0.005,-0.004 h -0.64287 l -0.96428,0.26667 1.81222,0.6008 c 0.12889,0.0587 0.21568,0.1488 0.27161,0.25706 l -0.46897,1.75094 c -0.0299,0.112 0.0296,0.22747 0.14818,0.2864 l 1.45125,0.7224 v 0.30026 c -0.78653,0.46507 -1.323,0.88214 -1.60714,0.88214 -0.12857,0 -0.28929,-0.032 -0.45321,-0.0933 -0.24108,-0.088 -0.48857,-0.23733 -0.65571,-0.424 -0.29894,-0.328 -0.315,-0.77866 -0.0385,-1.12266 l 0.18321,-0.22667 -1.50429,-1.664 c -0.25392,-0.28 -0.25713,-0.66133 -0.0128,-0.94667 l 1.19571,-1.656 0.8775,0.14667 c 0.12215,0.0214 0.24751,0.0293 0.37286,0.0293 0.34715,0 0.69429,-0.0773 0.99643,-0.22666 0.29893,-0.14934 0.63322,-0.22401 0.9675,-0.22401 0.33428,0 0.66857,0.0747 0.9675,0.22401 0.41143,0.20266 0.9,0.27466 1.36929,0.19733 l 0.8775,-0.14666 1.19571,1.656 c 0.24428,0.28533 0.24107,0.66666 -0.0129,0.94665 z"
         id="path2-6-7-5"
         style="display:inline;fill:#e95420;fill-opacity:1;stroke-width:0.29277;enable-background:new" />
      <path
         d="m 332.5,241.6 -0.63429,-0.704 c -0.26142,-0.21689 -0.66,-0.27023 -0.99,-0.13333 l -0.30428,0.12622 L 329.5,240 h -3 l -1.07143,0.88889 -0.30428,-0.12622 c -0.33,-0.1369 -0.72858,-0.0836 -0.99,0.13333 L 323.5,241.6 l 0.42857,0.53333 -0.42857,0.71112 1.23643,3.10578 c 0.16928,0.40532 0.51,0.74488 0.95786,0.95644 L 328,248 l 2.30571,-1.09333 c 0.44786,-0.21156 0.78858,-0.55112 0.95786,-0.95644 l 1.23643,-3.10578 -0.42857,-0.71112 z m -4.5,5.15555 -1.28571,-1.06666 c 0,0 1.07142,-0.53334 1.28571,-0.53334 0.21429,0 1.28571,0.53334 1.28571,0.53334 z m 2.93143,-3.776 -1.00286,1.10934 0.12214,0.15111 c 0.0879,0.10845 0.13072,0.23467 0.13072,0.35911 0,0.13866 -0.0515,0.27556 -0.15643,0.38934 -0.11143,0.12444 -0.27643,0.224 -0.43714,0.28266 -0.10929,0.0409 -0.21643,0.0622 -0.30215,0.0622 -0.19285,0 -0.56078,-0.28818 -1.07142,-0.59218 v -0.19591 l 0.9675,-0.4816 c 0.0791,-0.0393 0.11892,-0.11627 0.099,-0.19094 l -0.31265,-1.16728 c 0.0373,-0.0722 0.0951,-0.13227 0.18107,-0.17138 l 1.20794,-0.40071 -0.64286,-0.17778 h -0.42858 l -0.003,0.003 c -0.0214,2.9e-4 -0.0433,5e-4 -0.0649,0.007 l -0.64286,0.17778 c -0.10414,0.0288 -0.16522,0.1184 -0.14144,0.20728 l 0.39516,1.47485 -0.82864,0.41245 -0.82887,-0.41263 0.39515,-1.47484 c 0.0238,-0.0889 -0.0373,-0.17831 -0.14144,-0.20729 l -0.64286,-0.17778 c -0.0217,-0.006 -0.0433,-0.007 -0.0649,-0.007 l -0.003,-0.003 h -0.42858 l -0.64286,0.17778 1.20815,0.40053 c 0.0859,0.0391 0.14379,0.0992 0.18107,0.17137 l -0.31264,1.1673 c -0.0199,0.0747 0.0197,0.15164 0.0988,0.19093 l 0.9675,0.4816 v 0.20017 c -0.52435,0.31005 -0.882,0.5881 -1.07142,0.5881 -0.0857,0 -0.19286,-0.0213 -0.30214,-0.0622 -0.16072,-0.0587 -0.32572,-0.15822 -0.43714,-0.28267 -0.1993,-0.21867 -0.21,-0.51911 -0.0257,-0.74844 l 0.12214,-0.15111 -1.00286,-1.10934 c -0.16928,-0.18666 -0.17142,-0.44088 -0.009,-0.63111 l 0.79714,-1.104 0.585,0.0978 c 0.0814,0.0143 0.165,0.0195 0.24857,0.0195 0.23143,0 0.46286,-0.0515 0.66429,-0.1511 0.19928,-0.0996 0.42214,-0.14934 0.645,-0.14934 0.22285,0 0.44571,0.0498 0.645,0.14934 0.27428,0.1351 0.6,0.1831 0.91286,0.13155 l 0.585,-0.0978 0.79714,1.104 c 0.16285,0.19022 0.16071,0.44444 -0.009,0.6311 z"
         id="path2-6-7-5-3"
         style="display:inline;fill:#e95420;fill-opacity:1;stroke-width:0.19518;enable-background:new" />
    </g>
    <g
       style="display:inline"
       inkscape:label="Borders"
       id="layer2"
       inkscape:groupmode="layer">
      <circle
         r="7.5000005"
         cy="244.00002"
         cx="328.00003"
         id="path1377"
         style="display:inline;opacity:0.4;vector-effect:none;fill:none;fill-opacity:1;stroke:#000000;stroke-width:1;stroke-linecap:butt;stroke-linejoin:round;stroke-miterlimit:4;stroke-dasharray:none;stroke-dashoffset:6.5999999;stroke-opacity:1;enable-background:new" />
      <ellipse
         ry="11.476745"
         rx="11.454546"
         cy="199.97676"
         cx="332"
         id="path1384"
         style="display:inline;opacity:0.4;vector-effect:none;fill:none;fill-opacity:1;stroke:#000000;stroke-width:1;stroke-linecap:butt;stroke-linejoin:round;stroke-miterlimit:4;stroke-dasharray:none;stroke-dashoffset:6.5999999;stroke-opacity:1;enable-background:new" />
      <circle
         r="14.5"
         cy="148"
         cx="336"
         id="path1389"
         style="display:inline;opacity:0.4;vector-effect:none;fill:none;fill-opacity:1;stroke:#000000;stroke-width:1;stroke-linecap:butt;stroke-linejoin:round;stroke-miterlimit:4;stroke-dasharray:none;stroke-dashoffset:6.5999999;stroke-opacity:1;enable-background:new" />
      <circle
         r="22.5"
         cy="84"
         cx="344"
         id="path1389-3"
         style="display:inline;opacity:0.4;vector-effect:none;fill:none;fill-opacity:1;stroke:#000000;stroke-width:1;stroke-linecap:butt;stroke-linejoin:round;stroke-miterlimit:4;stroke-dasharray:none;stroke-dashoffset:6.5999999;stroke-opacity:1;enable-background:new" />
      <path
         id="path11042-1-7"
         d="m 152,267.99999 a 112,112 0 0 1 -112,-112 112,112 0 0 1 0.04102,-1.16992 A 112,112 0 0 0 152,265.99999 112,112 0 0 0 263.95898,155.16991 a 112,112 0 0 1 0.041,0.83008 112,112 0 0 1 -112,112 z"
         style="display:inline;opacity:0.2;fill:#000000;fill-opacity:1;stroke:none;stroke-width:1;stroke-linecap:round;stroke-linejoin:round;stroke-miterlimit:4;stroke-dasharray:none;stroke-opacity:1;enable-background:new"
         inkscape:connector-curvature="0" />
      <path
         inkscape:connector-curvature="0"
         id="path11042-1"
         d="M 152,43.999994 A 112,112 0 0 0 40,155.99999 112,112 0 0 0 40.04102,157.16991 112,112 0 0 1 152,45.999994 112,112 0 0 1 263.95898,156.83007 a 112,112 0 0 0 0.041,-0.83008 112,112 0 0 0 -112,-111.999996 z"
         style="display:inline;opacity:0.3;fill:#ffffff;fill-opacity:1;stroke:none;stroke-width:1;stroke-linecap:round;stroke-linejoin:round;stroke-miterlimit:4;stroke-dasharray:none;stroke-opacity:1;enable-background:new" />
    </g>
    <g
       style="display:inline;opacity:0.8"
       inkscape:label="Highlights"
       id="layer5"
       inkscape:groupmode="layer">
      <path
         inkscape:connector-curvature="0"
         id="path9498-1-6"
         d="M 344,62.00002 A 22,21.99999 0 0 0 322,84.000017 22,21.99999 0 0 0 344,106 22,21.99999 0 0 0 366,84.000017 22,21.99999 0 0 0 344,62.00002 Z m 0,0.956532 A 21.043478,21.043469 0 0 1 365.04348,84.000017 21.043478,21.043469 0 0 1 344,105.04348 21.043478,21.043469 0 0 1 322.95652,84.000017 21.043478,21.043469 0 0 1 344,62.956552 Z"
         style="display:inline;opacity:1;fill:url(#linearGradient8590);fill-opacity:1;stroke:none;stroke-width:1.8694036;stroke-linecap:round;stroke-linejoin:round;stroke-miterlimit:4;stroke-dasharray:none;stroke-opacity:1;enable-background:new" />
      <path
         inkscape:connector-curvature="0"
         id="path9498-1-6-7"
         d="m 336,134 c -7.73199,0 -14,6.26802 -14,14 0,7.73198 6.26801,14 14,14 7.73199,0 14,-6.26802 14,-14 0,-7.73198 -6.26801,-14 -14,-14 z m 0,1 a 13,13 0 0 1 13,13 13,13 0 0 1 -13,13 13,13 0 0 1 -13,-13 13,13 0 0 1 13,-13 z"
         style="display:inline;opacity:1;fill:url(#linearGradient8590-3);fill-opacity:1;stroke:none;stroke-width:1.8694036;stroke-linecap:round;stroke-linejoin:round;stroke-miterlimit:4;stroke-dasharray:none;stroke-opacity:1;enable-background:new" />
      <path
         inkscape:connector-curvature="0"
         id="path9498-1-6-7-2"
         d="m 332,189 c -6.07513,0 -11,4.92488 -11,11 0,6.07513 4.92487,11 11,11 6.07513,0 11,-4.92487 11,-11 0,-6.07512 -4.92487,-11 -11,-11 z m 0,1 a 10,10 0 0 1 10,10 10,10 0 0 1 -10,10 10,10 0 0 1 -10,-10 10,10 0 0 1 10,-10 z"
         style="display:inline;opacity:1;fill:url(#linearGradient8590-3-3);fill-opacity:1;stroke:none;stroke-width:1.8694036;stroke-linecap:round;stroke-linejoin:round;stroke-miterlimit:4;stroke-dasharray:none;stroke-opacity:1;enable-background:new" />
      <path
         inkscape:connector-curvature="0"
         id="path9498-1-6-7-2-0"
         d="m 328,237 c -3.86599,0 -7,3.13402 -7,7 0,3.86599 3.13401,7 7,7 3.866,0 7,-3.13401 7,-7 0,-3.86598 -3.134,-7 -7,-7 z m 0,1 a 6,6 0 0 1 6,6 6,6 0 0 1 -6,6 6,6 0 0 1 -6,-6 6,6 0 0 1 6,-6 z"
         style="display:inline;opacity:1;fill:url(#linearGradient8590-3-3-4);fill-opacity:1;stroke:none;stroke-width:1.86940372;stroke-linecap:round;stroke-linejoin:round;stroke-miterlimit:4;stroke-dasharray:none;stroke-opacity:1;enable-background:new" />
    </g>
  </g>
</svg>
