<?xml version="1.0" encoding="UTF-8" standalone="no"?>
<svg
   xmlns:dc="http://purl.org/dc/elements/1.1/"
   xmlns:cc="http://creativecommons.org/ns#"
   xmlns:rdf="http://www.w3.org/1999/02/22-rdf-syntax-ns#"
   xmlns:svg="http://www.w3.org/2000/svg"
   xmlns="http://www.w3.org/2000/svg"
   xmlns:xlink="http://www.w3.org/1999/xlink"
   xmlns:sodipodi="http://sodipodi.sourceforge.net/DTD/sodipodi-0.dtd"
   xmlns:inkscape="http://www.inkscape.org/namespaces/inkscape"
   inkscape:export-ydpi="96"
   inkscape:export-xdpi="96"
   width="400"
   height="300"
   id="svg11300"
   sodipodi:version="0.32"
   inkscape:version="1.0.1 (3bc2e813f5, 2020-09-07)"
   sodipodi:docname="nvidia-settings.svg"
   inkscape:output_extension="org.inkscape.output.svg.inkscape"
   version="1.0"
   style="display:inline;enable-background:new"
   inkscape:export-filename="C:\Users\sblav\Pictures\vertical oblong template.png">
  <title
     id="title3004">Yaru Icon Theme Template</title>
  <sodipodi:namedview
     inkscape:lockguides="true"
     inkscape:document-rotation="0"
     showborder="false"
     inkscape:pagecheckerboard="false"
     inkscape:snap-smooth-nodes="true"
     inkscape:snap-intersection-paths="true"
     inkscape:object-paths="true"
     inkscape:snap-global="true"
     inkscape:snap-bbox-midpoints="true"
     inkscape:bbox-paths="true"
     inkscape:window-maximized="1"
     inkscape:guide-bbox="true"
     showguides="true"
     inkscape:snap-grids="true"
     inkscape:object-nodes="true"
     gridtolerance="10000"
     inkscape:snap-bbox="true"
     inkscape:snap-nodes="true"
     height="300px"
     width="400px"
     inkscape:window-y="27"
     inkscape:window-x="58"
     inkscape:window-height="800"
     inkscape:window-width="1478"
     inkscape:showpageshadow="false"
     inkscape:document-units="px"
     inkscape:grid-bbox="true"
     showgrid="false"
     inkscape:current-layer="layer7"
     inkscape:cy="119.86607"
     inkscape:cx="186.78862"
     inkscape:zoom="1"
     inkscape:pageshadow="2"
     inkscape:pageopacity="0"
     borderopacity="0.25490196"
     bordercolor="#000000"
     pagecolor="#ffffff"
     id="base"
     fill="#f57900"
     stroke="#ef2929">
    <inkscape:grid
       originy="0"
       originx="0"
       snapvisiblegridlinesonly="true"
       empspacing="4"
       visible="true"
       enabled="true"
       type="xygrid"
       id="grid5883"
       spacingx="1"
       spacingy="1" />
    <inkscape:grid
       originy="0"
       originx="0"
       snapvisiblegridlinesonly="true"
       empopacity="0.25098039"
       empcolor="#ff0000"
       opacity="0.1254902"
       color="#ff0000"
       spacingy="0.5"
       spacingx="0.5"
       enabled="false"
       visible="true"
       empspacing="2"
       id="grid11592"
       type="xygrid" />
  </sodipodi:namedview>
  <defs
     id="defs3">
    <linearGradient
       inkscape:collect="always"
       id="linearGradient968">
      <stop
         style="stop-color:#000000;stop-opacity:1"
         offset="0"
         id="stop960" />
      <stop
         id="stop962"
         offset="0.125"
         style="stop-color:#000000;stop-opacity:0.09803922" />
      <stop
         id="stop964"
         offset="0.92500001"
         style="stop-color:#000000;stop-opacity:0.09803922" />
      <stop
         style="stop-color:#000000;stop-opacity:0.49803922"
         offset="1"
         id="stop966" />
    </linearGradient>
    <linearGradient
       inkscape:collect="always"
       id="linearGradient958">
      <stop
         style="stop-color:#000000;stop-opacity:1"
         offset="0"
         id="stop950" />
      <stop
         id="stop952"
         offset="0.125"
         style="stop-color:#000000;stop-opacity:0.09803922" />
      <stop
         id="stop954"
         offset="0.92500001"
         style="stop-color:#000000;stop-opacity:0.09803922" />
      <stop
         style="stop-color:#000000;stop-opacity:0.49803922"
         offset="1"
         id="stop956" />
    </linearGradient>
    <linearGradient
       inkscape:collect="always"
       id="linearGradient948">
      <stop
         style="stop-color:#000000;stop-opacity:1"
         offset="0"
         id="stop940" />
      <stop
         id="stop942"
         offset="0.125"
         style="stop-color:#000000;stop-opacity:0.09803922" />
      <stop
         id="stop944"
         offset="0.92500001"
         style="stop-color:#000000;stop-opacity:0.09803922" />
      <stop
         style="stop-color:#000000;stop-opacity:0.49803922"
         offset="1"
         id="stop946" />
    </linearGradient>
    <linearGradient
       id="linearGradient1133"
       inkscape:collect="always">
      <stop
         id="stop1129"
         offset="0"
         style="stop-color:#3d3d3d;stop-opacity:1" />
      <stop
         id="stop1131"
         offset="1"
         style="stop-color:#2d2d2d;stop-opacity:1" />
    </linearGradient>
    <linearGradient
       id="linearGradient1125"
       inkscape:collect="always">
      <stop
         id="stop1121"
         offset="0"
         style="stop-color:#3d3d3d;stop-opacity:1" />
      <stop
         id="stop1123"
         offset="1"
         style="stop-color:#2d2d2d;stop-opacity:1" />
    </linearGradient>
    <linearGradient
       id="linearGradient1117"
       inkscape:collect="always">
      <stop
         id="stop1113"
         offset="0"
         style="stop-color:#3d3d3d;stop-opacity:1" />
      <stop
         id="stop1115"
         offset="1"
         style="stop-color:#2d2d2d;stop-opacity:1" />
    </linearGradient>
    <linearGradient
       id="linearGradient1109"
       inkscape:collect="always">
      <stop
         id="stop1105"
         offset="0"
         style="stop-color:#3d3d3d;stop-opacity:1" />
      <stop
         id="stop1107"
         offset="1"
         style="stop-color:#2d2d2d;stop-opacity:1" />
    </linearGradient>
    <linearGradient
       id="linearGradient1061"
       inkscape:collect="always">
      <stop
         id="stop1057"
         offset="0"
         style="stop-color:#3d3d3d;stop-opacity:1" />
      <stop
         id="stop1059"
         offset="1"
         style="stop-color:#2d2d2d;stop-opacity:1" />
    </linearGradient>
    <clipPath
       id="clipPath9430"
       clipPathUnits="userSpaceOnUse">
      <path
         style="color:#000000;display:inline;overflow:visible;visibility:visible;fill:#ffffff;fill-opacity:1;fill-rule:nonzero;stroke:none;stroke-width:1;marker:none;enable-background:new"
         d="m 166.0625,-196 h 179.875 C 491.2348,-196 512,-175.28677 512,-30.125 v 148.25 C 512,263.28618 491.2348,284 345.9375,284 H 166.0625 C 20.7652,284 0,263.28618 0,118.125 V -30.125 C 0,-175.28677 20.7652,-196 166.0625,-196 Z"
         id="path9432"
         inkscape:connector-curvature="0"
         sodipodi:nodetypes="sssssssss" />
    </clipPath>
    <clipPath
       id="clipPath1082"
       clipPathUnits="userSpaceOnUse">
      <path
         style="display:inline;opacity:1;fill:#8c59d9;fill-opacity:1;stroke:none;stroke-width:2;stroke-linecap:round;stroke-linejoin:round;stroke-miterlimit:4;stroke-dasharray:none;stroke-dashoffset:0;stroke-opacity:1;enable-background:new"
         d="M 361.9375,-212 C 507.2348,-212 528,-191.28677 528,-46.125 V 70.125 C 528,215.28618 507.2348,236 361.9375,236 H 214.0625 C 68.7652,236 48,215.28618 48,70.125 V -46.125 C 48,-191.28677 68.7652,-212 214.0625,-212 Z"
         id="path1084"
         inkscape:connector-curvature="0"
         sodipodi:nodetypes="sssssssss" />
    </clipPath>
    <linearGradient
       id="linearGradient927"
       inkscape:collect="always">
      <stop
         id="stop923"
         offset="0"
         style="stop-color:#000000;stop-opacity:1" />
      <stop
         style="stop-color:#000000;stop-opacity:0.09803922"
         offset="0.125"
         id="stop933" />
      <stop
         style="stop-color:#000000;stop-opacity:0.09803922"
         offset="0.92500001"
         id="stop931" />
      <stop
         id="stop925"
         offset="1"
         style="stop-color:#000000;stop-opacity:0.49803922" />
    </linearGradient>
    <clipPath
       id="clipPath994"
       clipPathUnits="userSpaceOnUse">
      <path
         sodipodi:nodetypes="scccssscsss"
         inkscape:connector-curvature="0"
         id="path996"
         d="m 335.73108,62 c -8.82418,0 -9.77365,0.90635 -9.7304,9.74838 V 84 96.25162 c -0.0433,8.84203 0.90622,9.74838 9.7304,9.74838 h 16.53919 c 8.82418,0 9.7304,-0.90625 9.7304,-9.74838 V 84 71.74838 C 362.00067,62.90625 361.09445,62 352.27027,62 Z"
         style="color:#000000;display:inline;overflow:visible;visibility:visible;fill:#cdcdcd;fill-opacity:1;fill-rule:nonzero;stroke:none;stroke-width:2;stroke-miterlimit:4;stroke-dasharray:none;stroke-opacity:1;marker:none;enable-background:accumulate" />
    </clipPath>
    <clipPath
       id="clipPath959"
       clipPathUnits="userSpaceOnUse">
      <path
         sodipodi:nodetypes="scccssscsss"
         inkscape:connector-curvature="0"
         id="path961"
         d="m 330.1929,133.99999 c -5.61538,0 -6.21958,0.57678 -6.19206,6.20352 v 7.79648 7.79648 c -0.0276,5.62673 0.57668,6.20351 6.19206,6.20351 h 11.615 c 5.6154,0 6.19208,-0.5767 6.19208,-6.20351 v -7.79648 -7.79648 c 0,-5.6268 -0.5767,-6.20352 -6.19208,-6.20352 z"
         style="color:#000000;display:inline;overflow:visible;visibility:visible;opacity:1;fill:#46a926;fill-opacity:1;fill-rule:nonzero;stroke:none;stroke-width:2;stroke-miterlimit:4;stroke-dasharray:none;stroke-opacity:1;marker:none;enable-background:accumulate" />
    </clipPath>
    <clipPath
       id="clipPath971"
       clipPathUnits="userSpaceOnUse">
      <path
         sodipodi:nodetypes="scccssscsss"
         inkscape:connector-curvature="0"
         id="path973"
         d="m 327.8652,189 c -4.41209,0 -4.88682,0.45318 -4.8652,4.87419 V 200 206.12581 C 322.9783,210.54682 323.45311,211 327.8652,211 h 8.2696 C 340.54689,211 341,210.54688 341,206.12581 V 200 193.87419 C 341,189.45313 340.54688,189 336.13479,189 Z"
         style="color:#000000;display:inline;overflow:visible;visibility:visible;opacity:1;fill:#46a926;fill-opacity:1;fill-rule:nonzero;stroke:none;stroke-width:2;stroke-miterlimit:4;stroke-dasharray:none;stroke-opacity:1;marker:none;enable-background:accumulate" />
    </clipPath>
    <linearGradient
       id="linearGradient4336-3">
      <stop
         id="stop4338-8"
         offset="0"
         style="stop-color:#5884f4;stop-opacity:1" />
      <stop
         style="stop-color:#5884f4;stop-opacity:1"
         offset="0.27800092"
         id="stop4344-3" />
      <stop
         id="stop4346-3"
         offset="0.27800092"
         style="stop-color:#2f5fdd;stop-opacity:1" />
      <stop
         style="stop-color:#2f5fdd;stop-opacity:1"
         offset="0.70735365"
         id="stop4350-1" />
      <stop
         style="stop-color:#234db8;stop-opacity:1"
         offset="0.70936078"
         id="stop4348-6" />
      <stop
         id="stop4340-0"
         offset="1"
         style="stop-color:#234db8;stop-opacity:1" />
    </linearGradient>
    <clipPath
       id="clipPath994-1"
       clipPathUnits="userSpaceOnUse">
      <path
         sodipodi:nodetypes="scccssscsss"
         inkscape:connector-curvature="0"
         id="path996-8"
         d="m 335.73108,62 c -8.82418,0 -9.77365,0.90635 -9.7304,9.74838 V 84 96.25162 c -0.0433,8.84203 0.90622,9.74838 9.7304,9.74838 h 16.53919 c 8.82418,0 9.7304,-0.90625 9.7304,-9.74838 V 84 71.74838 C 362.00067,62.90625 361.09445,62 352.27027,62 Z"
         style="color:#000000;display:inline;overflow:visible;visibility:visible;fill:#cdcdcd;fill-opacity:1;fill-rule:nonzero;stroke:none;stroke-width:2;stroke-miterlimit:4;stroke-dasharray:none;stroke-opacity:1;marker:none;enable-background:accumulate" />
    </clipPath>
    <linearGradient
       id="linearGradient3797-5">
      <stop
         style="stop-color:#f7f7f7;stop-opacity:1"
         offset="0"
         id="stop3801" />
      <stop
         style="stop-color:#e6e6e6;stop-opacity:1"
         offset="1"
         id="stop3799" />
    </linearGradient>
    <linearGradient
       gradientTransform="rotate(90,328.00032,244.00001)"
       gradientUnits="userSpaceOnUse"
       y2="244.00034"
       x2="335.00031"
       y1="244.00034"
       x1="321.00031"
       id="linearGradient1692-6"
       xlink:href="#linearGradient927"
       inkscape:collect="always" />
    <linearGradient
       gradientTransform="rotate(90,331.99929,199.99999)"
       gradientUnits="userSpaceOnUse"
       y2="199.99928"
       x2="342.9993"
       y1="199.99928"
       x1="320.9993"
       id="linearGradient1690-9"
       xlink:href="#linearGradient968"
       inkscape:collect="always" />
    <linearGradient
       gradientTransform="rotate(90,336.00001,148)"
       gradientUnits="userSpaceOnUse"
       y2="148.00002"
       x2="350"
       y1="148.00002"
       x1="322"
       id="linearGradient1688-4"
       xlink:href="#linearGradient958"
       inkscape:collect="always" />
    <linearGradient
       gradientTransform="rotate(90,344.00003,84.000125)"
       gradientUnits="userSpaceOnUse"
       y2="84.000153"
       x2="365.99991"
       y1="84.000153"
       x1="321.99991"
       id="linearGradient1686-0"
       xlink:href="#linearGradient948"
       inkscape:collect="always" />
    <filter
       height="1.0960012"
       y="-0.048000575"
       width="1.0959988"
       x="-0.047999425"
       id="filter58449"
       style="color-interpolation-filters:sRGB"
       inkscape:collect="always">
      <feGaussianBlur
         id="feGaussianBlur58451"
         stdDeviation="4.4800539"
         inkscape:collect="always" />
    </filter>
    <filter
       height="1.0240003"
       y="-0.012000144"
       width="1.0239997"
       x="-0.011999856"
       id="filter58492"
       style="color-interpolation-filters:sRGB"
       inkscape:collect="always">
      <feGaussianBlur
         id="feGaussianBlur58494"
         stdDeviation="1.1200135"
         inkscape:collect="always" />
    </filter>
    <linearGradient
       gradientUnits="userSpaceOnUse"
       y2="155.9997"
       x2="263.99999"
       y1="155.9997"
       x1="39.994608"
       id="linearGradient1063"
       xlink:href="#linearGradient1061"
       inkscape:collect="always" />
    <linearGradient
       gradientUnits="userSpaceOnUse"
       y2="84.000119"
       x2="366.50002"
       y1="84.000119"
       x1="321.50004"
       id="linearGradient1111"
       xlink:href="#linearGradient1109"
       inkscape:collect="always" />
    <linearGradient
       gradientUnits="userSpaceOnUse"
       y2="148"
       x2="350.50001"
       y1="148"
       x1="321.50003"
       id="linearGradient1119"
       xlink:href="#linearGradient1117"
       inkscape:collect="always" />
    <linearGradient
       gradientUnits="userSpaceOnUse"
       y2="200.0003"
       x2="343.49777"
       y1="200.0003"
       x1="320.50088"
       id="linearGradient1127"
       xlink:href="#linearGradient1125"
       inkscape:collect="always" />
    <linearGradient
       gradientUnits="userSpaceOnUse"
       y2="244.00001"
       x2="335.42859"
       y1="244.00001"
       x1="320.57205"
       id="linearGradient1135"
       xlink:href="#linearGradient1133"
       inkscape:collect="always" />
  </defs>
  <metadata
     id="metadata4">
    <rdf:RDF>
      <cc:Work
         rdf:about="">
        <dc:format>image/svg+xml</dc:format>
        <dc:type
           rdf:resource="http://purl.org/dc/dcmitype/StillImage" />
        <dc:creator>
          <cc:Agent>
            <dc:title>Yaru Team, based on the Suru template by Sam Hewitt and original Suru designs by Matthieu James</dc:title>
          </cc:Agent>
        </dc:creator>
        <dc:source />
        <cc:license
           rdf:resource="http://creativecommons.org/licenses/by-sa/4.0/" />
        <dc:title>Yaru Icon Theme Template</dc:title>
        <dc:subject>
          <rdf:Bag />
        </dc:subject>
        <dc:date />
        <dc:rights>
          <cc:Agent>
            <dc:title />
          </cc:Agent>
        </dc:rights>
        <dc:publisher>
          <cc:Agent>
            <dc:title />
          </cc:Agent>
        </dc:publisher>
        <dc:identifier />
        <dc:relation />
        <dc:language />
        <dc:coverage />
        <dc:description />
        <dc:contributor>
          <cc:Agent>
            <dc:title />
          </cc:Agent>
        </dc:contributor>
      </cc:Work>
      <cc:Work
         rdf:about="">
        <dc:format>image/svg+xml</dc:format>
        <dc:type
           rdf:resource="http://purl.org/dc/dcmitype/StillImage" />
      </cc:Work>
      <cc:License
         rdf:about="http://creativecommons.org/licenses/by-sa/4.0/">
        <cc:permits
           rdf:resource="http://creativecommons.org/ns#Reproduction" />
        <cc:permits
           rdf:resource="http://creativecommons.org/ns#Distribution" />
        <cc:requires
           rdf:resource="http://creativecommons.org/ns#Notice" />
        <cc:requires
           rdf:resource="http://creativecommons.org/ns#Attribution" />
        <cc:permits
           rdf:resource="http://creativecommons.org/ns#DerivativeWorks" />
        <cc:requires
           rdf:resource="http://creativecommons.org/ns#ShareAlike" />
      </cc:License>
    </rdf:RDF>
  </metadata>
  <g
     id="layer1"
     inkscape:label="Icon"
     inkscape:groupmode="layer"
     style="display:inline">
    <g
       inkscape:groupmode="layer"
       id="layer7"
       inkscape:label="Baseplate"
       style="display:none">
      <text
         id="context"
         inkscape:label="context"
         style="font-style:normal;font-variant:normal;font-weight:normal;font-stretch:normal;line-height:0%;font-family:'DejaVu Sans';-inkscape-font-specification:'DejaVu Sans';display:inline;fill:#000000;fill-opacity:1;stroke:none;enable-background:new"
         x="19.006836"
         xml:space="preserve"
         y="-8.2548828"><tspan
           id="tspan3933"
           sodipodi:role="line"
           x="19.006836"
           y="-8.2548828"
           style="font-style:normal;font-variant:normal;font-weight:normal;font-stretch:normal;font-size:18px;line-height:1.25;font-family:'DejaVu Sans';-inkscape-font-specification:'DejaVu Sans'">apps</tspan></text>
      <text
         id="icon-name"
         inkscape:label="icon-name"
         style="font-style:normal;font-variant:normal;font-weight:bold;font-stretch:normal;line-height:0%;font-family:'DejaVu Sans';-inkscape-font-specification:'DejaVu Sans Bold';text-align:start;writing-mode:lr-tb;text-anchor:start;display:inline;fill:#000000;fill-opacity:1;stroke:none;enable-background:new"
         x="146.48828"
         xml:space="preserve"
         y="-8.2548828"><tspan
           id="tspan3937"
           sodipodi:role="line"
           x="146.48828"
           y="-8.2548828"
           style="font-style:normal;font-variant:normal;font-weight:bold;font-stretch:normal;font-size:18px;line-height:1.25;font-family:'DejaVu Sans';-inkscape-font-specification:'DejaVu Sans Bold'">nvidia-settings</tspan></text>
      <rect
         inkscape:label="16x16"
         y="236"
         x="320"
         height="16"
         width="16"
         id="rect16x16"
         style="display:inline;overflow:visible;visibility:visible;fill:#cdcdcd;fill-opacity:1;fill-rule:nonzero;stroke:none;stroke-width:2;marker:none;enable-background:accumulate" />
      <rect
         inkscape:label="24x24"
         y="188"
         x="320"
         height="24"
         width="24"
         id="rect24x24"
         style="display:inline;overflow:visible;visibility:visible;fill:#cdcdcd;fill-opacity:1;fill-rule:nonzero;stroke:none;stroke-width:2;marker:none;enable-background:accumulate" />
      <rect
         inkscape:label="32x32"
         y="132"
         x="320"
         height="32"
         width="32"
         id="rect32x32"
         style="display:inline;overflow:visible;visibility:visible;fill:#cdcdcd;fill-opacity:1;fill-rule:nonzero;stroke:none;stroke-width:2;marker:none;enable-background:accumulate" />
      <rect
         style="display:inline;overflow:visible;visibility:visible;fill:#cdcdcd;fill-opacity:1;fill-rule:nonzero;stroke:none;stroke-width:2;marker:none;enable-background:accumulate"
         id="rect48x48"
         width="48"
         height="48"
         x="320"
         y="60"
         inkscape:label="48x48" />
      <rect
         inkscape:label="48x48"
         y="28"
         x="24"
         height="256"
         width="256"
         id="rect3951"
         style="display:inline;overflow:visible;visibility:visible;fill:#cdcdcd;fill-opacity:1;fill-rule:nonzero;stroke:none;stroke-width:2;marker:none;enable-background:accumulate" />
    </g>
    <g
       style="display:none"
       inkscape:label="Optional outline for white icons"
       id="layer9"
       inkscape:groupmode="layer">
      <path
         sodipodi:nodetypes="scccssscsss"
         inkscape:connector-curvature="0"
         id="rect4158-9"
         d="m 225.07297,43.99969 c 35.29673,0 39.09461,3.62542 38.92162,38.99353 v 73.00647 73.00648 c 0.17299,35.36812 -3.62489,38.99353 -38.92162,38.99353 H 78.916218 c -35.29671,0 -38.92161,-3.625 -38.92161,-38.99353 V 155.99969 82.99322 c 0,-35.36853 3.6249,-38.99353 38.92161,-38.99353 z"
         style="color:#000000;display:inline;overflow:visible;visibility:visible;opacity:0.2;fill:#000000;fill-opacity:1;fill-rule:nonzero;stroke:#000000;stroke-width:4;stroke-miterlimit:4;stroke-dasharray:none;marker:none;enable-background:accumulate" />
    </g>
    <g
       style="display:inline"
       inkscape:label="Backgrounds"
       id="layer8"
       inkscape:groupmode="layer">
      <path
         sodipodi:nodetypes="scccssscsss"
         inkscape:connector-curvature="0"
         id="rect4158-7"
         d="m 225.07297,44.99999 c 35.29673,0 39.09461,3.62542 38.92162,38.99353 v 73.00647 73.00648 C 264.16758,265.37459 260.3697,269 225.07297,269 H 78.916218 c -35.29671,0 -38.92161,-3.625 -38.92161,-38.99353 V 156.99999 83.99352 c 0,-35.36853 3.6249,-38.99353 38.92161,-38.99353 z"
         style="color:#000000;display:inline;overflow:visible;visibility:visible;opacity:0.1;fill:#000000;fill-opacity:1;fill-rule:nonzero;stroke:none;stroke-width:1;marker:none;filter:url(#filter58492);enable-background:accumulate" />
      <path
         sodipodi:nodetypes="scccssscsss"
         inkscape:connector-curvature="0"
         id="rect4158-1"
         d="m 225.07297,44.99999 c 35.29673,0 39.09461,3.62542 38.92162,38.99353 v 73.00647 73.00648 C 264.16758,265.37459 260.3697,269 225.07297,269 H 78.916218 c -35.29671,0 -38.92161,-3.625 -38.92161,-38.99353 V 156.99999 83.99352 c 0,-35.36853 3.6249,-38.99353 38.92161,-38.99353 z"
         style="color:#000000;display:inline;overflow:visible;visibility:visible;opacity:0.2;fill:#000000;fill-opacity:1;fill-rule:nonzero;stroke:none;stroke-width:1;marker:none;filter:url(#filter58449);enable-background:accumulate" />
      <path
         sodipodi:nodetypes="scccssscsss"
         inkscape:connector-curvature="0"
         id="path918-2"
         d="m 324.12858,237.00001 c -3.74357,0 -4.14638,0.30899 -4.12803,3.32331 v 4.17669 4.17668 c -0.0183,3.01433 0.38446,3.32332 4.12803,3.32332 h 7.74335 c 3.7436,0 4.12805,-0.30895 4.12805,-3.32332 v -4.17668 -4.17669 c 0,-3.01437 -0.38446,-3.32331 -4.12805,-3.32331 z"
         style="color:#000000;display:inline;overflow:visible;visibility:visible;opacity:0.1;fill:#000000;fill-opacity:1;fill-rule:nonzero;stroke:none;stroke-width:1;marker:none;enable-background:accumulate" />
      <path
         sodipodi:nodetypes="sccccccccssscccscscccss"
         inkscape:connector-curvature="0"
         id="path995"
         d="m 326.45275,189.00048 c -1.2321,0 -2.21668,0.0221 -3.06999,0.14144 -0.85332,0.11937 -1.62809,0.35533 -2.21066,0.83967 -0.58256,0.48436 -0.86983,1.13381 -1.01188,1.84587 -0.14202,0.71207 -0.16501,1.53239 -0.15897,2.56202 v 7.61066 4.6143 c -0.006,1.02762 0.0171,1.84735 0.15897,2.55843 0.14203,0.71208 0.42931,1.36152 1.01188,1.84587 0.58258,0.48434 1.35734,0.7203 2.21066,0.83967 0.85331,0.11936 1.83789,0.14144 3.06999,0.14144 h 11.09542 c 1.2321,0 2.21381,-0.022 3.0657,-0.14144 0.85187,-0.11947 1.62795,-0.35683 2.2085,-0.84146 0.58057,-0.48464 0.86451,-1.13152 1.00758,-1.84228 0.14307,-0.71077 0.16972,-1.5314 0.16972,-2.56023 v -4.61429 -7.61425 c 0,-1.02883 -0.0266,-1.84946 -0.16972,-2.56023 -0.14307,-0.71076 -0.42701,-1.35765 -1.00758,-1.84228 -0.58055,-0.48464 -1.35661,-0.722 -2.2085,-0.84147 -0.8519,-0.11947 -1.83359,-0.14144 -3.0657,-0.14144 z"
         style="color:#000000;font-style:normal;font-variant:normal;font-weight:normal;font-stretch:normal;font-size:medium;line-height:normal;font-family:sans-serif;font-variant-ligatures:normal;font-variant-position:normal;font-variant-caps:normal;font-variant-numeric:normal;font-variant-alternates:normal;font-feature-settings:normal;text-indent:0;text-align:start;text-decoration:none;text-decoration-line:none;text-decoration-style:solid;text-decoration-color:#000000;letter-spacing:normal;word-spacing:normal;text-transform:none;writing-mode:lr-tb;direction:ltr;text-orientation:mixed;dominant-baseline:auto;baseline-shift:baseline;text-anchor:start;white-space:normal;shape-padding:0;clip-rule:nonzero;display:inline;overflow:visible;visibility:visible;opacity:0.1;isolation:auto;mix-blend-mode:normal;color-interpolation:sRGB;color-interpolation-filters:linearRGB;solid-color:#000000;solid-opacity:1;vector-effect:none;fill:#000000;fill-opacity:1;fill-rule:nonzero;stroke:none;stroke-width:2;stroke-linecap:butt;stroke-linejoin:miter;stroke-miterlimit:4;stroke-dasharray:none;stroke-dashoffset:0;stroke-opacity:1;marker:none;color-rendering:auto;image-rendering:auto;shape-rendering:auto;text-rendering:auto;enable-background:accumulate" />
      <path
         sodipodi:nodetypes="scscccccscsscccscscscss"
         inkscape:connector-curvature="0"
         id="path999"
         d="m 329.30094,134 c -1.63949,0 -2.94082,0.0308 -4.04505,0.19141 -1.10422,0.16064 -2.06697,0.4726 -2.78308,1.09179 -0.71611,0.61919 -1.0805,1.45612 -1.26421,2.41407 -0.18374,0.95795 -0.21537,2.08705 -0.20733,3.51171 V 149 v 7.79688 c -0.009,1.42131 0.0239,2.5495 0.20733,3.50585 0.18371,0.95796 0.5481,1.79488 1.26421,2.41407 0.71611,0.61919 1.67886,0.93115 2.78308,1.09179 1.10423,0.16065 2.40556,0.19141 4.04505,0.19141 h 13.40164 c 1.63949,0 2.93835,-0.0307 4.04054,-0.19141 1.10219,-0.16075 2.06274,-0.47425 2.77633,-1.09375 0.71357,-0.6195 1.07457,-1.45363 1.25969,-2.41015 C 350.96429,159.34816 351,158.22066 351,156.79688 V 149 141.20312 c 0,-1.42378 -0.0358,-2.55128 -0.22086,-3.50781 -0.18512,-0.95653 -0.54612,-1.79065 -1.25969,-2.41015 -0.71359,-0.61951 -1.67414,-0.933 -2.77633,-1.09375 C 345.64093,134.03065 344.34207,134 342.70258,134 Z"
         style="color:#000000;font-style:normal;font-variant:normal;font-weight:normal;font-stretch:normal;font-size:medium;line-height:normal;font-family:sans-serif;font-variant-ligatures:normal;font-variant-position:normal;font-variant-caps:normal;font-variant-numeric:normal;font-variant-alternates:normal;font-feature-settings:normal;text-indent:0;text-align:start;text-decoration:none;text-decoration-line:none;text-decoration-style:solid;text-decoration-color:#000000;letter-spacing:normal;word-spacing:normal;text-transform:none;writing-mode:lr-tb;direction:ltr;text-orientation:mixed;dominant-baseline:auto;baseline-shift:baseline;text-anchor:start;white-space:normal;shape-padding:0;clip-rule:nonzero;display:inline;overflow:visible;visibility:visible;opacity:0.1;isolation:auto;mix-blend-mode:normal;color-interpolation:sRGB;color-interpolation-filters:linearRGB;solid-color:#000000;solid-opacity:1;vector-effect:none;fill:#000000;fill-opacity:1;fill-rule:nonzero;stroke:none;stroke-width:2;stroke-linecap:butt;stroke-linejoin:miter;stroke-miterlimit:4;stroke-dasharray:none;stroke-dashoffset:0;stroke-opacity:1;marker:none;color-rendering:auto;image-rendering:auto;shape-rendering:auto;text-rendering:auto;enable-background:accumulate" />
      <path
         sodipodi:nodetypes="sccsccccccsscccscsccsss"
         inkscape:connector-curvature="0"
         id="path1020"
         d="m 333.65776,62 c -2.6221,0 -4.68675,0.05009 -6.38561,0.286735 -1.69887,0.236639 -3.08904,0.680503 -4.10735,1.523515 -1.0183,0.843013 -1.55577,1.996072 -1.83828,3.406406 -0.28252,1.410336 -0.33767,3.127346 -0.32482,5.308412 v 12.474816 12.480783 c -0.0127,2.177715 0.0426,3.893853 0.32482,5.302673 0.28251,1.41034 0.81998,2.5634 1.83828,3.40641 1.01831,0.84301 2.40848,1.28688 4.10735,1.52351 1.69888,0.23665 3.76351,0.28674 6.38561,0.28674 h 20.68618 c 2.62213,0 4.68568,-0.05 6.38104,-0.28674 1.69534,-0.23674 3.08126,-0.6821 4.09581,-1.52542 1.01457,-0.84331 1.54885,-1.99555 1.83367,-3.4045 C 366.93929,101.37441 367,99.660878 367,97.480667 V 84.999884 72.519333 c 0,-2.180211 -0.0608,-3.893733 -0.34554,-5.302677 -0.28482,-1.408942 -0.81911,-2.561177 -1.83368,-3.404494 -1.01455,-0.843317 -2.40047,-1.288685 -4.09582,-1.525427 C 359.02962,62.049992 356.96605,62 354.34394,62 Z"
         style="color:#000000;font-style:normal;font-variant:normal;font-weight:normal;font-stretch:normal;font-size:medium;line-height:normal;font-family:sans-serif;font-variant-ligatures:normal;font-variant-position:normal;font-variant-caps:normal;font-variant-numeric:normal;font-variant-alternates:normal;font-feature-settings:normal;text-indent:0;text-align:start;text-decoration:none;text-decoration-line:none;text-decoration-style:solid;text-decoration-color:#000000;letter-spacing:normal;word-spacing:normal;text-transform:none;writing-mode:lr-tb;direction:ltr;text-orientation:mixed;dominant-baseline:auto;baseline-shift:baseline;text-anchor:start;white-space:normal;shape-padding:0;clip-rule:nonzero;display:inline;overflow:visible;visibility:visible;opacity:0.1;isolation:auto;mix-blend-mode:normal;color-interpolation:sRGB;color-interpolation-filters:linearRGB;solid-color:#000000;solid-opacity:1;vector-effect:none;fill:#000000;fill-opacity:1;fill-rule:nonzero;stroke:none;stroke-width:2.00000024;stroke-linecap:butt;stroke-linejoin:miter;stroke-miterlimit:4;stroke-dasharray:none;stroke-dashoffset:0;stroke-opacity:1;marker:none;color-rendering:auto;image-rendering:auto;shape-rendering:auto;text-rendering:auto;enable-background:accumulate" />
      <path
         sodipodi:nodetypes="scccssscsss"
         inkscape:connector-curvature="0"
         id="path964"
         d="m 333.33517,61.500049 c -10.01116,0 -11.88667,0.90635 -11.83407,9.74838 v 12.75157 12.75181 c -0.0527,8.842031 1.82291,9.748381 11.83407,9.748381 h 21.3308 c 10.00866,0 11.83405,-0.90625 11.83405,-9.748381 v -12.75181 -12.75157 c 0,-8.84213 -1.82539,-9.74838 -11.83406,-9.74838 z"
         style="color:#000000;display:inline;overflow:visible;visibility:visible;fill:url(#linearGradient1111);fill-opacity:1;fill-rule:nonzero;stroke:none;stroke-width:1;marker:none;enable-background:accumulate" />
      <path
         sodipodi:nodetypes="scccssscsss"
         inkscape:connector-curvature="0"
         id="rect4158"
         d="m 225.07297,43.999694 c 35.29673,0 39.09461,3.62542 38.92162,38.99353 v 73.006466 73.00648 c 0.17299,35.36812 -3.62489,38.99353 -38.92162,38.99353 H 78.916218 c -35.29671,0 -38.92161,-3.625 -38.92161,-38.99353 V 155.99969 82.993224 c 0,-35.36853 3.6249,-38.99353 38.92161,-38.99353 z"
         style="color:#000000;display:inline;overflow:visible;visibility:visible;fill:url(#linearGradient1063);fill-opacity:1;fill-rule:nonzero;stroke:none;stroke-width:1;marker:none;enable-background:accumulate" />
      <path
         style="color:#000000;display:inline;overflow:visible;visibility:visible;fill:url(#linearGradient1127);fill-opacity:1;fill-rule:nonzero;stroke:none;stroke-width:0.99999988;marker:none;enable-background:accumulate"
         d="m 326.17688,188.49945 c -5.14666,0 -5.70043,0.43262 -5.67521,4.65309 v 5.84793 7.84761 c -0.0253,4.22046 0.52855,4.65307 5.67521,4.65307 h 11.64568 c 5.14665,0 5.67521,-0.43255 5.67521,-4.65307 v -7.84761 -5.84793 c 0,-4.22051 -0.52857,-4.65309 -5.67522,-4.65309 z"
         id="path914"
         inkscape:connector-curvature="0"
         sodipodi:nodetypes="scccssscsss" />
      <path
         sodipodi:nodetypes="scccssscsss"
         inkscape:connector-curvature="0"
         id="path918"
         d="m 324.4056,236.50001 c -3.47604,0 -3.85006,0.30899 -3.83302,3.32331 v 4.17669 4.17668 c -0.017,3.01433 0.35698,3.32332 3.83302,3.32332 h 7.18996 c 3.47605,0 3.83303,-0.30895 3.83303,-3.32332 v -4.17668 -4.17669 c 0,-3.01436 -0.35699,-3.32331 -3.83303,-3.32331 z"
         style="color:#000000;display:inline;overflow:visible;visibility:visible;fill:url(#linearGradient1135);fill-opacity:1;fill-rule:nonzero;stroke:none;stroke-width:1;marker:none;enable-background:accumulate" />
      <path
         sodipodi:nodetypes="scccssscsss"
         inkscape:connector-curvature="0"
         id="path964-7"
         d="m 329.12711,133.5 c -6.45163,0 -7.6603,0.58409 -7.62639,6.28227 v 8.21765 8.21781 c -0.034,5.69818 1.17476,6.28227 7.62639,6.28227 h 13.74651 c 6.45003,0 7.62639,-0.58403 7.62639,-6.28227 v -8.21781 -8.21765 c 0,-5.69824 -1.17636,-6.28227 -7.62639,-6.28227 z"
         style="color:#000000;display:inline;overflow:visible;visibility:visible;fill:url(#linearGradient1119);fill-opacity:1;fill-rule:nonzero;stroke:none;stroke-width:1;marker:none;enable-background:accumulate" />
      <path
         d="m 262.62695,171.04297 a 82.713174,75.185021 0 0 0 -2.41406,0.72461 c -3.15132,1.03868 -6.38638,1.86419 -9.56641,2.82812 -5.52771,2.26954 -11.02437,4.58169 -16.51367,6.92578 -2.73029,1.58615 -5.54931,3.02793 -8.45117,4.33985 -6.67035,4.08715 -13.22632,8.31211 -19.50586,12.88476 3.08332,13.04181 9.49735,25.32573 17.55078,36.4336 3.67031,4.6819 7.40805,9.42484 12.16016,13.26562 -0.22551,-3.59559 -1.06963,-7.14283 -1.0918,-10.75195 -0.67718,-9.88346 -0.92969,-19.81517 -0.27539,-29.69922 0.0748,-1.07966 1.36718,-1.56547 2.13477,-2.22852 8.09853,-5.30449 16.722,-10.07424 25.97851,-13.50585 l 0.67188,-0.4375 V 171.125 Z m -147.47461,42.29101 c -1.18829,0.12333 -2.37024,0.26408 -3.54296,0.44141 -4.8808,1.01139 -9.73001,2.22779 -14.730474,2.66602 -0.26335,0.014 -0.79884,0.0544 -1.0625,0.0684 -4.64733,0.43057 -9.157861,1.61992 -13.759765,2.29687 -0.947423,0.14379 -1.895556,0.2807 -2.84375,0.4043 -3.263313,0.389 -6.233565,1.72838 -9.21875,2.89062 16.272215,16.17956 33.298809,31.94269 53.052739,44.64258 15.31784,-0.0275 30.64184,0.1229 45.96679,-0.082 -0.39071,-0.32838 -1.158,-0.97186 -1.54101,-1.29297 -0.93248,-0.77209 -1.88663,-1.51039 -2.84961,-2.22852 -1.33859,-0.99806 -2.67816,-1.98884 -4.00196,-2.99414 -1.03767,-0.78563 -2.05233,-1.59236 -3.05273,-2.4121 a 678.44649,616.69758 0 0 1 -3.48828,-2.9668 c -0.88736,-0.7448 -1.76609,-1.49522 -2.63867,-2.24024 -1.20261,-1.01845 -2.42347,-2.0233 -3.61914,-3.04882 -1.03752,-0.89605 -2.03686,-1.81907 -3.03711,-2.74219 a 222.19157,201.96876 0 0 1 -3.44922,-3.28711 c -0.80481,-0.77207 -1.6024,-1.53808 -2.39258,-2.31055 -1.20276,-1.17537 -2.37533,-2.36539 -3.54883,-3.55469 -0.85718,-0.86763 -1.72241,-1.72373 -2.55664,-2.60546 -1.00825,-1.08005 -1.99338,-2.1742 -2.97851,-3.26758 -0.84165,-0.93608 -1.69147,-1.8643 -2.5254,-2.80078 -0.98531,-1.11419 -1.94089,-2.23518 -2.89648,-3.36328 -1.01472,-1.22365 -2.04461,-2.43916 -3.0293,-3.6836 -0.85764,-1.10103 -1.68552,-2.21475 -2.53515,-3.32226 -0.6924,-0.90175 -1.40792,-1.7917 -2.04688,-2.72071 -0.54902,-0.84131 -1.07985,-1.67934 -1.67383,-2.48633 z"
         style="fill:#76b900;stroke-width:0.205745;fill-opacity:1"
         id="path40" />
      <path
         d="m 126.73209,63.000008 c -1.6905,0.03054 -3.39045,0.05389 -5.08117,0.06179 -0.0347,1.274912 -0.0668,2.55039 -0.0756,3.825302 0,1.784136 0.0263,3.560755 0.0183,5.345539 0.009,2.587519 -0.009,5.166778 -0.0183,7.747418 0.008,1.745772 0.0275,3.492176 0.0275,5.230186 0,2.387118 -0.004,4.774599 -0.055,7.162396 1.69984,0.05333 3.40193,0.09218 5.10176,0.146265 0.051,-0.06172 0.17325,-0.195645 0.22432,-0.257497 -0.0431,-1.776592 -0.13312,-3.551997 -0.14191,-5.320821 0,-2.402636 0.037,-4.796847 0.0458,-7.199479 -0.008,-1.761296 -0.0252,-3.529322 -0.0252,-5.298159 -0.008,-2.572224 0.009,-5.145428 0.0343,-7.710343 -0.009,-1.24387 -0.029,-2.488718 -0.055,-3.732605 z m -34.915935,0.01034 c 0.454958,1.150991 0.893649,2.30127 1.332094,3.460693 0.515309,1.428543 0.998136,2.874001 1.522071,4.303205 0.720728,1.984975 1.448813,3.967777 2.169795,5.944978 0.481058,1.274927 0.97152,2.549707 1.435088,3.83148 0.643875,1.816067 1.275765,3.64095 1.945497,5.456774 0.48006,1.305072 0.98,2.610907 1.46942,3.92418 0.29978,0.826217 0.61071,1.651434 0.91096,2.478099 1.31312,0.01425 2.62648,0.02423 3.94821,0.04733 l 0.10301,-0.23895 c 1.43307,-3.924266 2.81314,-7.866408 4.4014,-11.743693 0.87519,-2.556931 1.76538,-5.097494 2.73513,-7.623829 1.0902,-2.935333 2.18396,-5.870923 3.23182,-8.814467 l 0.33188,-0.949631 a 397.99738,358.19765 0 0 0 -5.47486,0.0062 c -0.96164,2.842467 -1.9141,5.694317 -2.95259,8.513713 -1.42492,3.986139 -2.76668,7.988161 -4.30296,11.935276 -0.99585,-2.248351 -1.80834,-4.556502 -2.58867,-6.87401 -0.45468,-1.313054 -0.91887,-2.617755 -1.38244,-3.930356 -0.678122,-1.884986 -1.329902,-3.77273 -1.991267,-5.664822 -0.45471,-1.282459 -0.901853,-2.563443 -1.357275,-3.845901 -1.828185,-0.06186 -3.658365,-0.131023 -5.4863,-0.216292 z m 51.644915,0 c -0.94973,-0.0065 -1.89781,-0.0025 -2.84729,0.0063 -1.899,0.01732 -3.79796,0.05797 -5.69916,0.0927 -0.009,1.545154 -0.0187,3.096814 -0.0275,4.649277 0,1.745566 0.0124,3.4922 0.0206,5.238415 v 7.224123 c 0,1.776812 -0.001,3.545801 -0.0117,5.314638 -0.009,2.333253 -0.009,4.670548 0.13732,7.003793 2.0257,-0.09208 4.05392,-0.12087 6.08826,-0.105045 2.70309,0.0085 5.40337,0.0456 8.09784,-0.224528 4.34356,-0.633802 7.71113,-3.741851 8.56017,-7.580576 0.34372,-2.448967 0.32502,-4.921081 0.32502,-7.384884 -0.008,-1.761507 -6.9e-4,-3.520334 -0.10301,-5.273437 -0.32686,-1.792326 -0.9872,-3.529833 -2.05993,-5.06744 -0.98748,-0.980732 -2.06735,-1.89513 -3.24325,-2.698517 -1.31264,-0.42563 -2.66192,-0.746851 -4.01002,-1.071167 -0.5914,-0.02341 -1.78414,-0.05627 -2.37579,-0.0721 -0.95073,-0.029 -1.90214,-0.04499 -2.85187,-0.0515 z m -55.771649,0.04532 c -1.5885,0.01502 -3.184675,0.03156 -4.77219,0.04738 l -0.496677,0.514985 c 0.06047,1.816045 0.137333,3.633403 0.137333,5.456772 0,2.440974 -0.02872,4.879845 -0.01172,7.329251 0.02473,2.2705 0.0082,4.543552 -0.137332,6.81427 C 81.3871,81.711527 80.367241,80.204337 79.302909,78.721488 78.264441,77.277199 77.199569,75.847043 76.144342,74.418278 75.371643,73.375024 74.623694,72.325399 73.8601,71.274814 72.821386,69.83852 71.761342,68.408389 70.706105,66.979848 69.873311,65.836166 69.065667,64.676842 68.21587,63.541813 l -0.370793,-0.432591 c -1.605011,-0.05396 -3.217043,-0.04738 -4.822535,-0.04738 0,1.807171 -0.007,3.609337 -0.007,5.417633 0,1.784561 0.007,3.566929 0.007,5.351714 0,2.54185 -0.0094,5.085145 -0.01828,7.625887 0.0082,1.784565 0.0082,3.566937 0,5.351718 -0.0082,1.845963 -0.02215,3.693201 0.148781,5.539171 1.682097,0.03855 3.362484,0.06795 5.053711,0.09882 -0.283289,-6.782231 0.09317,-13.57014 -0.189974,-20.35217 1.776938,1.938874 3.194661,4.107016 4.721837,6.200402 0.902262,1.236347 1.804594,2.466249 2.705379,3.70171 a 640.21027,576.18925 0 0 0 2.581781,3.553394 c 1.098821,1.513897 2.178773,3.034928 3.277594,4.556594 0.532042,0.733765 1.074574,1.468675 1.641082,2.179405 0.377156,0.03855 1.132523,0.107003 1.510617,0.146243 1.072968,0.01583 2.154528,0.02453 3.227238,0.0165 0.01055,-0.96564 0.01699,-1.923928 0.0252,-2.881841 0,-1.745786 -0.0071,-3.490101 -0.0071,-5.228118 -0.0082,-2.603257 0.0059,-5.200445 0.02286,-7.803055 -0.0094,-1.738242 -0.02286,-3.477549 -0.02286,-5.223994 -0.0082,-2.432991 0,-4.865572 0,-7.298357 z m 82.601169,0.01649 a 527.33378,474.6004 0 0 1 -5.12008,0.0927 c -0.0175,0.981638 -0.0272,1.968654 -0.0274,2.949829 0,1.761513 0.0105,3.522225 0.0183,5.283744 0,2.386662 -0.007,4.781688 -0.007,7.168573 -0.008,1.791672 0.007,3.575866 0.007,5.368194 0.0254,2.60305 -0.052,5.208017 -0.0183,7.811288 l 0.1098,0.62622 c 1.46781,0.08429 2.94608,0.123165 4.422,0.146257 0.14608,-0.131467 0.4485,-0.39414 0.59509,-0.525292 0.0421,-9.640898 -0.12277,-19.280615 0.0571,-28.92151 a 527.33378,474.6004 0 0 1 -0.0365,0 z m 16.20712,0.0041 v 0.0021 c -0.44583,1.181588 -0.8836,2.357376 -1.37329,3.524551 -1.71681,4.148201 -3.35517,8.3164 -5.16586,12.433773 -1.1759,3.058604 -2.34233,6.111234 -3.63006,9.131711 -0.55788,1.428536 -1.15856,2.850361 -1.75095,4.264074 1.16731,0 2.33435,6.75e-4 3.50188,-0.006 0.53231,0 1.58868,-0.0023 2.11258,-0.0105 0.67812,-1.992969 1.35435,-3.985913 2.03248,-5.986181 2.84052,0.0084 5.68991,0.01647 8.53042,0.01647 1.37397,-0.0074 2.74947,-0.01053 4.13133,-0.01053 0.34312,0.950359 0.677,1.902426 1.04599,2.853022 0.45542,1.111968 0.96916,2.200354 1.50146,3.289721 1.72497,-0.116287 3.45999,-0.170265 5.19333,-0.224535 -0.42909,-1.10445 -0.8603,-2.215489 -1.29777,-3.312384 -0.50643,-1.227906 -1.01948,-2.448833 -1.52664,-3.676989 -0.69486,-1.676382 -1.37346,-3.362261 -2.05992,-5.04684 l -1.70061,-4.216692 a 811.06298,729.95668 0 0 1 -2.11029,-5.158076 c -0.57491,-1.406163 -1.14906,-2.813956 -1.70745,-4.226996 -0.48895,-1.182015 -0.97083,-2.371277 -1.55411,-3.52249 -1.39096,-0.04603 -2.78182,-0.07866 -4.17252,-0.117416 z m -44.19937,4.039513 c 2.18311,-0.02427 4.36384,0.08239 6.52084,0.389328 1.2104,0.703181 2.31913,1.550797 3.32337,2.478102 0.8237,2.278938 0.89294,4.673374 0.75531,7.044987 -0.11167,3.135953 0.77129,6.814568 -1.66627,9.418022 -2.80653,2.757564 -7.28812,1.342737 -10.89248,1.860132 -0.52366,-2.603468 -0.25683,-5.25339 -0.23116,-7.879255 -0.0425,-1.715418 -0.0593,-3.427123 -0.0505,-5.14985 -0.009,-2.695697 -0.0367,-5.399398 0.0572,-8.095547 0.72751,-0.03469 1.45582,-0.05782 2.18353,-0.06592 z m 54.89731,0.0515 c 8e-5,0.0013 -8e-5,0.0027 0,0.0041 0.0164,0.008 0.0409,0.02339 0.0413,0.02265 -0.0144,-0.008 -0.0275,-0.01779 -0.0413,-0.02678 z m -8.54187,3.110503 c 0.66899,1.382432 1.23397,2.803296 1.79213,4.233168 1.01288,2.625655 1.92401,5.291693 2.8679,7.941059 -3.1583,-0.03122 -6.31744,0.160605 -9.4757,0.138016 0.7387,-1.723391 1.2879,-3.521896 2.20642,-5.17456 0.72071,-2.425244 1.69912,-4.7734 2.60925,-7.137683 z"
         style="fill:#ffffff;stroke-width:0.233678"
         id="path34" />
      <path
         d="m 250.91762,132.84687 c -1.75206,-0.006 -3.49494,-5e-5 -5.23969,0.0548 -2.33883,0.10318 -4.67681,0.25295 -7.00832,0.31441 -1.63209,0.0617 -3.24994,0.10286 -4.86672,0.20505 -3.0227,0.38977 -6.04481,0.78758 -9.08976,1.01983 -1.72231,0.14359 -3.45298,0.24553 -5.1675,0.35543 -3.20333,0.99138 -6.59506,1.20806 -9.88083,1.87832 -1.15797,0.19106 -2.32491,0.32242 -3.4831,0.45933 -5.04562,1.14105 -10.08243,2.30394 -15.15065,3.34928 -1.33104,0.38957 -2.68488,0.71787 -4.01546,1.07998 -3.29381,1.05964 -6.60979,2.06258 -9.92593,3.05399 -2.97071,0.79951 -5.89367,1.71021 -8.72886,2.85165 -4.3535,1.72875 -8.73179,3.40198 -13.01799,5.26862 -4.27957,1.84586 -8.39067,3.99293 -12.56383,6.03689 -5.11366,2.98006 -10.33896,5.89205 -14.87387,9.5967 -1.17258,0.60809 -0.49127,1.79764 -0.3248,2.73409 8.36157,25.12616 23.31322,48.20703 42.1642,68.00257 9.40786,9.96524 19.83537,19.09907 30.80646,27.63628 9.24874,-0.0143 18.50673,0.0892 27.75656,-0.0683 l -0.33989,-0.22693 c -0.88779,-0.65636 -1.74304,-1.33895 -2.62286,-1.9959 -1.30104,-0.99784 -2.59551,-1.98206 -3.87411,-2.99385 -1.00024,-0.80641 -1.99274,-1.6118 -2.96276,-2.43881 -1.23372,-1.08004 -2.41942,-2.19515 -3.63048,-3.28912 -1.06023,-0.95646 -2.1356,-1.90602 -3.15827,-2.88996 -0.94003,-0.91587 -1.82821,-1.86598 -2.73113,-2.80244 -0.8496,-0.87448 -1.69902,-1.75001 -2.5266,-2.63841 a 166.9184,151.72629 0 0 1 -2.93868,-3.31647 c -1.07533,-1.2305 -2.13588,-2.4732 -3.18834,-3.71017 -0.68451,-0.79955 -1.3396,-1.62822 -1.96412,-2.45522 -0.87226,-1.14164 -1.76681,-2.26265 -2.60181,-3.41762 -0.93249,-1.2923 -1.81785,-2.60492 -2.72816,-3.90978 -0.66159,-0.95725 -1.32319,-1.91954 -1.97015,-2.88993 -0.87951,-1.32604 -1.72345,-2.67289 -2.56569,-4.01913 -0.77401,-1.23776 -1.55619,-2.46748 -2.30095,-3.71837 -0.72181,-1.23678 -1.40635,-2.48783 -2.09058,-3.73206 -0.60877,-1.09378 -1.21092,-2.18027 -1.78966,-3.28092 -0.78203,-1.50376 -1.51878,-3.02793 -2.24074,-4.55227 a 1505.4026,1368.3881 0 0 1 -1.61533,-3.33562 c -0.61678,-1.29896 -1.24126,-2.59058 -1.78967,-3.90975 -0.61739,-1.47648 -1.23448,-2.94729 -1.82878,-4.42378 -0.6388,-1.58516 -1.20291,-3.1912 -1.72945,-4.80381 -0.30846,-0.89567 -0.61462,-1.79103 -0.9234,-2.67941 -0.60985,-1.60695 -1.09911,-3.24659 -1.40773,-4.9214 16.25758,-10.16394 33.95127,-18.44302 52.59246,-24.34169 12.82174,-3.9577 26.0855,-7.01319 39.61354,-7.98359 l 0.30981,-0.10933 v -18.82974 c -1.66251,-0.0821 -3.32435,-0.17185 -4.978,-0.21328 -2.47393,0 -4.94136,0.0277 -7.40838,0 z"
         style="fill:#76b900;stroke-width:0.205745;fill-opacity:1"
         id="path38" />
      <path
         style="color:#000000;display:inline;overflow:visible;visibility:visible;opacity:0.08;fill:#ffffff;fill-opacity:1;fill-rule:nonzero;stroke:none;stroke-width:1;marker:none;enable-background:accumulate"
         d="m 39.955395,156 v 73.00585 C 39.782405,264.37397 43.580535,268 78.877265,268 H 225.03352 c 35.29671,0 38.92188,-3.62562 38.92188,-38.99415 V 156 Z"
         id="rect4158-97"
         inkscape:connector-curvature="0" />
      <path
         style="display:inline;opacity:0.1;fill:#ffffff;fill-opacity:1;stroke:none;stroke-width:2;stroke-linecap:round;stroke-linejoin:round;stroke-miterlimit:4;stroke-dasharray:none;stroke-dashoffset:0;stroke-opacity:1;enable-background:new"
         d="m 321.557,84 v 0.17187 12.751961 c 0,8.842129 1.82728,9.748049 11.83594,9.748049 h 21.33008 c 10.01116,0 11.88668,-0.90602 11.83398,-9.748049 V 84.17187 84 Z"
         id="path908"
         inkscape:connector-curvature="0" />
      <path
         style="display:inline;opacity:0.08;fill:#ffffff;fill-opacity:1;stroke:none;stroke-width:2;stroke-linecap:round;stroke-linejoin:round;stroke-miterlimit:4;stroke-dasharray:none;stroke-dashoffset:0;stroke-opacity:1;enable-background:new"
         d="m 321.5,148 v 8.2168 c 0,5.69824 1.17692,6.2832 7.62695,6.2832 h 13.7461 c 6.45163,0 7.66095,-0.58502 7.62695,-6.2832 V 148 Z"
         id="path925"
         inkscape:connector-curvature="0" />
      <path
         id="path40-3"
         style="display:inline;fill:#76b900;fill-opacity:1;stroke-width:0.0476508;enable-background:new"
         d="m 365.49529,81.856541 a 18.503938,18.026792 0 0 0 -0.54005,0.173736 c -0.705,0.249042 -1.42871,0.44697 -2.14012,0.678087 -1.23661,0.544158 -2.46629,1.098533 -3.69431,1.660566 -0.61081,0.380303 -1.24146,0.725994 -1.89063,1.040547 -1.49223,0.979958 -2.9589,1.992958 -4.3637,3.089323 0.68979,3.126981 2.12467,6.072248 3.92631,8.735526 0.8211,1.122554 1.65729,2.259756 2.72039,3.180644 -0.0505,-0.862108 -0.23928,-1.712617 -0.24425,-2.577951 -0.1515,-2.369709 -0.20798,-4.750998 -0.0615,-7.120854 0.0167,-0.258865 0.30586,-0.375345 0.47757,-0.534322 1.81174,-1.271835 3.74091,-2.415457 5.8117,-3.238241 l 0.15032,-0.104895 V 81.87621 Z m -32.99186,10.139937 c -0.26582,0.02959 -0.53025,0.06331 -0.79259,0.10583 -1.0919,0.2425 -2.17673,0.534151 -3.2954,0.63922 -0.059,0.0029 -0.17869,0.01309 -0.23768,0.01639 -1.03968,0.103235 -2.04874,0.388395 -3.07823,0.550711 -0.21195,0.03452 -0.42407,0.0673 -0.63619,0.09698 -0.73004,0.09329 -1.39452,0.414406 -2.06234,0.693069 3.64029,3.879301 7.44935,7.658782 11.86853,10.703762 3.42679,-0.007 6.85497,0.0294 10.28334,-0.0197 -0.0874,-0.0787 -0.25907,-0.23302 -0.34475,-0.31002 -0.20861,-0.18513 -0.42206,-0.36214 -0.63749,-0.53431 -0.29947,-0.2393 -0.59913,-0.47685 -0.89528,-0.71791 -0.23214,-0.18836 -0.45914,-0.38179 -0.68294,-0.57832 a 151.77669,147.86294 0 0 1 -0.78036,-0.71134 c -0.19853,-0.17857 -0.39511,-0.35851 -0.59031,-0.53713 -0.26904,-0.2442 -0.54217,-0.48514 -0.80965,-0.73101 -0.2321,-0.21484 -0.45567,-0.43616 -0.67944,-0.65749 a 49.706945,48.425188 0 0 1 -0.77162,-0.788122 c -0.18005,-0.185129 -0.35848,-0.36878 -0.53525,-0.554003 -0.26908,-0.281805 -0.53139,-0.567139 -0.79393,-0.85229 -0.19174,-0.208022 -0.38532,-0.41329 -0.57194,-0.624697 -0.22556,-0.258967 -0.44594,-0.521298 -0.66634,-0.783454 -0.18827,-0.224441 -0.37839,-0.446992 -0.56495,-0.671529 -0.22044,-0.267142 -0.43419,-0.535922 -0.64799,-0.8064 -0.22699,-0.293385 -0.45739,-0.584829 -0.67769,-0.883197 -0.19185,-0.26399 -0.37706,-0.531025 -0.56713,-0.796567 -0.1549,-0.216207 -0.31497,-0.429592 -0.45792,-0.652337 -0.12282,-0.201716 -0.24156,-0.402643 -0.37446,-0.596136 z" />
      <path
         id="path38-6"
         style="display:inline;fill:#76b900;fill-opacity:1;stroke-width:0.0476508;enable-background:new"
         d="m 362.87577,72.698425 c -0.39196,-0.0015 -0.78186,-1.3e-5 -1.17218,0.01313 -0.52322,0.02474 -1.04625,0.06065 -1.56784,0.07538 -0.36512,0.0148 -0.72707,0.02465 -1.08875,0.04916 -0.6762,0.09345 -1.35231,0.188836 -2.03349,0.244521 -0.3853,0.03444 -0.77248,0.05888 -1.15604,0.08522 -0.71662,0.237699 -1.47538,0.289652 -2.21046,0.450358 -0.25904,0.0458 -0.52012,0.0773 -0.7792,0.110126 -1.12877,0.273585 -2.25555,0.552405 -3.38939,0.803041 -0.29776,0.0934 -0.60065,0.172122 -0.89831,0.258943 -0.73686,0.254065 -1.47869,0.494536 -2.22055,0.732242 -0.66458,0.191695 -1.31848,0.41005 -1.95275,0.683727 -0.97393,0.414497 -1.95342,0.81568 -2.91229,1.263236 -0.95739,0.442574 -1.87709,0.957368 -2.81067,1.44744 -1.144,0.714516 -2.31295,1.412711 -3.32746,2.300959 -0.26233,0.1458 -0.10989,0.431014 -0.0727,0.655541 1.87059,6.024392 5.21546,11.558398 9.43265,16.304693 2.10466,2.389318 4.43742,4.579298 6.89179,6.626228 2.06905,-0.004 4.14018,0.0213 6.20947,-0.0162 l -0.0762,-0.0543 c -0.19861,-0.15739 -0.38994,-0.32105 -0.58677,-0.47856 -0.29105,-0.23926 -0.58064,-0.47524 -0.86668,-0.71783 -0.22376,-0.19334 -0.4458,-0.38645 -0.66281,-0.58473 -0.276,-0.25896 -0.54125,-0.52633 -0.81217,-0.78862 -0.23718,-0.22932 -0.47777,-0.457 -0.70656,-0.69291 -0.21028,-0.2196 -0.40898,-0.44741 -0.61098,-0.67194 -0.19007,-0.20966 -0.38008,-0.41959 -0.56522,-0.63259 a 37.341665,36.378764 0 0 1 -0.65744,-0.795175 c -0.24055,-0.295036 -0.4778,-0.592989 -0.71326,-0.889573 -0.15314,-0.191711 -0.29969,-0.390394 -0.43939,-0.58868 -0.19515,-0.273726 -0.39527,-0.542507 -0.58206,-0.819433 -0.20862,-0.309842 -0.40668,-0.624571 -0.61033,-0.937429 -0.148,-0.229514 -0.296,-0.460239 -0.44075,-0.692904 -0.19676,-0.317939 -0.38555,-0.640864 -0.57397,-0.963653 -0.17316,-0.296768 -0.34815,-0.591617 -0.51474,-0.891528 -0.16149,-0.296546 -0.31462,-0.596506 -0.4677,-0.894826 -0.13619,-0.262249 -0.2709,-0.522755 -0.40037,-0.786651 -0.17495,-0.36055 -0.33976,-0.725997 -0.50128,-1.09148 a 336.77677,328.09257 0 0 1 -0.36136,-0.799766 c -0.13798,-0.311446 -0.27768,-0.621133 -0.40038,-0.937426 -0.13811,-0.354008 -0.27617,-0.706657 -0.40912,-1.06067 -0.14289,-0.380067 -0.2691,-0.765141 -0.3869,-1.151789 -0.069,-0.21475 -0.13749,-0.429428 -0.20657,-0.642431 -0.13644,-0.385291 -0.24588,-0.778421 -0.31492,-1.179983 3.63701,-2.436965 7.5953,-4.422005 11.76557,-5.836305 2.86837,-0.948919 5.83563,-1.681522 8.86203,-1.914191 l 0.0692,-0.02621 V 72.74986 c -0.37193,-0.01968 -0.74371,-0.0412 -1.11364,-0.05114 -0.55344,0 -1.10544,0.0067 -1.65735,0 z" />
      <path
         d="m 348.89119,149.12976 a 10.668877,9.3097253 0 0 0 -0.31139,0.0897 c -0.40647,0.12862 -0.82375,0.23083 -1.23393,0.3502 -0.713,0.28101 -1.422,0.56732 -2.13004,0.85757 -0.35218,0.19641 -0.71579,0.37493 -1.09009,0.53738 -0.86038,0.50609 -1.70602,1.02924 -2.51599,1.59545 0.39771,1.61488 1.22503,3.13593 2.2638,4.51135 0.47343,0.57973 0.95556,1.16702 1.56851,1.64261 -0.0291,-0.44523 -0.13796,-0.88446 -0.14083,-1.33135 -0.0874,-1.22381 -0.11992,-2.4536 -0.0355,-3.67748 0.01,-0.13369 0.17635,-0.19385 0.27535,-0.27594 1.0446,-0.65683 2.15691,-1.24744 3.35087,-1.67236 l 0.0867,-0.0542 v -2.56283 z m -19.02223,5.23665 c -0.15326,0.0153 -0.30573,0.0327 -0.45699,0.0547 -0.62956,0.12524 -1.25504,0.27585 -1.90003,0.33011 -0.034,0.002 -0.10303,0.007 -0.13704,0.008 -0.59946,0.0533 -1.18125,0.20058 -1.77483,0.28441 -0.12221,0.0179 -0.24451,0.0347 -0.36681,0.0501 -0.42093,0.0481 -0.80404,0.21401 -1.18909,0.35793 2.0989,2.00341 4.29509,3.95528 6.84307,5.52783 1.9758,-0.004 3.9524,0.0152 5.92911,-0.0102 -0.0504,-0.0406 -0.14938,-0.12034 -0.19878,-0.16011 -0.12027,-0.0956 -0.24335,-0.18702 -0.36756,-0.27594 -0.17266,-0.12358 -0.34544,-0.24626 -0.51619,-0.37075 -0.13385,-0.0973 -0.26473,-0.19718 -0.39377,-0.29867 a 87.510382,76.362082 0 0 1 -0.44993,-0.36736 c -0.11447,-0.0922 -0.22781,-0.18515 -0.34036,-0.2774 -0.15512,-0.12611 -0.3126,-0.25054 -0.46682,-0.37752 -0.13382,-0.11095 -0.26273,-0.22525 -0.39175,-0.33955 a 28.659697,25.008621 0 0 1 -0.4449,-0.40702 c -0.1038,-0.0956 -0.20668,-0.19045 -0.30861,-0.2861 -0.15514,-0.14554 -0.30638,-0.2929 -0.45775,-0.44016 -0.11056,-0.10743 -0.22217,-0.21344 -0.32977,-0.32262 -0.13005,-0.13374 -0.25711,-0.26921 -0.38419,-0.4046 -0.10855,-0.11591 -0.21817,-0.23085 -0.32574,-0.3468 -0.1271,-0.13797 -0.25034,-0.27678 -0.37361,-0.41646 -0.13088,-0.15152 -0.26372,-0.30203 -0.39074,-0.45612 -0.11062,-0.13633 -0.2174,-0.27424 -0.32699,-0.41138 -0.0893,-0.11165 -0.18161,-0.22186 -0.26403,-0.33688 -0.0708,-0.10419 -0.13927,-0.20795 -0.2159,-0.30788 z"
         style="display:inline;fill:#76b900;fill-opacity:1;stroke-width:0.026002;enable-background:new"
         id="path40-3-5" />
      <path
         d="m 347.38084,144.40015 c -0.22599,-5.2e-4 -0.4508,-1e-5 -0.67585,0.007 -0.30167,0.0128 -0.60324,0.0313 -0.90397,0.0389 -0.21052,0.008 -0.41921,0.0127 -0.62775,0.0254 -0.38988,0.0482 -0.7797,0.0975 -1.17246,0.12628 -0.22215,0.0178 -0.44538,0.0305 -0.66654,0.044 -0.41318,0.12276 -0.85066,0.14959 -1.27449,0.23259 -0.14935,0.0236 -0.29988,0.0399 -0.44926,0.0568 -0.65082,0.14129 -1.30049,0.28528 -1.95423,0.41472 -0.17168,0.0482 -0.34632,0.0889 -0.51794,0.13373 -0.42486,0.1312 -0.85258,0.2554 -1.28031,0.37815 -0.38319,0.099 -0.7602,0.21177 -1.12591,0.35311 -0.56154,0.21406 -1.12629,0.42125 -1.67915,0.65238 -0.552,0.22857 -1.08228,0.49443 -1.62055,0.74751 -0.6596,0.36901 -1.33359,0.72958 -1.91853,1.18831 -0.15125,0.0753 -0.0634,0.22259 -0.0419,0.33854 1.07854,3.11123 3.0071,5.96921 5.43862,8.42037 1.21349,1.23394 2.5585,2.36493 3.97362,3.42204 1.19296,-0.002 2.38712,0.011 3.58022,-0.008 l -0.0439,-0.0281 c -0.11451,-0.0813 -0.22483,-0.1658 -0.33832,-0.24714 -0.16781,-0.12357 -0.33478,-0.24543 -0.4997,-0.37072 -0.12902,-0.0999 -0.25704,-0.19958 -0.38216,-0.30197 -0.15913,-0.13374 -0.31207,-0.27182 -0.46828,-0.40728 -0.13675,-0.11843 -0.27546,-0.23601 -0.40738,-0.35784 -0.12125,-0.11341 -0.23581,-0.23106 -0.35228,-0.34702 -0.10959,-0.10828 -0.21914,-0.21669 -0.32589,-0.32669 a 21.530206,18.787386 0 0 1 -0.37906,-0.41066 c -0.13869,-0.15237 -0.27548,-0.30624 -0.41125,-0.45941 -0.0883,-0.099 -0.17279,-0.20162 -0.25333,-0.30402 -0.11253,-0.14136 -0.22791,-0.28016 -0.33561,-0.42318 -0.12028,-0.16001 -0.23448,-0.32255 -0.3519,-0.48413 -0.0853,-0.11853 -0.17066,-0.23769 -0.25412,-0.35784 -0.11345,-0.16419 -0.2223,-0.33097 -0.33094,-0.49767 -0.0998,-0.15326 -0.20073,-0.30553 -0.29678,-0.46041 -0.0931,-0.15315 -0.1814,-0.30807 -0.26967,-0.46213 -0.0785,-0.13544 -0.15619,-0.26996 -0.23084,-0.40625 -0.10087,-0.18621 -0.19589,-0.37494 -0.28902,-0.56369 a 194.17649,169.43957 0 0 1 -0.20835,-0.41303 c -0.0796,-0.16084 -0.1601,-0.32078 -0.23085,-0.48412 -0.0796,-0.18283 -0.15923,-0.36495 -0.23589,-0.54777 -0.0824,-0.19628 -0.15515,-0.39514 -0.22307,-0.59483 -0.0397,-0.1109 -0.0793,-0.22177 -0.11911,-0.33177 -0.0787,-0.19898 -0.14177,-0.40201 -0.18158,-0.60939 2.09701,-1.25855 4.37925,-2.2837 6.78372,-3.01409 1.65383,-0.49006 3.36467,-0.86841 5.10961,-0.98856 l 0.0399,-0.0135 v -2.33159 c -0.21445,-0.0102 -0.4288,-0.0213 -0.6421,-0.0264 -0.31909,0 -0.63736,0.004 -0.95558,0 z"
         style="display:inline;fill:#76b900;fill-opacity:1;stroke-width:0.026002;enable-background:new"
         id="path38-6-6" />
      <path
         style="display:inline;opacity:0.08;fill:#ffffff;fill-opacity:1;stroke:none;stroke-width:2;stroke-linecap:round;stroke-linejoin:round;stroke-miterlimit:4;stroke-dasharray:none;stroke-dashoffset:0;stroke-opacity:1;enable-background:new"
         d="m 320.5,200 v 6.84783 c 0,4.22052 0.52913,4.65234 5.67578,4.65234 h 11.6462 c 5.14666,0 5.69912,-0.43188 5.67382,-4.65234 V 200 Z"
         id="path927"
         inkscape:connector-curvature="0"
         sodipodi:nodetypes="csssccc" />
      <path
         id="path40-3-5-2"
         style="display:inline;fill:#76b900;fill-opacity:1;stroke-width:0.0195015;enable-background:new"
         d="m 341.97627,201.04732 a 8.0016577,6.982294 0 0 0 -0.23355,0.0673 c -0.30485,0.0965 -0.61781,0.17312 -0.92544,0.26265 -0.53476,0.21075 -1.06651,0.42549 -1.59754,0.64317 -0.26413,0.14731 -0.53684,0.2812 -0.81756,0.40304 -0.64529,0.37957 -1.27952,0.77193 -1.88699,1.19659 0.29828,1.21116 0.91877,2.35194 1.69785,3.38351 0.35507,0.4348 0.71667,0.87526 1.17638,1.23196 -0.0218,-0.33393 -0.10347,-0.66335 -0.10562,-0.99852 -0.0656,-0.91785 -0.0899,-1.8402 -0.0266,-2.75811 0.007,-0.10026 0.13226,-0.14538 0.20651,-0.20695 0.78345,-0.49262 1.61769,-0.93558 2.51316,-1.25427 l 0.065,-0.0407 v -1.92212 z m -14.26668,3.92749 c -0.11494,0.0115 -0.22929,0.0245 -0.34274,0.041 -0.47217,0.0939 -0.94128,0.20689 -1.42502,0.24759 -0.0255,0.001 -0.0773,0.005 -0.10278,0.006 -0.4496,0.04 -0.88594,0.15043 -1.33112,0.2133 -0.0917,0.0134 -0.18339,0.026 -0.27511,0.0376 -0.3157,0.0361 -0.60303,0.16051 -0.89182,0.26845 1.57417,1.50255 3.22132,2.96646 5.1323,4.14587 1.48185,-0.003 2.9643,0.0114 4.44683,-0.008 -0.0378,-0.0304 -0.11203,-0.0903 -0.14908,-0.12008 -0.0902,-0.0717 -0.18251,-0.14027 -0.27567,-0.20696 -0.1295,-0.0927 -0.25908,-0.18469 -0.38714,-0.27806 -0.10039,-0.073 -0.19855,-0.14789 -0.29533,-0.224 a 65.632786,57.271561 0 0 1 -0.33745,-0.27552 c -0.0858,-0.0692 -0.17086,-0.13887 -0.25527,-0.20805 -0.11634,-0.0946 -0.23445,-0.18791 -0.35011,-0.28314 -0.10037,-0.0832 -0.19705,-0.16894 -0.29382,-0.25467 a 21.494773,18.756466 0 0 1 -0.33367,-0.30526 c -0.0778,-0.0717 -0.15501,-0.14284 -0.23146,-0.21458 -0.11635,-0.10915 -0.22978,-0.21967 -0.34331,-0.33012 -0.0829,-0.0806 -0.16663,-0.16008 -0.24733,-0.24196 -0.0975,-0.10031 -0.19283,-0.20191 -0.28814,-0.30345 -0.0814,-0.0869 -0.16363,-0.17314 -0.24431,-0.2601 -0.0953,-0.10348 -0.18775,-0.20759 -0.2802,-0.31235 -0.0982,-0.11364 -0.19779,-0.22652 -0.29306,-0.34209 -0.083,-0.10224 -0.16305,-0.20568 -0.24524,-0.30853 -0.067,-0.0837 -0.13621,-0.1664 -0.19802,-0.25266 -0.0531,-0.0781 -0.10445,-0.15596 -0.16193,-0.23091 z" />
      <path
         id="path38-6-6-9"
         style="display:inline;fill:#76b900;fill-opacity:1;stroke-width:0.0195015;enable-background:new"
         d="m 340.8435,197.50011 c -0.16949,-3.9e-4 -0.3381,0 -0.50689,0.005 -0.22625,0.01 -0.45243,0.0235 -0.67797,0.0292 -0.15789,0.006 -0.31441,0.01 -0.47082,0.019 -0.29241,0.0362 -0.58477,0.0731 -0.87934,0.0947 -0.16661,0.0134 -0.33404,0.0229 -0.49991,0.033 -0.30988,0.0921 -0.63799,0.11219 -0.95586,0.17444 -0.11202,0.0177 -0.22491,0.0299 -0.33695,0.0426 -0.48811,0.10597 -0.97537,0.21396 -1.46567,0.31104 -0.12876,0.0362 -0.25974,0.0667 -0.38846,0.1003 -0.31864,0.0984 -0.63943,0.19155 -0.96023,0.28361 -0.28739,0.0743 -0.57015,0.15883 -0.84443,0.26483 -0.42115,0.16055 -0.84472,0.31594 -1.25936,0.48929 -0.414,0.17143 -0.81171,0.37082 -1.21541,0.56063 -0.4947,0.27676 -1.0002,0.54719 -1.4389,0.89123 -0.11344,0.0565 -0.0476,0.16695 -0.0314,0.25391 0.80891,2.33342 2.25533,4.47691 4.07897,6.31528 0.91012,0.92545 1.91887,1.77369 2.98021,2.56653 0.89472,-0.001 1.79034,0.008 2.68517,-0.006 l -0.0329,-0.0211 c -0.0859,-0.061 -0.16862,-0.12435 -0.25374,-0.18535 -0.12585,-0.0927 -0.25108,-0.18408 -0.37477,-0.27804 -0.0968,-0.0749 -0.19278,-0.14969 -0.28662,-0.22648 -0.11935,-0.10031 -0.23405,-0.20387 -0.35121,-0.30546 -0.10256,-0.0888 -0.2066,-0.17701 -0.30554,-0.26838 -0.0909,-0.0851 -0.17686,-0.1733 -0.26421,-0.26027 -0.0822,-0.0812 -0.16435,-0.16251 -0.24442,-0.24501 a 16.147654,14.090539 0 0 1 -0.28429,-0.308 c -0.10402,-0.11428 -0.20661,-0.22968 -0.30844,-0.34456 -0.0662,-0.0743 -0.12959,-0.15121 -0.18999,-0.22801 -0.0844,-0.10602 -0.17094,-0.21012 -0.25171,-0.31739 -0.0902,-0.12 -0.17586,-0.24191 -0.26393,-0.36309 -0.064,-0.0889 -0.12799,-0.17827 -0.19059,-0.26838 -0.0851,-0.12315 -0.16672,-0.24823 -0.2482,-0.37326 -0.0748,-0.11494 -0.15055,-0.22914 -0.22259,-0.3453 -0.0698,-0.11487 -0.13605,-0.23106 -0.20225,-0.3466 -0.0589,-0.10158 -0.11714,-0.20247 -0.17313,-0.30469 -0.0756,-0.13966 -0.14692,-0.2812 -0.21676,-0.42277 a 145.63237,127.07968 0 0 1 -0.15627,-0.30977 c -0.0597,-0.12063 -0.12007,-0.24058 -0.17313,-0.36309 -0.0597,-0.13712 -0.11943,-0.27371 -0.17692,-0.41083 -0.0618,-0.14721 -0.11636,-0.29635 -0.1673,-0.44612 -0.0298,-0.0832 -0.0595,-0.16633 -0.0893,-0.24883 -0.059,-0.14923 -0.10632,-0.3015 -0.13618,-0.45704 1.57276,-0.94391 3.28444,-1.71277 5.08779,-2.26057 1.24037,-0.36754 2.5235,-0.6513 3.83221,-0.74142 l 0.0299,-0.0101 v -1.74869 c -0.16084,-0.008 -0.3216,-0.016 -0.48157,-0.0198 -0.23932,0 -0.47802,0.003 -0.71669,0 z" />
      <path
         d="m 333.95126,244.7461 a 4.5009325,3.9275404 0 0 0 -0.13137,0.0379 c -0.17148,0.0543 -0.34752,0.0974 -0.52056,0.14774 -0.3008,0.11854 -0.59991,0.23934 -0.89861,0.36178 -0.14857,0.0829 -0.30197,0.15818 -0.45988,0.22671 -0.36297,0.21351 -0.71973,0.43422 -1.06143,0.67308 0.16778,0.68128 0.5168,1.32297 0.95504,1.90323 0.19972,0.24457 0.40312,0.49233 0.66172,0.69297 -0.0123,-0.18783 -0.0582,-0.37313 -0.0594,-0.56166 -0.0369,-0.51629 -0.0505,-1.03511 -0.0149,-1.55144 0.004,-0.0564 0.0744,-0.0818 0.11616,-0.11641 0.44069,-0.2771 0.90995,-0.52626 1.41365,-0.70552 l 0.0366,-0.0229 v -1.0812 z m -8.025,2.20922 c -0.0647,0.007 -0.12898,0.0138 -0.19279,0.0231 -0.2656,0.0528 -0.52947,0.11637 -0.80158,0.13926 -0.0143,5.7e-4 -0.0435,0.003 -0.0578,0.004 -0.2529,0.0225 -0.49835,0.0846 -0.74876,0.11998 -0.0516,0.008 -0.10315,0.0146 -0.15475,0.0212 -0.17758,0.0203 -0.33921,0.0903 -0.50165,0.15101 0.88547,0.84518 1.81199,1.66863 2.88692,2.33205 0.83354,-0.001 1.66742,0.007 2.50134,-0.005 -0.0213,-0.0171 -0.063,-0.0508 -0.0838,-0.0676 -0.0507,-0.0403 -0.10267,-0.0789 -0.15507,-0.11641 -0.0728,-0.0521 -0.14574,-0.10389 -0.21777,-0.15641 -0.0565,-0.0411 -0.11168,-0.0832 -0.16612,-0.126 a 36.918442,32.215253 0 0 1 -0.18981,-0.15498 c -0.0482,-0.0389 -0.0961,-0.0781 -0.1436,-0.11703 -0.0654,-0.0532 -0.13187,-0.1057 -0.19693,-0.15926 -0.0565,-0.0468 -0.11084,-0.095 -0.16527,-0.14326 a 12.09081,10.550512 0 0 1 -0.1877,-0.1717 c -0.0438,-0.0403 -0.0872,-0.0804 -0.13019,-0.12071 -0.0655,-0.0614 -0.12925,-0.12356 -0.19311,-0.18569 -0.0466,-0.0454 -0.0937,-0.09 -0.13912,-0.1361 -0.0548,-0.0564 -0.10847,-0.11358 -0.16209,-0.17069 -0.0458,-0.0489 -0.092,-0.0974 -0.13742,-0.14631 -0.0536,-0.0582 -0.10561,-0.11677 -0.15761,-0.17569 -0.0552,-0.0639 -0.11126,-0.12742 -0.16484,-0.19243 -0.0467,-0.0575 -0.0917,-0.1157 -0.13795,-0.17355 -0.0377,-0.0471 -0.0766,-0.0936 -0.11139,-0.14212 -0.0299,-0.0439 -0.0587,-0.0877 -0.0911,-0.12988 z"
         style="display:inline;fill:#76b900;fill-opacity:1;stroke-width:0.0109696;enable-background:new"
         id="path40-3-5-2-1" />
      <path
         d="m 333.31408,242.75079 c -0.0953,-2.1e-4 -0.19018,0 -0.28512,0.003 -0.12727,0.005 -0.2545,0.0132 -0.38136,0.0164 -0.0888,0.003 -0.17686,0.005 -0.26484,0.0107 -0.16448,0.0203 -0.32893,0.0411 -0.49463,0.0532 -0.0937,0.008 -0.18789,0.0129 -0.28119,0.0186 -0.17431,0.0518 -0.35888,0.0631 -0.53768,0.0981 -0.063,0.01 -0.12651,0.0168 -0.18953,0.0239 -0.27456,0.0596 -0.54865,0.12035 -0.82444,0.17496 -0.0725,0.0203 -0.14611,0.0375 -0.21851,0.0564 -0.17924,0.0554 -0.35968,0.10775 -0.54013,0.15953 -0.16165,0.0418 -0.32071,0.0893 -0.47499,0.14897 -0.2369,0.0903 -0.47515,0.17772 -0.70839,0.27523 -0.23287,0.0964 -0.45659,0.20858 -0.68367,0.31535 -0.27827,0.15568 -0.56261,0.30779 -0.80939,0.50131 -0.0638,0.0318 -0.0268,0.0939 -0.0177,0.14283 0.45502,1.31255 1.26863,2.51826 2.29443,3.55235 0.51194,0.52056 1.07936,0.99769 1.67637,1.44367 0.50328,-5.7e-4 1.00706,0.005 1.51041,-0.004 l -0.0185,-0.0119 c -0.0483,-0.0343 -0.0948,-0.07 -0.14272,-0.10426 -0.0708,-0.0521 -0.14123,-0.10355 -0.21081,-0.1564 -0.0545,-0.0421 -0.10844,-0.0842 -0.16123,-0.12739 -0.0671,-0.0564 -0.13165,-0.11469 -0.19755,-0.17183 -0.0577,-0.0499 -0.11621,-0.0996 -0.17187,-0.15096 -0.0512,-0.0479 -0.0995,-0.0975 -0.14862,-0.14641 -0.0462,-0.0457 -0.0924,-0.0914 -0.13748,-0.13781 a 9.083055,7.925928 0 0 1 -0.15992,-0.17325 c -0.0585,-0.0643 -0.11622,-0.12919 -0.17349,-0.19381 -0.0372,-0.0418 -0.0729,-0.0851 -0.10687,-0.12826 -0.0475,-0.0596 -0.0962,-0.11819 -0.14159,-0.17853 -0.0507,-0.0675 -0.0989,-0.13608 -0.14846,-0.20424 -0.036,-0.05 -0.072,-0.10028 -0.1072,-0.15097 -0.0478,-0.0693 -0.0938,-0.13963 -0.13962,-0.20995 -0.0421,-0.0647 -0.0847,-0.1289 -0.12521,-0.19424 -0.0392,-0.0647 -0.0765,-0.12997 -0.11376,-0.19496 -0.0331,-0.0572 -0.0659,-0.11389 -0.0974,-0.17138 -0.0425,-0.0786 -0.0826,-0.15818 -0.12192,-0.23781 a 81.91821,71.48232 0 0 1 -0.0879,-0.17425 c -0.0336,-0.0679 -0.0676,-0.13532 -0.0974,-0.20424 -0.0336,-0.0771 -0.0672,-0.15396 -0.0995,-0.23109 -0.0347,-0.0828 -0.0655,-0.1667 -0.0941,-0.25094 -0.0168,-0.0468 -0.0335,-0.0936 -0.0503,-0.13997 -0.0332,-0.0839 -0.0598,-0.1696 -0.0766,-0.25708 0.88467,-0.53095 1.84749,-0.96344 2.86188,-1.27158 0.69771,-0.20673 1.41947,-0.36635 2.15562,-0.41704 l 0.0168,-0.006 v -0.98364 c -0.0905,-0.005 -0.1809,-0.009 -0.27089,-0.0111 -0.13462,0 -0.26888,0.001 -0.40314,0 z"
         style="display:inline;fill:#76b900;fill-opacity:1;stroke-width:0.0109696;enable-background:new"
         id="path38-6-6-9-2" />
    </g>
    <g
       style="display:inline"
       inkscape:label="Pictograms and folds"
       id="layer6"
       inkscape:groupmode="layer" />
    <g
       style="display:inline;opacity:1"
       inkscape:label="Borders"
       id="layer4"
       inkscape:groupmode="layer">
      <path
         sodipodi:nodetypes="sccsscsss"
         inkscape:connector-curvature="0"
         id="path931"
         d="m 78.92188,43.999698 c -35.296728,0 -39.09487,3.62603 -38.92188,38.99414 v 2 c -0.17299,-35.36811 3.625152,-38.99414 38.92188,-38.99414 h 146.15624 c 35.29673,0 38.92188,3.62561 38.92188,38.99414 v -2 c 0,-35.36853 -3.62515,-38.99414 -38.92188,-38.99414 z"
         style="color:#000000;display:inline;overflow:visible;visibility:visible;opacity:0.3;fill:#000000;fill-opacity:1;fill-rule:nonzero;stroke:none;stroke-width:1;marker:none;enable-background:accumulate" />
      <path
         sodipodi:nodetypes="sccsscsss"
         inkscape:connector-curvature="0"
         id="path931-8"
         d="m 78.92728,267.9997 c -35.296731,0 -39.094875,-3.62603 -38.921885,-38.99414 v -2 c -0.17299,35.36811 3.625154,38.99414 38.921885,38.99414 h 146.15624 c 35.29673,0 38.92188,-3.62561 38.92188,-38.99414 v 2 c 0,35.36853 -3.62515,38.99414 -38.92188,38.99414 z"
         style="color:#000000;display:inline;overflow:visible;visibility:visible;opacity:0.2;fill:#000000;fill-opacity:1;fill-rule:nonzero;stroke:none;stroke-width:1;marker:none;enable-background:accumulate" />
      <path
         sodipodi:nodetypes="scccssscsss"
         inkscape:connector-curvature="0"
         id="path958"
         d="m 333.33517,61.500047 c -10.01116,0 -11.88667,0.90635 -11.83407,9.74838 V 84 96.75181 c -0.0527,8.84203 1.82291,9.74838 11.83407,9.74838 h 21.3308 c 10.00866,0 11.83405,-0.90625 11.83405,-9.74838 V 84 71.248427 c 0,-8.84213 -1.82539,-9.74838 -11.83406,-9.74838 z"
         style="color:#000000;display:inline;overflow:visible;visibility:visible;opacity:0.4;fill:none;fill-opacity:1;fill-rule:nonzero;stroke:#000000;stroke-width:1;stroke-miterlimit:4;stroke-dasharray:none;stroke-opacity:1;marker:none;enable-background:accumulate" />
      <path
         sodipodi:nodetypes="scccssscsss"
         inkscape:connector-curvature="0"
         id="path958-1"
         d="m 329.12711,133.5 c -6.45163,0 -7.6603,0.58409 -7.62639,6.28227 v 8.21765 8.21781 c -0.034,5.69818 1.17476,6.28227 7.62639,6.28227 h 13.74651 c 6.45003,0 7.62639,-0.58403 7.62639,-6.28227 v -8.21781 -8.21765 c 0,-5.69824 -1.17636,-6.28227 -7.62639,-6.28227 z"
         style="color:#000000;display:inline;overflow:visible;visibility:visible;opacity:0.4;fill:none;fill-opacity:1;fill-rule:nonzero;stroke:#000000;stroke-width:1;stroke-miterlimit:4;stroke-dasharray:none;stroke-opacity:1;marker:none;enable-background:accumulate" />
      <path
         sodipodi:nodetypes="scccssscsss"
         inkscape:connector-curvature="0"
         id="path958-6"
         d="m 337.97659,211.50015 c 4.67187,0 5.5471,-0.42296 5.52255,-4.54923 v -7.95037 -5.95084 c 0.0245,-4.12627 -0.85068,-4.54923 -5.52255,-4.54923 h -11.95364 c -4.67071,0 -5.52256,0.42291 -5.52256,4.54923 v 5.95084 7.95037 c 0,4.12632 0.85185,4.54923 5.52256,4.54923 z"
         style="color:#000000;display:inline;overflow:visible;visibility:visible;opacity:0.4;fill:none;fill-opacity:1;fill-rule:nonzero;stroke:#000000;stroke-width:0.99999994;stroke-miterlimit:4;stroke-dasharray:none;stroke-opacity:1;marker:none;enable-background:accumulate" />
      <path
         sodipodi:nodetypes="scccssscsss"
         inkscape:connector-curvature="0"
         id="path958-6-0"
         d="m 331.55494,251.5 c 3.33705,0 3.96221,-0.30212 3.94468,-3.24946 v -4.2505 -4.25059 c 0.0175,-2.94734 -0.60763,-3.24945 -3.94468,-3.24945 h -7.11025 c -3.33622,0 -3.94469,0.30208 -3.94469,3.24945 v 4.25059 4.2505 c 0,2.94738 0.60847,3.24946 3.94469,3.24946 z"
         style="color:#000000;display:inline;overflow:visible;visibility:visible;opacity:0.4;fill:none;fill-opacity:1;fill-rule:nonzero;stroke:#000000;stroke-width:1;stroke-miterlimit:4;stroke-dasharray:none;stroke-opacity:1;marker:none;enable-background:accumulate" />
    </g>
    <g
       style="opacity:0.7"
       inkscape:label="Highlights"
       id="layer5"
       inkscape:groupmode="layer">
      <path
         inkscape:connector-curvature="0"
         id="path918-6"
         d="m 324.44531,237 c -1.65302,0 -2.54604,0.12548 -2.91601,0.41406 -0.18499,0.14429 -0.30479,0.33122 -0.39649,0.70313 C 321.0411,238.4891 321,239.03036 321,239.75 v 4.25 4.25 c 0,0.71964 0.0411,1.26082 0.13281,1.63281 0.0917,0.37191 0.2115,0.55884 0.39649,0.70313 0.36997,0.28858 1.26299,0.41406 2.91601,0.41406 h 7.10938 c 1.65343,0 2.55203,-0.12511 2.92383,-0.41406 0.18589,-0.14448 0.30578,-0.33208 0.39648,-0.70313 0.0907,-0.37105 0.129,-0.90979 0.125,-1.6289 v -0.002 V 244 v -4.25195 -0.002 c 0.004,-0.71911 -0.0343,-1.25785 -0.125,-1.6289 -0.0907,-0.37105 -0.21059,-0.55865 -0.39648,-0.70313 C 334.10673,237.12512 333.20812,237 331.55469,237 Z m 5.32813,1.04688 c 1.10767,-3.4e-4 2.21363,0.008 3.32031,0.0449 0.26616,0.0599 0.75737,-0.0208 0.79297,0.3457 0.13405,1.84438 0.0662,3.68774 0.10156,5.53906 -0.0126,1.86745 0.0543,3.67031 -0.10351,5.49805 0.0642,0.42314 -0.43946,0.35577 -0.70313,0.42187 -3.43277,0.0703 -6.87577,0.0589 -10.29883,0.002 -0.22288,-0.0398 -0.55622,-3.2e-4 -0.71093,-0.1875 -0.19863,-1.12995 -0.12696,-2.26946 -0.16016,-3.41992 0.0138,-2.55648 -0.029,-5.10728 0.0898,-7.65625 -0.03,-0.2727 0.10944,-0.49629 0.40039,-0.48829 1.30659,-0.161 2.63265,-0.0636 3.94727,-0.0976 1.10718,0.006 2.21655,-0.002 3.32422,-0.002 z"
         style="display:inline;enable-background:accumulate;opacity:1;color:#000000;overflow:visible;visibility:visible;fill:url(#linearGradient1692-6);fill-opacity:1.0;fill-rule:nonzero;stroke:none;stroke-width:1;marker:none" />
      <path
         sodipodi:nodetypes="sccscsccsscccccccssccccccccccccccc"
         inkscape:connector-curvature="0"
         id="path914-6"
         d="m 326.02383,189.00048 c -2.32027,0 -3.60941,0.15494 -4.20703,0.62109 -0.29882,0.23308 -0.48964,0.54668 -0.625,1.09571 -0.13541,0.54902 -0.19141,1.31765 -0.19141,2.33203 v 5.95117 7.95084 c 0,1.01437 0.056,1.783 0.19141,2.33203 0.13536,0.54903 0.32618,0.86263 0.625,1.09571 0.59762,0.46615 1.88676,0.62109 4.20703,0.62109 h 11.9524 c 2.32085,0 3.61652,-0.15457 4.2168,-0.62109 0.30014,-0.23327 0.49095,-0.54754 0.625,-1.09571 0.13404,-0.54816 0.18764,-1.31623 0.18164,-2.33008 v -7.95279 -5.95312 c 0.006,-1.01386 -0.0476,-1.78191 -0.18164,-2.33008 -0.13406,-0.54817 -0.32486,-0.86244 -0.625,-1.09571 -0.60028,-0.46652 -1.89595,-0.62109 -4.2168,-0.62109 z m 4.95859,1.00977 c 1.5798,-0.002 4.16014,-3.9e-4 5.73991,0.0117 1.50021,0.0511 3.02236,-0.0712 4.5,0.28321 0.55111,0.0919 0.61303,0.71807 0.67773,1.16601 0.1117,4.30832 0.075,10.62608 0.0508,14.94108 -0.0716,0.99089 0.13687,2.07606 -0.30078,3.01366 -0.34356,0.40964 -0.9694,0.35958 -1.45117,0.45509 -3.95407,0.0823 -9.92936,0.0499 -13.89381,0.0371 -1.16908,-0.0622 -2.37292,0.11291 -3.51758,-0.22266 -0.57935,-0.098 -0.6137,-0.75914 -0.6875,-1.2207 -0.1146,-4.11835 -0.0751,-10.24472 -0.0547,-14.36881 0.0572,-1.06305 -0.0797,-2.16734 0.18164,-3.21485 0.10495,-0.6386 0.8614,-0.66043 1.36719,-0.74023 2.1305,-0.19658 5.24071,-0.10662 7.38828,-0.14062 z"
         style="display:inline;enable-background:accumulate;opacity:1;color:#000000;overflow:visible;visibility:visible;fill:url(#linearGradient1690-9);fill-opacity:1;fill-rule:nonzero;stroke:none;stroke-width:0.99999988;marker:none" />
      <path
         inkscape:connector-curvature="0"
         id="path964-7-2"
         d="m 329.12695,134 c -3.21072,0 -5.03255,0.19514 -5.9375,0.89844 -0.45247,0.35165 -0.74178,0.83286 -0.93359,1.61718 -0.19176,0.78433 -0.26386,1.85686 -0.25586,3.26368 v 0.002 8.21875 8.21875 0.002 c -0.008,1.40682 0.0641,2.47935 0.25586,3.26368 0.1918,0.78431 0.48112,1.26553 0.93359,1.61718 0.90496,0.7033 2.72678,0.89844 5.9375,0.89844 h 13.7461 c 3.20992,0 5.02461,-0.19551 5.92578,-0.89844 0.45058,-0.35146 0.73805,-0.83201 0.93164,-1.61718 C 349.9241,158.69918 350,157.62415 350,156.2168 V 148 139.7832 c 0,-1.40735 -0.0759,-2.48237 -0.26953,-3.26758 -0.19359,-0.78517 -0.48106,-1.26572 -0.93164,-1.61718 C 347.89766,134.19551 346.08297,134 342.87305,134 Z m 6.49805,1.04688 c 3.45647,0.0171 6.9142,-0.0268 10.36133,0.0918 0.8211,0.13276 1.80664,0.14835 2.39062,0.82617 0.67884,1.16473 0.51296,2.58781 0.56446,3.87305 0.0431,6.02893 0.0678,12.06719 -0.0332,18.08789 -0.0775,0.77792 -0.12055,1.67263 -0.67968,2.27539 -0.70249,0.51038 -1.61833,0.59683 -2.45899,0.67383 -4.04742,0.0864 -8.16222,0.0456 -12.24023,0.0606 -2.45188,-0.0199 -4.91402,0.0317 -7.35352,-0.0606 -0.87784,-0.12055 -1.915,-0.14021 -2.56055,-0.83398 -0.64775,-1.02591 -0.50264,-2.30525 -0.56054,-3.46485 -0.035,-5.65575 -0.0351,-11.35518 0,-17.00976 0.0632,-1.22153 -0.10864,-2.57724 0.59179,-3.65235 0.6025,-0.62665 1.55621,-0.63986 2.35938,-0.77344 2.73743,-0.10739 5.48083,-0.0704 8.22656,-0.0918 0.46403,-2.9e-4 0.92855,-0.002 1.39258,-0.002 z"
         style="display:inline;enable-background:accumulate;opacity:1;color:#000000;overflow:visible;visibility:visible;fill:url(#linearGradient1688-4);fill-opacity:1;fill-rule:nonzero;stroke:none;stroke-width:1;marker:none" />
      <path
         inkscape:connector-curvature="0"
         id="path964-3"
         d="m 333.33594,62 c -4.99049,0 -7.87051,0.276282 -9.38477,1.453125 -0.75713,0.588421 -1.23761,1.403518 -1.54492,2.660156 -0.3073,1.256638 -0.4173,2.940031 -0.4043,5.132813 V 84 96.753906 c -0.0131,2.19278 0.097,3.876174 0.4043,5.132814 0.30731,1.25663 0.78779,2.07172 1.54492,2.66016 1.51427,1.17683 4.39428,1.45312 9.38477,1.45312 h 21.33008 c 4.98923,0 7.85502,-0.27668 9.36328,-1.45312 0.75412,-0.58824 1.23293,-1.40461 1.54297,-2.66211 C 365.8823,100.62727 366,98.945281 366,96.751953 V 84 71.248047 c 0,-2.193329 -0.1177,-3.875313 -0.42773,-5.132813 -0.31004,-1.257499 -0.78884,-2.073874 -1.54297,-2.662109 C 362.52104,62.276656 359.65526,62 354.66602,62 Z m 2.40234,1.097656 c 6.94737,8.3e-4 13.91063,0.0034 20.84961,0.05469 2.14296,0.08293 4.46431,-0.147701 6.42383,0.93164 1.29609,0.695228 1.54862,2.250325 1.76953,3.564454 0.17551,2.202888 0.0915,4.442228 0.13867,6.669921 0.0227,8.479532 0.077,16.968993 -0.0801,25.447266 -0.16151,1.483233 -0.38135,3.305793 -1.79882,4.142573 -1.6055,0.82871 -3.47551,0.90643 -5.24805,0.95313 -9.49974,0.0678 -19.0243,0.0843 -28.52344,-0.0176 -1.57816,-0.11413 -3.27053,-0.24014 -4.63281,-1.12109 -1.22952,-0.99538 -1.36082,-2.72739 -1.50391,-4.193361 -0.1272,-8.998585 -0.0836,-18.004484 -0.0527,-27.007813 0.0997,-2.381275 -0.24538,-4.900002 0.70508,-7.160156 0.67165,-1.50972 2.46573,-1.859954 3.93945,-2.05664 2.66168,-0.316582 5.34184,-0.147022 8.01367,-0.207032 z"
         style="display:inline;enable-background:accumulate;opacity:1;color:#000000;overflow:visible;visibility:visible;fill:url(#linearGradient1686-0);fill-opacity:1;fill-rule:nonzero;stroke:none;stroke-width:1;marker:none" />
    </g>
  </g>
</svg>
